<svg width="14" height="14" viewBox="0 0 14 14" fill="none" xmlns="http://www.w3.org/2000/svg">
<path d="M1.66667 13.3333C1.20833 13.3333 0.815972 13.1701 0.489583 12.8438C0.163194 12.5174 0 12.125 0 11.6667C0 11.2083 0.163194 10.816 0.489583 10.4896C0.815972 10.1632 1.20833 10 1.66667 10C2.125 10 2.51736 10.1632 2.84375 10.4896C3.17014 10.816 3.33333 11.2083 3.33333 11.6667C3.33333 12.125 3.17014 12.5174 2.84375 12.8438C2.51736 13.1701 2.125 13.3333 1.66667 13.3333ZM6.66667 13.3333C6.20833 13.3333 5.81597 13.1701 5.48958 12.8438C5.16319 12.5174 5 12.125 5 11.6667C5 11.2083 5.16319 10.816 5.48958 10.4896C5.81597 10.1632 6.20833 10 6.66667 10C7.125 10 7.51736 10.1632 7.84375 10.4896C8.17014 10.816 8.33333 11.2083 8.33333 11.6667C8.33333 12.125 8.17014 12.5174 7.84375 12.8438C7.51736 13.1701 7.125 13.3333 6.66667 13.3333ZM11.6667 13.3333C11.2083 13.3333 10.816 13.1701 10.4896 12.8438C10.1632 12.5174 10 12.125 10 11.6667C10 11.2083 10.1632 10.816 10.4896 10.4896C10.816 10.1632 11.2083 10 11.6667 10C12.125 10 12.5174 10.1632 12.8438 10.4896C13.1701 10.816 13.3333 11.2083 13.3333 11.6667C13.3333 12.125 13.1701 12.5174 12.8438 12.8438C12.5174 13.1701 12.125 13.3333 11.6667 13.3333ZM1.66667 8.33333C1.20833 8.33333 0.815972 8.17014 0.489583 7.84375C0.163194 7.51736 0 7.125 0 6.66667C0 6.20833 0.163194 5.81597 0.489583 5.48958C0.815972 5.16319 1.20833 5 1.66667 5C2.125 5 2.51736 5.16319 2.84375 5.48958C3.17014 5.81597 3.33333 6.20833 3.33333 6.66667C3.33333 7.125 3.17014 7.51736 2.84375 7.84375C2.51736 8.17014 2.125 8.33333 1.66667 8.33333ZM6.66667 8.33333C6.20833 8.33333 5.81597 8.17014 5.48958 7.84375C5.16319 7.51736 5 7.125 5 6.66667C5 6.20833 5.16319 5.81597 5.48958 5.48958C5.81597 5.16319 6.20833 5 6.66667 5C7.125 5 7.51736 5.16319 7.84375 5.48958C8.17014 5.81597 8.33333 6.20833 8.33333 6.66667C8.33333 7.125 8.17014 7.51736 7.84375 7.84375C7.51736 8.17014 7.125 8.33333 6.66667 8.33333ZM11.6667 8.33333C11.2083 8.33333 10.816 8.17014 10.4896 7.84375C10.1632 7.51736 10 7.125 10 6.66667C10 6.20833 10.1632 5.81597 10.4896 5.48958C10.816 5.16319 11.2083 5 11.6667 5C12.125 5 12.5174 5.16319 12.8438 5.48958C13.1701 5.81597 13.3333 6.20833 13.3333 6.66667C13.3333 7.125 13.1701 7.51736 12.8438 7.84375C12.5174 8.17014 12.125 8.33333 11.6667 8.33333ZM1.66667 3.33333C1.20833 3.33333 0.815972 3.17014 0.489583 2.84375C0.163194 2.51736 0 2.125 0 1.66667C0 1.20833 0.163194 0.815972 0.489583 0.489583C0.815972 0.163194 1.20833 0 1.66667 0C2.125 0 2.51736 0.163194 2.84375 0.489583C3.17014 0.815972 3.33333 1.20833 3.33333 1.66667C3.33333 2.125 3.17014 2.51736 2.84375 2.84375C2.51736 3.17014 2.125 3.33333 1.66667 3.33333ZM6.66667 3.33333C6.20833 3.33333 5.81597 3.17014 5.48958 2.84375C5.16319 2.51736 5 2.125 5 1.66667C5 1.20833 5.16319 0.815972 5.48958 0.489583C5.81597 0.163194 6.20833 0 6.66667 0C7.125 0 7.51736 0.163194 7.84375 0.489583C8.17014 0.815972 8.33333 1.20833 8.33333 1.66667C8.33333 2.125 8.17014 2.51736 7.84375 2.84375C7.51736 3.17014 7.125 3.33333 6.66667 3.33333ZM11.6667 3.33333C11.2083 3.33333 10.816 3.17014 10.4896 2.84375C10.1632 2.51736 10 2.125 10 1.66667C10 1.20833 10.1632 0.815972 10.4896 0.489583C10.816 0.163194 11.2083 0 11.6667 0C12.125 0 12.5174 0.163194 12.8438 0.489583C13.1701 0.815972 13.3333 1.20833 13.3333 1.66667C13.3333 2.125 13.1701 2.51736 12.8438 2.84375C12.5174 3.17014 12.125 3.33333 11.6667 3.33333Z" fill="white"/>
</svg>
