<svg width="260" height="276" viewBox="0 0 260 276" fill="none" xmlns="http://www.w3.org/2000/svg">
<g opacity="0.2">
<path d="M53.2315 238.42C52.8999 236.642 50.5446 233.332 50.5446 233.332C50.5446 233.332 48.8296 235.544 48.7438 235.699C47.7034 237.482 46.7429 241.541 48.2865 243.262C48.5508 243.541 48.8707 243.76 49.2255 243.907C49.5803 244.054 49.962 244.125 50.3458 244.115C50.7297 244.104 51.1071 244.013 51.4535 243.848C51.8 243.682 52.1077 243.446 52.3568 243.153C53.4545 241.947 53.5173 239.935 53.2315 238.42Z" fill="black"/>
<path d="M30.9127 203.96C30.9127 203.914 28.2659 204.863 28.1058 204.937C26.2593 205.852 23.2179 208.705 23.5324 210.991C23.5979 211.367 23.7418 211.726 23.9547 212.043C24.1675 212.36 24.4446 212.629 24.768 212.832C25.0913 213.035 25.4537 213.168 25.8318 213.222C26.2098 213.276 26.595 213.251 26.9624 213.146C28.546 212.746 29.7065 211.106 30.3067 209.682C31.0556 208.019 30.9127 203.96 30.9127 203.96Z" fill="black"/>
<path d="M11.9443 202.204C13.0305 204.239 17.1694 204.731 19.2046 204.371C19.3761 204.337 22.063 203.531 22.063 203.496V203.451C22.7147 203.536 23.4179 203.616 24.1839 203.691C25.6017 203.811 27.2081 203.942 28.9632 203.959C30.854 204.001 32.7456 203.932 34.6285 203.754C36.7398 203.563 38.8293 203.18 40.8712 202.61H40.9455C40.3739 202.982 38.8303 204.074 38.716 204.171C37.1725 205.537 34.9944 209.093 35.9205 211.208C36.0868 211.554 36.3239 211.861 36.6164 212.109C36.9089 212.357 37.2503 212.541 37.6184 212.649C37.9865 212.756 38.3731 212.786 38.7533 212.735C39.1334 212.683 39.4986 212.553 39.8251 212.352C41.2428 211.551 41.9288 209.659 42.1118 208.133C42.3404 206.418 41.2485 202.799 41.1571 202.513C43.2232 201.885 45.2457 201.121 47.2111 200.226C48.3545 199.712 49.4979 199.157 50.6412 198.591C50.1667 198.929 49.738 199.232 49.6808 199.283C48.1373 200.649 45.9592 204.205 46.8853 206.32C47.0516 206.666 47.2887 206.973 47.5812 207.221C47.8737 207.469 48.2151 207.653 48.5832 207.761C48.9513 207.869 49.3379 207.898 49.7181 207.847C50.0982 207.796 50.4633 207.665 50.7898 207.464C52.2076 206.663 52.8936 204.771 53.0766 203.245C53.2595 201.718 52.4134 198.597 52.1676 197.78L53.471 197.116C55.5462 196.042 57.61 194.961 59.6737 193.966C60.3998 193.612 61.1258 193.292 61.8518 192.972C61.4231 193.269 61.0686 193.543 61.0172 193.543C59.4736 194.915 57.2955 198.471 58.2217 200.586C58.388 200.932 58.6251 201.239 58.9176 201.487C59.2101 201.735 59.5514 201.919 59.9196 202.027C60.2877 202.135 60.6743 202.164 61.0545 202.113C61.4346 202.062 61.7997 201.931 62.1262 201.73C63.544 200.924 64.23 199.037 64.4129 197.505C64.5959 195.973 63.8413 193.16 63.5497 192.194C64.3043 191.885 65.0589 191.571 65.8021 191.308C66.3166 191.142 66.7968 190.942 67.3228 190.799L68.8549 190.353C69.8382 190.102 70.8558 189.839 71.8219 189.622C72.4908 189.467 73.1368 189.33 73.7828 189.187C73.0567 189.53 71.6447 190.228 71.5361 190.331C70.0465 191.37 68.8495 192.776 68.0602 194.412C67.888 194.52 67.7271 194.644 67.58 194.784C67.2923 195.038 67.0611 195.349 66.9015 195.699C66.7419 196.048 66.6575 196.426 66.6537 196.81C66.65 197.194 66.7269 197.574 66.8796 197.926C67.0323 198.279 67.2573 198.595 67.54 198.854C69.2894 200.369 73.3254 199.34 75.0919 198.283C75.1948 198.22 76.2353 197.408 76.9098 196.888C76.5668 197.254 76.2353 197.602 75.8923 197.985C75.2062 198.734 74.5431 199.5 73.8285 200.323L72.8338 201.633C72.4908 202.044 72.1763 202.519 71.8448 202.959C71.0902 204.005 70.3813 205.097 69.6895 206.217C69.0321 205.617 66.6654 203.525 65.1961 203.039C63.7269 202.553 61.7318 202.341 60.3883 203.268C60.0677 203.475 59.7939 203.747 59.5847 204.067C59.3755 204.386 59.2354 204.746 59.1735 205.123C59.1116 205.5 59.1292 205.885 59.2252 206.255C59.3212 206.625 59.4934 206.97 59.7309 207.269C61.2287 209.03 65.3791 208.624 67.2885 207.841C67.4085 207.79 68.712 207.069 69.4208 206.658C69.0092 207.332 68.5976 208.007 68.2032 208.704C67.0598 210.717 65.9851 212.786 64.8874 214.85C64.5559 215.484 64.2129 216.108 63.8756 216.736C63.6469 216.519 60.8857 213.969 59.2393 213.426C57.7758 212.94 55.7749 212.729 54.4314 213.655C54.1108 213.862 53.837 214.135 53.6278 214.454C53.4186 214.774 53.2785 215.133 53.2166 215.51C53.1547 215.887 53.1723 216.273 53.2683 216.642C53.3643 217.012 53.5366 217.358 53.774 217.657C55.2718 219.418 59.4222 219.012 61.3316 218.228C61.4745 218.166 63.3496 217.125 63.8127 216.839C63.0695 218.223 62.3092 219.589 61.526 220.91C60.4568 222.701 59.2708 224.419 57.9758 226.055C57.8672 225.952 55.0031 223.276 53.3167 222.716C51.8532 222.236 49.8523 222.024 48.5088 222.951C48.1875 223.157 47.9131 223.429 47.7033 223.749C47.4936 224.068 47.3532 224.428 47.2913 224.805C47.2293 225.182 47.2472 225.568 47.3436 225.938C47.4401 226.308 47.6131 226.653 47.8514 226.952C49.3492 228.713 53.4996 228.307 55.4033 227.524C55.5291 227.472 56.9583 226.684 57.6328 226.289L57.7186 226.392C56.369 228 54.8807 229.486 53.2709 230.834C52.3905 231.583 51.5102 232.252 50.6412 232.886C50.1553 232.315 47.92 229.834 46.4622 229.159C45.0045 228.484 43.0951 228.09 41.6544 228.862C41.3107 229.033 41.0067 229.274 40.7622 229.57C40.5177 229.866 40.3381 230.21 40.2351 230.579C40.1322 230.949 40.1081 231.336 40.1645 231.716C40.2209 232.096 40.3565 232.459 40.5625 232.783C41.8545 234.698 46.0278 234.75 47.9943 234.173C48.0972 234.144 49.1377 233.704 49.9266 233.372C49.5322 233.652 49.1263 233.944 48.7375 234.207C47.2912 235.184 45.8791 235.996 44.6672 236.699C43.964 237.094 43.318 237.437 42.712 237.751C41.9574 237.46 38.8932 236.305 37.3154 236.385C35.7375 236.465 33.8339 236.985 32.9135 238.334C32.6839 238.645 32.5224 239 32.4398 239.377C32.3572 239.754 32.3552 240.144 32.4341 240.522C32.5129 240.9 32.6707 241.257 32.8971 241.57C33.1236 241.882 33.4136 242.143 33.7481 242.336C35.7833 243.439 39.5049 241.564 40.997 240.135C41.1285 240.015 42.9293 237.848 42.8892 237.848H42.8435C43.4152 237.557 44.0612 237.237 44.7415 236.877C45.9935 236.196 47.3998 235.419 48.8747 234.464C50.4768 233.457 52.0191 232.357 53.4939 231.171C55.1439 229.847 56.6743 228.379 58.0673 226.786C58.084 226.767 58.0992 226.746 58.113 226.724C57.8444 227.347 57.1526 229.113 57.1126 229.25C56.5809 231.246 56.7239 235.413 58.6676 236.682C58.9966 236.88 59.3635 237.007 59.7446 237.055C60.1257 237.102 60.5126 237.069 60.88 236.957C61.2475 236.846 61.5875 236.658 61.878 236.407C62.1685 236.156 62.403 235.846 62.5664 235.499C63.3039 234.047 62.8351 232.069 62.1605 230.702C61.4002 229.136 58.4961 226.735 58.2674 226.541C59.6478 224.883 60.9159 223.136 62.0633 221.31C62.7379 220.252 63.3839 219.16 64.0185 218.063C63.8013 218.606 63.6126 219.097 63.5954 219.166C63.0638 221.161 63.2067 225.329 65.1447 226.598C65.4731 226.797 65.8398 226.925 66.2208 226.973C66.6019 227.021 66.9889 226.989 67.3566 226.878C67.7243 226.767 68.0645 226.58 68.3551 226.328C68.6458 226.077 68.8803 225.768 69.0435 225.42C69.7867 223.962 69.3122 221.99 68.6434 220.624C67.9745 219.257 65.522 217.114 64.8703 216.565C65.1104 216.142 65.3562 215.719 65.5906 215.296C66.734 213.255 67.8773 211.214 69.0207 209.247C69.4323 208.55 69.861 207.881 70.2898 207.212C70.0954 207.698 69.9411 208.104 69.9239 208.173C69.3923 210.168 69.5352 214.335 71.4789 215.604C71.8072 215.803 72.1738 215.931 72.5547 215.979C72.9356 216.026 73.3223 215.993 73.6896 215.882C74.0569 215.77 74.3966 215.582 74.6865 215.331C74.9763 215.079 75.2099 214.769 75.372 214.421C76.1152 212.969 75.6464 210.991 74.9719 209.63C74.2973 208.27 72.1135 206.326 71.3188 205.669C71.7762 205 72.2335 204.32 72.7137 203.691C73.0453 203.268 73.3368 202.833 73.697 202.427L74.7317 201.21C75.412 200.461 76.1152 199.677 76.8012 198.963C77.2757 198.46 77.7331 197.991 78.1961 197.517C77.7788 198.203 76.9899 199.563 76.9384 199.683C76.1095 201.575 75.6178 205.72 77.35 207.252C77.6443 207.499 77.9872 207.68 78.3562 207.786C78.7253 207.891 79.1125 207.918 79.4925 207.864C79.8725 207.81 80.237 207.677 80.5622 207.473C80.8875 207.269 81.1662 206.999 81.3804 206.681C82.3351 205.354 82.1636 203.353 81.7062 201.878C81.2089 200.255 78.8135 197.539 78.5105 197.196C79.2766 196.419 80.0312 195.664 80.7572 194.967C83.2326 192.56 85.3878 190.645 86.9256 189.324L86.0453 188.027L85.9424 188.112C84.416 189.49 82.2607 191.485 79.7911 193.995C79.0079 194.784 78.1904 195.641 77.3558 196.533C76.3869 195.886 75.383 195.292 74.3487 194.755C74.7432 193.04 74.2801 189.702 74.2172 189.273C75.292 189.044 76.3324 188.833 77.3214 188.65C80.7572 187.912 83.6156 187.512 85.5993 187.255L84.6332 185.831C82.6666 186.14 80.0598 186.58 77.0699 187.221C75.9837 187.444 74.8232 187.712 73.6398 187.992C73.4741 187.581 72.0734 184.231 70.8329 183.07C69.6895 182.018 67.9745 180.989 66.3681 181.264C65.987 181.317 65.6213 181.449 65.2947 181.652C64.9681 181.855 64.6879 182.125 64.4723 182.444C64.2566 182.762 64.1104 183.123 64.0431 183.501C63.9757 183.88 63.9888 184.269 64.0814 184.642C64.7045 186.866 68.6548 188.238 70.7071 188.318C70.8272 188.318 72.1535 188.227 72.9938 188.152L71.5418 188.507C70.5585 188.753 69.5809 189.027 68.529 189.319L67.0084 189.799C66.4939 189.953 65.9736 190.176 65.4477 190.371C64.2472 190.828 63.0524 191.348 61.8575 191.903C61.6403 191.039 60.8228 187.987 59.8624 186.758C58.902 185.528 57.3584 184.265 55.7291 184.299C55.3447 184.293 54.9632 184.367 54.6096 184.518C54.256 184.669 53.9382 184.893 53.6771 185.176C53.4159 185.458 53.2173 185.792 53.0941 186.156C52.9709 186.52 52.926 186.906 52.9622 187.289C53.2366 189.576 56.924 191.531 58.9534 191.926C59.0792 191.926 60.5655 192.068 61.383 192.12C60.6684 192.457 59.9481 192.789 59.2393 193.155C57.1812 194.207 55.1346 195.333 53.0823 196.453C52.4591 196.796 51.8246 197.128 51.1957 197.465C51.1271 197.156 50.2296 193.509 49.1606 192.148C48.2059 190.937 46.6566 189.656 45.0216 189.685C44.6377 189.68 44.257 189.756 43.9043 189.907C43.5515 190.059 43.2345 190.283 42.9737 190.565C42.7129 190.846 42.5142 191.18 42.3903 191.543C42.2665 191.907 42.2203 192.292 42.2547 192.674C42.5348 194.961 46.2221 196.922 48.2459 197.316C48.4002 197.345 50.5326 197.511 51.1043 197.528C49.7208 198.265 48.3373 198.991 46.9367 199.655C45.0556 200.552 43.1195 201.329 41.1399 201.981C41.1056 201.838 40.1909 198.025 39.0933 196.63C38.1386 195.418 36.5836 194.138 34.9543 194.166C34.5683 194.158 34.1847 194.23 33.8287 194.38C33.4728 194.53 33.1526 194.754 32.8891 195.036C32.6257 195.318 32.4249 195.653 32.3 196.019C32.1751 196.384 32.129 196.772 32.1646 197.156C32.4447 199.443 36.1263 201.404 38.1558 201.798C38.2872 201.798 39.9165 201.953 40.694 201.993V202.124C38.6809 202.723 36.6186 203.142 34.5313 203.376C33.3879 203.519 32.2846 203.593 31.2041 203.639C31.107 202.907 30.6325 199.592 29.7749 198.225C28.9174 196.859 27.5911 195.476 25.9447 195.344C25.5638 195.296 25.1771 195.328 24.8097 195.44C24.4422 195.551 24.1024 195.738 23.8122 195.99C23.522 196.241 23.2881 196.551 23.1256 196.898C22.9631 197.246 22.8757 197.624 22.8691 198.008C22.8691 200.323 26.3449 202.667 28.3114 203.279C28.4201 203.313 29.5463 203.531 30.3695 203.679C29.8836 203.679 29.3862 203.714 28.9174 203.719C27.2024 203.719 25.5674 203.645 24.1496 203.553C23.3436 203.491 22.6175 203.422 21.9372 203.353C21.4685 202.69 19.5476 200.038 18.1927 199.232C16.8379 198.425 14.957 197.808 13.4421 198.426C13.0837 198.56 12.7575 198.768 12.4843 199.037C12.2112 199.305 11.9972 199.627 11.8562 199.983C11.7151 200.339 11.6501 200.72 11.6652 201.103C11.6804 201.486 11.7755 201.861 11.9443 202.204Z" fill="black"/>
</g>
<g opacity="0.2">
<path d="M189.107 40.7222C190.182 42.18 193.738 44.1523 193.743 44.1523C193.749 44.1523 194.315 41.4139 194.315 41.2367C194.475 39.1787 193.572 35.1026 191.457 34.2279C191.098 34.092 190.714 34.0332 190.331 34.0553C189.948 34.0775 189.574 34.18 189.233 34.3564C188.892 34.5328 188.592 34.7789 188.353 35.0789C188.114 35.3788 187.94 35.7259 187.844 36.0973C187.369 37.6466 188.192 39.4817 189.107 40.7222Z" fill="black"/>
<path d="M224.203 62.0347C224.203 62.069 226.193 60.0681 226.301 59.9252C227.57 58.2959 229.068 54.4085 227.765 52.4934C227.54 52.1816 227.253 51.9205 226.921 51.7273C226.589 51.5341 226.22 51.4131 225.838 51.3721C225.456 51.3311 225.07 51.371 224.704 51.4894C224.339 51.6077 224.003 51.8018 223.717 52.0589C222.465 53.1051 222.139 55.0888 222.219 56.6324C222.311 58.4389 224.203 62.029 224.203 62.0347Z" fill="black"/>
<path d="M242.051 55.3571C240.182 53.9965 236.243 55.3571 234.568 56.5691C234.425 56.672 232.355 58.57 232.39 58.5928H232.435C231.812 58.8044 231.143 59.0388 230.423 59.3074C229.091 59.8105 227.593 60.3993 226.004 61.1425C224.282 61.9278 222.608 62.8136 220.99 63.7951C219.168 64.882 217.446 66.1294 215.845 67.5225L215.794 67.5796C216.143 67.0079 217.063 65.3444 217.12 65.2072C217.915 63.3035 218.326 59.1531 216.549 57.6496C216.25 57.411 215.905 57.2377 215.535 57.1407C215.166 57.0438 214.78 57.0255 214.403 57.0869C214.026 57.1483 213.666 57.2881 213.346 57.4973C213.026 57.7065 212.754 57.9804 212.547 58.3013C211.615 59.639 211.821 61.6399 212.307 63.1091C212.85 64.7555 215.405 67.5339 215.605 67.7511C214.019 69.2114 212.529 70.7735 211.146 72.4275C210.34 73.3879 209.551 74.3826 208.779 75.3888C209.065 74.8742 209.317 74.4169 209.351 74.3483C210.146 72.4446 210.563 68.2942 208.808 66.7907C208.509 66.5538 208.164 66.3819 207.794 66.286C207.425 66.1901 207.04 66.1722 206.663 66.2335C206.287 66.2948 205.927 66.434 205.607 66.6422C205.288 66.8503 205.015 67.1229 204.806 67.4424C203.88 68.7802 204.086 70.781 204.566 72.2502C205.046 73.7195 207.19 76.1434 207.762 76.7722C207.465 77.161 207.19 77.544 206.876 77.9156C205.475 79.7907 204.086 81.6601 202.668 83.4551C202.165 84.0897 201.651 84.6957 201.136 85.3017C201.393 84.8443 201.599 84.4613 201.628 84.3984C202.422 82.4947 202.84 78.3443 201.056 76.8408C200.758 76.6022 200.412 76.4289 200.043 76.332C199.673 76.2351 199.288 76.2167 198.91 76.2781C198.533 76.3395 198.173 76.4793 197.854 76.6885C197.534 76.8977 197.262 77.1716 197.054 77.4925C196.122 78.836 196.328 80.8311 196.814 82.3003C197.3 83.7696 199.227 85.9591 199.901 86.708C199.358 87.314 198.815 87.9199 198.261 88.4859C197.872 88.8575 197.523 89.2462 197.117 89.6007L195.917 90.7269C195.139 91.3786 194.339 92.0589 193.561 92.6763C193.03 93.1108 192.509 93.511 191.989 93.9169C192.492 93.2937 193.453 92.0532 193.521 91.9388C194.41 90.3553 194.877 88.5697 194.876 86.7537C194.985 86.5829 195.075 86.4008 195.145 86.2106C195.295 85.8578 195.369 85.4774 195.362 85.0941C195.356 84.7109 195.269 84.3332 195.107 83.9856C194.946 83.6381 194.713 83.3283 194.424 83.0764C194.135 82.8245 193.796 82.6361 193.43 82.5233C191.195 81.9516 188.005 84.6099 186.884 86.3421C186.816 86.445 186.221 87.6341 185.861 88.3887C186.004 87.9142 186.152 87.4512 186.295 86.9595C186.587 85.9877 186.867 85.0044 187.136 83.9525C187.256 83.438 187.376 82.9235 187.502 82.3975C187.627 81.8716 187.707 81.3171 187.816 80.774C188.039 79.5048 188.199 78.2129 188.336 76.9037C189.188 77.1552 192.229 78.0128 193.761 77.8127C195.294 77.6126 197.191 76.9323 197.992 75.526C198.193 75.1995 198.324 74.8343 198.375 74.4542C198.426 74.074 198.397 73.6874 198.289 73.3193C198.181 72.9512 197.997 72.6098 197.749 72.3173C197.501 72.0248 197.194 71.7877 196.848 71.6214C194.733 70.6896 191.177 72.8619 189.805 74.4055C189.72 74.5027 188.856 75.7203 188.399 76.3949C188.473 75.6117 188.553 74.8228 188.605 74.0224C188.748 71.7357 188.822 69.3804 188.908 67.048C188.936 66.3334 188.971 65.6245 188.999 64.9099C189.302 65.0071 192.898 66.099 194.613 65.876C196.145 65.6759 198.043 64.9899 198.844 63.5893C199.045 63.2628 199.175 62.8977 199.227 62.5175C199.278 62.1374 199.248 61.7507 199.141 61.3826C199.033 61.0145 198.849 60.6732 198.601 60.3807C198.353 60.0882 198.046 59.8511 197.7 59.6847C195.585 58.7529 192.024 60.9253 190.651 62.4688C190.549 62.5832 189.314 64.3382 189.016 64.7956C189.091 63.2292 189.171 61.6685 189.319 60.1307C189.506 58.0522 189.827 55.9879 190.28 53.9508C190.423 53.9965 194.167 55.1571 195.928 54.9284C197.454 54.7283 199.358 54.0423 200.153 52.6417C200.355 52.3154 200.486 51.9502 200.538 51.5699C200.589 51.1895 200.56 50.8026 200.453 50.4342C200.345 50.0658 200.16 49.7243 199.912 49.4319C199.663 49.1395 199.356 48.9028 199.009 48.7371C196.894 47.8053 193.333 49.9776 191.961 51.5212C191.869 51.6184 190.926 52.9561 190.497 53.6021L190.377 53.5506C190.888 51.5127 191.58 49.5248 192.447 47.6109C192.91 46.5533 193.413 45.57 193.921 44.621C194.596 44.9069 197.695 46.1874 199.301 46.1531C200.907 46.1188 202.8 45.6558 203.76 44.3352C203.994 44.0317 204.162 43.6824 204.253 43.31C204.344 42.9375 204.355 42.5501 204.287 42.1729C204.219 41.7956 204.072 41.437 203.856 41.1201C203.64 40.8033 203.36 40.5352 203.034 40.3334C201.039 39.1901 197.26 40.9394 195.728 42.3229C195.642 42.3972 194.882 43.2547 194.333 43.8836C194.567 43.4605 194.808 43.0203 195.042 42.6144C195.917 41.1052 196.814 39.756 197.62 38.6127C198.078 37.9495 198.512 37.3607 198.918 36.8119C199.73 36.749 202.988 36.4517 204.377 35.6685C205.767 34.8853 207.236 33.6105 207.493 31.9984C207.563 31.6206 207.553 31.2322 207.463 30.8587C207.373 30.4851 207.205 30.1348 206.97 29.8305C206.736 29.5262 206.439 29.2749 206.101 29.0928C205.763 28.9108 205.39 28.8022 205.006 28.7741C202.72 28.6655 200.158 31.9755 199.432 33.9192C199.37 34.085 198.689 36.8119 198.735 36.8119H198.781C198.381 37.3321 197.952 37.8924 197.494 38.5269C196.666 39.6703 195.734 40.9966 194.825 42.5287C193.819 44.1305 192.91 45.7913 192.104 47.5023C191.189 49.4127 190.444 51.4004 189.88 53.442C189.88 53.442 189.88 53.4935 189.88 53.5163C189.851 52.8418 189.702 50.9552 189.674 50.8066C189.291 48.7828 187.347 45.0898 185.049 44.8097C184.666 44.7735 184.281 44.8183 183.916 44.9411C183.552 45.0639 183.218 45.262 182.936 45.5224C182.653 45.7829 182.429 46.0998 182.277 46.4528C182.125 46.8057 182.049 47.1867 182.053 47.5709C182.019 49.2002 183.3 50.7551 184.506 51.7098C185.872 52.7903 189.531 53.6936 189.823 53.7622C189.299 55.8551 188.917 57.9808 188.679 60.1249C188.536 61.3712 188.428 62.6346 188.336 63.898C188.29 63.3263 188.245 62.7947 188.233 62.7204C187.845 60.6909 185.901 57.0036 183.608 56.7177C183.226 56.6816 182.84 56.7264 182.476 56.8492C182.112 56.972 181.778 57.17 181.495 57.4305C181.212 57.6909 180.988 58.0079 180.836 58.3608C180.684 58.7138 180.608 59.0947 180.613 59.4789C180.579 61.1139 181.853 62.6632 183.065 63.6236C184.277 64.584 187.399 65.4244 188.21 65.6359C188.182 66.1218 188.142 66.6021 188.113 67.088C187.982 69.4261 187.85 71.7529 187.662 74.0339C187.593 74.8342 187.496 75.6231 187.399 76.4121C187.359 75.8976 187.324 75.4574 187.313 75.3945C186.924 73.365 184.98 69.6777 182.688 69.3918C182.305 69.3557 181.92 69.4005 181.555 69.5233C181.191 69.6461 180.857 69.8442 180.575 70.1046C180.292 70.365 180.067 70.682 179.915 71.0349C179.763 71.3879 179.687 71.7688 179.692 72.1531C179.658 73.7823 180.933 75.3373 182.139 76.292C183.345 77.2467 186.175 78.007 187.153 78.27C187.033 79.0704 186.913 79.8822 186.758 80.6539C186.644 81.1799 186.57 81.7001 186.421 82.2203L186.027 83.7696C185.735 84.7414 185.455 85.7476 185.135 86.6908C184.929 87.3483 184.717 87.9714 184.512 88.6002C184.586 87.7999 184.706 86.2335 184.7 86.102C184.62 84.0383 183.26 80.0937 181.036 79.4705C180.662 79.3761 180.273 79.3616 179.894 79.4282C179.514 79.4947 179.153 79.6408 178.834 79.8567C178.515 80.0726 178.245 80.3536 178.042 80.6811C177.84 81.0087 177.708 81.3754 177.657 81.7573C177.377 83.3637 178.4 85.0901 179.452 86.2221C180.596 87.4626 183.951 88.8689 184.369 89.0404C184.014 90.0809 183.666 91.087 183.317 92.0303C182.139 95.2717 181.03 97.9358 180.224 99.7937L181.579 100.577L181.63 100.457C182.408 98.5532 183.477 95.8205 184.609 92.4819C184.969 91.4301 185.335 90.2981 185.701 89.1319C186.854 89.3015 188.017 89.4008 189.182 89.4292C189.565 91.1442 191.44 93.9454 191.68 94.3113C190.817 94.9802 189.965 95.6262 189.159 96.2207C186.387 98.2788 184.014 99.8852 182.299 100.994L183.791 101.852C185.421 100.708 187.559 99.1992 189.994 97.3126C190.874 96.638 191.801 95.8949 192.75 95.1231C193.081 95.4204 195.797 97.8214 197.42 98.3302C198.895 98.7876 200.896 98.9648 202.222 98.0101C202.541 97.7959 202.811 97.5172 203.015 97.1919C203.218 96.8667 203.352 96.5022 203.406 96.1222C203.459 95.7422 203.433 95.355 203.327 94.986C203.222 94.6169 203.04 94.274 202.794 93.9797C201.262 92.2647 197.123 92.7278 195.225 93.5567C195.116 93.6024 193.962 94.2656 193.241 94.7001C193.63 94.3799 194.007 94.0769 194.385 93.7454C195.168 93.0936 195.922 92.4191 196.746 91.6987L197.889 90.6068C198.283 90.2467 198.655 89.8179 199.032 89.4235C199.913 88.4916 200.747 87.5026 201.599 86.485C202.171 87.1653 204.235 89.555 205.629 90.2352C207.024 90.9155 208.968 91.3786 210.42 90.6469C210.769 90.486 211.08 90.2532 211.333 89.9636C211.586 89.6741 211.775 89.3343 211.887 88.9667C211.999 88.5991 212.033 88.2119 211.985 87.8305C211.937 87.4491 211.809 87.0822 211.609 86.7537C210.363 84.81 206.195 84.6557 204.177 85.1873C204.052 85.2159 202.662 85.759 201.891 86.0734C202.388 85.456 202.891 84.8443 203.371 84.204C204.766 82.3632 206.115 80.4538 207.476 78.5559L208.734 76.8408C208.934 77.0866 211.323 79.9793 212.884 80.7397C214.268 81.42 216.223 81.883 217.68 81.157C218.028 80.9947 218.338 80.7612 218.59 80.4715C218.842 80.1817 219.03 79.8423 219.142 79.4752C219.254 79.1081 219.288 78.7215 219.241 78.3406C219.194 77.9596 219.067 77.5928 218.87 77.2639C217.618 75.3144 213.45 75.1658 211.438 75.6917C211.289 75.7318 209.288 76.515 208.791 76.7379C209.717 75.4688 210.649 74.2111 211.621 73.0106C212.92 71.3782 214.326 69.8332 215.828 68.3857C215.92 68.5 218.401 71.5356 220.001 72.3131C221.385 72.9877 223.34 73.4565 224.798 72.7305C225.146 72.5678 225.456 72.3336 225.708 72.0432C225.96 71.7528 226.147 71.4127 226.259 71.0449C226.371 70.6772 226.403 70.29 226.356 69.9087C226.308 69.5274 226.18 69.1604 225.981 68.8316C224.735 66.8879 220.567 66.7335 218.549 67.2652C218.418 67.2995 216.897 67.8941 216.177 68.1913L216.108 68.0827C217.655 66.6652 219.328 65.3909 221.105 64.2753C222.077 63.6465 223.037 63.0977 223.963 62.5889C224.369 63.2006 226.25 65.9789 227.611 66.8422C228.971 67.7054 230.8 68.3514 232.327 67.7797C232.691 67.6563 233.025 67.4578 233.307 67.197C233.59 66.9363 233.814 66.6191 233.966 66.2661C234.118 65.9131 234.194 65.5321 234.189 65.1478C234.185 64.7635 234.099 64.3845 233.939 64.0352C232.91 61.9657 228.794 61.3598 226.742 61.6628C226.633 61.6628 225.524 61.9772 224.718 62.2001C225.147 61.9772 225.587 61.7371 226.01 61.5313C227.576 60.7538 229.057 60.1421 230.372 59.6047C231.126 59.3074 231.807 59.033 232.453 58.8215C233.162 59.216 236.043 60.7652 237.598 60.9024C239.153 61.0396 241.125 60.7709 242.217 59.559C242.515 59.29 242.749 58.959 242.905 58.5893C243.061 58.2195 243.133 57.8201 243.117 57.4193C243.101 57.0184 242.998 56.626 242.813 56.2696C242.629 55.9133 242.369 55.6018 242.051 55.3571Z" fill="black"/>
</g>
<g opacity="0.2">
<path d="M211.14 200.895C209.848 200.826 207.139 201.907 207.139 201.907C207.139 201.907 208.391 203.467 208.482 203.559C209.551 204.582 212.209 205.943 213.673 205.159C213.913 205.023 214.121 204.837 214.283 204.614C214.446 204.391 214.56 204.137 214.618 203.867C214.676 203.597 214.676 203.318 214.618 203.048C214.561 202.779 214.447 202.524 214.285 202.301C213.633 201.335 212.244 200.952 211.14 200.895Z" fill="black"/>
<path d="M183.368 210.613C183.339 210.613 183.551 212.608 183.579 212.728C183.9 214.175 185.374 216.776 187.009 216.925C187.284 216.942 187.559 216.901 187.816 216.805C188.074 216.709 188.308 216.56 188.504 216.367C188.701 216.175 188.854 215.944 188.955 215.688C189.056 215.432 189.102 215.158 189.09 214.884C189.09 213.74 188.13 212.631 187.244 211.974C186.221 211.196 183.368 210.613 183.368 210.613Z" fill="black"/>
<path d="M178.938 223.527C180.539 223.116 181.579 220.314 181.671 218.834C181.671 218.708 181.573 216.696 181.545 216.707H181.511C181.676 216.267 181.854 215.792 182.031 215.272C182.357 214.306 182.717 213.209 183.031 211.991C183.378 210.674 183.649 209.337 183.843 207.989C184.07 206.487 184.162 204.968 184.117 203.45C184.117 203.45 184.117 203.416 184.117 203.399C184.283 203.856 184.775 205.114 184.826 205.211C185.518 206.52 187.627 208.641 189.257 208.349C189.527 208.294 189.782 208.183 190.006 208.022C190.23 207.862 190.417 207.656 190.556 207.418C190.695 207.18 190.782 206.915 190.811 206.641C190.84 206.367 190.811 206.09 190.726 205.828C190.412 204.685 189.205 203.907 188.176 203.507C187.033 203.056 184.317 203.21 184.106 203.221C184.016 201.686 183.825 200.158 183.534 198.648C183.368 197.762 183.18 196.876 182.963 195.984C183.117 196.378 183.26 196.727 183.283 196.773C183.974 198.082 186.084 200.203 187.713 199.911C187.983 199.855 188.238 199.744 188.461 199.583C188.684 199.422 188.872 199.216 189.01 198.978C189.149 198.741 189.236 198.476 189.265 198.203C189.295 197.929 189.267 197.652 189.182 197.39C188.868 196.247 187.668 195.469 186.633 195.069C185.598 194.669 183.288 194.743 182.677 194.778L182.437 193.754C182.036 192.131 181.636 190.507 181.293 188.906C181.173 188.335 181.07 187.763 180.967 187.22C181.105 187.563 181.225 187.855 181.248 187.9C181.939 189.209 184.043 191.33 185.678 191.039C185.948 190.983 186.202 190.871 186.426 190.71C186.649 190.55 186.836 190.344 186.975 190.106C187.114 189.868 187.2 189.604 187.23 189.33C187.26 189.057 187.232 188.78 187.147 188.518C186.827 187.374 185.627 186.597 184.598 186.197C183.569 185.797 181.476 185.865 180.75 185.899C180.664 185.328 180.573 184.756 180.516 184.184C180.516 183.801 180.43 183.43 180.419 183.041L180.367 181.898C180.367 181.172 180.367 180.417 180.367 179.708C180.367 179.211 180.367 178.742 180.396 178.268C180.51 178.839 180.756 179.931 180.79 180.023C181.264 181.234 182.04 182.304 183.043 183.133C183.09 183.269 183.149 183.401 183.22 183.527C183.348 183.771 183.526 183.985 183.742 184.155C183.959 184.325 184.208 184.448 184.475 184.516C184.742 184.583 185.02 184.593 185.292 184.546C185.563 184.499 185.821 184.395 186.05 184.242C187.399 183.281 187.365 180.297 186.919 178.885C186.919 178.799 186.507 177.93 186.25 177.387L186.821 178.279C187.227 178.885 187.65 179.474 188.102 180.114L188.805 181.052C189.028 181.36 189.308 181.658 189.56 181.966C190.16 182.664 190.8 183.344 191.463 184.013C190.937 184.373 189.08 185.665 188.491 186.608C187.902 187.552 187.422 188.895 187.839 189.993C187.928 190.253 188.071 190.493 188.258 190.694C188.446 190.896 188.674 191.056 188.927 191.164C189.181 191.272 189.454 191.325 189.73 191.32C190.005 191.316 190.276 191.253 190.526 191.136C192.007 190.393 192.424 187.432 192.195 185.991C192.195 185.899 191.898 184.848 191.732 184.31C192.132 184.71 192.532 185.111 192.95 185.499C194.162 186.643 195.419 187.74 196.671 188.849L197.815 189.873C197.626 189.998 195.385 191.485 194.722 192.542C194.15 193.48 193.653 194.829 194.07 195.927C194.159 196.187 194.302 196.427 194.49 196.628C194.677 196.83 194.905 196.99 195.158 197.098C195.412 197.206 195.685 197.259 195.961 197.254C196.236 197.25 196.508 197.187 196.757 197.07C198.238 196.327 198.655 193.366 198.432 191.925C198.432 191.816 198.003 190.336 197.861 189.964C198.695 190.713 199.524 191.473 200.307 192.251C201.372 193.3 202.366 194.417 203.286 195.595C203.2 195.652 200.85 197.196 200.176 198.276C199.604 199.214 199.107 200.563 199.524 201.661C199.613 201.921 199.756 202.16 199.943 202.362C200.131 202.564 200.359 202.724 200.612 202.832C200.866 202.94 201.139 202.993 201.415 202.988C201.69 202.984 201.961 202.921 202.211 202.804C203.692 202.061 204.109 199.099 203.88 197.659C203.88 197.562 203.56 196.43 203.4 195.898L203.48 195.852C204.375 197.062 205.159 198.35 205.824 199.7C206.201 200.443 206.516 201.169 206.807 201.884C206.344 202.124 204.223 203.256 203.509 204.17C202.794 205.085 202.24 206.205 202.525 207.349C202.586 207.618 202.703 207.871 202.867 208.091C203.032 208.312 203.242 208.496 203.482 208.63C203.723 208.764 203.989 208.846 204.264 208.871C204.538 208.895 204.815 208.862 205.075 208.772C206.63 208.201 207.362 205.302 207.305 203.822C207.305 203.742 207.173 202.93 207.07 202.335C207.196 202.661 207.333 202.993 207.453 203.307C207.888 204.479 208.214 205.594 208.499 206.56C208.654 207.132 208.785 207.629 208.9 208.103C208.568 208.578 207.247 210.522 207.036 211.631C206.824 212.74 206.864 214.157 207.648 215.026C207.825 215.237 208.045 215.407 208.292 215.527C208.54 215.647 208.81 215.713 209.085 215.722C209.36 215.731 209.634 215.681 209.888 215.577C210.143 215.473 210.373 215.317 210.563 215.118C211.678 213.889 210.998 210.979 210.26 209.698C210.197 209.584 208.997 207.983 208.98 207.983V208.012C208.877 207.549 208.762 207.057 208.625 206.526C208.362 205.537 208.054 204.422 207.648 203.233C207.214 201.949 206.706 200.691 206.127 199.465C205.485 198.088 204.72 196.772 203.84 195.532L203.806 195.486C204.195 195.778 205.304 196.561 205.401 196.63C206.699 197.339 209.626 197.945 210.826 196.807C211.02 196.611 211.17 196.377 211.267 196.12C211.365 195.862 211.407 195.587 211.391 195.312C211.376 195.038 211.303 194.769 211.177 194.524C211.051 194.28 210.875 194.064 210.66 193.891C209.774 193.131 208.334 193.125 207.23 193.36C206.013 193.623 203.846 195.241 203.674 195.372C202.754 194.13 201.752 192.952 200.673 191.845C200.05 191.193 199.398 190.559 198.741 189.93C199.084 190.176 199.393 190.387 199.438 190.41C200.736 191.119 203.663 191.725 204.864 190.587C205.058 190.392 205.21 190.159 205.308 189.901C205.407 189.644 205.45 189.369 205.434 189.094C205.419 188.819 205.346 188.55 205.22 188.305C205.095 188.06 204.918 187.844 204.704 187.672C203.817 186.911 202.377 186.906 201.273 187.14C200.17 187.374 198.301 188.718 197.809 189.078L197.043 188.363C195.82 187.22 194.585 186.077 193.413 184.933C193.001 184.527 192.607 184.116 192.212 183.704C192.515 183.921 192.784 184.099 192.818 184.122C194.116 184.83 197.043 185.436 198.244 184.293C198.438 184.098 198.59 183.864 198.688 183.607C198.786 183.35 198.83 183.075 198.814 182.799C198.799 182.524 198.726 182.256 198.6 182.011C198.475 181.766 198.298 181.55 198.083 181.377C197.192 180.617 195.751 180.617 194.653 180.852C193.556 181.086 191.869 182.298 191.28 182.727C190.892 182.292 190.497 181.858 190.137 181.417C189.903 181.114 189.651 180.846 189.428 180.52L188.805 179.605C188.399 179.005 187.97 178.382 187.587 177.787C187.319 177.37 187.073 176.97 186.821 176.57C187.227 176.976 188.039 177.753 188.119 177.81C189.291 178.708 192.092 179.748 193.453 178.805C193.675 178.642 193.86 178.434 193.997 178.195C194.133 177.955 194.217 177.69 194.243 177.416C194.27 177.141 194.238 176.865 194.15 176.604C194.062 176.343 193.92 176.103 193.733 175.901C192.973 175.009 191.549 174.792 190.446 174.86C189.234 174.935 186.93 176.141 186.644 176.295C186.233 175.626 185.832 174.975 185.472 174.352C184.215 172.225 183.243 170.396 182.585 169.104L181.533 169.498C181.546 169.528 181.562 169.556 181.579 169.584C182.277 170.881 183.294 172.717 184.632 174.86C185.049 175.541 185.507 176.255 185.987 176.987C185.37 177.547 184.784 178.141 184.232 178.765C183.117 178.193 180.704 177.959 180.396 177.925C180.396 177.141 180.447 176.381 180.481 175.638C180.613 173.162 180.813 171.11 180.973 169.664L179.83 170.098C179.71 171.516 179.578 173.391 179.515 175.598C179.487 176.392 179.475 177.244 179.475 178.119C179.161 178.17 176.588 178.576 175.571 179.262C174.645 179.868 173.638 180.897 173.558 182.063C173.531 182.338 173.562 182.614 173.648 182.876C173.735 183.137 173.876 183.378 174.061 183.581C174.246 183.785 174.472 183.948 174.725 184.058C174.977 184.169 175.25 184.226 175.525 184.224C177.177 184.167 178.801 181.658 179.207 180.223C179.207 180.137 179.384 179.199 179.475 178.605C179.475 178.959 179.475 179.308 179.475 179.674C179.475 180.406 179.51 181.132 179.533 181.909C179.561 182.286 179.584 182.669 179.613 183.052C179.641 183.435 179.698 183.836 179.738 184.23C179.853 185.145 180.013 186.065 180.196 186.991C179.555 186.991 177.292 187.048 176.285 187.512C175.279 187.975 174.124 188.838 173.873 189.975C173.803 190.242 173.791 190.52 173.836 190.792C173.881 191.064 173.983 191.323 174.135 191.553C174.287 191.783 174.486 191.978 174.719 192.126C174.951 192.274 175.212 192.371 175.485 192.411C177.131 192.605 179.115 190.364 179.727 189.021C179.767 188.935 180.104 187.923 180.299 187.363C180.413 187.935 180.522 188.472 180.653 189.027C181.042 190.639 181.482 192.256 181.911 193.874C182.042 194.366 182.168 194.863 182.299 195.355C182.071 195.355 179.378 195.355 178.252 195.875C177.246 196.338 176.091 197.202 175.839 198.345C175.771 198.611 175.759 198.889 175.804 199.16C175.85 199.431 175.952 199.69 176.104 199.919C176.256 200.148 176.455 200.343 176.687 200.49C176.919 200.637 177.18 200.734 177.452 200.775C179.098 200.969 181.076 198.734 181.693 197.384C181.739 197.287 182.219 195.824 182.322 195.446C182.602 196.538 182.894 197.625 183.1 198.711C183.408 200.172 183.622 201.652 183.74 203.141C183.631 203.141 180.825 203.141 179.664 203.661C178.658 204.125 177.509 204.988 177.252 206.125C177.183 206.392 177.171 206.671 177.217 206.943C177.263 207.215 177.365 207.474 177.518 207.703C177.671 207.933 177.87 208.128 178.103 208.276C178.335 208.423 178.597 208.521 178.869 208.561C180.51 208.755 182.494 206.514 183.111 205.171C183.151 205.085 183.517 203.97 183.683 203.456H183.774C183.853 204.957 183.798 206.463 183.609 207.955C183.511 208.778 183.374 209.561 183.226 210.316C182.705 210.259 180.31 210.036 179.224 210.396C178.138 210.756 176.937 211.476 176.554 212.58C176.456 212.837 176.413 213.112 176.429 213.387C176.444 213.662 176.517 213.931 176.644 214.176C176.77 214.421 176.946 214.636 177.161 214.809C177.376 214.981 177.625 215.106 177.892 215.175C179.504 215.552 181.716 213.546 182.465 212.277C182.511 212.208 182.854 211.459 183.094 210.91C183.02 211.248 182.951 211.602 182.877 211.928C182.591 213.146 182.259 214.249 181.956 215.221C181.779 215.792 181.608 216.267 181.442 216.73C180.899 216.942 178.726 217.833 177.938 218.639C177.149 219.446 176.4 220.652 176.577 221.812C176.606 222.086 176.692 222.35 176.83 222.588C176.968 222.826 177.154 223.033 177.377 223.194C177.599 223.356 177.853 223.469 178.122 223.526C178.391 223.584 178.669 223.584 178.938 223.527Z" fill="black"/>
</g>
<g opacity="0.2">
<path d="M71.1758 76.7673C72.3706 76.2642 74.3314 74.1147 74.3314 74.1147C74.3314 74.1147 72.5249 73.2515 72.4049 73.2114C70.9985 72.7541 68.0087 72.6912 67.0368 74.0289C66.8773 74.2568 66.7682 74.5161 66.7166 74.7894C66.665 75.0627 66.6722 75.3439 66.7376 75.6142C66.8031 75.8846 66.9252 76.1379 67.0961 76.3574C67.2669 76.5769 67.4825 76.7575 67.7285 76.8873C68.7518 77.4533 70.1525 77.196 71.1758 76.7673Z" fill="black"/>
<path d="M91.9503 55.9291C91.9503 55.9291 90.9156 54.2141 90.807 54.1112C89.8866 52.9678 87.4284 51.2528 85.8791 51.8245C85.6235 51.928 85.3926 52.0843 85.2015 52.2831C85.0104 52.4819 84.8634 52.7188 84.77 52.9783C84.6767 53.2378 84.6391 53.5141 84.6598 53.7891C84.6805 54.0641 84.759 54.3317 84.8901 54.5743C85.4103 55.6204 86.7366 56.1864 87.8228 56.3922C89.1262 56.638 91.9446 55.9291 91.9503 55.9291Z" fill="black"/>
<path d="M90.3154 42.3692C89.052 43.4382 89.3321 46.4167 89.8981 47.783C89.9438 47.903 90.9157 49.6638 90.9385 49.641C90.9785 50.1097 91.03 50.6128 91.0929 51.1616C91.2187 52.1735 91.373 53.3168 91.6245 54.5517C91.8827 55.8826 92.2168 57.1977 92.625 58.4905C93.0691 59.9399 93.6431 61.3462 94.34 62.6924V62.7438C93.997 62.4008 93.0023 61.4804 92.9165 61.4175C91.7217 60.5429 88.9148 59.5481 87.5599 60.52C87.3412 60.6873 87.1602 60.8987 87.0286 61.1406C86.897 61.3825 86.8179 61.6494 86.7963 61.9239C86.7748 62.1984 86.8112 62.4744 86.9034 62.7338C86.9956 62.9933 87.1413 63.2304 87.3312 63.4298C88.1087 64.3045 89.5379 64.4989 90.6413 64.4131C91.8818 64.3102 94.2428 63.0011 94.4315 62.8925C95.1794 64.2458 96.0158 65.5483 96.9354 66.7913C97.4671 67.5173 98.0273 68.2319 98.599 68.9408C98.2903 68.655 98.0273 68.4034 97.9702 68.3691C96.7754 67.4945 93.9684 66.4998 92.6136 67.4716C92.3948 67.6389 92.2138 67.8503 92.0822 68.0922C91.9507 68.3341 91.8715 68.601 91.85 68.8755C91.8284 69.15 91.8649 69.426 91.957 69.6854C92.0492 69.9449 92.195 70.1821 92.3849 70.3815C93.1624 71.2561 94.5916 71.4505 95.6949 71.359C96.7982 71.2675 98.8506 70.2157 99.3822 69.9012L100.045 70.713C101.109 72.005 102.178 73.2913 103.19 74.5833C103.544 75.0406 103.881 75.498 104.213 75.961C103.939 75.7038 103.71 75.498 103.67 75.4694C102.475 74.589 99.6681 73.6 98.3132 74.5719C98.0949 74.7396 97.9143 74.9514 97.7833 75.1935C97.6522 75.4356 97.5736 75.7026 97.5526 75.977C97.5316 76.2515 97.5686 76.5274 97.6612 76.7866C97.7538 77.0459 97.9 77.2827 98.0902 77.4817C98.862 78.3564 100.291 78.5507 101.395 78.4593C102.498 78.3678 104.35 77.3959 104.99 77.0529C105.316 77.5331 105.648 78.0191 105.945 78.4993C106.139 78.8309 106.351 79.1396 106.517 79.4883L107.088 80.4944C107.414 81.1462 107.752 81.815 108.049 82.461C108.26 82.9069 108.455 83.3357 108.621 83.7702C108.272 83.3128 107.569 82.4324 107.477 82.3638C106.524 81.4775 105.358 80.8515 104.093 80.5459C103.992 80.4419 103.881 80.348 103.761 80.2658C103.541 80.1015 103.288 79.9854 103.02 79.925C102.752 79.8646 102.474 79.8612 102.205 79.9151C101.935 79.969 101.68 80.079 101.456 80.2379C101.231 80.3968 101.043 80.601 100.903 80.8375C100.108 82.2952 101.44 84.9707 102.452 86.0454C102.515 86.1083 103.241 86.72 103.71 87.1031L102.784 86.5314C102.155 86.1655 101.52 85.8168 100.834 85.4395L99.811 84.925C99.4737 84.742 99.0964 84.5991 98.7362 84.4276C97.8901 84.0617 97.0212 83.7301 96.1294 83.4157C96.4495 82.844 97.5586 80.8889 97.6786 79.7856C97.7987 78.6822 97.6443 77.253 96.7925 76.4527C96.5984 76.2573 96.3653 76.105 96.1084 76.0057C95.8516 75.9064 95.5766 75.8623 95.3016 75.8763C95.0265 75.8903 94.7575 75.9621 94.512 76.0871C94.2666 76.212 94.0502 76.3872 93.877 76.6013C92.8651 77.9162 93.7798 80.7631 94.6201 81.9751C94.6716 82.0551 95.3748 82.8612 95.7635 83.2957C95.2261 83.107 94.6945 82.9184 94.1456 82.7526C92.5678 82.2609 90.95 81.8093 89.3435 81.3577C88.8462 81.2205 88.3603 81.0718 87.8686 80.9289C87.983 80.7346 89.355 78.4193 89.4865 77.1844C89.6065 76.0868 89.4522 74.6519 88.6004 73.8515C88.4062 73.6566 88.1733 73.5046 87.9167 73.4054C87.6602 73.3061 87.3856 73.2618 87.1108 73.2752C86.8361 73.2887 86.5672 73.3597 86.3215 73.4836C86.0759 73.6075 85.859 73.7815 85.6848 73.9945C84.6786 75.3093 85.5876 78.1563 86.428 79.374C86.4966 79.4654 87.5085 80.6259 87.7771 80.9061C86.6967 80.5916 85.6219 80.2658 84.5757 79.9056C83.1606 79.4237 81.7781 78.8508 80.4368 78.1906C80.494 78.0991 81.9346 75.6923 82.0718 74.4232C82.1919 73.3256 82.0375 71.8907 81.1857 71.0903C80.9916 70.8949 80.7585 70.7426 80.5016 70.6433C80.2447 70.544 79.9698 70.4999 79.6947 70.514C79.4197 70.528 79.1507 70.5998 78.9052 70.7247C78.6598 70.8496 78.4434 71.0249 78.2701 71.239C77.2583 72.5538 78.1729 75.4008 79.0133 76.6127C79.0705 76.6928 79.8423 77.5789 80.2138 77.9905L80.1567 78.0648C78.8264 77.364 77.5617 76.5451 76.3779 75.618C75.7147 75.115 75.1145 74.6004 74.5428 74.0859C74.8572 73.6629 76.2578 71.7249 76.5208 70.5987C76.7838 69.4725 76.7609 68.0776 76.0006 67.1686C75.8295 66.9535 75.615 66.7767 75.3712 66.6498C75.1273 66.5229 74.8595 66.4487 74.5851 66.432C74.3107 66.4152 74.0359 66.4564 73.7784 66.5528C73.521 66.6492 73.2867 66.7986 73.0907 66.9914C71.9474 68.1919 72.5191 71.1189 73.2394 72.4223C73.2794 72.4909 73.7482 73.1712 74.0969 73.6572C73.8396 73.4228 73.5709 73.1827 73.3308 72.9483C72.4276 72.085 71.6501 71.2333 70.9698 70.4729C70.5868 70.0384 70.2495 69.6383 69.9351 69.261C70.0265 68.6893 70.3753 66.3683 70.0837 65.2592C69.7921 64.1502 69.1347 62.9096 68.0542 62.4694C67.803 62.3564 67.5307 62.2976 67.2552 62.2968C66.9796 62.296 66.707 62.3533 66.4551 62.465C66.2032 62.5766 65.9777 62.7401 65.7932 62.9448C65.6088 63.1495 65.4695 63.3907 65.3845 63.6528C64.9214 65.2478 66.7965 67.5688 68.0199 68.4034C68.1286 68.472 69.9065 69.4096 69.9122 69.381V69.3467C70.2095 69.7126 70.5239 70.107 70.884 70.5301C71.5472 71.3019 72.3075 72.1708 73.1708 73.0626C74.1173 74.031 75.1194 74.9434 76.1721 75.7952C77.3495 76.7555 78.6103 77.6088 79.9394 78.3449H79.9852C79.5107 78.2477 78.1672 78.0305 78.0643 78.0248C76.5894 77.9505 73.691 78.6822 73.1022 80.2315C73.0126 80.4917 72.9789 80.7678 73.0031 81.0419C73.0273 81.316 73.1089 81.5819 73.2426 81.8224C73.3763 82.0629 73.5591 82.2725 73.7792 82.4377C73.9993 82.6029 74.2517 82.7199 74.5199 82.7812C75.6633 83.0842 76.9496 82.4553 77.8185 81.775C78.8018 81.009 80.0481 78.6136 80.1452 78.4193C81.5139 79.1364 82.9291 79.7609 84.3814 80.2886C85.2275 80.6031 86.0964 80.8889 86.9539 81.169L86.1193 81.0375C84.6386 80.9689 81.7402 81.695 81.1571 83.2442C81.0666 83.5044 81.0319 83.7807 81.0552 84.0551C81.0786 84.3296 81.1595 84.596 81.2928 84.8371C81.426 85.0782 81.6085 85.2885 81.8284 85.4543C82.0483 85.6202 82.3007 85.7378 82.5692 85.7996C83.7125 86.0969 84.9988 85.4738 85.8735 84.7935C86.7481 84.1132 87.8572 82.078 88.1602 81.5406C88.4917 81.6435 88.8233 81.7521 89.1606 81.8493C90.7613 82.341 92.362 82.8212 93.917 83.3414C94.4887 83.5243 94.9975 83.7244 95.5348 83.9131C95.1632 83.8559 94.8545 83.8045 94.8031 83.8045C93.3282 83.7301 90.4297 84.4619 89.8466 86.0111C89.7561 86.2709 89.7214 86.5468 89.7448 86.8209C89.7682 87.095 89.8492 87.3611 89.9825 87.6017C90.1158 87.8424 90.2983 88.0522 90.5182 88.2175C90.7381 88.3827 90.9905 88.4997 91.2587 88.5608C92.402 88.8638 93.6883 88.2407 94.5573 87.5547C95.4262 86.8687 96.4381 85.0393 96.7811 84.399C97.3185 84.622 97.8616 84.8392 98.3761 85.0793C98.7248 85.2451 99.0735 85.388 99.4108 85.5767L100.423 86.114C101.052 86.4799 101.703 86.8572 102.309 87.2288L103.527 87.9892C102.955 87.8005 101.915 87.4518 101.812 87.4175C100.36 87.1202 97.3871 87.4175 96.5696 88.8467C96.4421 89.0908 96.3672 89.3589 96.35 89.6338C96.3327 89.9086 96.3733 90.184 96.4693 90.4422C96.5652 90.7003 96.7143 90.9354 96.9068 91.1323C97.0994 91.3292 97.3312 91.4834 97.5872 91.585C98.6562 92.0538 100.034 91.6307 101.017 91.0877C102.075 90.516 103.618 88.4065 103.813 88.1435C104.476 88.5608 105.116 88.9782 105.716 89.3783C107.774 90.7504 109.438 91.968 110.599 92.8484L111.376 92.0366L111.296 91.9795C110.101 91.1162 108.38 89.91 106.248 88.5494C105.579 88.1206 104.853 87.6747 104.099 87.2231C104.411 86.449 104.676 85.6568 104.893 84.8506C106.145 84.8506 108.42 84.0389 108.718 83.9302C109.038 84.6505 109.341 85.348 109.621 86.0111C110.581 88.2979 111.296 90.2301 111.782 91.6022L112.634 90.7103C112.125 89.3783 111.422 87.6347 110.524 85.6224C110.198 84.8964 109.838 84.1246 109.461 83.3357C109.724 83.1585 111.856 81.6721 112.485 80.6259C113.057 79.6769 113.514 78.3106 113.057 77.2302C112.963 76.9717 112.816 76.7359 112.625 76.538C112.434 76.3401 112.203 76.1847 111.948 76.0817C111.693 75.9787 111.419 75.9305 111.144 75.9403C110.87 75.95 110.6 76.0175 110.353 76.1383C108.884 76.91 108.518 79.877 108.775 81.3348C108.775 81.4206 109.055 82.3353 109.232 82.9069C109.078 82.5868 108.929 82.2724 108.763 81.9465C108.443 81.2891 108.106 80.6488 107.74 79.9571L107.168 78.9623C106.986 78.6251 106.751 78.2935 106.545 77.9562C106.042 77.1844 105.493 76.4241 104.928 75.6695C105.499 75.3894 107.517 74.3546 108.22 73.4971C108.924 72.6396 109.592 71.3705 109.324 70.2328C109.27 69.9624 109.16 69.7064 109 69.4815C108.841 69.2566 108.636 69.0678 108.398 68.9276C108.161 68.7873 107.897 68.6987 107.623 68.6675C107.349 68.6363 107.071 68.6632 106.808 68.7465C105.242 69.2838 104.436 72.1765 104.464 73.64C104.464 73.7315 104.607 74.7834 104.699 75.3551C104.356 74.9034 104.013 74.4518 103.647 74.0116C102.601 72.7253 101.503 71.4619 100.411 70.1985C100.074 69.8098 99.7481 69.4153 99.4165 69.0266C99.6166 68.9294 102.041 67.7517 102.847 66.797C103.55 65.9452 104.213 64.6647 103.944 63.527C103.89 63.2571 103.779 63.0016 103.619 62.7772C103.459 62.5527 103.254 62.3643 103.017 62.2242C102.78 62.0841 102.516 61.9953 102.243 61.9637C101.969 61.9321 101.692 61.9583 101.429 62.0407C99.8624 62.5838 99.0564 65.4707 99.0849 66.9399C99.0849 67.0486 99.2965 68.5749 99.3651 68.958C98.639 68.1005 97.9187 67.2429 97.2499 66.3568C96.3336 65.1759 95.4953 63.9366 94.7402 62.6466C94.8374 62.6009 97.3699 61.3832 98.1703 60.4057C98.8734 59.5539 99.5366 58.2733 99.2679 57.1357C99.2139 56.8659 99.1038 56.6105 98.9447 56.3861C98.7856 56.1617 98.581 55.9733 98.3443 55.8331C98.1077 55.6929 97.8441 55.6041 97.5708 55.5724C97.2976 55.5408 97.0207 55.567 96.7582 55.6493C95.1918 56.1867 94.38 59.0794 94.4086 60.5429C94.4086 60.64 94.5687 61.8006 94.6544 62.3551H94.5687C93.844 61.0362 93.2394 59.6548 92.7622 58.2276C92.4878 57.4501 92.2705 56.684 92.0762 55.9409C92.5678 55.7579 94.8202 54.9233 95.6492 54.1172C96.4781 53.3111 97.2441 52.1506 97.1012 50.9901C97.0775 50.7158 96.9963 50.4495 96.8628 50.2086C96.7294 49.9678 96.5467 49.7577 96.3266 49.5921C96.1066 49.4266 95.8541 49.3092 95.5857 49.2477C95.3173 49.1862 95.039 49.1819 94.7688 49.2351C93.1509 49.6009 92.0304 52.3736 91.9104 53.8485C91.9104 53.9285 91.9104 54.7518 91.9447 55.3463C91.8589 55.009 91.7675 54.666 91.6931 54.3401C91.4187 53.1168 91.2415 51.9791 91.0929 50.973C91.0128 50.4013 90.95 49.8753 90.8985 49.3894C91.293 48.9607 92.8594 47.217 93.2195 46.1423C93.5797 45.0675 93.7226 43.6612 93.0652 42.7122C92.7449 42.3037 92.2761 42.0384 91.761 41.9741C91.2458 41.9099 90.7262 42.0519 90.3154 42.3692Z" fill="black"/>
</g>
<path d="M187.576 203.993C219.332 172.237 219.332 120.751 187.576 88.9953C155.821 57.2397 104.335 57.2397 72.5788 88.9954C40.8232 120.751 40.8232 172.237 72.5788 203.993C104.335 235.749 155.821 235.749 187.576 203.993Z" fill="#999999" stroke="#263238" stroke-miterlimit="10"/>
<path d="M184.286 165.068C194.549 135.126 178.596 102.533 148.655 92.2703C118.713 82.0073 86.1203 97.96 75.8573 127.902C65.5943 157.844 81.547 190.436 111.489 200.699C141.431 210.962 174.023 195.009 184.286 165.068Z" fill="#92E3A9"/>
<path d="M122.312 121.044L128.155 122.25L130.15 124.32L132.745 124.72L133.568 127.178L132.962 128.847L131.196 129.659L126.857 128.95L126.737 128.419L128.789 126.989L127.371 124.377L123.495 123.845L121.432 122.073L122.312 121.044Z" fill="white"/>
<path d="M169.396 174.953L164.794 174.193L159.203 173.484L155.086 174.399L151.056 174.462L147.014 176.331L144.653 176.994L143.196 177.32L140.76 179.533L138.342 181.185L134.254 179.721L134.357 175.8L131.865 175.336L129.212 175.908L128.549 174.805L128.28 172.352L127.057 171.209L125.256 171.889L125.022 173.336L122.792 173.97L120.271 172.021L118.768 169.048L119.911 164.892L123.821 164.32L125.09 165.012L126.68 164.658L128.395 163.023L130.241 163.165L133.58 166.761L134.477 166.418L133.534 163.423L132.391 162.011L132.094 159.427L136.536 156.214L136.107 151.149L137.85 148.954L138.897 145.523L140.166 144.952L142.778 142.282L142.675 141.19L140.583 141.79L139.948 140.819L138.485 141.144L136.347 142.173L137.027 140.213L141.378 137.851L142.172 136.422L144.682 138.932L146.145 139.858L147.86 138.915L146.683 137.366L143.453 135.994L139.451 133.135L135.632 131.614L132.322 131.792L130.379 130.551L128.138 130.494L127.989 131.066L128.561 134.976L129.384 136.188L129.132 140.698L126.005 139.166V137.217L122.918 136.508L121.443 135.319L121.369 131.855L124.599 128.207L124.159 124.966L122.724 125.423L121.529 124.434L120.689 122.531L119.734 122.605L119.671 124.846L118.27 125.417L116.555 120.918L115.349 120.49L113.343 120.112L111.45 121.644L114.669 123.577L115.704 125.72L110.124 123.194L106.008 120.335L104.945 116.808L101.257 116.511L98.9705 118.832C98.4126 119.364 97.8267 119.866 97.2154 120.335C96.2233 120.82 95.1973 121.233 94.1455 121.57L94.1169 123.948L91.0928 124.76L91.6645 126.161L96.7524 125.863L99.8966 128.093L100.926 132.741L100.383 137.183L101.617 141.505L99.3307 148.839L100.686 158.706L103.121 164.017L105.791 167.882L107.837 167.705L106.694 165.732L105.339 164.383L104.024 161.61L105.167 161.079L108.089 165.446L110.375 169.402L111.142 172.833L114.343 175.331L119.597 177.646L126.914 177.972L129.481 179.493L131.545 181.259L134.26 182.191L137.359 182.34L140.251 181.556C140.251 181.556 140.411 182.917 140.56 183.58C140.709 184.243 139.348 186.913 139.348 186.913L138.479 189.891L140.194 192.578L143.384 193.15L148.444 196.483L150.479 196.866L150.919 198.855L151.359 199.736C161.316 195.769 169.956 189.083 176.296 180.442L176.147 179.464L178.291 172.158L176.256 171.335L169.396 174.953Z" fill="white"/>
<path d="M171.557 119.443L169.539 117.242L167.029 114.739L165.617 110.874L168.092 110.742L167.932 109.388L166.177 109.633L167.486 108.644L168.875 107.364L168.578 106.038L166.514 104.265L165.542 101.481C155.728 93.7615 143.663 89.455 131.178 89.2156C118.694 88.9763 106.472 92.8171 96.3694 100.155L99.9138 101.647L98.5875 104.448L96.1807 105.54L96.7124 109.182L95.7405 109.816L94.7344 111.571L95.3975 113.932L97.7128 113.698L97.2898 116.162L99.5422 115.659L102.303 109.891L102.229 107.678L105.888 106.586L106.46 104.786L110.221 103.534L110.118 101.19L112.879 100.435C112.879 100.435 114.635 98.9316 115.035 98.8458C115.838 98.8396 116.64 98.8931 117.436 99.0059L119.78 100.149L122.569 99.5319L124.633 97.5424L127.749 97.1308C128.251 97.3254 128.792 97.396 129.327 97.3366C129.99 97.188 131.779 95.8159 131.779 95.8159L136.158 97.3538L138.016 98.1941L138.456 100.184L140.509 100.006L140.909 98.6629L142.813 99.0802L142.915 100.172L139.165 102.116L142.075 104.534L147.443 106.129L150.021 108.341L153.006 107.958L153.371 106.483L154.378 105.986L150.336 104.094L148.152 104.3L149.758 103.385L147.643 101.481L149.867 100.847L153.143 101.796L154.515 104.831L156.361 106.238L158.408 109.822L161.804 111.297L162.776 115.676L166.274 116.991L166.463 118.483V120.295L167.789 122.508L168.321 123.651L170.665 123.548L171.236 121.056L171.557 119.443Z" fill="white"/>
<path d="M170.316 105.683L170.482 106.443L170.293 108.73L171.105 110.502L172.683 110.708L173.254 113.234L171.539 112.92L172.734 120.18L171.791 123.456L173.677 126.938L175.758 128.15L177.313 135.318L180.274 140.509L183.076 144.345L186.306 144.465L186.78 141.573L187.14 141.138C186.913 138.768 186.541 136.414 186.026 134.089C183.651 123.299 178.194 113.43 170.316 105.683Z" fill="white"/>
<path d="M139.457 111.662L129.841 109.759L126.017 110.742L125.651 113.475L123.673 112.103L120.9 113.418L121.609 117.854L124.382 119.049L125.548 116.144L127.978 117.694L132.894 120.363L134.546 124.039L138.971 127.652L144.339 125.486L143.762 123.525L142.07 121.53L140.623 116.276L141.452 113.726L139.457 111.662Z" fill="white"/>
<path d="M147.277 112.989L145.167 112.903L143.767 114.744L145.55 118.391L147.277 118.008V112.989Z" fill="white"/>
<path d="M160.185 112.772L155.137 111.382L153.857 109.999L152.885 110.628L154.4 113.08L155.966 116.356L158.133 116.711L158.413 116.093L156.778 114.361L160.522 114.927L160.185 112.772Z" fill="white"/>
<path d="M132.059 169.316L131.647 169.962L135.895 170.271L137.902 171.78L140.48 171.483L141.086 169.819L137.913 169.962L132.059 169.316Z" fill="white"/>
<path d="M144.436 169.214L141.823 170.632L142.458 171.603L145.911 170.837L146.339 169.625L145.173 170.026L144.436 169.214Z" fill="white"/>
<path d="M207.504 148.937L196.431 130.413L170.635 145.833L181.708 164.357L207.504 148.937Z" fill="white" stroke="#263238" stroke-miterlimit="10"/>
<path d="M194.436 134.93L202.422 148.29" stroke="#263238" stroke-miterlimit="10"/>
<path d="M191.8 136.502L199.786 149.868" stroke="#263238" stroke-miterlimit="10"/>
<path d="M189.164 138.074L197.156 151.44" stroke="#263238" stroke-miterlimit="10"/>
<path d="M186.528 139.652L194.52 153.018" stroke="#263238" stroke-miterlimit="10"/>
<path d="M183.898 141.224L191.885 154.589" stroke="#263238" stroke-miterlimit="10"/>
<path d="M181.264 142.801L189.25 156.167" stroke="#263238" stroke-miterlimit="10"/>
<path d="M178.628 144.374L186.62 157.74" stroke="#263238" stroke-miterlimit="10"/>
<path d="M209.205 162.925L203.423 142.133L174.468 150.184L180.25 170.976L209.205 162.925Z" fill="white" stroke="#263238" stroke-miterlimit="10"/>
<path d="M200.323 145.963L204.491 160.964" stroke="#263238" stroke-miterlimit="10"/>
<path d="M197.361 146.786L201.535 161.787" stroke="#263238" stroke-miterlimit="10"/>
<path d="M197.545 158.895L198.58 162.61" stroke="#263238" stroke-miterlimit="10"/>
<path d="M194.406 147.609L197.202 157.654" stroke="#263238" stroke-miterlimit="10"/>
<path d="M193.28 155.001L195.624 163.433" stroke="#263238" stroke-miterlimit="10"/>
<path d="M191.451 148.433L192.726 153.006" stroke="#263238" stroke-miterlimit="10"/>
<path d="M190.673 157.082L192.668 164.257" stroke="#263238" stroke-miterlimit="10"/>
<path d="M188.495 149.25L190.29 155.716" stroke="#263238" stroke-miterlimit="10"/>
<path d="M187.157 155.894L189.707 165.075" stroke="#263238" stroke-miterlimit="10"/>
<path d="M185.54 150.073L186.712 154.287" stroke="#263238" stroke-miterlimit="10"/>
<path d="M185.905 162.855L186.751 165.897" stroke="#263238" stroke-miterlimit="10"/>
<path d="M182.578 150.896L185.597 161.747" stroke="#263238" stroke-miterlimit="10"/>
<path d="M126.344 102.628L147.188 97.0352L139.399 68.0088L118.555 73.6016L126.344 102.628Z" fill="white" stroke="#263238" stroke-miterlimit="10"/>
<path d="M140.005 94.7861L128.349 97.9132" stroke="#263238" stroke-miterlimit="10"/>
<path d="M143.389 93.877L141.806 94.3057" stroke="#263238" stroke-miterlimit="10"/>
<path d="M136.244 92.6201L127.555 94.9526" stroke="#263238" stroke-miterlimit="10"/>
<path d="M142.595 90.916L138.188 92.0994" stroke="#263238" stroke-miterlimit="10"/>
<path d="M130.178 91.0703L126.76 91.985" stroke="#263238" stroke-miterlimit="10"/>
<path d="M141.795 87.9492L132.837 90.356" stroke="#263238" stroke-miterlimit="10"/>
<path d="M135.655 86.4229L125.965 89.024" stroke="#263238" stroke-miterlimit="10"/>
<path d="M141 84.9883L136.97 86.0688" stroke="#263238" stroke-miterlimit="10"/>
<path d="M140.205 82.0264L125.164 86.0567" stroke="#263238" stroke-miterlimit="10"/>
<path d="M139.411 79.0596L124.37 83.0956" stroke="#263238" stroke-miterlimit="10"/>
<path d="M138.616 76.0986L123.575 80.129" stroke="#263238" stroke-miterlimit="10"/>
<path d="M88.0636 140.874L90.207 119.399L60.3025 116.415L58.1591 137.889L88.0636 140.874Z" fill="white" stroke="#263238" stroke-miterlimit="10"/>
<path d="M85.079 130.242L84.3701 137.331" stroke="#263238" stroke-miterlimit="10"/>
<path d="M85.9193 121.838L85.2676 128.372" stroke="#263238" stroke-miterlimit="10"/>
<path d="M81.5508 134.684L81.3164 137.027" stroke="#263238" stroke-miterlimit="10"/>
<path d="M82.866 121.535L81.7227 132.997" stroke="#263238" stroke-miterlimit="10"/>
<path d="M78.7382 131.997L78.2637 136.725" stroke="#263238" stroke-miterlimit="10"/>
<path d="M79.8138 121.232L79.042 128.939" stroke="#263238" stroke-miterlimit="10"/>
<path d="M76.4743 123.765L75.2109 136.422" stroke="#263238" stroke-miterlimit="10"/>
<path d="M76.7604 120.924L76.5889 122.645" stroke="#263238" stroke-miterlimit="10"/>
<path d="M73.7027 120.621L72.1592 136.114" stroke="#263238" stroke-miterlimit="10"/>
<path d="M70.649 120.317L69.1055 135.81" stroke="#263238" stroke-miterlimit="10"/>
<path d="M67.5963 120.009L66.0527 135.507" stroke="#263238" stroke-miterlimit="10"/>
<path d="M122.17 264.071C122.17 264.071 135.822 265.283 142.979 255.267C150.137 245.251 149.359 227.77 148.016 220.801H92.3056C92.3056 220.801 91.2937 266.266 122.17 264.071Z" fill="white" stroke="#263238" stroke-miterlimit="10"/>
<path d="M144.859 192.486C144.859 192.486 142.807 188.376 142.807 187.993C142.807 187.61 144.99 182.848 144.219 181.441C143.447 180.035 141.006 178.36 140.217 177.846C139.428 177.331 136.107 179.383 135.072 180.029C134.037 180.675 135.072 181.441 135.455 181.441L137.742 181.058C137.123 181.598 136.562 182.199 136.067 182.853C135.815 183.368 136.067 185.169 136.067 185.552C136.067 185.935 136.198 186.066 136.713 186.695C137.227 187.324 136.838 187.981 137.993 189.651C139.078 191.391 140.065 193.191 140.949 195.042L144.859 192.486Z" fill="white" stroke="#263238" stroke-miterlimit="10"/>
<path d="M148.844 180.138L133.688 181.55" stroke="#263238" stroke-miterlimit="10"/>
<path d="M141.263 183.735C141.263 183.735 140.366 179.367 139.468 179.241C138.571 179.115 135.1 180.785 135.466 181.425C135.832 182.065 137.753 181.042 137.753 181.042C137.753 181.042 135.055 185.404 136.724 186.69" fill="white"/>
<path d="M141.263 183.735C141.263 183.735 140.366 179.367 139.468 179.241C138.571 179.115 135.1 180.785 135.466 181.425C135.832 182.065 137.753 181.042 137.753 181.042C137.753 181.042 135.055 185.404 136.724 186.69" stroke="#263238" stroke-miterlimit="10"/>
<path d="M131.705 169.225H110.124V199.278H131.705V169.225Z" fill="white" stroke="#263238" stroke-miterlimit="10"/>
<path d="M112.977 173.25H128.543" stroke="#263238" stroke-miterlimit="10"/>
<path d="M122.141 176.319H128.543" stroke="#263238" stroke-miterlimit="10"/>
<path d="M112.977 176.319H121.02" stroke="#263238" stroke-miterlimit="10"/>
<path d="M125.634 179.389H128.544" stroke="#263238" stroke-miterlimit="10"/>
<path d="M112.977 179.389H123.953" stroke="#263238" stroke-miterlimit="10"/>
<path d="M119.62 182.453H128.544" stroke="#263238" stroke-miterlimit="10"/>
<path d="M112.977 182.453H118.082" stroke="#263238" stroke-miterlimit="10"/>
<path d="M112.977 185.523H128.543" stroke="#263238" stroke-miterlimit="10"/>
<path d="M112.977 188.594H128.543" stroke="#263238" stroke-miterlimit="10"/>
<path d="M112.977 191.663H128.543" stroke="#263238" stroke-miterlimit="10"/>
<path d="M100.766 195.465L104.539 189.948C104.539 189.948 105.556 184.14 105.556 183.414C105.556 182.688 109.918 177.8 109.918 177.8V181.864C109.918 181.864 110.93 180.51 111.799 179.2C112.668 177.891 113.4 178.057 113.251 179.492C113.102 180.927 110.93 183.991 110.93 183.991C110.93 183.991 111.799 185.3 111.222 187.621C110.644 189.942 107.157 192.412 107.157 192.412L105.413 198.077L100.766 195.465Z" fill="white" stroke="#263238" stroke-miterlimit="10"/>
<path d="M109.792 182.104L107.414 184.677" stroke="#263238" stroke-miterlimit="10"/>
<path d="M158.734 213.919C154.367 207.756 145.528 191.44 145.528 191.44L139.749 196.197L147.249 218.286L136.204 218.544L122.295 219.001L108.387 218.544L97.336 218.286L107.1 197.866L101.338 193.11L86.0511 214.691C81.6834 220.853 79.1166 224.981 80.0141 226.764C80.9117 228.548 98.2564 234.471 98.2564 234.471L104.293 249.369H140.309L146.346 234.471C146.346 234.471 163.685 228.56 164.583 226.764C165.48 224.969 163.079 220.087 158.734 213.919Z" fill="white" stroke="#263238" stroke-miterlimit="10"/>
<path d="M147.249 218.286C147.249 218.286 157.831 219.572 161.175 222.139" stroke="#263238" stroke-miterlimit="10"/>
<path d="M97.3362 218.286C97.3362 218.286 88.2179 219.698 84.6221 222.288" stroke="#263238" stroke-miterlimit="10"/>
<path d="M129.961 233.699C129.961 233.699 121.614 242.434 116.475 245.259" stroke="#263238" stroke-miterlimit="10"/>
<path d="M124.056 237.037L118.528 242.051" stroke="#263238" stroke-miterlimit="10"/>
<path d="M98.2387 234.471L93.8711 229.846" stroke="#263238" stroke-miterlimit="10"/>
<path d="M150.256 228.948L146.352 234.471" stroke="#263238" stroke-miterlimit="10"/>
<path d="M93.4824 248.197C93.4824 248.197 94.9173 253.405 100.794 259.842C103.653 262.957 107.037 267.222 116.367 268.783C125.416 270.292 133.431 268.371 137.765 265.393C142.435 262.18 146.837 255.371 150.49 248.74L149.273 245.081L95.2432 245.218L93.4824 248.197Z" fill="#263238"/>
<path d="M96.5977 243.051C104.601 243.835 128.823 245.767 146.7 242.445C147.203 242.351 147.72 242.357 148.221 242.464C148.722 242.571 149.196 242.777 149.617 243.069C150.038 243.361 150.396 243.733 150.672 244.165C150.947 244.597 151.134 245.079 151.222 245.584C151.308 246.091 151.292 246.609 151.175 247.11C151.058 247.61 150.842 248.082 150.54 248.498C150.238 248.914 149.856 249.266 149.417 249.532C148.977 249.798 148.489 249.974 147.98 250.049C139.171 251.341 116.835 253.81 95.6544 249.649C95.1929 249.559 94.7555 249.373 94.3706 249.103C93.9857 248.833 93.662 248.485 93.4204 248.082C93.1788 247.678 93.0248 247.229 92.9685 246.762C92.9121 246.295 92.9547 245.822 93.0933 245.372C93.3211 244.641 93.7941 244.011 94.4325 243.588C95.071 243.166 95.8357 242.976 96.5977 243.051Z" fill="#263238"/>
<path d="M126.491 186.432C126.491 186.432 125.21 183.219 120.586 184.894C115.961 186.569 113.777 187.718 113.52 192.086C113.262 196.453 109.026 203.519 109.667 208.27C110.307 213.02 111.85 211.991 111.336 214.433C110.821 216.874 107.483 217.514 107.483 217.514L106.202 216.874C107.348 218.726 108.636 220.487 110.055 222.139C112.108 224.454 114.932 225.477 119.814 226.764C124.696 228.05 128.292 227.404 131.888 225.22C135.484 223.036 137.41 221.367 137.925 218.783L138.439 216.216C138.439 216.216 135.872 215.313 135.872 214.032C135.872 212.752 138.822 209.79 139.337 205.812C139.851 201.833 138.696 194.635 135.335 189.753C131.973 184.871 128.418 185.151 126.491 186.432Z" fill="#263238"/>
<path d="M173.376 63.3362L152.348 71.3115L163.293 100.171L184.321 92.1953L173.376 63.3362Z" fill="white" stroke="#263238" stroke-miterlimit="10"/>
<path d="M162.016 84.7331L159.588 85.6328L162.096 92.4033L164.525 91.5036L162.016 84.7331Z" fill="#263238"/>
<path d="M166.794 85.9206L164.365 86.8203L165.908 90.9855L168.337 90.0858L166.794 85.9206Z" fill="#263238"/>
<path d="M169.653 81.901L167.225 82.8008L169.733 89.5713L172.162 88.6716L169.653 81.901Z" fill="#263238"/>
<path d="M171.732 75.8005L169.304 76.7002L173.548 88.156L175.977 87.2562L171.732 75.8005Z" fill="#263238"/>
<path d="M175.034 70.9452L172.6 71.8516L178.04 86.4629L180.474 85.5565L175.034 70.9452Z" fill="#263238"/>
<path d="M156.584 74.2562L170.276 69.2598" stroke="#263238" stroke-linecap="round" stroke-linejoin="round"/>
<path d="M157.51 76.6635L171.201 71.667" stroke="#263238" stroke-linecap="round" stroke-linejoin="round"/>
<path d="M187.152 89.5488L184.454 87.8681C184.454 87.8681 183.922 84.0493 183.499 83.6262C183.076 83.2032 180.641 80.865 180.212 80.3391C179.783 79.8131 179.577 78.4297 179.257 78.4297C178.937 78.4297 177.771 79.6988 178.194 81.5053C178.36 82.0652 178.645 82.5826 179.03 83.0218C179.415 83.4609 179.89 83.8115 180.423 84.0493C180.423 84.0493 179.28 88.8228 180 89.8804C180.629 90.6672 181.38 91.3484 182.224 91.8984L185.408 94.2309L187.952 90.0976L187.152 89.5488Z" fill="#999999" stroke="#263238" stroke-miterlimit="10"/>
<path d="M247.063 111.198C246.846 110.546 246.412 107.505 242.936 107.071C239.46 106.636 237.293 110.329 237.293 110.329C237.293 110.329 228.821 119.665 226.649 122.489C224.476 125.313 221.875 129.869 216.661 132.476C214.693 133.376 212.618 134.023 210.487 134.403C212.541 147.905 211.141 161.708 206.417 174.523C212.568 175.358 219.674 176.164 221.441 175.666C224.699 174.797 226.014 173.065 227.518 170.676C229.021 168.286 246.846 145.699 247.281 144.83C248.452 142.615 249.398 140.288 250.105 137.884C251.191 134.214 247.281 111.879 247.063 111.198Z" fill="#263238"/>
<path d="M214.272 157.67C213.128 156.761 212.134 154.652 211.202 152.273C210.679 159.802 209.105 167.22 206.525 174.312C211.259 174.672 217.599 174.169 219.731 172.219C222.338 169.83 224.305 164.833 224.305 164.833C224.305 164.833 217.53 160.271 214.272 157.67Z" fill="#92E3A9" stroke="#263238" stroke-miterlimit="10"/>
<path d="M221.035 91.9556C219.783 91.9556 217.199 93.2076 216.93 93.4705C216.662 93.7335 203.021 96.6834 203.021 96.6834C203.021 96.6834 192.771 91.8698 191.433 91.4239C190.096 90.978 187.151 89.5488 187.151 89.5488L183.944 94.4538L189.661 98.6442C189.661 98.6442 198.042 104.704 201.518 106.648C204.994 108.591 214.964 106.882 214.964 106.882L224.351 93.0532C223.313 92.5077 222.193 92.1368 221.035 91.9556Z" fill="white" stroke="#263238" stroke-miterlimit="10"/>
<path d="M214.483 104.515L214.26 106.671C214.26 106.671 213.277 119.065 213.117 120.665C212.957 122.266 211.602 131.367 211.602 131.367C211.602 131.367 211.116 133.082 210.602 135.009C211.64 142.22 211.699 149.539 210.779 156.767C212.7 159.353 214.759 161.834 216.947 164.199C218.285 165.719 221.229 167.766 222.475 167.234C223.722 166.703 227.38 162.238 227.38 162.238C227.38 162.238 231.839 152.519 232.908 150.29C233.977 148.06 244.342 132.905 245.485 130.853C246.629 128.8 246.469 127.554 245.222 125.325C243.976 123.095 237.888 107.74 237.259 106.162C236.63 104.584 224.51 94.3053 224.51 94.3053C223.976 93.7629 223.403 93.2604 222.795 92.8018L222.115 93.9051L217.222 97.4095" fill="white"/>
<path d="M214.483 104.515L214.26 106.671C214.26 106.671 213.277 119.065 213.117 120.665C212.957 122.266 211.602 131.367 211.602 131.367C211.602 131.367 211.116 133.082 210.602 135.009C211.64 142.22 211.699 149.539 210.779 156.767C212.7 159.353 214.759 161.834 216.947 164.199C218.285 165.719 221.229 167.766 222.475 167.234C223.722 166.703 227.38 162.238 227.38 162.238C227.38 162.238 231.839 152.519 232.908 150.29C233.977 148.06 244.342 132.905 245.485 130.853C246.629 128.8 246.469 127.554 245.222 125.325C243.976 123.095 237.888 107.74 237.259 106.162C236.63 104.584 224.51 94.3053 224.51 94.3053C223.976 93.7629 223.403 93.2604 222.795 92.8018L222.115 93.9051L217.222 97.4095" stroke="#263238" stroke-miterlimit="10"/>
<path d="M226.472 111.753L221.835 109.97L223.264 118.705C223.264 118.705 219.103 132.791 219.103 133.06C219.103 133.329 218.034 134.935 216.604 136.273C215.175 137.61 214.644 138.502 212.414 140.017C211.968 140.32 211.579 140.589 211.236 140.852C211.385 142.944 211.448 145.036 211.436 147.112L213.214 147.592C213.214 147.592 217.942 143.401 220.349 137.965C222.756 132.528 223.024 130.83 223.47 126.531C223.665 124.279 224.022 122.044 224.539 119.843C224.631 119.488 229.89 115.384 229.89 115.384L226.472 111.753Z" fill="#263238"/>
<path d="M223.173 101.851C223.173 101.851 221.658 105.064 221.389 105.853C220.94 106.892 220.434 107.905 219.874 108.889C219.874 108.889 223.087 111.204 223.796 111.747C224.505 112.29 228.078 114.686 228.078 114.686L230.484 119.145C230.484 119.145 231.553 117.538 233.068 112.993C234.583 108.449 234.675 106.133 235.035 105.562C235.395 104.99 233.16 102.263 230.839 100.925C228.518 99.5876 225.311 99.4104 224.602 100.216L223.173 101.851Z" fill="white" stroke="#263238" stroke-miterlimit="10"/>
<path d="M223.533 107.203C223.533 107.203 224.065 111.205 224.677 112.823C225.288 114.441 225.66 114.538 226.637 113.892C227.615 113.246 230.027 110.147 230.027 110.147L223.533 107.203Z" fill="white" stroke="#263238" stroke-miterlimit="10"/>
<path d="M241.118 101.298C241.118 101.298 243.102 97.9418 244.474 100.229C245.846 102.515 243.405 104.802 241.73 105.259C240.727 105.533 239.707 105.738 238.677 105.871L241.118 101.298Z" fill="#999999" stroke="#263238" stroke-miterlimit="10"/>
<path d="M225.054 91.3787C225.054 91.3787 226.134 87.6342 223.528 88.2059C220.921 88.7775 220.932 92.1161 221.75 93.6482C222.234 94.5674 222.784 95.4501 223.396 96.2894L225.054 91.3787Z" fill="#999999" stroke="#263238" stroke-miterlimit="10"/>
<path d="M231.056 80.1048C231.056 80.1048 225.568 82.2429 224.196 87.2737C222.824 92.3045 221.452 98.5529 222.213 101.909C222.973 105.264 223.127 108.46 224.196 109.529C225.265 110.598 225.717 111.661 228.615 111.359C231.514 111.056 237.305 108.311 238.677 105.87C240.049 103.429 242.947 101.143 244.016 94.1338C245.085 87.1251 245.234 84.2209 240.815 81.1739C236.396 78.1268 231.056 80.1048 231.056 80.1048Z" fill="#999999" stroke="#263238" stroke-miterlimit="10"/>
<path d="M227.364 99.0908C227.364 99.0908 225.757 101.675 226.563 103.013C227.369 104.35 229.77 104.973 231.468 103.819" stroke="#263238" stroke-miterlimit="10"/>
<path d="M224.779 103.995C224.779 103.995 225.225 106.225 228.078 106.488C230.931 106.751 232.537 105.596 232.537 105.596" stroke="#263238" stroke-miterlimit="10"/>
<path d="M229.238 94.3625C229.238 94.3625 227.363 90.5322 225.134 90.7952" stroke="#263238" stroke-miterlimit="10"/>
<path d="M233.252 95.7005C233.252 95.7005 237.082 95.0773 239.043 97.4841" stroke="#263238" stroke-miterlimit="10"/>
<path d="M227.186 95.255C227.186 95.9468 226.866 96.507 226.471 96.507C226.077 96.507 225.757 95.9353 225.757 95.255C225.757 94.5747 226.077 94.0088 226.471 94.0088C226.866 94.0088 227.186 94.569 227.186 95.255Z" fill="#263238"/>
<path d="M235.047 99.942C234.738 100.559 234.207 100.92 233.852 100.742C233.498 100.565 233.463 99.9249 233.772 99.3074C234.081 98.69 234.612 98.3299 234.967 98.5071C235.321 98.6843 235.356 99.3017 235.047 99.942Z" fill="#263238"/>
<path d="M240.826 81.1739C236.401 78.1268 231.068 80.1048 231.068 80.1048C231.068 80.1048 225.58 82.2429 224.208 87.2737C224.07 87.7768 223.933 88.3027 223.796 88.8286C224.225 88.7772 226.609 88.4628 226.929 87.4109C227.407 85.9148 228.164 84.5222 229.158 83.3062C230.142 82.2372 232.548 87.308 235.755 87.2337C238.963 87.1594 242.444 87.4109 242.267 88.2112C242.09 89.0116 240.129 93.8308 240.752 95.1686C241.375 96.5063 242.09 96.5063 242.09 97.5753C242.064 98.4118 241.974 99.245 241.821 100.068L242.347 100.011C243.172 98.1461 243.734 96.1759 244.016 94.1567C245.079 87.1193 245.234 84.2209 240.826 81.1739Z" fill="#263238"/>
<path d="M238.339 132.094C238.339 132.094 229.324 137.611 229.004 139.097C228.684 140.583 225.608 148.644 226.774 152.886C227.941 157.128 233.566 161.69 236.321 159.357C239.077 157.025 239.294 152.04 240.672 146.626C242.05 141.212 245.971 131.351 245.971 129.87C246.013 129.077 245.79 128.293 245.337 127.641" fill="white"/>
<path d="M238.339 132.094C238.339 132.094 229.324 137.611 229.004 139.097C228.684 140.583 225.608 148.644 226.774 152.886C227.941 157.128 233.566 161.69 236.321 159.357C239.077 157.025 239.294 152.04 240.672 146.626C242.05 141.212 245.971 131.351 245.971 129.87C246.013 129.077 245.79 128.293 245.337 127.641" stroke="#263238" stroke-miterlimit="10"/>
<path d="M226.563 143.658C226.563 143.658 235.796 152.565 236.43 154.583C237.065 156.601 237.173 158.614 235.367 160.626C233.56 162.638 230.496 165.079 227.363 162.215C224.231 159.351 223.173 152.354 222.956 150.341C222.735 148.696 222.416 147.066 222.001 145.459L225.294 142.807L226.563 143.658Z" fill="white" stroke="#263238" stroke-miterlimit="10"/>
<path d="M225.757 139.926C225.757 139.926 223.442 139.48 222.458 140.372C221.666 141.167 221.031 142.106 220.589 143.139C219.944 144.171 218.916 144.907 217.73 145.185C216.301 145.545 215.409 147.329 217.285 147.775C219.16 148.221 222.007 148.038 223.613 147.152C224.712 146.617 225.663 145.82 226.38 144.831C227.18 143.847 227.718 143.224 228.164 143.047C228.61 142.87 228.964 143.047 230.033 142.51C231.102 141.972 232.263 141.086 231.817 140.286C231.371 139.486 231.102 139.571 229.587 140.017C228.838 140.264 228.059 140.414 227.272 140.463L225.757 139.926Z" fill="#999999" stroke="#263238" stroke-miterlimit="10"/>
<path d="M214.987 145.167C214.987 145.167 214.604 142.681 215.181 141.869C215.759 141.057 216.233 141.966 216.279 142.921C216.32 143.733 216.466 144.536 216.713 145.31C216.856 145.648 217.285 145.836 217.765 146.031C218.245 146.225 218.434 146.842 217.668 147.037C216.902 147.231 216.039 146.842 215.953 146.602C215.867 146.362 214.987 145.167 214.987 145.167Z" fill="#999999" stroke="#263238" stroke-miterlimit="10"/>
<path d="M219.548 148.118C219.548 148.118 217.565 148.049 216.97 147.706C216.588 147.41 216.273 147.037 216.043 146.612C215.814 146.187 215.676 145.718 215.638 145.237C215.564 144.208 215.552 143.602 216.404 143.922C217.256 144.242 217.164 144.859 217.547 145.637C217.93 146.414 218.159 147.032 218.416 147.015C218.703 147.06 218.977 147.163 219.222 147.318C219.222 147.318 220.177 147.895 219.548 148.118Z" fill="#999999" stroke="#263238" stroke-miterlimit="10"/>
<path d="M223.618 147.151C223.079 147.592 222.478 147.952 221.835 148.22C221.034 148.483 219.279 147.986 218.405 147.277C217.53 146.568 214.106 145.407 216.204 144.641C217.782 144.07 219.359 145.813 220.337 146.259C221.315 146.705 222.744 145.63 223.104 145.453" fill="#999999"/>
<path d="M223.618 147.151C223.079 147.592 222.478 147.952 221.835 148.22C221.034 148.483 219.279 147.986 218.405 147.277C217.53 146.568 214.106 145.407 216.204 144.641C217.782 144.07 219.359 145.813 220.337 146.259C221.315 146.705 222.744 145.63 223.104 145.453" stroke="#263238" stroke-miterlimit="10"/>
<path d="M226.386 144.83C226.386 144.83 225.849 145.814 225.243 146.968C224.637 148.123 224.099 147.775 223.636 147.151C223.173 146.528 219.177 144.207 219.177 144.207C219.177 144.207 218.823 143.064 220.606 143.138C222.39 143.213 224.528 145.185 224.528 145.185" fill="#999999"/>
<path d="M226.386 144.83C226.386 144.83 225.849 145.814 225.243 146.968C224.637 148.123 224.099 147.775 223.636 147.151C223.173 146.528 219.177 144.207 219.177 144.207C219.177 144.207 218.823 143.064 220.606 143.138C222.39 143.213 224.528 145.185 224.528 145.185" stroke="#263238" stroke-miterlimit="10"/>
<path d="M137.039 3.64353C137.039 3.64353 139.657 -0.135263 146.185 4.36956C152.714 8.87439 149.381 15.4144 147.329 17.884C145.276 20.3537 145.585 19.3361 151.393 22.2402C157.202 25.1444 154.589 31.2499 152.994 32.8506C151.399 34.4513 153.286 34.5656 155.172 37.6413C157.059 40.7169 154.298 46.0678 151.685 47.6685C149.072 49.2692 142.269 50.2811 136.17 48.4231C130.07 46.5652 130.561 35.6632 132.242 27.4997C133.923 19.3361 135.587 13.5507 134.426 10.3493C133.265 7.14792 135.587 3.20906 137.039 3.64353Z" fill="#263238"/>
<path d="M140.377 65.8137L149.592 34.8287L133.986 29.6836L123.507 31.673C123.507 31.673 107.9 36.9096 107.271 38.3788C106.699 39.6594 115.743 60.72 118.053 66.0652C125.447 64.9516 132.96 64.8669 140.377 65.8137Z" fill="#92E3A9" stroke="#263238" stroke-linecap="round" stroke-linejoin="round"/>
<path d="M140.869 31.9586L134.009 29.6719L123.53 31.6613C123.53 31.6613 120.317 32.7532 116.772 34.0624C117.012 38.0065 117.947 41.8773 119.534 45.4959C122.964 53.6652 130.847 61.4172 130.847 61.4172C130.847 61.4172 138.696 53.1564 140.783 41.5285C141.42 38.373 141.449 35.125 140.869 31.9586Z" fill="#92E3A9" stroke="#263238" stroke-linecap="round" stroke-linejoin="round"/>
<path d="M123.609 32.959L124.633 37.5553" stroke="#263238" stroke-linecap="round" stroke-linejoin="round"/>
<path d="M123.507 31.6848L122.409 32.0563C122.521 36.071 123.096 40.0592 124.124 43.9415C126.325 52.7397 130.83 57.9762 130.83 57.9762C130.83 57.9762 135.438 44.5704 136.067 38.5963C136.356 35.8305 136.269 33.0382 135.809 30.2956L133.974 29.6953L123.507 31.6848Z" fill="white" stroke="#263238" stroke-linecap="round" stroke-linejoin="round"/>
<path d="M134.272 46.8965C131.215 47.5438 128.056 47.5438 124.999 46.8965C126.279 50.9067 128.256 54.6593 130.842 57.9813C130.842 57.9813 132.745 52.4246 134.272 46.8965Z" stroke="#263238" stroke-linecap="round" stroke-linejoin="round"/>
<path d="M139.446 17.7123C139.446 17.7123 141.046 13.9335 140.463 10.8864C139.88 7.83939 141.035 4.0606 133.031 1.00783C125.028 -2.04493 121.701 2.45989 118.654 6.23869C115.607 10.0175 115.915 11.4638 115.63 12.4814C115.344 13.499 112.725 12.4814 111.273 15.3855C109.821 18.2897 110.404 19.4559 114.035 20.765C115.504 21.3448 117.008 21.8299 118.539 22.2171L131.831 20.1762C131.831 20.1762 132.483 18.8728 133.352 20.1762C134.221 21.4796 134.369 22.0628 136.113 22.0628C137.856 22.0628 137.999 21.1938 137.999 21.1938L139.446 17.7123Z" fill="#263238"/>
<path d="M117.658 19.1642C117.658 19.1642 119.836 27.2992 121.145 29.4544C122.455 31.6096 125.502 36.1373 127.68 36.4289C129.858 36.7204 134.797 32.3585 135.683 29.8889C136.569 27.4192 138.004 21.1765 138.004 21.1765C137.214 21.3253 136.397 21.2254 135.666 20.8906C134.935 20.5558 134.326 20.0026 133.922 19.3071C133.221 18.0535 132.406 16.867 131.487 15.7627C131.487 15.7627 133.122 18.3524 124.776 20.5019C119.733 21.8111 117.658 19.1642 117.658 19.1642Z" fill="white" stroke="#263238" stroke-linecap="round" stroke-linejoin="round"/>
<path d="M137.993 21.1996C137.993 21.1996 138.719 17.2778 139.445 17.7123C140.171 18.1468 140.897 18.8557 139.885 20.908C139.358 22.059 138.56 23.0653 137.559 23.8407L137.993 21.1996Z" fill="white" stroke="#263238" stroke-linecap="round" stroke-linejoin="round"/>
<path d="M125.73 28.4141C125.73 28.4141 125.484 30.8837 125.89 31.2096C126.296 31.5354 127.948 30.3063 127.948 30.3063" stroke="#263238" stroke-linecap="round" stroke-linejoin="round"/>
<path d="M129.761 31.6777C129.13 32.215 128.348 32.5431 127.523 32.6168C126.697 32.6905 125.869 32.5062 125.153 32.0893" stroke="#263238" stroke-linecap="round" stroke-linejoin="round"/>
<path d="M130.058 25.87C130.058 26.3903 129.743 26.8133 129.349 26.8133C128.954 26.8133 128.646 26.3903 128.646 25.87C128.646 25.3498 128.96 24.9268 129.349 24.9268C129.737 24.9268 130.058 25.3498 130.058 25.87Z" fill="#263238"/>
<path d="M123.507 26.367C123.898 26.367 124.216 25.9447 124.216 25.4237C124.216 24.9028 123.898 24.4805 123.507 24.4805C123.115 24.4805 122.798 24.9028 122.798 25.4237C122.798 25.9447 123.115 26.367 123.507 26.367Z" fill="#263238"/>
<path d="M128.114 23.5263C128.684 23.3097 129.292 23.2127 129.901 23.2412C130.51 23.2697 131.106 23.4232 131.653 23.6921" stroke="#263238" stroke-linecap="round" stroke-linejoin="round"/>
<path d="M124.496 23.7779C124.496 23.7779 123.175 22.0628 120.871 23.2805" stroke="#263238" stroke-linecap="round" stroke-linejoin="round"/>
<path d="M166.982 43.8493L167.926 41.3339C167.926 41.3339 168.137 38.7156 168.343 37.7723C168.549 36.8291 169.704 36.3031 170.756 35.154C171.807 34.005 172.642 32.2156 173.162 32.7416C173.683 33.2675 173.688 33.7877 173.271 34.5252C172.945 35.0594 172.664 35.6196 172.431 36.2002C172.328 36.5146 177.576 34.2108 177.576 34.2108C177.576 34.2108 179.862 31.4839 180.434 32.1127C181.006 32.7416 180.12 35.9887 179.697 37.3493C179.089 39.0292 177.948 40.4645 176.449 41.4368C175.089 42.1685 170.898 43.7235 170.898 43.7235L169.326 46.4504L166.982 43.8493Z" fill="white" stroke="#263238" stroke-linecap="round" stroke-linejoin="round"/>
<path d="M169.938 41.5281C169.938 41.5281 171.825 39.8531 173.294 39.5387C174.563 39.1785 175.791 38.6881 176.959 38.0752C176.959 38.0752 178.531 32.8329 178.845 33.6733C179.16 34.5136 178.948 36.606 178.531 38.0752C178.202 39.385 177.468 40.5575 176.433 41.4252" fill="white"/>
<path d="M169.938 41.5281C169.938 41.5281 171.825 39.8531 173.294 39.5387C174.563 39.1785 175.791 38.6881 176.959 38.0752C176.959 38.0752 178.531 32.8329 178.845 33.6733C179.16 34.5136 178.948 36.606 178.531 38.0752C178.202 39.385 177.468 40.5575 176.433 41.4252" stroke="#263238" stroke-linecap="round" stroke-linejoin="round"/>
<path d="M149.592 34.8281L156.715 55.6715L167.006 43.8378L170.464 48.3426C170.464 48.3426 159.031 66.3562 158.31 66.8821C157.59 67.4081 157.167 67.511 155.904 67.511C154.64 67.511 144.167 53.0532 144.167 53.0532L149.592 34.8281Z" fill="#92E3A9" stroke="#263238" stroke-linecap="round" stroke-linejoin="round"/>
<path d="M107.271 38.3896L100.982 68.9802L120.259 80.711L121.934 75.9947L111.353 65.2071L113.451 54.7282L107.271 38.3896Z" fill="#92E3A9" stroke="#263238" stroke-linecap="round" stroke-linejoin="round"/>
<path d="M121.917 75.9944L128.703 75.6056C128.703 75.6056 132.533 75.3541 133.899 74.5137C135.266 73.6734 136.295 73.8334 136.295 74.5652C136.295 75.2969 135.614 75.76 134.214 76.6118C134.054 76.709 137.381 78.6756 138.501 79.4702C138.615 79.5471 138.697 79.6621 138.732 79.7943C138.768 79.9265 138.755 80.0671 138.696 80.1905C138.668 80.2604 138.627 80.3241 138.574 80.378C138.522 80.4319 138.46 80.475 138.391 80.5047C138.321 80.5344 138.247 80.5503 138.172 80.5513C138.097 80.5523 138.022 80.5385 137.953 80.5106L133.128 78.7956L130.298 78.6927L134.911 80.5792L137.97 82.2943C138.112 82.3749 138.224 82.5007 138.287 82.6519C138.35 82.803 138.361 82.9708 138.318 83.1289C138.273 83.296 138.17 83.4416 138.028 83.54C137.886 83.6384 137.713 83.6831 137.541 83.6663C136.586 83.5691 134.82 83.3805 134.597 83.3062C134.282 83.2033 130.092 81.6311 130.092 81.6311L132.71 83.6206L134.637 84.9869C134.713 85.0396 134.777 85.1074 134.826 85.1859C134.875 85.2644 134.908 85.3521 134.922 85.4437C134.936 85.5352 134.931 85.6286 134.907 85.7181C134.884 85.8077 134.842 85.8915 134.785 85.9645C134.699 86.0759 134.58 86.1581 134.445 86.2C134.31 86.2419 134.165 86.2415 134.031 86.1988L130.601 85.0898L128.194 84.6667L124.735 82.38L120.545 79.5502L121.917 75.9944Z" fill="white" stroke="#263238" stroke-linecap="round" stroke-linejoin="round"/>
<path d="M129.687 84.9015L127.383 82.5977" stroke="#263238" stroke-linecap="round" stroke-linejoin="round"/>
<path d="M134.231 76.6122C134.231 76.6122 132.047 75.1087 130.16 75.4231" stroke="#263238" stroke-linecap="round" stroke-linejoin="round"/>
<path d="M50.6988 164.125C49.1154 157.02 48.4924 149.734 48.8465 142.464L18.1645 107.843C17.6245 107.235 16.9163 106.8 16.1295 106.594C15.3426 106.388 14.5124 106.42 13.7436 106.685C12.9748 106.951 12.3018 107.438 11.8097 108.086C11.3176 108.733 11.0284 109.512 10.9785 110.324L9.26351 139.125C9.17638 140.597 9.6297 142.051 10.5384 143.213C15.8149 149.964 34.2973 173.352 37.453 173.957C40.8831 174.615 52.0308 173.792 53.46 173.683C52.3463 170.556 51.4241 167.364 50.6988 164.125Z" fill="#263238"/>
<path d="M69.3701 82.7865C69.3701 82.7865 69.2386 79.0535 68.9699 78.5218C68.7012 77.9901 67.6379 76.2351 67.9008 75.3204C68.1638 74.4057 68.5697 73.451 69.1014 71.7188C69.633 69.9866 69.9017 69.4321 70.5706 69.5865C71.2394 69.7408 71.2337 70.6555 70.8336 71.8732C70.5819 72.6944 70.4472 73.5469 70.4334 74.4057L71.6339 76.1207C71.6339 76.1207 72.7773 71.6674 73.0059 70.9756C73.2346 70.2839 73.6176 68.9176 74.0635 68.6889C74.2132 68.633 74.3753 68.6189 74.5324 68.6481C74.6896 68.6773 74.8358 68.7487 74.9554 68.8547C74.9554 68.8547 75.3441 68.0201 75.9558 68.1859C76.5675 68.3516 76.6247 68.466 76.7904 69.1863C76.9562 69.9066 77.6251 69.6894 78.0138 70.524C78.2857 71.165 78.4777 71.837 78.5855 72.5249C78.5855 72.5249 78.8085 72.3019 78.8656 74.137C78.9968 75.7868 78.9585 77.4458 78.7513 79.0878C78.4769 80.8657 77.2535 81.7003 76.4189 82.5921C75.5842 83.484 74.6352 84.1471 74.4694 84.4844C74.3036 84.8217 73.8978 85.0561 73.7491 85.2047C73.6005 85.3534 68.9642 84.1471 68.9642 84.1471L69.3701 82.7865Z" fill="#CCCCCC" stroke="#263238" stroke-linecap="round" stroke-linejoin="round"/>
<path d="M74.8406 69.2773L74.5662 72.0043L73.6172 75.3943L73.3428 76.3947" stroke="#263238" stroke-linecap="round" stroke-linejoin="round"/>
<path d="M76.8982 69.6094C76.6268 70.0837 76.4923 70.6239 76.5094 71.1701C76.4351 72.6065 76.269 74.0367 76.0121 75.4519C75.8714 76.0295 75.6662 76.5895 75.4004 77.1212" stroke="#263238" stroke-linecap="round" stroke-linejoin="round"/>
<path d="M78.4711 73.0044C78.4711 73.0044 77.745 72.9472 77.6364 74.062C77.5278 75.1768 77.2991 76.8404 77.2477 77.0633C77.13 77.3213 76.9802 77.5633 76.8018 77.7836" stroke="#263238" stroke-linecap="round" stroke-linejoin="round"/>
<path d="M72.0625 76.8408C72.0625 76.8408 72.84 78.1785 72.6742 78.956C72.5847 79.3886 72.4721 79.8161 72.3369 80.2366" stroke="#263238" stroke-linecap="round" stroke-linejoin="round"/>
<path d="M37.7723 100.252C37.7723 100.252 42.5744 101.715 45.6386 101.715C48.7028 101.715 58.7015 103.184 58.7015 103.184L69.369 82.7868C69.993 82.7156 70.6248 82.7602 71.2327 82.9183C72.1702 83.187 75.6346 85.588 75.6346 85.588C75.6346 85.588 71.2327 102.384 70.4323 105.185C69.9814 106.658 69.3578 108.072 68.5744 109.398C68.1472 110.128 67.5231 110.722 66.7736 111.113C64.3211 112.411 58.0955 115.481 52.1729 116.624C44.5696 118.094 43.2376 115.961 43.2376 115.961L36.5718 117.156C36.5718 117.156 32.9759 120.489 29.5059 110.227C26.0358 99.9657 37.7723 100.252 37.7723 100.252Z" fill="white" stroke="#263238" stroke-linecap="round" stroke-linejoin="round"/>
<path d="M40.9511 103.092L39.7735 100.514C39.7735 100.514 38.3043 96.9182 36.1719 96.781C34.0396 96.6438 27.774 97.4498 24.7326 100.914C22.9605 102.856 21.4252 105.002 20.1592 107.306C18.7328 110.472 17.4865 113.717 16.4261 117.024C14.2938 123.421 13.4934 130.487 18.2898 139.954C21.2662 145.776 24.8949 151.24 29.106 156.241C29.106 156.241 28.1627 159.974 36.4406 164.376C41.5171 167.08 47.5712 166.594 51.0984 165.834C50.9612 165.262 50.824 164.691 50.6983 164.119C48.1692 152.802 48.0971 141.074 50.4867 129.727C49.0518 128.418 46.9652 126.445 46.3078 124.107C45.5875 121.558 45.3016 118.247 44.9586 115.229" fill="white"/>
<path d="M40.9511 103.092L39.7735 100.514C39.7735 100.514 38.3043 96.9182 36.1719 96.781C34.0396 96.6438 27.774 97.4498 24.7326 100.914C22.9605 102.856 21.4252 105.002 20.1592 107.306C18.7328 110.472 17.4865 113.717 16.4261 117.024C14.2938 123.421 13.4934 130.487 18.2898 139.954C21.2662 145.776 24.8949 151.24 29.106 156.241C29.106 156.241 28.1627 159.974 36.4406 164.376C41.5171 167.08 47.5712 166.594 51.0984 165.834C50.9612 165.262 50.824 164.691 50.6983 164.119C48.1692 152.802 48.0971 141.074 50.4867 129.727C49.0518 128.418 46.9652 126.445 46.3078 124.107C45.5875 121.558 45.3016 118.247 44.9586 115.229" stroke="#263238" stroke-linecap="round" stroke-linejoin="round"/>
<path d="M20.7313 106.386L19.668 110.513C19.9698 111.516 20.4995 112.435 21.2155 113.198C21.9316 113.962 22.8146 114.55 23.7955 114.915C27.1284 116.116 32.9995 116.516 35.2634 113.314C37.5272 110.113 34.0628 106.386 34.0628 106.386H20.7313Z" fill="white" stroke="#263238" stroke-linecap="round" stroke-linejoin="round"/>
<path d="M33.6405 83.1872C34.162 83.6512 34.611 84.1908 34.9725 84.7879C35.7728 85.9884 35.3727 87.0746 36.5732 87.3204C37.7737 87.5662 39.6431 85.9884 40.0376 87.7206C40.432 89.4528 39.3744 92.9172 39.3744 92.9172C39.3744 92.9172 40.0376 98.1194 39.7746 100.515C39.5116 102.91 39.1057 104.248 37.9052 104.785C37.2677 105.082 36.5983 105.304 35.91 105.448L33.2403 111.165C33.2403 111.165 30.3076 111.965 26.1744 110.096C22.0411 108.227 20.732 106.386 20.732 106.386C20.732 106.386 17.9308 104.385 16.8674 101.584C15.8041 98.7826 26.586 95.1867 29.3986 90.3846C32.2113 85.5825 32.1656 82.3868 33.6405 83.1872Z" fill="#CCCCCC" stroke="#263238" stroke-linecap="round" stroke-linejoin="round"/>
<path d="M30.1752 105.849C31.0491 105.528 31.839 105.014 32.4856 104.345C33.1321 103.676 33.6186 102.868 33.9083 101.984C33.9083 101.984 33.5081 103.448 31.2385 104.116C28.969 104.785 27.2368 102.401 27.5055 99.32C27.7742 96.2386 30.4382 96.6503 30.8384 96.9189C31.2385 97.1876 32.9764 97.9823 33.6396 97.0504C34.3027 96.1186 30.7069 92.254 30.7069 92.254L31.5072 86.7831L32.8964 83.1758C32.0618 83.7475 31.6101 86.5544 29.3749 90.3846C26.5736 95.1867 15.7746 98.7826 16.8437 101.584C17.9127 104.385 20.7082 106.386 20.7082 106.386C22.7091 107.306 27.1053 107.049 30.1752 105.849Z" fill="#263238"/>
<path d="M9.10895 92.654L16.8438 101.589C16.8438 101.589 21.24 100.52 27.7743 95.4552C29.6605 94.0286 31.1775 92.1707 32.198 90.0371C33.2185 87.9036 33.7128 85.5566 33.6397 83.1927C33.6397 83.1927 26.1736 77.4759 24.3099 76.5269C22.4462 75.578 16.0434 77.1901 12.3046 81.592C8.56585 85.9939 8.15425 90.7846 9.10895 92.654Z" fill="white" stroke="#263238" stroke-linecap="round" stroke-linejoin="round"/>
<path d="M20.2568 89.452C22.8808 86.8109 24.31 83.2836 24.31 81.1855" stroke="#263238" stroke-linecap="round" stroke-linejoin="round"/>
<path d="M10.8408 92.2538C10.8408 92.2538 12.7102 94.1174 17.2436 91.7164C17.6716 91.4874 18.0859 91.2335 18.4842 90.9561" stroke="#263238" stroke-linecap="round" stroke-linejoin="round"/>
<path d="M39.3732 96.3867C39.3732 96.3867 39.2418 98.2504 37.6582 98.5191" stroke="#263238" stroke-linecap="round" stroke-linejoin="round"/>
<path d="M35.8528 88.6864C36.2073 89.4182 36.2759 90.1156 36.0072 90.2414C35.7385 90.3672 35.2412 89.8812 34.8638 89.1495C34.4865 88.4177 34.4465 87.726 34.7095 87.5945C34.9725 87.463 35.5041 87.9547 35.8528 88.6864Z" fill="#263238"/>
<path d="M59.8457 133.643C59.8457 133.643 62.8642 130.722 63.7674 129.716C64.6707 128.71 65.3796 128.812 66.7859 128.309C68.2731 127.661 69.7185 126.92 71.1135 126.091C71.5194 125.891 72.3254 126.497 71.8224 127.303C71.3193 128.109 71.1135 128.006 70.4103 128.612C69.7072 129.218 68.5009 130.019 68.2951 130.327C68.0893 130.636 71.8224 129.824 72.4226 129.521C73.0229 129.218 74.5378 127.235 74.938 126.806C75.3382 126.377 76.0471 125.8 76.3501 126.6C76.653 127.4 75.241 128.887 74.0633 131.231C72.8857 133.575 69.6328 136.267 68.0264 136.667C66.42 137.067 63.1957 137.37 62.4869 137.473C61.778 137.576 59.8457 133.643 59.8457 133.643Z" fill="#CCCCCC" stroke="#263238" stroke-miterlimit="10"/>
<path d="M68.2943 130.321L65.8818 132.534" stroke="#263238" stroke-miterlimit="10"/>
<path d="M21.0974 126.497C21.0974 126.497 20.9945 136.461 23.3098 140.886C25.6251 145.311 32.1651 153.463 33.7772 156.087C35.3893 158.711 41.6263 160.712 43.4386 159.705C45.2508 158.699 64.0704 137.982 64.0704 137.982L59.8457 133.654L43.7416 145.431C43.7416 145.431 42.5353 143.716 42.3295 143.413C41.728 142.867 41.0901 142.363 40.4201 141.903C40.4201 141.903 40.3172 136.187 39.2139 134.054C37.319 130.933 35.1269 128.002 32.6681 125.302" fill="white"/>
<path d="M21.0974 126.497C21.0974 126.497 20.9945 136.461 23.3098 140.886C25.6251 145.311 32.1651 153.463 33.7772 156.087C35.3893 158.711 41.6263 160.712 43.4386 159.705C45.2508 158.699 64.0704 137.982 64.0704 137.982L59.8457 133.654L43.7416 145.431C43.7416 145.431 42.5353 143.716 42.3295 143.413C41.728 142.867 41.0901 142.363 40.4201 141.903C40.4201 141.903 40.3172 136.187 39.2139 134.054C37.319 130.933 35.1269 128.002 32.6681 125.302" stroke="#263238" stroke-miterlimit="10"/>
<g opacity="0.3">
<path d="M75.583 19.4043L82.7519 26.5731" stroke="black" stroke-linecap="round" stroke-linejoin="round"/>
<path d="M82.7519 19.4043L75.583 26.5731" stroke="black" stroke-linecap="round" stroke-linejoin="round"/>
<path d="M10.2803 244.508L17.4548 251.677" stroke="black" stroke-linecap="round" stroke-linejoin="round"/>
<path d="M17.4548 244.508L10.2803 251.677" stroke="black" stroke-linecap="round" stroke-linejoin="round"/>
<path d="M28.5342 49.5547L33.1305 54.1567" stroke="black" stroke-linecap="round" stroke-linejoin="round"/>
<path d="M33.1305 49.5547L28.5342 54.1567" stroke="black" stroke-linecap="round" stroke-linejoin="round"/>
<path d="M179.212 244.508L183.808 249.104" stroke="black" stroke-linecap="round" stroke-linejoin="round"/>
<path d="M183.808 244.508L179.212 249.104" stroke="black" stroke-linecap="round" stroke-linejoin="round"/>
<path d="M34.5537 220.578L39.15 225.174" stroke="black" stroke-linecap="round" stroke-linejoin="round"/>
<path d="M39.15 220.578L34.5537 225.174" stroke="black" stroke-linecap="round" stroke-linejoin="round"/>
<path d="M185.432 14.9453L190.028 19.5416" stroke="black" stroke-linecap="round" stroke-linejoin="round"/>
<path d="M246.538 78.3496L251.134 82.9516" stroke="black" stroke-linecap="round" stroke-linejoin="round"/>
<path d="M251.134 78.3496L246.538 82.9516" stroke="black" stroke-linecap="round" stroke-linejoin="round"/>
<path d="M190.028 14.9453L185.432 19.5416" stroke="black" stroke-linecap="round" stroke-linejoin="round"/>
<path d="M233.967 177.988L238.563 182.59" stroke="black" stroke-linecap="round" stroke-linejoin="round"/>
<path d="M238.563 177.988L233.967 182.59" stroke="black" stroke-linecap="round" stroke-linejoin="round"/>
<path d="M74.3027 240.586L78.899 245.188" stroke="black" stroke-linecap="round" stroke-linejoin="round"/>
<path d="M78.899 240.586L74.3027 245.188" stroke="black" stroke-linecap="round" stroke-linejoin="round"/>
<path d="M245.458 28.8711C245.458 28.3058 245.29 27.7531 244.976 27.2831C244.662 26.813 244.216 26.4466 243.693 26.2303C243.171 26.0139 242.596 25.9573 242.042 26.0676C241.487 26.1779 240.978 26.4501 240.578 26.8499C240.179 27.2497 239.906 27.759 239.796 28.3134C239.686 28.8679 239.742 29.4426 239.959 29.9649C240.175 30.4873 240.542 30.9337 241.012 31.2478C241.482 31.5618 242.034 31.7295 242.6 31.7295C243.358 31.7295 244.085 31.4283 244.621 30.8923C245.157 30.3562 245.458 29.6292 245.458 28.8711Z" stroke="black" stroke-linecap="round" stroke-linejoin="round"/>
<path d="M111.21 8.97656C111.21 8.41122 111.042 7.85858 110.728 7.38852C110.414 6.91846 109.968 6.55209 109.445 6.33575C108.923 6.1194 108.348 6.0628 107.794 6.17309C107.239 6.28338 106.73 6.55562 106.33 6.95537C105.931 7.35512 105.658 7.86444 105.548 8.41891C105.438 8.97339 105.494 9.54812 105.711 10.0704C105.927 10.5927 106.293 11.0391 106.764 11.3532C107.234 11.6673 107.786 11.835 108.352 11.835C109.11 11.835 109.837 11.5338 110.373 10.9977C110.909 10.4617 111.21 9.73465 111.21 8.97656Z" stroke="black" stroke-linecap="round" stroke-linejoin="round"/>
<path d="M47.9369 21.1649C49.5061 21.1649 50.7782 19.8928 50.7782 18.3237C50.7782 16.7545 49.5061 15.4824 47.9369 15.4824C46.3678 15.4824 45.0957 16.7545 45.0957 18.3237C45.0957 19.8928 46.3678 21.1649 47.9369 21.1649Z" stroke="black" stroke-linecap="round" stroke-linejoin="round"/>
<path d="M16.2998 182.59C16.2998 182.025 16.1322 181.472 15.8181 181.002C15.504 180.532 15.0576 180.165 14.5353 179.949C14.013 179.733 13.4382 179.676 12.8838 179.786C12.3293 179.897 11.82 180.169 11.4202 180.569C11.0205 180.968 10.7482 181.478 10.6379 182.032C10.5276 182.587 10.5842 183.161 10.8006 183.684C11.0169 184.206 11.3833 184.652 11.8534 184.967C12.3234 185.281 12.8761 185.448 13.4414 185.448C14.1995 185.448 14.9265 185.147 15.4626 184.611C15.9986 184.075 16.2998 183.348 16.2998 182.59Z" stroke="black" stroke-linecap="round" stroke-linejoin="round"/>
<path d="M208.55 227.609C208.55 227.044 208.382 226.491 208.068 226.021C207.754 225.551 207.308 225.185 206.785 224.969C206.263 224.752 205.688 224.696 205.134 224.806C204.579 224.916 204.07 225.188 203.67 225.588C203.27 225.988 202.998 226.497 202.888 227.052C202.778 227.606 202.834 228.181 203.051 228.703C203.267 229.226 203.633 229.672 204.103 229.986C204.573 230.3 205.126 230.468 205.691 230.468C206.449 230.468 207.177 230.167 207.713 229.631C208.249 229.095 208.55 228.367 208.55 227.609Z" stroke="black" stroke-linecap="round" stroke-linejoin="round"/>
<path d="M249.11 166.76C249.11 166.194 248.943 165.642 248.629 165.172C248.315 164.702 247.868 164.335 247.346 164.119C246.824 163.903 246.249 163.846 245.694 163.956C245.14 164.067 244.631 164.339 244.231 164.739C243.831 165.138 243.559 165.648 243.448 166.202C243.338 166.757 243.395 167.331 243.611 167.854C243.827 168.376 244.194 168.822 244.664 169.136C245.134 169.451 245.687 169.618 246.252 169.618C247.01 169.618 247.737 169.317 248.273 168.781C248.809 168.245 249.11 167.518 249.11 166.76Z" stroke="black" stroke-linecap="round" stroke-linejoin="round"/>
<path d="M233.927 213.3C233.929 212.795 233.78 212.302 233.501 211.881C233.221 211.461 232.823 211.134 232.358 210.94C231.892 210.746 231.379 210.695 230.884 210.792C230.389 210.89 229.934 211.133 229.577 211.489C229.22 211.845 228.976 212.3 228.878 212.794C228.779 213.289 228.829 213.802 229.022 214.268C229.214 214.734 229.541 215.133 229.961 215.413C230.38 215.694 230.873 215.844 231.378 215.844C232.053 215.844 232.701 215.576 233.179 215.099C233.657 214.622 233.926 213.975 233.927 213.3Z" stroke="black" stroke-linecap="round" stroke-linejoin="round"/>
<path d="M240.188 228.016L244.784 232.612" stroke="black" stroke-linecap="round" stroke-linejoin="round"/>
<path d="M244.784 228.016L240.188 232.612" stroke="black" stroke-linecap="round" stroke-linejoin="round"/>
<path d="M50.4861 85.536C50.4861 85.0317 50.3366 84.5388 50.0564 84.1195C49.7762 83.7002 49.378 83.3734 48.9121 83.1804C48.4462 82.9874 47.9336 82.9369 47.439 83.0353C46.9444 83.1337 46.4901 83.3765 46.1335 83.7331C45.7769 84.0897 45.5341 84.544 45.4357 85.0386C45.3373 85.5332 45.3878 86.0458 45.5808 86.5117C45.7738 86.9776 46.1006 87.3758 46.5199 87.656C46.9392 87.9362 47.4321 88.0857 47.9364 88.0857C48.6126 88.0857 49.2611 87.8171 49.7393 87.3389C50.2175 86.8608 50.4861 86.2122 50.4861 85.536Z" stroke="black" stroke-linecap="round" stroke-linejoin="round"/>
</g>
</svg>
