<svg width="48" height="48" viewBox="0 0 48 48" fill="none" xmlns="http://www.w3.org/2000/svg">
<rect width="48" height="48" rx="24" fill="#22C58B" fill-opacity="0.2"/>
<path d="M10.25 34V11.5H22.75V16.5H35.25V26.5H32.75V19H22.75V21.5H25.25V24H22.75V26.5H25.25V29H22.75V31.5H27.75V34H10.25ZM12.75 31.5H15.25V29H12.75V31.5ZM12.75 26.5H15.25V24H12.75V26.5ZM12.75 21.5H15.25V19H12.75V21.5ZM12.75 16.5H15.25V14H12.75V16.5ZM17.75 31.5H20.25V29H17.75V31.5ZM17.75 26.5H20.25V24H17.75V26.5ZM17.75 21.5H20.25V19H17.75V21.5ZM17.75 16.5H20.25V14H17.75V16.5ZM32.75 36.5V34H30.25V31.5H32.75V29H35.25V31.5H37.75V34H35.25V36.5H32.75ZM27.75 24V21.5H30.25V24H27.75ZM27.75 29V26.5H30.25V29H27.75Z" fill="#0D2C21"/>
</svg>
