<svg width="343" height="363" viewBox="0 0 343 363" fill="none" xmlns="http://www.w3.org/2000/svg">
<path d="M0.5 329.013H342.406" stroke="#263238" stroke-linecap="round" stroke-linejoin="round"/>
<path d="M194.216 68.8796V56.0475L184.604 55.2302C184.042 53.2233 183.247 51.2894 182.234 49.468L188.437 42.112L179.365 33.0396L172.009 39.2432C170.203 38.2265 168.282 37.4281 166.288 36.8648L165.47 27.2529H152.532L151.715 36.8648C149.72 37.4281 147.799 38.2265 145.993 39.2432L138.637 33.0396L129.565 42.112L135.768 49.468C134.756 51.2894 133.96 53.2233 133.398 55.2302L123.786 56.0475V68.8796L133.398 69.697C133.963 71.6898 134.758 73.6099 135.768 75.4183L129.565 82.7743L138.637 91.8467L145.993 85.6431C147.799 86.6598 149.72 87.4582 151.715 88.0215L152.532 97.6334H165.364L166.181 88.0215C168.189 87.459 170.123 86.6606 171.944 85.6431L179.299 91.8467L188.372 82.7743L182.168 75.4183C183.178 73.6099 183.974 71.6898 184.539 69.697L194.216 68.8796ZM158.989 77.3717C156.04 77.3717 153.158 76.4974 150.706 74.8592C148.255 73.2211 146.344 70.8928 145.215 68.1687C144.087 65.4446 143.792 62.447 144.367 59.5552C144.942 56.6633 146.362 54.0069 148.447 51.9219C150.532 49.837 153.188 48.4171 156.08 47.8419C158.972 47.2667 161.97 47.5619 164.694 48.6903C167.418 49.8186 169.746 51.7294 171.384 54.1811C173.023 56.6327 173.897 59.515 173.897 62.4636C173.896 64.4238 173.508 66.3646 172.757 68.175C172.005 69.9854 170.904 71.6298 169.516 73.0144C168.129 74.399 166.482 75.4964 164.67 76.2441C162.858 76.9918 160.916 77.3749 158.956 77.3717H158.989Z" stroke="#263238" stroke-linecap="round" stroke-linejoin="round"/>
<path d="M332.091 194.299V188.153L327.482 187.753C327.21 186.791 326.829 185.864 326.346 184.99L329.321 181.451L324.989 177.103L321.458 180.078C320.585 179.591 319.658 179.21 318.695 178.942L318.295 174.332H312.14L311.748 178.942C310.785 179.208 309.857 179.59 308.986 180.078L305.446 177.103L301.098 181.451L304.073 184.99C303.584 185.862 303.2 186.79 302.929 187.753L298.319 188.153V194.299L302.929 194.7C303.2 195.663 303.584 196.59 304.073 197.463L301.074 200.969L305.422 205.317L308.961 202.342C309.833 202.83 310.76 203.212 311.724 203.478L312.116 208.088H318.27L318.671 203.478C319.634 203.21 320.561 202.829 321.433 202.342L324.964 205.317L329.321 200.969L326.346 197.43C326.829 196.556 327.21 195.629 327.482 194.667L332.091 194.299ZM315.197 198.386C313.782 198.388 312.399 197.97 311.222 197.185C310.045 196.4 309.127 195.284 308.584 193.977C308.042 192.67 307.899 191.232 308.174 189.844C308.449 188.456 309.129 187.181 310.129 186.18C311.129 185.179 312.403 184.497 313.791 184.221C315.178 183.944 316.617 184.085 317.924 184.626C319.231 185.167 320.349 186.084 321.135 187.26C321.921 188.437 322.341 189.82 322.341 191.234C322.34 192.174 322.154 193.103 321.793 193.971C321.433 194.838 320.905 195.626 320.24 196.289C319.575 196.952 318.786 197.478 317.918 197.837C317.05 198.195 316.12 198.379 315.181 198.378L315.197 198.386Z" stroke="#263238" stroke-linecap="round" stroke-linejoin="round"/>
<path d="M327.441 82.2919C328.093 79.4671 328.003 76.5215 327.178 73.7421C326.354 70.9627 324.823 68.4443 322.736 66.4325C320.648 64.4208 318.075 62.9841 315.267 62.2628C312.459 61.5414 309.512 61.5598 306.713 62.3163C305.008 59.2927 302.372 56.9012 299.197 55.4981C296.022 54.095 292.478 53.7555 289.095 54.5301C285.711 55.3048 282.669 57.1522 280.42 59.797C278.172 62.4417 276.839 65.7422 276.619 69.2064C274.84 68.8662 273.01 68.8973 271.244 69.298C269.477 69.6986 267.813 70.4601 266.354 71.5345C264.896 72.609 263.676 73.9733 262.77 75.5417C261.864 77.1102 261.292 78.849 261.09 80.649C259.268 80.8407 257.583 81.7052 256.365 83.0734C255.147 84.4416 254.484 86.215 254.504 88.0467C254.524 89.8785 255.228 91.6366 256.476 92.9773C257.724 94.318 259.428 95.1447 261.253 95.2956H322.782C324.289 95.2845 325.756 94.8111 326.984 93.9392C328.213 93.0674 329.145 91.8392 329.653 90.4208C330.161 89.0024 330.222 87.4621 329.826 86.0083C329.43 84.5545 328.598 83.2572 327.441 82.2919Z" stroke="#263238" stroke-linecap="round" stroke-linejoin="round"/>
<path d="M293.628 89.6729V106.632" stroke="#263238" stroke-linecap="round" stroke-linejoin="round"/>
<path d="M293.628 79.5049V86.2806" stroke="#263238" stroke-linecap="round" stroke-linejoin="round"/>
<path d="M293.628 73.1621V76.7911" stroke="#263238" stroke-linecap="round" stroke-linejoin="round"/>
<path d="M290.424 104.654L293.628 108.618L296.832 104.654" stroke="#263238" stroke-linecap="round" stroke-linejoin="round"/>
<path d="M139.978 281.189C140.628 278.364 140.536 275.419 139.71 272.639C138.885 269.86 137.353 267.342 135.265 265.331C133.177 263.32 130.604 261.883 127.796 261.162C124.988 260.44 122.041 260.458 119.242 261.214C117.539 258.188 114.902 255.795 111.727 254.39C108.551 252.986 105.006 252.647 101.622 253.423C98.2373 254.199 95.1946 256.049 92.9479 258.696C90.7012 261.343 89.371 264.647 89.156 268.112C88.3477 267.957 87.5269 267.878 86.704 267.875C83.4706 267.873 80.3497 269.062 77.9373 271.215C75.525 273.368 73.9904 276.334 73.6267 279.547C71.8049 279.737 70.1198 280.601 68.9011 281.968C67.6824 283.336 67.0177 285.109 67.0371 286.941C67.0565 288.772 67.7586 290.531 69.0061 291.872C70.2535 293.213 71.9565 294.041 73.782 294.193H135.368C136.872 294.177 138.336 293.7 139.561 292.826C140.786 291.953 141.714 290.724 142.219 289.307C142.724 287.89 142.782 286.352 142.386 284.9C141.989 283.449 141.158 282.153 140.002 281.189H139.978Z" stroke="#263238" stroke-linecap="round" stroke-linejoin="round"/>
<path d="M106.14 290.997V274.046" stroke="#263238" stroke-linecap="round" stroke-linejoin="round"/>
<path d="M106.14 301.174V294.39" stroke="#263238" stroke-linecap="round" stroke-linejoin="round"/>
<path d="M106.14 307.516V303.887" stroke="#263238" stroke-linecap="round" stroke-linejoin="round"/>
<path d="M109.344 276.025L106.14 272.061L102.936 276.025" stroke="#263238" stroke-linecap="round" stroke-linejoin="round"/>
<path d="M9.89114 66.0273H215.409C216.328 66.0273 217.21 66.3925 217.86 67.0424C218.51 67.6923 218.875 68.5737 218.875 69.4928V79.1864H6.42565V69.4928C6.42565 68.5737 6.79077 67.6923 7.44067 67.0424C8.09058 66.3925 8.97204 66.0273 9.89114 66.0273Z" fill="#92E3A9" stroke="#263238" stroke-linecap="round" stroke-linejoin="round"/>
<path d="M230.448 81.6143H15.7269V232.714H230.448V81.6143Z" fill="white" stroke="#263238" stroke-linecap="round" stroke-linejoin="round"/>
<path d="M233.734 72.5984C233.734 73.245 233.542 73.8771 233.183 74.4148C232.824 74.9524 232.313 75.3714 231.716 75.6189C231.118 75.8663 230.461 75.9311 229.827 75.8049C229.192 75.6788 228.61 75.3674 228.153 74.9102C227.695 74.453 227.384 73.8704 227.258 73.2362C227.132 72.6021 227.197 71.9447 227.444 71.3473C227.691 70.7499 228.11 70.2393 228.648 69.8801C229.186 69.5208 229.818 69.3291 230.464 69.3291C231.332 69.3291 232.163 69.6735 232.776 70.2867C233.389 70.8998 233.734 71.7313 233.734 72.5984Z" fill="white" stroke="#263238" stroke-linecap="round" stroke-linejoin="round"/>
<path d="M222.16 72.5984C222.16 73.245 221.969 73.8771 221.609 74.4148C221.25 74.9524 220.74 75.3714 220.142 75.6189C219.545 75.8663 218.887 75.9311 218.253 75.8049C217.619 75.6788 217.036 75.3674 216.579 74.9102C216.122 74.453 215.811 73.8704 215.685 73.2362C215.558 72.6021 215.623 71.9447 215.871 71.3473C216.118 70.7499 216.537 70.2393 217.075 69.8801C217.612 69.5208 218.244 69.3291 218.891 69.3291C219.758 69.3291 220.59 69.6735 221.203 70.2867C221.816 70.8998 222.16 71.7313 222.16 72.5984Z" fill="white" stroke="#263238" stroke-linecap="round" stroke-linejoin="round"/>
<path d="M210.562 72.5984C210.562 73.245 210.371 73.8771 210.011 74.4148C209.652 74.9524 209.142 75.3714 208.544 75.6189C207.947 75.8663 207.289 75.9311 206.655 75.8049C206.021 75.6788 205.439 75.3674 204.981 74.9102C204.524 74.453 204.213 73.8704 204.087 73.2362C203.96 72.6021 204.025 71.9447 204.273 71.3473C204.52 70.7499 204.939 70.2393 205.477 69.8801C206.014 69.5208 206.646 69.3291 207.293 69.3291C208.16 69.3291 208.992 69.6735 209.605 70.2867C210.218 70.8998 210.562 71.7313 210.562 72.5984Z" fill="white" stroke="#263238" stroke-linecap="round" stroke-linejoin="round"/>
<path d="M223.942 88.0957H215.442" stroke="#263238" stroke-width="2" stroke-linecap="round" stroke-linejoin="round"/>
<path d="M223.942 91.5449H215.442" stroke="#263238" stroke-width="2" stroke-linecap="round" stroke-linejoin="round"/>
<path d="M223.942 94.9932H215.442" stroke="#263238" stroke-width="2" stroke-linecap="round" stroke-linejoin="round"/>
<path d="M30.5942 177.25H94.9427" stroke="#263238" stroke-width="2" stroke-linecap="round" stroke-linejoin="round"/>
<path d="M30.5942 182.325H94.9427" stroke="#263238" stroke-width="2" stroke-linecap="round" stroke-linejoin="round"/>
<path d="M30.5942 187.491H81.3341" stroke="#263238" stroke-width="2" stroke-linecap="round" stroke-linejoin="round"/>
<path d="M167.048 83.3135V83.7221" stroke="#263238" stroke-linecap="round" stroke-linejoin="round"/>
<path d="M167.048 86.1748V228.579" stroke="#263238" stroke-linecap="round" stroke-linejoin="round" stroke-dasharray="1 3"/>
<path d="M167.048 229.805V230.213" stroke="#263238" stroke-linecap="round" stroke-linejoin="round"/>
<path d="M18.3097 198.827H18.7183" stroke="#263238" stroke-linecap="round" stroke-linejoin="round"/>
<path d="M21.1621 198.827H225.528" stroke="#263238" stroke-linecap="round" stroke-linejoin="round" stroke-dasharray="1 2.99"/>
<path d="M226.754 198.827H227.162" stroke="#263238" stroke-linecap="round" stroke-linejoin="round"/>
<path d="M168.462 197.413H165.642V200.233H168.462V197.413Z" fill="white" stroke="#263238" stroke-linecap="round" stroke-linejoin="round"/>
<path d="M155.793 171.741H118.147" stroke="#263238" stroke-linecap="round" stroke-linejoin="round"/>
<path d="M156.52 189.15C156.52 189.15 156.52 171.651 136.97 171.651C117.419 171.651 117.387 189.15 117.387 189.15" stroke="#263238" stroke-linecap="round" stroke-linejoin="round"/>
<path d="M156.52 190.801C157.432 190.801 158.171 190.062 158.171 189.15C158.171 188.238 157.432 187.499 156.52 187.499C155.609 187.499 154.869 188.238 154.869 189.15C154.869 190.062 155.609 190.801 156.52 190.801Z" fill="#92E3A9" stroke="#263238" stroke-linecap="round" stroke-linejoin="round"/>
<path d="M115.752 189.15C115.752 188.827 115.848 188.511 116.027 188.242C116.207 187.973 116.462 187.764 116.761 187.64C117.06 187.516 117.388 187.484 117.706 187.547C118.023 187.61 118.314 187.766 118.542 187.994C118.771 188.223 118.927 188.514 118.99 188.831C119.053 189.148 119.021 189.477 118.897 189.776C118.773 190.075 118.564 190.33 118.295 190.509C118.026 190.689 117.71 190.785 117.387 190.785C116.953 190.785 116.537 190.613 116.231 190.306C115.924 190 115.752 189.584 115.752 189.15Z" fill="#92E3A9" stroke="#263238" stroke-linecap="round" stroke-linejoin="round"/>
<path d="M155.074 173.098H157.967V170.204H155.074V173.098Z" fill="#92E3A9" stroke="#263238" stroke-linecap="round" stroke-linejoin="round"/>
<path d="M135.523 173.098H138.417V170.204H135.523V173.098Z" fill="#92E3A9" stroke="#263238" stroke-linecap="round" stroke-linejoin="round"/>
<path d="M115.973 173.098H118.866V170.204H115.973V173.098Z" fill="#92E3A9" stroke="#263238" stroke-linecap="round" stroke-linejoin="round"/>
<path d="M53.9862 119.129V113.343L49.6625 112.975C49.4058 112.07 49.0466 111.198 48.5918 110.376L51.3871 107.057L47.3004 102.971L43.9739 105.766C43.154 105.305 42.2813 104.946 41.3748 104.695L40.9988 100.363H35.2284L34.8524 104.695C33.9482 104.944 33.078 105.304 32.2615 105.766L28.935 102.971L24.8483 107.057L27.6436 110.376C27.1854 111.197 26.826 112.069 26.5729 112.975L22.241 113.343V119.129L26.5729 119.497C26.8274 120.402 27.1868 121.274 27.6436 122.096L24.8483 125.414L28.935 129.501L32.2615 126.706C33.0729 127.166 33.9375 127.526 34.8361 127.777L35.2121 132.108H40.9906L41.3666 127.777C42.2703 127.526 43.1402 127.166 43.9575 126.706L47.2841 129.501L51.3707 125.414L48.5754 122.096C49.0288 121.273 49.388 120.401 49.6462 119.497L53.9862 119.129ZM38.1054 122.954C36.7766 122.954 35.4777 122.56 34.3729 121.822C33.268 121.084 32.4069 120.035 31.8984 118.807C31.3899 117.579 31.2568 116.228 31.5161 114.925C31.7753 113.622 32.4152 112.425 33.3548 111.485C34.2944 110.546 35.4915 109.906 36.7947 109.646C38.098 109.387 39.4488 109.52 40.6765 110.029C41.9041 110.537 42.9534 111.398 43.6916 112.503C44.4299 113.608 44.8239 114.907 44.8239 116.236C44.8239 118.018 44.1161 119.727 42.8561 120.987C41.5961 122.246 39.8873 122.954 38.1054 122.954Z" fill="#92E3A9" stroke="#263238" stroke-linecap="round" stroke-linejoin="round"/>
<path d="M73.6348 132.092V128.136L70.6679 127.875C70.4973 127.256 70.253 126.661 69.9405 126.101L71.8531 123.829L69.0496 121.033L66.7774 122.946C66.2161 122.634 65.6211 122.387 65.0038 122.21L64.7504 119.235H60.7946L60.533 122.202C59.9158 122.379 59.3207 122.626 58.7594 122.938L56.4872 121.025L53.6838 123.821L55.6045 126.093C55.286 126.651 55.0388 127.247 54.8689 127.866L51.902 128.128V132.084L54.8689 132.337C55.0373 132.957 55.2845 133.553 55.6045 134.111L53.6838 136.399L56.4872 139.195L58.7594 137.282C59.3207 137.594 59.9158 137.841 60.533 138.018L60.7946 140.976H64.7504L65.0038 138.018C65.6211 137.841 66.2161 137.594 66.7774 137.282L69.0496 139.195L71.8531 136.399L69.9814 134.119C70.2954 133.56 70.5396 132.964 70.7088 132.345L73.6348 132.092ZM62.7725 134.707C61.8617 134.709 60.9709 134.44 60.2129 133.935C59.455 133.43 58.8639 132.712 58.5146 131.871C58.1653 131.029 58.0735 130.104 58.2508 129.21C58.4281 128.317 58.8665 127.496 59.5105 126.852C60.1546 126.208 60.9752 125.77 61.8686 125.592C62.762 125.415 63.6879 125.507 64.5291 125.856C65.3702 126.205 66.0888 126.796 66.5938 127.554C67.0988 128.312 67.3675 129.203 67.3659 130.114C67.3638 131.332 66.8791 132.499 66.0181 133.36C65.1572 134.221 63.9901 134.705 62.7725 134.707Z" fill="#92E3A9" stroke="#263238" stroke-linecap="round" stroke-linejoin="round"/>
<path d="M175.123 208.439H206.778" stroke="#263238" stroke-width="2" stroke-linecap="round" stroke-linejoin="round"/>
<path d="M175.123 213.515H206.778" stroke="#263238" stroke-width="2" stroke-linecap="round" stroke-linejoin="round"/>
<path d="M175.123 218.681H193.17" stroke="#263238" stroke-width="2" stroke-linecap="round" stroke-linejoin="round"/>
<path d="M133.414 220.79H116.749C115.665 220.79 114.626 220.359 113.859 219.593C113.093 218.826 112.662 217.787 112.662 216.703C112.662 215.619 113.093 214.58 113.859 213.813C114.626 213.047 115.665 212.616 116.749 212.616H133.414C134.498 212.616 135.538 213.047 136.304 213.813C137.071 214.58 137.501 215.619 137.501 216.703C137.501 217.787 137.071 218.826 136.304 219.593C135.538 220.359 134.498 220.79 133.414 220.79Z" fill="#92E3A9" stroke="#263238" stroke-linecap="round" stroke-linejoin="round"/>
<path d="M164.473 220.79H147.808C146.724 220.79 145.684 220.359 144.918 219.593C144.152 218.826 143.721 217.787 143.721 216.703C143.721 215.619 144.152 214.58 144.918 213.813C145.684 213.047 146.724 212.616 147.808 212.616H164.473C165.557 212.616 166.596 213.047 167.363 213.813C168.129 214.58 168.56 215.619 168.56 216.703C168.56 217.787 168.129 218.826 167.363 219.593C166.596 220.359 165.557 220.79 164.473 220.79Z" fill="#92E3A9" stroke="#263238" stroke-linecap="round" stroke-linejoin="round"/>
<path d="M212.777 133.105H177.436V168.447H212.777V133.105Z" fill="white" stroke="#263238" stroke-linecap="round" stroke-linejoin="round"/>
<path d="M177.436 133.105L212.777 168.447" stroke="#263238" stroke-linecap="round" stroke-linejoin="round"/>
<path d="M212.777 133.105L177.436 168.447" stroke="#263238" stroke-linecap="round" stroke-linejoin="round"/>
<path d="M191.298 92.9834V101.23L187.661 104.867H179.414V92.9834H191.298Z" fill="white" stroke="#263238" stroke-linecap="round" stroke-linejoin="round"/>
<path d="M191.298 101.229L187.661 104.867V101.229H191.298Z" fill="white" stroke="#263238" stroke-linecap="round" stroke-linejoin="round"/>
<path d="M64.9139 156.76V165.007L61.2768 168.652H53.0299V156.76H64.9139Z" fill="white" stroke="#263238" stroke-linecap="round" stroke-linejoin="round"/>
<path d="M64.9139 165.006L61.2768 168.651V165.006H64.9139Z" fill="white" stroke="#263238" stroke-linecap="round" stroke-linejoin="round"/>
<path d="M20.0097 207.573V215.82L16.3726 219.457H8.11753V207.573H20.0097Z" fill="white" stroke="#263238" stroke-linecap="round" stroke-linejoin="round"/>
<path d="M20.0097 215.819L16.3726 219.456V215.819H20.0097Z" fill="white" stroke="#263238" stroke-linecap="round" stroke-linejoin="round"/>
<path d="M251.159 112.108H207.301V139.595H251.159V112.108Z" fill="#263238" stroke="#263238" stroke-linecap="round" stroke-linejoin="round"/>
<path d="M251.159 112.108H207.301V116.285H251.159V112.108Z" fill="#92E3A9" stroke="#263238" stroke-linecap="round" stroke-linejoin="round"/>
<path d="M211.772 119.808H222.986" stroke="white" stroke-linecap="round" stroke-linejoin="round"/>
<path d="M217.379 122.938H236.782" stroke="white" stroke-linecap="round" stroke-linejoin="round"/>
<path d="M214.902 125.855H220.616" stroke="white" stroke-linecap="round" stroke-linejoin="round"/>
<path d="M217.379 129.297H230.448" stroke="white" stroke-linecap="round" stroke-linejoin="round"/>
<path d="M211.772 132.419H222.986" stroke="white" stroke-linecap="round" stroke-linejoin="round"/>
<path d="M86.2136 222.701H42.3556V250.188H86.2136V222.701Z" fill="#263238" stroke="#263238" stroke-linecap="round" stroke-linejoin="round"/>
<path d="M86.2136 222.701H42.3556V226.878H86.2136V222.701Z" fill="#92E3A9" stroke="#263238" stroke-linecap="round" stroke-linejoin="round"/>
<path d="M46.8345 230.409H58.0402" stroke="white" stroke-linecap="round" stroke-linejoin="round"/>
<path d="M52.4333 233.531H71.8367" stroke="white" stroke-linecap="round" stroke-linejoin="round"/>
<path d="M49.9567 236.449H55.6699" stroke="white" stroke-linecap="round" stroke-linejoin="round"/>
<path d="M52.4333 239.89H65.5024" stroke="white" stroke-linecap="round" stroke-linejoin="round"/>
<path d="M46.8345 243.021H58.0402" stroke="white" stroke-linecap="round" stroke-linejoin="round"/>
<path d="M102.675 23.6084H62.3802C61.9083 23.6105 61.4563 23.799 61.1227 24.1326C60.789 24.4663 60.6006 24.9183 60.5984 25.3902V44.1888C60.6006 44.66 60.7892 45.1111 61.1232 45.4434C61.4571 45.7758 61.909 45.9624 62.3802 45.9624H80.4432L82.5029 53.3184L84.5708 45.9624H102.675C103.146 45.9624 103.598 45.7758 103.932 45.4434C104.266 45.1111 104.454 44.66 104.456 44.1888V25.3902C104.454 24.9183 104.266 24.4663 103.932 24.1326C103.598 23.799 103.147 23.6105 102.675 23.6084Z" fill="#92E3A9" stroke="#263238" stroke-linecap="round" stroke-linejoin="round"/>
<path d="M67.2842 28.9863H97.7298" stroke="#263238" stroke-width="2" stroke-linecap="round" stroke-linejoin="round"/>
<path d="M67.2842 32.8447H97.7298" stroke="#263238" stroke-width="2" stroke-linecap="round" stroke-linejoin="round"/>
<path d="M67.2842 36.7021H97.7298" stroke="#263238" stroke-width="2" stroke-linecap="round" stroke-linejoin="round"/>
<path d="M67.2842 40.5596H90.2267" stroke="#263238" stroke-width="2" stroke-linecap="round" stroke-linejoin="round"/>
<path d="M168.772 157.307C164.449 157.675 158.964 152.509 158.964 152.509C158.859 152.618 158.73 152.701 158.588 152.751C158.445 152.801 158.293 152.817 158.143 152.798C157.993 152.779 157.849 152.725 157.724 152.641C157.598 152.557 157.494 152.445 157.42 152.313C156.717 151.3 153.668 148.954 153.496 146.927C153.325 144.9 156.921 141.614 156.921 141.614C154.15 142.366 153.856 140.74 153.856 140.74C153.856 140.74 158.523 136.89 160.158 136.784C160.795 136.743 163.574 138.345 166.263 140.503C169.075 142.767 174.355 150.736 174.355 150.736C174.355 150.736 192.213 163.707 196.725 167.025C202.683 171.406 209.745 179.179 209.745 179.179C209.745 179.179 233.448 189.87 239.986 195.746L231.143 216.686C231.143 216.686 209.59 202.244 207.44 198.582C205.291 194.921 203.133 197.119 200.975 194.725C198.817 192.33 196.75 189.592 196.75 189.592C192.912 187.739 189.429 185.227 186.459 182.17C181.425 176.997 176.986 169.093 174.199 164.336C172.756 161.732 170.926 159.362 168.772 157.307Z" fill="white" stroke="#263238" stroke-linecap="round" stroke-linejoin="round"/>
<path d="M170.088 154.25C170.088 154.25 163.656 152.689 163.1 148.447C162.854 147.372 162.384 146.361 161.719 145.48C161.719 145.48 155.719 145.186 156.095 142.742L164.105 142.031C167.021 143.151 169.476 145.218 171.077 147.9" fill="white"/>
<path d="M170.088 154.25C170.088 154.25 163.656 152.689 163.1 148.447C162.854 147.372 162.384 146.361 161.719 145.48C161.719 145.48 155.719 145.186 156.095 142.742L164.105 142.031C167.021 143.151 169.476 145.218 171.077 147.9" stroke="#263238" stroke-linecap="round" stroke-linejoin="round"/>
<path d="M158.956 152.51C159.241 151.98 159.337 151.368 159.226 150.777C159.226 150.777 160.991 150.45 160.795 148.889C160.795 148.889 163.411 148.57 161.719 145.48" stroke="#263238" stroke-linecap="round" stroke-linejoin="round"/>
<path d="M160.795 148.888C160.795 148.888 157.272 146.281 156.88 145.088" stroke="#263238" stroke-linecap="round" stroke-linejoin="round"/>
<path d="M159.226 150.777C159.226 150.777 155.474 148.489 155.409 147.156" stroke="#263238" stroke-linecap="round" stroke-linejoin="round"/>
<path d="M160.084 139.023C160.084 139.023 158.891 141.165 156.913 141.614" stroke="#263238" stroke-linecap="round" stroke-linejoin="round"/>
<path d="M159.487 139.857C160.115 140.185 160.706 140.577 161.253 141.026" stroke="#263238" stroke-linecap="round" stroke-linejoin="round"/>
<path d="M296.48 212.248C287.232 208.334 277.692 205.148 267.947 202.718C253.595 199.359 230.35 196.359 230.35 196.359C230.35 196.359 236.742 261.582 235.058 265.506C233.374 269.429 223.272 282.604 223.272 282.604C223.272 282.604 277.943 303.92 287.473 305.735C297.003 307.549 292.034 274.472 292.034 274.472C292.034 274.472 302.104 232.428 296.48 212.248Z" fill="#263238"/>
<path d="M276.856 205.244C276.856 205.244 278.156 207.696 274.739 208.979C265.888 212.248 256.456 209.363 257.461 205.898C257.845 204.573 260.036 205.898 259.913 200.994C259.853 200.238 259.65 199.5 259.316 198.819C258.692 197.493 257.939 196.231 257.069 195.052C256.124 193.739 255.112 192.475 254.036 191.267C254.036 191.267 268.086 182.277 278.507 191.267C278.491 191.226 274.617 193.188 276.856 205.244Z" fill="white" stroke="#263238" stroke-linecap="round" stroke-linejoin="round"/>
<path d="M294.265 321.411C288.732 330.402 260.657 334.66 245.332 334.26C230.007 333.859 185.912 313.009 182.92 308.563C180.15 304.476 173.341 290.933 183.836 282.751C184.726 282.064 185.672 281.451 186.664 280.92C193.848 277.03 241.629 289.298 241.629 289.298C241.629 289.298 244.588 287.426 245.675 287.565C249.01 287.99 251.396 290.688 258.131 292.608C262.847 293.957 275.72 288.775 283.942 293.229C284.855 293.717 285.696 294.328 286.444 295.044C294.126 302.384 299.791 312.396 294.265 321.411Z" fill="#92E3A9"/>
<mask id="mask0_13905_7329" style="mask-type:luminance" maskUnits="userSpaceOnUse" x="178" y="280" width="119" height="55">
<path d="M294.265 321.411C288.732 330.402 260.657 334.66 245.332 334.26C230.007 333.859 185.912 313.009 182.92 308.563C180.15 304.476 173.341 290.933 183.836 282.751C184.726 282.064 185.672 281.451 186.664 280.92C193.848 277.03 241.629 289.298 241.629 289.298C241.629 289.298 244.588 287.426 245.675 287.565C249.01 287.99 251.396 290.688 258.131 292.608C262.847 293.957 275.72 288.775 283.942 293.229C284.855 293.717 285.696 294.328 286.444 295.044C294.126 302.384 299.791 312.396 294.265 321.411Z" fill="white"/>
</mask>
<g mask="url(#mask0_13905_7329)">
<path opacity="0.3" d="M283.942 293.229C275.516 292.666 268.005 294.431 262.757 297.529C256.537 301.207 227.162 315.355 227.162 315.355C227.228 313.834 228.863 310.769 228.863 310.769C226.1 308.317 218.875 306.397 218.875 306.397C213.276 301.615 191.085 287.353 183.836 282.751C184.726 282.064 185.672 281.451 186.664 280.92C193.848 277.03 241.629 289.298 241.629 289.298C241.629 289.298 244.588 287.426 245.675 287.565C249.01 287.99 251.396 290.688 258.131 292.608C262.872 293.957 275.72 288.775 283.942 293.229Z" fill="black" fill-opacity="0.7"/>
</g>
<path d="M294.265 321.411C288.732 330.402 260.657 334.66 245.332 334.26C230.007 333.859 185.912 313.009 182.92 308.563C180.15 304.476 173.341 290.933 183.836 282.751C184.726 282.064 185.672 281.451 186.664 280.92C193.848 277.03 241.629 289.298 241.629 289.298C241.629 289.298 244.588 287.426 245.675 287.565C249.01 287.99 251.396 290.688 258.131 292.608C262.847 293.957 275.72 288.775 283.942 293.229C284.855 293.717 285.696 294.328 286.444 295.044C294.126 302.384 299.791 312.396 294.265 321.411Z" stroke="#263238" stroke-linecap="round" stroke-linejoin="round"/>
<path d="M285.651 329.552L286.354 332.633C286.354 332.633 284.474 337.962 276.211 338.837C267.947 339.711 263.051 341.534 259.047 341.771C256.953 341.936 254.849 341.903 252.761 341.673L251.944 340.463L285.651 329.552Z" fill="white" stroke="#263238" stroke-linecap="round" stroke-linejoin="round"/>
<path d="M237.665 329.224L251.985 340.462C258.887 339.873 265.744 338.846 272.516 337.389C279.3 335.82 285.226 333.572 285.544 330.483C286.043 325.791 281.025 324.508 275.066 324.688C273.955 324.688 272.81 324.802 271.658 324.917C262.12 325.938 249.991 320.675 249.991 320.675L237.665 329.224Z" fill="#263238"/>
<mask id="mask1_13905_7329" style="mask-type:luminance" maskUnits="userSpaceOnUse" x="237" y="320" width="49" height="21">
<path d="M237.665 329.224L251.985 340.462C258.887 339.873 265.744 338.846 272.516 337.389C279.3 335.82 285.226 333.572 285.544 330.483C286.043 325.791 281.025 324.508 275.066 324.688C273.955 324.688 272.81 324.802 271.658 324.917C262.12 325.938 249.991 320.675 249.991 320.675L237.665 329.224Z" fill="white"/>
</mask>
<g mask="url(#mask1_13905_7329)">
<path opacity="0.3" d="M285.553 330.369C282.773 331.403 280.105 332.717 277.592 334.292C277.592 334.292 264.294 341.133 243.852 334.088L237.665 329.224L249.991 320.667C249.991 320.667 262.112 325.939 271.658 324.909C272.81 324.786 273.955 324.705 275.066 324.68C280.984 324.5 285.961 325.759 285.553 330.369Z" fill="black" fill-opacity="0.7"/>
</g>
<path d="M237.665 329.224L251.985 340.462C258.887 339.873 265.744 338.846 272.516 337.389C279.3 335.82 285.226 333.572 285.544 330.483C286.043 325.791 281.025 324.508 275.066 324.688C273.955 324.688 272.81 324.802 271.658 324.917C262.12 325.938 249.991 320.675 249.991 320.675L237.665 329.224Z" stroke="#263238" stroke-linecap="round" stroke-linejoin="round"/>
<path d="M251.012 333.655C248.429 334.071 251.266 339.376 254.764 337.741C258.262 336.107 253.595 333.23 251.012 333.655Z" fill="white"/>
<mask id="mask2_13905_7329" style="mask-type:luminance" maskUnits="userSpaceOnUse" x="250" y="333" width="7" height="6">
<path d="M251.012 333.655C248.429 334.071 251.266 339.376 254.764 337.741C258.262 336.107 253.595 333.23 251.012 333.655Z" fill="white"/>
</mask>
<g mask="url(#mask2_13905_7329)">
<path opacity="0.2" d="M255.859 336.899C253.988 336.671 252.13 336.347 250.293 335.927C249.803 334.889 249.917 333.826 251.012 333.655C253.178 333.295 256.823 335.298 255.859 336.899Z" fill="black" fill-opacity="0.7"/>
</g>
<path d="M251.012 333.655C248.429 334.071 251.266 339.376 254.764 337.741C258.262 336.107 253.595 333.23 251.012 333.655Z" stroke="#263238" stroke-linecap="round" stroke-linejoin="round"/>
<path d="M272.516 337.382C279.3 335.812 285.226 333.565 285.544 330.475C286.043 325.784 281.025 324.5 275.066 324.68C274.805 324.934 269.026 330.516 272.516 337.382Z" fill="white"/>
<mask id="mask3_13905_7329" style="mask-type:luminance" maskUnits="userSpaceOnUse" x="271" y="324" width="15" height="14">
<path d="M272.516 337.382C279.3 335.812 285.226 333.565 285.544 330.475C286.043 325.784 281.025 324.5 275.066 324.68C274.805 324.934 269.026 330.516 272.516 337.382Z" fill="white"/>
</mask>
<g mask="url(#mask3_13905_7329)">
<path opacity="0.3" d="M285.553 330.369C282.773 331.403 280.105 332.718 277.592 334.292C275.8 335.121 273.923 335.748 271.993 336.164C269.705 329.871 274.821 324.918 275.066 324.68C280.984 324.501 285.961 325.759 285.553 330.369Z" fill="black" fill-opacity="0.7"/>
</g>
<path d="M272.516 337.382C279.3 335.812 285.226 333.565 285.544 330.475C286.043 325.784 281.025 324.5 275.066 324.68C274.805 324.934 269.026 330.516 272.516 337.382Z" stroke="#263238" stroke-linecap="round" stroke-linejoin="round"/>
<path d="M267.678 331.554H267.718C267.811 331.558 267.904 331.544 267.992 331.512C268.079 331.48 268.16 331.432 268.228 331.369C268.296 331.305 268.352 331.229 268.39 331.145C268.429 331.06 268.451 330.969 268.454 330.876C268.686 328.867 269.543 326.983 270.906 325.489C270.972 325.424 271.024 325.346 271.06 325.261C271.095 325.175 271.113 325.083 271.113 324.991C271.113 324.898 271.095 324.806 271.06 324.721C271.024 324.635 270.972 324.557 270.906 324.492C270.773 324.361 270.594 324.288 270.407 324.288C270.221 324.288 270.042 324.361 269.909 324.492C268.306 326.23 267.311 328.442 267.073 330.794C267.056 330.974 267.11 331.154 267.223 331.295C267.335 331.437 267.498 331.529 267.678 331.554Z" fill="white" stroke="#263238" stroke-linecap="round" stroke-linejoin="round"/>
<path d="M264.841 331.742H264.899C264.992 331.744 265.084 331.727 265.171 331.694C265.257 331.66 265.336 331.609 265.403 331.544C265.47 331.48 265.524 331.402 265.561 331.317C265.597 331.232 265.617 331.14 265.618 331.047C265.78 329.006 266.536 327.057 267.792 325.44C267.861 325.369 267.914 325.285 267.949 325.193C267.983 325.101 267.998 325.002 267.993 324.904C267.987 324.806 267.962 324.71 267.917 324.622C267.872 324.534 267.81 324.456 267.734 324.394C267.658 324.331 267.57 324.285 267.475 324.259C267.38 324.232 267.281 324.226 267.183 324.239C267.086 324.253 266.992 324.287 266.908 324.339C266.825 324.391 266.753 324.46 266.697 324.541C265.238 326.401 264.37 328.656 264.204 331.014C264.197 331.194 264.259 331.37 264.378 331.505C264.496 331.64 264.662 331.725 264.841 331.742Z" fill="white" stroke="#263238" stroke-linecap="round" stroke-linejoin="round"/>
<path d="M261.45 331.366C261.542 331.375 261.635 331.365 261.724 331.338C261.813 331.311 261.895 331.266 261.967 331.207C262.038 331.148 262.097 331.075 262.14 330.993C262.183 330.91 262.21 330.82 262.218 330.728C262.438 328.276 264.547 325.064 264.572 325.007C264.675 324.849 264.713 324.657 264.676 324.472C264.639 324.287 264.531 324.124 264.376 324.018C264.219 323.915 264.028 323.877 263.845 323.914C263.661 323.951 263.499 324.059 263.395 324.214C263.297 324.353 261.057 327.72 260.804 330.565C260.791 330.66 260.798 330.757 260.824 330.849C260.85 330.942 260.895 331.028 260.955 331.103C261.016 331.178 261.091 331.24 261.175 331.285C261.26 331.33 261.354 331.358 261.45 331.366Z" fill="white" stroke="#263238" stroke-linecap="round" stroke-linejoin="round"/>
<path d="M258.246 331.03C258.308 331.038 258.371 331.038 258.434 331.03C258.526 331.016 258.614 330.983 258.693 330.933C258.772 330.884 258.841 330.819 258.895 330.743C258.949 330.667 258.987 330.581 259.008 330.49C259.028 330.399 259.03 330.305 259.014 330.213C258.515 327.205 261.311 324.631 261.335 324.606C261.428 324.476 261.473 324.317 261.465 324.157C261.456 323.998 261.394 323.845 261.288 323.725C261.182 323.605 261.039 323.524 260.881 323.496C260.724 323.467 260.561 323.493 260.42 323.568C260.281 323.691 257.02 326.682 257.649 330.467C257.679 330.61 257.752 330.741 257.859 330.842C257.966 330.943 258.1 331.009 258.246 331.03Z" fill="white" stroke="#263238" stroke-linecap="round" stroke-linejoin="round"/>
<path d="M254.764 330.189C254.84 330.201 254.917 330.201 254.993 330.189C255.169 330.146 255.322 330.038 255.42 329.886C255.519 329.734 255.556 329.55 255.524 329.372C254.911 326.691 257.551 323.65 257.584 323.65C257.706 323.509 257.768 323.325 257.756 323.138C257.743 322.952 257.658 322.777 257.518 322.653C257.449 322.591 257.368 322.543 257.281 322.512C257.193 322.482 257.1 322.468 257.008 322.474C256.915 322.479 256.824 322.503 256.741 322.543C256.657 322.584 256.582 322.641 256.521 322.71C256.39 322.857 253.366 326.315 254.143 329.715C254.188 329.846 254.271 329.962 254.381 330.046C254.492 330.131 254.625 330.18 254.764 330.189Z" fill="white" stroke="#263238" stroke-linecap="round" stroke-linejoin="round"/>
<path d="M181.138 324.941L180.117 327.933C180.117 327.933 181.425 333.433 189.549 335.166C197.673 336.899 202.348 339.253 206.271 339.89C208.336 340.271 210.433 340.457 212.532 340.446L213.472 339.326L181.138 324.941Z" fill="white" stroke="#263238" stroke-linecap="round" stroke-linejoin="round"/>
<path d="M228.862 329.658L213.448 339.327C206.645 338.017 199.932 336.278 193.349 334.121C186.77 331.849 181.089 328.988 181.089 325.882C181.089 321.158 186.214 320.414 192.123 321.215C193.227 321.362 194.355 321.567 195.491 321.804C204.866 323.822 217.477 319.858 217.477 319.858L228.862 329.658Z" fill="#263238"/>
<mask id="mask4_13905_7329" style="mask-type:luminance" maskUnits="userSpaceOnUse" x="181" y="319" width="48" height="21">
<path d="M228.862 329.658L213.448 339.327C206.645 338.017 199.932 336.278 193.349 334.121C186.77 331.849 181.089 328.988 181.089 325.882C181.089 321.158 186.214 320.414 192.123 321.215C193.227 321.362 194.355 321.567 195.491 321.804C204.866 323.822 217.477 319.858 217.477 319.858L228.862 329.658Z" fill="white"/>
</mask>
<g mask="url(#mask4_13905_7329)">
<path opacity="0.3" d="M228.862 329.658L219.798 335.379C212.448 333.096 206.003 328.558 201.376 322.408C206.839 322.288 212.263 321.439 217.502 319.883L228.862 329.658Z" fill="black" fill-opacity="0.7"/>
</g>
<path d="M228.862 329.658L213.448 339.327C206.645 338.017 199.932 336.278 193.349 334.121C186.77 331.849 181.089 328.988 181.089 325.882C181.089 321.158 186.214 320.414 192.123 321.215C193.227 321.362 194.355 321.567 195.491 321.804C204.866 323.822 217.477 319.858 217.477 319.858L228.862 329.658Z" stroke="#263238" stroke-linecap="round" stroke-linejoin="round"/>
<path d="M193.349 334.112C186.77 331.84 181.089 328.979 181.089 325.873C181.089 321.149 186.214 320.405 192.123 321.206C192.385 321.484 197.542 327.655 193.349 334.112Z" fill="white" stroke="#263238" stroke-linecap="round" stroke-linejoin="round"/>
<path d="M198.776 328.824H198.736C198.548 328.812 198.372 328.726 198.247 328.585C198.122 328.445 198.056 328.261 198.065 328.072C198.052 326.055 197.403 324.093 196.21 322.466C196.141 322.394 196.087 322.309 196.053 322.215C196.018 322.122 196.004 322.022 196.01 321.923C196.017 321.823 196.044 321.726 196.091 321.638C196.137 321.55 196.202 321.473 196.28 321.411C196.359 321.349 196.449 321.305 196.546 321.281C196.642 321.256 196.743 321.252 196.841 321.269C196.939 321.286 197.033 321.324 197.116 321.379C197.198 321.434 197.269 321.507 197.322 321.591C198.732 323.478 199.489 325.774 199.479 328.13C199.477 328.315 199.402 328.491 199.271 328.621C199.139 328.752 198.962 328.824 198.776 328.824Z" fill="white" stroke="#263238" stroke-linecap="round" stroke-linejoin="round"/>
<path d="M201.572 329.29H201.506C201.319 329.273 201.146 329.183 201.025 329.039C200.904 328.895 200.845 328.709 200.861 328.522C200.919 326.479 200.376 324.464 199.3 322.727C199.246 322.649 199.208 322.562 199.188 322.47C199.168 322.378 199.166 322.283 199.183 322.191C199.2 322.098 199.234 322.01 199.285 321.931C199.336 321.852 199.402 321.783 199.479 321.73C199.557 321.676 199.644 321.638 199.736 321.618C199.828 321.598 199.923 321.596 200.015 321.613C200.108 321.63 200.196 321.664 200.275 321.715C200.355 321.766 200.423 321.832 200.477 321.909C201.739 323.91 202.366 326.247 202.275 328.611C202.266 328.793 202.189 328.964 202.058 329.09C201.927 329.217 201.753 329.288 201.572 329.29Z" fill="white" stroke="#263238" stroke-linecap="round" stroke-linejoin="round"/>
<path d="M204.988 329.29C204.8 329.286 204.622 329.208 204.49 329.074C204.359 328.939 204.285 328.759 204.285 328.571C204.334 326.078 202.569 322.702 202.544 322.67C202.458 322.501 202.441 322.306 202.498 322.125C202.554 321.945 202.68 321.794 202.847 321.705C203.014 321.619 203.208 321.602 203.387 321.659C203.567 321.716 203.716 321.841 203.803 322.008C203.885 322.155 205.757 325.735 205.707 328.595C205.703 328.782 205.625 328.96 205.491 329.09C205.356 329.221 205.175 329.292 204.988 329.29Z" fill="white" stroke="#263238" stroke-linecap="round" stroke-linejoin="round"/>
<path d="M208.209 329.29H208.021C207.84 329.238 207.687 329.118 207.595 328.954C207.503 328.79 207.48 328.596 207.53 328.415C208.347 325.481 205.838 322.62 205.814 322.596C205.743 322.528 205.687 322.447 205.649 322.356C205.611 322.266 205.592 322.169 205.593 322.071C205.595 321.973 205.616 321.876 205.657 321.787C205.697 321.698 205.756 321.618 205.829 321.552C205.902 321.487 205.987 321.437 206.08 321.406C206.173 321.375 206.272 321.364 206.369 321.373C206.467 321.382 206.562 321.411 206.647 321.458C206.733 321.506 206.808 321.57 206.868 321.648C206.991 321.787 209.925 325.105 208.895 328.799C208.847 328.943 208.755 329.068 208.631 329.156C208.508 329.244 208.36 329.291 208.209 329.29Z" fill="white" stroke="#263238" stroke-linecap="round" stroke-linejoin="round"/>
<path d="M211.764 328.824C211.686 328.827 211.607 328.813 211.535 328.783C211.446 328.755 211.364 328.709 211.293 328.647C211.222 328.586 211.164 328.512 211.123 328.428C211.082 328.344 211.058 328.252 211.053 328.159C211.048 328.065 211.062 327.972 211.094 327.884C211.985 325.285 209.672 321.991 209.655 321.958C209.588 321.884 209.538 321.796 209.507 321.7C209.477 321.605 209.467 321.504 209.478 321.405C209.489 321.305 209.521 321.209 209.572 321.122C209.623 321.036 209.691 320.962 209.773 320.904C209.855 320.846 209.948 320.805 210.046 320.786C210.145 320.767 210.246 320.768 210.344 320.791C210.441 320.813 210.533 320.856 210.613 320.916C210.693 320.977 210.759 321.053 210.808 321.141C210.922 321.296 213.562 325.056 212.442 328.358C212.39 328.496 212.298 328.614 212.176 328.698C212.055 328.781 211.911 328.825 211.764 328.824Z" fill="white" stroke="#263238" stroke-linecap="round" stroke-linejoin="round"/>
<path d="M215.123 332.657C217.649 333.352 214.306 338.296 210.963 336.335C207.62 334.373 212.606 331.97 215.123 332.657Z" fill="white" stroke="#263238" stroke-linecap="round" stroke-linejoin="round"/>
<path d="M185.977 306.404C189.761 311.709 200.983 317.569 212.132 322.399C214.126 325.702 216.477 328.775 219.144 331.562C226.026 338.64 228.83 334.676 228.83 334.676C228.83 334.676 233.178 334.185 239.594 333.311C239.861 333.933 240.327 334.449 240.918 334.779C241.51 335.109 242.194 335.234 242.863 335.134C243.681 335.003 245.315 333.809 247.122 332.232C263.329 329.78 285.324 325.693 291.258 320.936" fill="#92E3A9"/>
<path d="M185.977 306.404C189.761 311.709 200.983 317.569 212.132 322.399C214.126 325.702 216.477 328.775 219.144 331.562C226.026 338.64 228.83 334.676 228.83 334.676C228.83 334.676 233.178 334.185 239.594 333.311C239.861 333.933 240.327 334.449 240.918 334.779C241.51 335.109 242.194 335.234 242.863 335.134C243.681 335.003 245.315 333.809 247.122 332.232C263.329 329.78 285.324 325.693 291.258 320.936" stroke="#263238" stroke-linecap="round" stroke-linejoin="round"/>
<path d="M284.94 296.303C282.136 293.221 279.333 293.082 273.448 293.499C273.448 293.499 258.09 298.403 247.375 304.852C236.66 311.301 221.032 318.142 221.032 318.142C221.032 318.142 216.267 316.761 212.949 318.142C212.949 318.142 210.62 318.322 212.181 322.392" stroke="#263238" stroke-linecap="round" stroke-linejoin="round"/>
<path d="M292.067 314.717C292.067 314.717 292.148 319.465 285.414 322.751" stroke="#263238" stroke-linecap="round" stroke-linejoin="round"/>
<path d="M217.788 294.905C217.788 294.905 228.413 302.588 230.546 307.656C232.634 308.536 234.651 309.577 236.578 310.77" stroke="#263238" stroke-linecap="round" stroke-linejoin="round"/>
<path d="M231.314 301.288C232.094 303.496 232.224 305.882 231.69 308.162" stroke="#263238" stroke-linecap="round" stroke-linejoin="round"/>
<path d="M228.862 296.303C229.441 297.145 229.95 298.033 230.383 298.959" stroke="#263238" stroke-linecap="round" stroke-linejoin="round"/>
<path d="M243.999 295.6C243.999 295.6 247.555 300.356 248.438 304.214" stroke="#263238" stroke-linecap="round" stroke-linejoin="round"/>
<path d="M263.803 324.337C265.126 324.259 266.442 324.095 267.743 323.847" stroke="#263238" stroke-linecap="round" stroke-linejoin="round"/>
<path d="M230.448 320.929C240.523 322.924 250.743 324.097 261.008 324.435" stroke="#263238" stroke-linecap="round" stroke-linejoin="round"/>
<path d="M302.365 248.856C302.365 248.856 300.444 282.367 298.18 284.288C295.916 286.208 292.345 286.805 285.585 287.369C278.826 287.933 248.928 289.764 248.928 289.764L245.708 280.16C245.708 280.16 261.605 278.526 268.658 275.951C273.976 274.133 279.417 272.696 284.94 271.652C284.94 271.652 283.599 263.225 283.599 259.596V242.53" fill="white"/>
<path d="M302.365 248.856C302.365 248.856 300.444 282.367 298.18 284.288C295.916 286.208 292.345 286.805 285.585 287.369C278.826 287.933 248.928 289.764 248.928 289.764L245.708 280.16C245.708 280.16 261.605 278.526 268.658 275.951C273.976 274.133 279.417 272.696 284.94 271.652C284.94 271.652 283.599 263.225 283.599 259.596V242.53" stroke="#263238" stroke-linecap="round" stroke-linejoin="round"/>
<path d="M296.48 212.248C303.763 216.735 305.912 227.107 303.395 249.249C303.395 249.249 305.545 251.864 302.365 253.172C302.365 253.172 290.457 248.717 284.923 251.791C279.39 254.864 280.837 247.549 280.837 247.549C280.837 247.549 278.556 227.181 283.599 223.495" fill="#263238"/>
<path d="M282.929 220.381C282.929 220.381 275.924 227.663 282.112 246.07C281.721 247.572 281.448 249.102 281.294 250.647C281.294 251.881 282.986 252.518 282.986 252.518" stroke="white" stroke-linecap="round" stroke-linejoin="round"/>
<path d="M274.739 232.714C274.739 232.714 275.246 241.705 280.82 245.603" stroke="white" stroke-linecap="round" stroke-linejoin="round"/>
<path d="M276.537 211.839C276.537 211.839 265.675 215.999 257.036 211.389C251.911 208.66 254.02 204.271 254.02 204.271" stroke="white" stroke-linecap="round" stroke-linejoin="round"/>
<path d="M198.425 296.319H257.551C258.886 296.32 260.216 296.146 261.507 295.804L273.17 292.747C273.331 292.706 273.474 292.612 273.576 292.48C273.678 292.348 273.734 292.186 273.734 292.02C273.734 291.818 273.654 291.625 273.511 291.482C273.369 291.34 273.175 291.26 272.974 291.26H195.981C195.781 291.262 195.59 291.343 195.449 291.485C195.308 291.628 195.229 291.82 195.229 292.02V293.123C195.229 293.971 195.566 294.784 196.165 295.383C196.765 295.982 197.577 296.319 198.425 296.319Z" fill="#757575" stroke="#263238" stroke-linecap="round" stroke-linejoin="round"/>
<path d="M192.581 293.376H251.87C252.103 293.387 252.334 293.34 252.543 293.239C252.753 293.139 252.934 292.988 253.071 292.8C253.208 292.612 253.296 292.393 253.328 292.163C253.359 291.932 253.333 291.698 253.252 291.48L242.259 248.709C242.111 248.184 241.804 247.719 241.379 247.377C240.954 247.036 240.433 246.836 239.888 246.805H180.583C180.35 246.796 180.119 246.844 179.91 246.946C179.7 247.047 179.519 247.199 179.383 247.387C179.246 247.576 179.158 247.795 179.126 248.026C179.095 248.256 179.121 248.491 179.201 248.709L190.203 291.48C190.35 292.006 190.659 292.472 191.086 292.813C191.512 293.153 192.036 293.35 192.581 293.376Z" fill="#999999" stroke="#263238" stroke-linecap="round" stroke-linejoin="round"/>
<path d="M182.675 248.325H181.555" stroke="#263238" stroke-linecap="round" stroke-linejoin="round"/>
<path d="M191.363 248.325H185.577" stroke="#263238" stroke-linecap="round" stroke-linejoin="round"/>
<path d="M250.432 287.974L240.722 250.23C240.576 249.705 240.27 249.24 239.846 248.898C239.423 248.557 238.903 248.356 238.36 248.325H192.671" stroke="#263238" stroke-linecap="round" stroke-linejoin="round"/>
<path d="M251.274 291.259L251.029 290.319" stroke="#263238" stroke-linecap="round" stroke-linejoin="round"/>
<path d="M210.407 271.17C210.447 271.516 210.518 271.858 210.62 272.192C211.372 274.766 213.783 276.335 215.998 275.682C218.213 275.028 219.398 272.412 218.646 269.838C217.894 267.263 215.466 265.694 213.251 266.348C212.993 266.427 212.743 266.534 212.508 266.666C212.629 267.54 212.496 268.43 212.123 269.229C211.75 270.028 211.154 270.702 210.407 271.17Z" fill="white" stroke="#263238" stroke-linecap="round" stroke-linejoin="round"/>
<path d="M236.578 191.014C231.445 190.458 228.65 185.579 225.56 184.819C223.837 184.406 222.148 183.86 220.509 183.184C220.509 183.184 219.447 179.474 217.853 180.732C216.259 181.991 214.167 209.748 216.218 208.873C218.27 207.998 218.278 211.276 218.278 211.276L237.33 228.064L253.301 199.784C253.301 199.784 241.711 191.578 236.578 191.014Z" fill="#263238"/>
<path d="M81.3259 92.1743V91.7656H81.7346" stroke="#263238" stroke-linecap="round" stroke-linejoin="round"/>
<path d="M84.1376 91.7656H153.284" stroke="#263238" stroke-linecap="round" stroke-linejoin="round" stroke-dasharray="0.98 2.93"/>
<path d="M154.477 91.7656H154.886V92.1743" stroke="#263238" stroke-linecap="round" stroke-linejoin="round"/>
<path d="M154.894 94.626V139.171" stroke="#263238" stroke-linecap="round" stroke-linejoin="round" stroke-dasharray="1 3"/>
<path d="M154.886 140.396V140.805H154.477" stroke="#263238" stroke-linecap="round" stroke-linejoin="round"/>
<path d="M152.082 140.805H82.9361" stroke="#263238" stroke-linecap="round" stroke-linejoin="round" stroke-dasharray="0.98 2.93"/>
<path d="M81.7346 140.805H81.3259V140.396" stroke="#263238" stroke-linecap="round" stroke-linejoin="round"/>
<path d="M81.3341 137.944V93.3994" stroke="#263238" stroke-linecap="round" stroke-linejoin="round" stroke-dasharray="1 3"/>
<path d="M118.114 92.975C118.782 92.975 119.324 92.4334 119.324 91.7653C119.324 91.0972 118.782 90.5557 118.114 90.5557C117.446 90.5557 116.904 91.0972 116.904 91.7653C116.904 92.4334 117.446 92.975 118.114 92.975Z" fill="#92E3A9" stroke="#263238" stroke-linecap="round" stroke-linejoin="round"/>
<path d="M81.3341 117.494C82.0022 117.494 82.5438 116.953 82.5438 116.285C82.5438 115.617 82.0022 115.075 81.3341 115.075C80.666 115.075 80.1245 115.617 80.1245 116.285C80.1245 116.953 80.666 117.494 81.3341 117.494Z" fill="#92E3A9" stroke="#263238" stroke-linecap="round" stroke-linejoin="round"/>
<path d="M118.114 142.015C118.782 142.015 119.324 141.473 119.324 140.805C119.324 140.137 118.782 139.596 118.114 139.596C117.446 139.596 116.904 140.137 116.904 140.805C116.904 141.473 117.446 142.015 118.114 142.015Z" fill="#92E3A9" stroke="#263238" stroke-linecap="round" stroke-linejoin="round"/>
<path d="M154.894 117.494C155.562 117.494 156.104 116.953 156.104 116.285C156.104 115.617 155.562 115.075 154.894 115.075C154.226 115.075 153.684 115.617 153.684 116.285C153.684 116.953 154.226 117.494 154.894 117.494Z" fill="#92E3A9" stroke="#263238" stroke-linecap="round" stroke-linejoin="round"/>
<path d="M156.3 139.399H153.48V142.219H156.3V139.399Z" fill="#92E3A9" stroke="#263238" stroke-linecap="round" stroke-linejoin="round"/>
<path d="M156.3 90.3594H153.48V93.1792H156.3V90.3594Z" fill="#92E3A9" stroke="#263238" stroke-linecap="round" stroke-linejoin="round"/>
<path d="M82.7399 139.399H79.9201V142.219H82.7399V139.399Z" fill="#92E3A9" stroke="#263238" stroke-linecap="round" stroke-linejoin="round"/>
<path d="M82.7399 90.3594H79.9201V93.1792H82.7399V90.3594Z" fill="#92E3A9" stroke="#263238" stroke-linecap="round" stroke-linejoin="round"/>
<path d="M150.235 96.1055H86.2136V136.784H150.235V96.1055Z" fill="white" stroke="#263238" stroke-linecap="round" stroke-linejoin="round"/>
<path d="M150.235 124.769L143.116 131.888L123.86 112.631L115.76 120.731L102.846 107.817L86.2136 124.442V136.784H150.235V124.769Z" fill="#92E3A9" stroke="#263238" stroke-linecap="round" stroke-linejoin="round"/>
<path d="M136.97 112.173C139.466 112.173 141.49 110.15 141.49 107.654C141.49 105.157 139.466 103.134 136.97 103.134C134.474 103.134 132.45 105.157 132.45 107.654C132.45 110.15 134.474 112.173 136.97 112.173Z" fill="#92E3A9" stroke="#263238" stroke-linecap="round" stroke-linejoin="round"/>
<path d="M239.986 198.517C239.986 198.517 235.082 207.646 234.502 221.614" stroke="white" stroke-linecap="round" stroke-linejoin="round"/>
<path d="M225.569 204.835C225.569 204.835 227.032 212.6 231.29 218.223" stroke="white" stroke-linecap="round" stroke-linejoin="round"/>
<path d="M245.708 236.874C245.708 236.874 253.064 261.034 269.043 268.145" stroke="white" stroke-linecap="round" stroke-linejoin="round"/>
<path d="M265.062 193.139C265.062 193.139 264.367 198.41 259.3 198.778C258.676 197.452 257.923 196.19 257.052 195.01C259.684 194.232 262.358 193.607 265.062 193.139Z" fill="#263238"/>
<path d="M275.859 193.507C275.859 193.507 284.335 194.545 287.882 183.168C291.429 171.79 288.642 163.217 274.617 159.089C266.836 156.8 259.087 158.639 256.251 164.532C253.848 169.575 254.984 173.768 254.437 175.46C253.816 177.356 248.078 178.966 248.078 180.266C248.078 181.337 251.257 183.168 251.257 183.168L250.326 185.996L251.2 186.461C251.2 186.461 249.565 192.828 250.326 195.076C250.865 196.711 265.226 197.397 266.345 193.327" fill="white"/>
<path d="M275.859 193.507C275.859 193.507 284.335 194.545 287.882 183.168C291.429 171.79 288.642 163.217 274.617 159.089C266.836 156.8 259.087 158.639 256.251 164.532C253.848 169.575 254.984 173.768 254.437 175.46C253.816 177.356 248.078 178.966 248.078 180.266C248.078 181.337 251.257 183.168 251.257 183.168L250.326 185.996L251.2 186.461C251.2 186.461 249.565 192.828 250.326 195.076C250.865 196.711 265.226 197.397 266.345 193.327" stroke="#263238" stroke-linecap="round" stroke-linejoin="round"/>
<path d="M256.333 168.66C256.333 168.66 259.136 169.363 259.905 170.834" stroke="#263238" stroke-linecap="round" stroke-linejoin="round"/>
<path d="M256.823 175.125C256.701 175.942 256.889 176.653 257.248 176.702C257.608 176.751 257.984 176.13 258.107 175.305C258.229 174.479 258.033 173.776 257.682 173.727C257.33 173.678 256.946 174.299 256.823 175.125Z" fill="#263238"/>
<path d="M251.2 186.461C251.2 186.461 255.761 188.21 257.461 187.156" stroke="#263238" stroke-linecap="round" stroke-linejoin="round"/>
<path d="M252.802 174.471C252.467 176.302 252.876 177.904 253.718 178.059C254.559 178.214 255.524 176.866 255.859 175.043C256.194 173.22 255.794 171.602 254.944 171.447C254.094 171.291 253.145 172.648 252.802 174.471Z" stroke="#263238" stroke-linecap="round" stroke-linejoin="round"/>
<path d="M288.258 165.162C287.575 161.85 285.673 158.915 282.929 156.939C279.87 154.791 276.367 153.358 272.68 152.746C272.68 152.746 275.385 153.931 276.415 155.493C276.415 155.493 269.41 150.229 261.09 153.686C252.769 157.144 253.807 166.126 253.807 166.126L255.017 163.772C255.017 163.772 254.878 166.576 256.349 167.605C256.79 166.232 257.391 164.915 258.139 163.682C258.139 163.682 260.346 170.311 266.419 172.558C266.006 171.513 265.972 170.357 266.321 169.289C266.321 169.289 269.688 176.571 268.707 180.127L269.778 181.99C269.778 181.99 273.644 178.075 276.791 181.337C278.597 183.216 273.334 190.327 272.582 190.327L275.761 194.994C275.761 194.994 283.705 196.13 288.283 187.524C292.86 178.917 291.74 175.264 291.74 175.264C291.74 175.264 293.236 177.356 293.375 178.533C293.391 178.517 294.748 169.273 288.258 165.162Z" fill="#263238"/>
<path d="M269.566 182.816C269.566 182.816 272.018 174.577 277.232 177.479C282.447 180.38 278.728 184.777 276.856 186.469C274.985 188.161 273.587 191.234 272.369 191.234C271.151 191.234 270.882 189.738 270.882 189.738" fill="white"/>
<path d="M269.566 182.816C269.566 182.816 272.018 174.577 277.232 177.479C282.447 180.38 278.728 184.777 276.856 186.469C274.985 188.161 273.587 191.234 272.369 191.234C271.151 191.234 270.882 189.738 270.882 189.738" stroke="#263238" stroke-linecap="round" stroke-linejoin="round"/>
<path d="M255.859 175.043L270.407 178.059" stroke="#263238" stroke-linecap="round" stroke-linejoin="round"/>
</svg>
