<svg width="315" height="298" viewBox="0 0 315 298" fill="none" xmlns="http://www.w3.org/2000/svg">
<path d="M9.45366 76.3563C11.3913 76.2835 15.2599 74.3063 15.2665 74.2996C15.2731 74.293 13.19 72.1438 13.0379 72.0248C11.3119 70.6426 7.16555 68.9894 5.10229 70.3517C4.76555 70.5883 4.48244 70.8932 4.27141 71.2465C4.06037 71.5998 3.92615 71.9936 3.87749 72.4023C3.82882 72.8109 3.86681 73.2253 3.98897 73.6183C4.11112 74.0113 4.31472 74.3741 4.58647 74.6832C5.68423 76.0389 7.8004 76.4158 9.45366 76.3563Z" fill="#92E3A9"/>
<path d="M49.4624 58.1111C49.5087 58.1111 48.9201 55.1683 48.8606 54.9831C48.1993 52.8802 45.6335 49.21 43.1602 49.21C42.7506 49.2213 42.3479 49.3185 41.9782 49.4952C41.6084 49.672 41.2799 49.9243 41.0138 50.2359C40.7476 50.5475 40.5499 50.9115 40.4332 51.3043C40.3165 51.6972 40.2836 52.1101 40.3364 52.5165C40.515 54.2557 42.0691 55.7436 43.4842 56.6033C45.1375 57.6217 49.4558 58.1111 49.4624 58.1111Z" fill="#92E3A9"/>
<path d="M54.3031 38.2852C51.9687 39.1184 50.7982 43.4301 50.8644 45.6388C50.8644 45.8306 51.3074 48.8065 51.3471 48.7866L51.3868 48.7932C51.2016 49.4545 51.0032 50.2084 50.8048 51.0086C50.4544 52.4899 50.0642 54.1696 49.7732 56.0279C49.4345 58.0257 49.2136 60.0418 49.1119 62.0656C48.9837 64.3313 49.0545 66.6038 49.3235 68.8571C49.3267 68.8835 49.3267 68.9101 49.3235 68.9365C49.0193 68.2752 48.1133 66.4632 48.0009 66.331C46.7907 64.4793 43.3718 61.6159 40.9779 62.264C40.5828 62.3839 40.2174 62.5859 39.9056 62.8567C39.5938 63.1275 39.3426 63.461 39.1685 63.8355C38.9944 64.2099 38.9012 64.6169 38.8951 65.0298C38.8889 65.4427 38.97 65.8523 39.1329 66.2318C39.7942 67.8586 41.6524 68.877 43.2462 69.3399C45.0317 69.8491 49.0259 69.2605 49.3434 69.2076C49.6926 71.4713 50.1919 73.7092 50.8379 75.9066C51.195 77.2292 51.605 78.4923 52.0283 79.7884C51.7439 79.2263 51.4926 78.7238 51.4463 78.6576C50.2361 76.806 46.8172 73.9425 44.4233 74.5906C44.0281 74.7106 43.6627 74.9126 43.351 75.1834C43.0392 75.4542 42.788 75.7877 42.6139 76.1621C42.4398 76.5366 42.3466 76.9436 42.3405 77.3565C42.3343 77.7694 42.4153 78.179 42.5782 78.5584C43.2065 80.1852 45.1044 81.2036 46.6915 81.6665C48.2787 82.1295 51.7174 81.6665 52.6433 81.5607C52.8152 82.0567 52.9739 82.5527 53.1459 83.042C53.9593 85.4095 54.7793 87.7704 55.5133 90.1114C55.7712 90.9314 55.9961 91.7514 56.2275 92.5714C55.9762 92.0754 55.758 91.6588 55.7183 91.5993C54.5147 89.7476 51.0892 86.8776 48.7019 87.5323C48.3056 87.6506 47.9388 87.8516 47.6257 88.1219C47.3126 88.3922 47.0603 88.7257 46.8854 89.1005C46.7104 89.4753 46.6169 89.883 46.6108 90.2965C46.6048 90.7101 46.6864 91.1203 46.8503 91.5001C47.5116 93.1269 49.3764 94.1453 50.9636 94.6016C52.5507 95.0579 55.6588 94.6677 56.7301 94.5222C56.9417 95.3687 57.1533 96.2218 57.312 97.0484C57.4112 97.6171 57.5501 98.1594 57.6162 98.7414C57.6824 99.3233 57.775 99.8722 57.8477 100.434C57.9601 101.512 58.0792 102.63 58.1585 103.688C58.218 104.429 58.2643 105.13 58.3106 105.837C58.0659 105.01 57.5435 103.41 57.484 103.284C56.614 101.543 55.3116 100.054 53.7013 98.9596C53.6113 98.759 53.5005 98.5683 53.3707 98.3909C53.1455 98.0474 52.8506 97.7551 52.5052 97.5329C52.1597 97.3108 51.7714 97.1637 51.3654 97.1014C50.9595 97.039 50.5449 97.0627 50.1487 97.1709C49.7525 97.2792 49.3835 97.4695 49.0656 97.7296C47.1875 99.3431 47.6438 103.787 48.5035 105.824C48.5564 105.95 49.2508 107.193 49.7005 107.967C49.3632 107.55 49.0392 107.14 48.6953 106.717C48.034 105.877 47.2999 105.05 46.5394 104.164L45.3822 102.908C45.0052 102.478 44.5489 102.074 44.1323 101.651C43.147 100.692 42.0955 99.7664 41.0176 98.8538C41.7582 98.252 44.3241 96.0763 45.0912 94.595C45.8583 93.1137 46.3741 91.0372 45.6004 89.4699C45.4322 89.0944 45.1867 88.7587 44.8799 88.4847C44.573 88.2106 44.2118 88.0044 43.8198 87.8796C43.4278 87.7547 43.0138 87.7141 42.605 87.7602C42.1962 87.8063 41.8017 87.9382 41.4474 88.1473C39.3445 89.4699 39.1263 93.9205 39.6685 96.0829C39.6685 96.2152 40.2571 97.7097 40.5811 98.5297C39.9198 97.9875 39.2585 97.4452 38.5972 96.9162C36.6133 95.4018 34.6294 93.9271 32.6058 92.4458L30.7674 91.0769C31.0319 90.8653 34.1665 88.3391 35.0063 86.6858C35.747 85.2111 36.2827 83.1214 35.5155 81.5541C35.345 81.1799 35.098 80.8455 34.7903 80.5726C34.4827 80.2997 34.1212 80.0943 33.7293 79.9697C33.3373 79.8451 32.9237 79.804 32.5149 79.8491C32.1061 79.8942 31.7113 80.0245 31.356 80.2315C29.2596 81.5541 29.0348 86.0047 29.5771 88.1671C29.6167 88.3325 30.4235 90.4817 30.655 91.0174C29.3324 90.0122 28.0098 88.9938 26.6872 87.9357C24.9582 86.5206 23.3236 84.9942 21.7935 83.3661C21.9192 83.2669 25.1992 80.6548 26.0589 78.9552C26.7996 77.4805 27.3352 75.3908 26.5681 73.8235C26.3991 73.4488 26.1532 73.1138 25.8462 72.8403C25.5393 72.5669 25.1782 72.3611 24.7865 72.2363C24.3948 72.1116 23.9812 72.0707 23.5727 72.1163C23.1641 72.1618 22.7697 72.2929 22.4152 72.5009C20.3122 73.8235 20.094 78.2675 20.6296 80.4365C20.6627 80.582 21.2909 82.222 21.5885 82.9958L21.4695 83.0685C19.9769 81.387 18.6358 79.5768 17.462 77.6591C16.8007 76.6142 16.232 75.576 15.6963 74.5509C16.3576 74.1277 19.3599 72.1504 20.3254 70.7088C21.2909 69.2671 21.9919 67.3097 21.3968 65.663C21.2698 65.2737 21.0627 64.9154 20.7888 64.611C20.5148 64.3067 20.1801 64.0632 19.8062 63.8962C19.4324 63.7292 19.0276 63.6424 18.6182 63.6415C18.2087 63.6406 17.8036 63.7255 17.4289 63.8908C15.1937 64.9621 14.4862 69.3729 14.7837 71.5619C14.7837 71.6809 15.1012 72.8845 15.3326 73.7375C15.1012 73.2746 14.8499 72.7985 14.6713 72.3488C13.8579 70.6625 13.2165 69.0423 12.6874 67.6469C12.3766 66.8402 12.1121 66.0995 11.874 65.4117C12.3039 64.6579 14.01 61.5894 14.1753 59.9031C14.3407 58.2168 14.0828 56.1205 12.7998 54.9367C12.5064 54.6479 12.1556 54.4239 11.77 54.2795C11.3845 54.135 10.9729 54.0732 10.5619 54.0982C10.1509 54.1231 9.74982 54.2342 9.38458 54.4243C9.01934 54.6143 8.69814 54.879 8.44185 55.2013C6.96054 57.1852 8.3625 61.4175 9.63881 63.2228C9.74462 63.3816 11.7484 65.6234 11.7748 65.5837V65.5374C11.993 66.1987 12.2311 66.9261 12.5089 67.7065C13.0313 69.1349 13.6397 70.7485 14.4134 72.4612C15.2321 74.3162 16.1572 76.1224 17.1843 77.8707C18.324 79.8309 19.6364 81.6855 21.1058 83.4124L21.1653 83.4719C20.5503 83.0883 18.7846 82.0832 18.6457 82.017C16.6155 81.1441 12.1782 80.6415 10.5448 82.4998C10.2835 82.8184 10.0921 83.1884 9.9832 83.5858C9.87428 83.9832 9.85023 84.3991 9.9126 84.8064C9.97498 85.2137 10.1224 85.6033 10.3452 85.9499C10.5681 86.2965 10.8614 86.5923 11.2061 86.8181C12.6279 87.8299 14.7705 87.6315 16.3444 87.1421C18.1233 86.58 21.1256 83.8819 21.3637 83.6637C22.8879 85.351 24.5227 86.935 26.2573 88.4052C27.2691 89.2847 28.3272 90.1444 29.3919 90.9843C28.843 90.6735 28.3603 90.3957 28.2875 90.3693C26.2573 89.4897 21.82 88.9872 20.1866 90.852C19.9254 91.1701 19.7341 91.5396 19.6253 91.9364C19.5164 92.3333 19.4924 92.7487 19.5548 93.1555C19.6172 93.5623 19.7646 93.9513 19.9874 94.2974C20.2102 94.6434 20.5034 94.9386 20.8479 95.1637C22.2697 96.1755 24.4123 95.9837 25.9862 95.4878C27.5601 94.9918 30.1987 92.7367 30.8798 92.1283L32.0768 93.1004C34.0607 94.6281 36.0446 96.1424 37.9491 97.6833C38.6104 98.2255 39.2717 98.7876 39.933 99.3498C39.4503 99.072 39.0403 98.8405 38.9742 98.8141C36.944 97.9346 32.5066 97.432 30.8732 99.2968C30.612 99.6149 30.4207 99.9844 30.3119 100.381C30.203 100.778 30.179 101.194 30.2414 101.6C30.3038 102.007 30.4512 102.396 30.674 102.742C30.8968 103.088 31.19 103.383 31.5345 103.609C32.9563 104.62 35.0989 104.429 36.6794 103.933C38.2599 103.437 40.6472 101.4 41.4408 100.686C42.1021 101.274 42.7237 101.869 43.3189 102.471C43.7157 102.888 44.1257 103.265 44.5026 103.714L45.5872 105.004C46.2485 105.844 46.9891 106.71 47.6438 107.55C48.1001 108.125 48.5233 108.687 48.9664 109.256C48.3051 108.707 46.9825 107.656 46.8701 107.583C44.992 106.406 40.6869 105.235 38.789 106.829C38.4831 107.104 38.2385 107.441 38.0711 107.817C37.9037 108.193 37.8172 108.6 37.8172 109.011C37.8172 109.423 37.9037 109.83 38.0711 110.206C38.2385 110.582 38.4831 110.918 38.789 111.194C40.0388 112.41 42.1881 112.516 43.8215 112.291C45.6202 112.014 48.8738 109.904 49.2838 109.646C49.9914 110.579 50.666 111.498 51.2678 112.371C52.3391 113.859 53.2913 115.241 54.1246 116.484L55.5662 115.79C54.6602 114.5 53.622 113.059 52.4515 111.504C51.7373 110.552 50.9503 109.521 50.1369 108.522C50.9791 107.601 51.7674 106.631 52.4978 105.619C54.237 106.28 57.8609 106.34 58.3238 106.34C58.3966 107.51 58.4627 108.648 58.5024 109.726C58.5685 111.392 58.6038 112.924 58.6082 114.322L60.1556 113.574C60.116 112.364 60.0498 111.048 59.9639 109.653C59.8977 108.462 59.7985 107.193 59.6795 105.89C60.1424 105.778 63.9118 104.819 65.3403 103.681C66.6629 102.656 67.9855 100.99 67.9855 99.2373C67.9883 98.826 67.9047 98.4188 67.7401 98.0418C67.5755 97.6649 67.3336 97.3268 67.03 97.0494C66.7263 96.7719 66.3678 96.5614 65.9776 96.4313C65.5874 96.3013 65.1743 96.2547 64.7649 96.2945C62.3115 96.6054 60.2416 100.567 59.8316 102.736C59.8316 102.861 59.6993 104.283 59.6464 105.182C59.6002 104.647 59.5605 104.131 59.501 103.589C59.3951 102.504 59.2563 101.426 59.1108 100.282C59.0248 99.7201 58.9322 99.158 58.8397 98.5893C58.7471 98.0205 58.6082 97.4386 58.4958 96.8566C58.1982 95.534 57.8345 94.1585 57.4377 92.8095C58.3834 92.7103 61.7428 92.3267 63.1844 91.4869C64.626 90.647 66.2132 89.2252 66.438 87.5191C66.5046 87.1131 66.4849 86.6978 66.3802 86.3C66.2756 85.9022 66.0884 85.5309 65.8307 85.2102C65.5731 84.8896 65.2508 84.6268 64.8849 84.4389C64.5189 84.2511 64.1176 84.1424 63.7068 84.12C61.227 84.0538 58.5884 87.6513 57.8543 89.741C57.808 89.8667 57.4509 91.4207 57.2658 92.2804C57.0211 91.4736 56.783 90.6602 56.5053 89.8468C55.7183 87.5058 54.8388 85.1582 53.9791 82.8106C53.7146 82.0964 53.4567 81.3756 53.1988 80.6547C53.536 80.6547 57.5435 80.2514 59.1505 79.3321C60.5789 78.5121 62.1792 77.0639 62.4041 75.3313C62.4696 74.925 62.4489 74.5095 62.3435 74.1116C62.238 73.7138 62.0502 73.3427 61.792 73.0222C61.5339 72.7016 61.2112 72.439 60.845 72.2512C60.4788 72.0634 60.0772 71.9548 59.6663 71.9322C57.193 71.8661 54.5478 75.4701 53.8138 77.5533C53.7609 77.712 53.245 79.9472 53.1525 80.5225C52.5837 78.942 52.0349 77.3615 51.5521 75.7743C50.8945 73.641 50.3754 71.4674 49.9981 69.2671C50.1568 69.2671 54.3362 68.8836 55.9894 67.9445C57.4179 67.1245 59.0182 65.6829 59.243 63.9767C59.3086 63.5708 59.288 63.1556 59.1825 62.7581C59.077 62.3607 58.889 61.9899 58.6307 61.6699C58.3725 61.3499 58.0498 61.0879 57.6836 60.9008C57.3174 60.7138 56.9159 60.6059 56.5053 60.5842C54.032 60.5181 51.3868 64.1156 50.6527 66.1987C50.6064 66.3376 50.2163 68.0437 50.051 68.8439H49.8658C49.5411 66.5845 49.4216 64.3003 49.5087 62.0193C49.5087 60.7826 49.6343 59.6055 49.7534 58.4549C50.5403 58.4549 54.1312 58.4549 55.7051 57.7936C57.279 57.1322 58.9653 55.8758 59.3753 54.1828C59.4858 53.7864 59.5116 53.3712 59.4513 52.9641C59.3909 52.5571 59.2456 52.1672 59.0249 51.8199C58.8042 51.4726 58.5129 51.1756 58.17 50.9481C57.827 50.7206 57.4401 50.5677 57.0343 50.4994C54.5809 50.1621 51.5587 53.4488 50.5998 55.4459C50.5469 55.5517 50.1369 56.7156 49.8526 57.5621C49.9187 57.0463 49.9716 56.5106 50.0377 56.0146C50.2956 54.163 50.6395 52.4767 50.9636 50.9888C51.1487 50.1489 51.3405 49.3884 51.519 48.6742C52.2994 48.284 55.4075 46.6903 56.4722 45.3677C57.5369 44.0451 58.4561 42.1604 58.0659 40.4674C57.981 40.0663 57.8129 39.6875 57.5724 39.3555C57.3318 39.0234 57.0243 38.7456 56.6696 38.5399C56.3149 38.3342 55.9211 38.2052 55.5134 38.1614C55.1058 38.1175 54.6935 38.1596 54.3031 38.2852Z" fill="#92E3A9"/>
<path d="M309.407 172.847C307.476 172.986 303.409 171.445 303.402 171.445C303.396 171.445 305.234 169.071 305.386 168.938C306.947 167.378 310.888 165.275 313.09 166.406C313.451 166.604 313.766 166.875 314.014 167.203C314.263 167.53 314.44 167.907 314.533 168.307C314.627 168.708 314.635 169.123 314.557 169.527C314.48 169.931 314.318 170.314 314.082 170.651C313.117 172.119 311.054 172.728 309.407 172.847Z" fill="#92E3A9"/>
<path d="M267.632 159.085C267.586 159.085 267.851 156.102 267.89 155.911C268.333 153.748 270.463 149.82 272.923 149.549C273.333 149.515 273.745 149.568 274.133 149.705C274.521 149.841 274.876 150.058 275.175 150.34C275.474 150.623 275.71 150.965 275.867 151.345C276.025 151.725 276.101 152.133 276.091 152.545C276.091 154.29 274.722 155.937 273.412 156.949C271.891 158.133 267.632 159.085 267.632 159.085Z" fill="#92E3A9"/>
<path d="M260.669 139.914C263.076 140.483 264.709 144.642 264.881 146.845C264.881 147.036 264.795 150.039 264.749 150.025H264.703C264.961 150.687 265.239 151.388 265.523 152.161C266.032 153.596 266.601 155.223 267.097 157.042C267.656 158.998 268.097 160.985 268.419 162.994C268.798 165.23 268.975 167.497 268.948 169.765C268.952 169.792 268.952 169.818 268.948 169.845C269.18 169.183 269.887 167.259 269.96 167.114C270.959 165.13 274.047 161.922 276.494 162.306C276.898 162.382 277.282 162.543 277.621 162.777C277.959 163.011 278.245 163.314 278.459 163.666C278.673 164.017 278.81 164.41 278.862 164.818C278.915 165.227 278.881 165.641 278.762 166.036C278.312 167.722 276.54 168.945 275.013 169.574C273.293 170.281 269.253 170.122 268.935 170.109C268.85 172.419 268.613 174.721 268.228 177C268.009 178.323 267.745 179.645 267.467 180.968C267.685 180.379 267.884 179.85 267.917 179.784C268.915 177.8 272.01 174.586 274.457 174.976C274.861 175.053 275.244 175.213 275.582 175.447C275.919 175.681 276.204 175.983 276.417 176.334C276.631 176.685 276.768 177.077 276.82 177.485C276.871 177.892 276.837 178.306 276.719 178.7C276.276 180.392 274.503 181.609 272.976 182.237C271.448 182.866 267.983 182.813 267.07 182.786C266.958 183.296 266.852 183.805 266.733 184.314C266.184 186.754 265.629 189.188 265.153 191.588C264.987 192.435 264.855 193.275 264.716 194.114C264.908 193.592 265.08 193.156 265.106 193.089C266.111 191.106 269.2 187.892 271.647 188.282C272.051 188.357 272.435 188.517 272.773 188.75C273.112 188.984 273.397 189.286 273.611 189.637C273.825 189.989 273.963 190.381 274.015 190.789C274.067 191.197 274.033 191.611 273.915 192.005C273.465 193.698 271.693 194.921 270.165 195.543C268.638 196.164 265.503 196.125 264.425 196.092C264.306 196.958 264.194 197.824 264.121 198.671C264.088 199.246 264.008 199.802 264.008 200.384C264.008 200.966 264.009 201.528 263.956 202.09C263.956 203.181 263.956 204.298 264.008 205.396C264.008 206.13 264.061 206.838 264.088 207.545C264.247 206.699 264.59 205.052 264.63 204.9C265.312 203.074 266.45 201.453 267.937 200.192C268.003 199.986 268.09 199.786 268.195 199.597C268.379 199.229 268.638 198.904 268.956 198.643C269.275 198.382 269.644 198.192 270.041 198.083C270.438 197.974 270.853 197.951 271.259 198.013C271.666 198.076 272.055 198.223 272.4 198.446C274.444 199.848 274.47 204.312 273.842 206.434C273.802 206.56 273.254 207.87 272.89 208.69C273.174 208.24 273.445 207.797 273.749 207.367C274.338 206.454 274.953 205.555 275.614 204.589L276.626 203.214C276.957 202.744 277.36 202.295 277.731 201.825C278.603 200.767 279.549 199.736 280.521 198.71C279.721 198.195 276.911 196.317 276.005 194.921C275.099 193.526 274.345 191.522 274.94 189.882C275.066 189.492 275.272 189.133 275.546 188.828C275.82 188.523 276.155 188.279 276.529 188.112C276.903 187.945 277.308 187.859 277.718 187.858C278.128 187.858 278.533 187.943 278.908 188.11C281.143 189.181 281.844 193.592 281.553 195.781C281.553 195.92 281.143 197.467 280.892 198.307C281.48 197.699 282.062 197.09 282.677 196.495C284.456 194.769 286.308 193.083 288.146 191.39C288.708 190.874 289.264 190.352 289.819 189.829C289.535 189.651 286.142 187.488 285.13 185.928C284.231 184.545 283.471 182.528 284.066 180.888C284.193 180.499 284.4 180.141 284.674 179.836C284.948 179.532 285.282 179.289 285.656 179.122C286.03 178.955 286.435 178.868 286.844 178.867C287.254 178.866 287.659 178.951 288.034 179.116C290.262 180.187 290.97 184.598 290.679 186.787C290.679 186.953 290.09 189.175 289.918 189.737C291.148 188.586 292.359 187.429 293.509 186.245C295.072 184.65 296.528 182.953 297.867 181.166C297.735 181.08 294.19 178.838 293.152 177.245C292.253 175.856 291.492 173.846 292.087 172.199C292.214 171.81 292.421 171.451 292.695 171.147C292.969 170.843 293.304 170.599 293.678 170.432C294.052 170.265 294.457 170.178 294.866 170.177C295.275 170.176 295.681 170.261 296.055 170.427C298.29 171.498 298.991 175.909 298.7 178.104C298.7 178.243 298.251 179.943 298.039 180.75L298.165 180.809C299.467 178.977 300.603 177.031 301.557 174.996C302.099 173.885 302.549 172.787 302.972 171.69C302.265 171.339 299.071 169.706 297.973 168.383C296.875 167.061 295.949 165.189 296.359 163.49C296.443 163.086 296.61 162.705 296.85 162.371C297.09 162.037 297.398 161.757 297.754 161.549C298.109 161.341 298.504 161.211 298.913 161.166C299.323 161.121 299.737 161.162 300.129 161.287C302.463 162.114 303.647 166.419 303.594 168.628C303.594 168.747 303.422 169.95 303.283 170.85C303.468 170.367 303.66 169.865 303.825 169.395C304.447 167.629 304.91 165.969 305.307 164.501C305.525 163.661 305.704 162.901 305.862 162.187C305.353 161.486 303.33 158.622 302.979 156.969C302.629 155.316 302.655 153.2 303.799 151.877C304.059 151.558 304.383 151.296 304.75 151.11C305.117 150.925 305.52 150.818 305.931 150.798C306.342 150.778 306.753 150.845 307.136 150.995C307.52 151.144 307.868 151.373 308.157 151.665C309.85 153.471 308.918 157.835 307.853 159.773C307.76 159.938 306.008 162.385 305.981 162.352V162.306C305.836 163 305.677 163.734 305.485 164.541C305.122 166.022 304.698 167.689 304.11 169.481C303.499 171.412 302.777 173.307 301.947 175.155C301.026 177.234 299.919 179.226 298.641 181.107C298.627 181.13 298.612 181.152 298.595 181.173C299.163 180.73 300.803 179.533 300.942 179.453C302.86 178.356 307.218 177.377 309.043 179.05C309.339 179.336 309.571 179.681 309.724 180.063C309.877 180.445 309.949 180.855 309.933 181.266C309.917 181.677 309.815 182.08 309.634 182.449C309.452 182.818 309.194 183.145 308.878 183.408C307.555 184.565 305.419 184.612 303.799 184.288C301.974 183.93 298.694 181.576 298.429 181.384C297.091 183.265 295.626 185.053 294.045 186.734C293.126 187.726 292.173 188.718 291.208 189.644C291.717 189.274 292.173 188.95 292.239 188.91C294.164 187.812 298.515 186.827 300.34 188.5C300.637 188.786 300.87 189.131 301.024 189.513C301.178 189.894 301.249 190.305 301.234 190.716C301.218 191.127 301.116 191.531 300.933 191.9C300.751 192.269 300.492 192.596 300.175 192.858C298.852 194.022 296.723 194.068 295.103 193.744C293.483 193.42 290.619 191.469 289.872 190.94C289.502 191.304 289.131 191.674 288.754 192.031C286.949 193.764 285.137 195.49 283.418 197.236C282.809 197.844 282.234 198.472 281.659 199.101C282.108 198.77 282.492 198.499 282.551 198.439C284.476 197.348 288.827 196.363 290.652 198.036C290.949 198.322 291.182 198.667 291.336 199.049C291.49 199.43 291.561 199.841 291.545 200.252C291.53 200.663 291.427 201.067 291.245 201.436C291.063 201.805 290.804 202.132 290.487 202.394C289.164 203.558 287.035 203.597 285.415 203.28C283.795 202.963 281.209 201.19 280.323 200.569C279.747 201.23 279.172 201.891 278.65 202.553C278.299 203.016 277.936 203.432 277.611 203.915L276.626 205.317C276.031 206.229 275.416 207.169 274.86 208.068C274.47 208.729 274.113 209.305 273.743 209.906C274.345 209.291 275.535 208.108 275.647 208.015C277.38 206.646 281.54 205.013 283.583 206.388C283.918 206.626 284.2 206.932 284.409 207.287C284.618 207.641 284.75 208.035 284.797 208.443C284.844 208.852 284.804 209.266 284.68 209.658C284.557 210.05 284.352 210.412 284.079 210.72C282.968 212.042 280.845 212.433 279.199 212.366C277.38 212.287 273.908 210.541 273.478 210.323C272.877 211.328 272.301 212.307 271.779 213.253C270.873 214.846 270.079 216.328 269.385 217.65L267.884 217.121C268.638 215.746 269.511 214.198 270.529 212.492C271.131 211.467 271.799 210.382 272.513 209.278C271.581 208.448 270.697 207.565 269.868 206.633C268.214 207.506 264.617 207.955 264.154 207.955C264.207 209.126 264.273 210.27 264.352 211.341C264.465 213.008 264.604 214.535 264.743 215.918L263.129 215.349C263.036 214.136 262.955 212.829 262.884 211.427C262.825 210.237 262.785 208.967 262.759 207.658C262.283 207.598 258.434 207.056 256.893 206.084C255.498 205.204 253.963 203.697 253.811 201.951C253.758 201.54 253.792 201.123 253.912 200.726C254.032 200.33 254.234 199.963 254.506 199.651C254.778 199.338 255.113 199.087 255.489 198.914C255.865 198.74 256.274 198.648 256.688 198.644C259.161 198.684 261.654 202.394 262.296 204.51C262.335 204.636 262.593 206.031 262.745 206.917C262.745 206.388 262.745 205.866 262.745 205.317C262.745 204.232 262.745 203.141 262.745 201.977C262.745 201.415 262.798 200.84 262.825 200.265C262.851 199.689 262.931 199.094 262.983 198.505C263.129 197.137 263.341 195.754 263.592 194.366C262.64 194.366 259.254 194.366 257.733 193.704C256.212 193.043 254.473 191.78 254.063 190.087C253.952 189.691 253.926 189.275 253.987 188.868C254.048 188.461 254.194 188.072 254.416 187.725C254.637 187.378 254.929 187.081 255.273 186.855C255.616 186.628 256.004 186.477 256.41 186.41C258.864 186.073 261.886 189.36 262.838 191.35C262.898 191.476 263.427 192.984 263.698 193.817C263.856 192.984 264.009 192.157 264.187 191.317C264.723 188.903 265.338 186.47 265.933 184.043C266.118 183.296 266.297 182.555 266.475 181.814C266.131 181.814 262.111 181.887 260.411 181.153C258.897 180.492 257.151 179.235 256.741 177.536C256.63 177.14 256.605 176.726 256.665 176.319C256.725 175.913 256.871 175.524 257.092 175.178C257.313 174.831 257.604 174.536 257.947 174.309C258.29 174.083 258.677 173.932 259.082 173.865C261.535 173.528 264.557 176.815 265.516 178.805C265.589 178.957 266.343 181.126 266.508 181.689C266.898 180.055 267.269 178.422 267.573 176.795C267.994 174.611 268.274 172.402 268.413 170.182C268.254 170.182 264.055 170.268 262.309 169.521C260.795 168.859 259.049 167.603 258.639 165.903C258.528 165.507 258.503 165.092 258.563 164.684C258.624 164.277 258.77 163.888 258.992 163.541C259.213 163.194 259.505 162.898 259.849 162.671C260.193 162.445 260.58 162.293 260.986 162.226C263.44 161.889 266.462 165.176 267.414 167.166C267.48 167.299 268.076 168.952 268.314 169.745H268.452C268.528 167.499 268.402 165.25 268.076 163.027C267.91 161.797 267.685 160.639 267.414 159.509C266.634 159.608 263.069 160.005 261.423 159.509C259.776 159.013 257.971 157.961 257.376 156.321C257.223 155.939 257.152 155.53 257.168 155.119C257.184 154.708 257.285 154.305 257.467 153.935C257.648 153.566 257.905 153.24 258.221 152.976C258.537 152.713 258.904 152.518 259.3 152.406C261.701 151.804 265.067 154.741 266.237 156.619C266.303 156.718 266.832 157.829 267.209 158.642C267.09 158.133 266.978 157.604 266.859 157.121C266.402 155.309 265.873 153.676 265.391 152.228C265.113 151.408 264.842 150.674 264.584 149.992C263.764 149.688 260.497 148.418 259.293 147.228C258.09 146.038 256.946 144.266 257.177 142.526C257.214 142.117 257.336 141.719 257.537 141.36C257.737 141.001 258.011 140.688 258.34 140.441C258.67 140.195 259.047 140.021 259.448 139.93C259.85 139.839 260.266 139.834 260.669 139.914Z" fill="#92E3A9"/>
<path d="M293.331 262.671C292.273 263.2 289.621 263.273 289.621 263.273C289.621 263.273 290.097 261.508 290.143 261.402C290.666 260.158 292.405 258.056 293.906 258.181C294.156 258.208 294.397 258.287 294.615 258.413C294.832 258.54 295.02 258.711 295.167 258.915C295.314 259.119 295.416 259.352 295.466 259.598C295.517 259.844 295.514 260.098 295.46 260.344C295.262 261.395 294.237 262.222 293.331 262.671Z" fill="#92E3A9"/>
<path d="M266.548 264.616C266.548 264.616 265.979 262.876 265.953 262.764C265.701 261.441 265.992 258.723 267.315 257.996C267.539 257.881 267.785 257.815 268.036 257.801C268.287 257.788 268.538 257.828 268.773 257.918C269.008 258.009 269.221 258.148 269.398 258.327C269.575 258.505 269.713 258.719 269.802 258.955C270.218 259.934 269.802 261.19 269.312 262.063C268.724 263.088 266.548 264.616 266.548 264.616Z" fill="#92E3A9"/>
<path d="M275.066 293.204C275.39 293.938 275.727 294.645 276.018 295.3C276.309 295.955 276.534 296.385 276.778 296.881H277.83C277.512 296.272 277.168 295.617 276.825 294.897C276.534 294.308 276.229 293.68 275.925 293.032C276.988 292.471 277.967 291.766 278.835 290.935C279.521 291.268 280.228 291.558 280.951 291.802C280.819 292.589 280.693 293.356 280.587 294.077C280.442 295.088 280.323 296.021 280.224 296.867H281.183C281.262 296.054 281.355 295.161 281.474 294.222C281.553 293.561 281.652 292.9 281.758 292.172C282.049 292.172 284.403 292.377 285.461 291.994C286.519 291.61 287.518 290.949 287.835 289.93C287.918 289.693 287.949 289.441 287.928 289.191C287.907 288.941 287.833 288.698 287.711 288.478C287.589 288.258 287.422 288.067 287.222 287.916C287.021 287.765 286.791 287.658 286.546 287.603C285.064 287.305 283.094 289.19 282.439 290.367C282.393 290.446 281.996 291.392 281.778 291.881C281.837 291.451 281.903 291.028 281.976 290.559C282.082 289.897 282.214 289.236 282.333 288.575C282.406 288.237 282.485 287.913 282.565 287.556C282.644 287.199 282.743 286.895 282.829 286.544C282.975 286.048 283.147 285.539 283.319 285.037C284.462 285.334 285.644 285.45 286.823 285.381C287.809 285.189 289.019 284.66 289.469 283.701C289.586 283.479 289.655 283.234 289.672 282.984C289.688 282.733 289.652 282.482 289.565 282.246C289.479 282.011 289.344 281.796 289.169 281.616C288.994 281.436 288.783 281.294 288.549 281.201C287.128 280.685 284.899 282.253 284.066 283.317C284.066 283.35 283.887 283.595 283.709 283.886C283.894 283.397 284.072 282.907 284.271 282.418C284.84 281.036 285.455 279.64 286.076 278.245L286.453 277.366C286.995 277.491 289.052 277.934 290.057 277.736C291.062 277.537 292.253 277.015 292.702 276.05C292.82 275.827 292.889 275.583 292.905 275.333C292.922 275.082 292.886 274.831 292.799 274.595C292.713 274.359 292.577 274.145 292.402 273.965C292.227 273.784 292.016 273.643 291.783 273.55C290.361 273.034 288.133 274.601 287.3 275.666C287.3 275.706 287.088 275.997 286.89 276.327C287.214 275.567 287.551 274.8 287.815 274.026C288.316 272.708 288.727 271.358 289.045 269.985C289.237 270.032 291.638 270.594 292.755 270.376C293.747 270.177 294.951 269.655 295.401 268.696C295.518 268.473 295.586 268.229 295.603 267.978C295.619 267.727 295.582 267.475 295.495 267.24C295.407 267.004 295.272 266.789 295.096 266.609C294.92 266.43 294.708 266.289 294.475 266.196C293.06 265.674 290.824 267.248 289.998 268.312C289.938 268.385 289.29 269.443 289.072 269.827C289.069 269.811 289.069 269.796 289.072 269.78C289.349 268.423 289.508 267.045 289.548 265.661C289.587 264.423 289.554 263.184 289.449 261.951C289.363 260.807 289.217 259.762 289.079 258.842C288.999 258.347 288.913 257.89 288.834 257.467C288.834 257.467 289.277 255.695 289.29 255.576C289.442 254.253 288.953 251.555 287.577 250.947C287.346 250.849 287.096 250.801 286.845 250.806C286.594 250.811 286.347 250.869 286.119 250.977C285.892 251.084 285.69 251.238 285.527 251.429C285.363 251.62 285.242 251.843 285.17 252.084C284.826 253.096 285.316 254.313 285.884 255.146C286.453 255.979 288.278 257.13 288.728 257.427C288.807 257.864 288.88 258.34 288.953 258.862C289.072 259.782 289.198 260.846 289.257 261.97C289.257 262.275 289.257 262.599 289.29 262.916C289.158 262.387 288.973 261.66 288.946 261.594C288.464 260.33 286.79 258.175 285.283 258.254C285.032 258.274 284.789 258.346 284.568 258.466C284.348 258.586 284.155 258.752 284.003 258.951C283.851 259.151 283.742 259.381 283.685 259.625C283.627 259.87 283.622 260.123 283.669 260.37C283.828 261.428 284.826 262.281 285.719 262.764C286.612 263.247 288.834 263.425 289.31 263.472C289.31 264.179 289.31 264.9 289.277 265.654C289.207 267.025 289.019 268.388 288.715 269.728H288.629C288.569 269.225 288.417 268.167 288.391 268.081C288.054 266.758 286.625 264.444 285.117 264.358C284.866 264.352 284.617 264.398 284.385 264.494C284.153 264.59 283.943 264.734 283.77 264.916C283.597 265.098 283.464 265.314 283.379 265.55C283.294 265.787 283.26 266.038 283.279 266.289C283.325 267.353 284.225 268.312 285.058 268.888C286.017 269.549 288.536 269.985 288.635 270.005C288.291 271.325 287.862 272.622 287.353 273.887C286.982 274.826 286.566 275.759 286.136 276.691C286.136 276.341 285.904 274.952 285.884 274.853C285.541 273.53 284.119 271.215 282.578 271.129C282.327 271.123 282.078 271.17 281.846 271.266C281.614 271.362 281.405 271.506 281.233 271.688C281.06 271.87 280.927 272.086 280.844 272.322C280.76 272.559 280.727 272.81 280.746 273.06C280.792 274.125 281.692 275.084 282.518 275.659C283.451 276.321 285.871 276.737 286.076 276.77C285.878 277.194 285.686 277.617 285.488 278.047C284.826 279.429 284.165 280.811 283.59 282.2C283.378 282.676 283.193 283.159 283.001 283.641C282.935 283.106 282.796 282.14 282.776 282.061C282.439 280.738 281.011 278.424 279.503 278.338C279.252 278.331 279.002 278.378 278.77 278.474C278.538 278.57 278.329 278.714 278.156 278.896C277.982 279.077 277.849 279.294 277.765 279.53C277.68 279.767 277.646 280.018 277.664 280.269C277.711 281.333 278.61 282.292 279.443 282.868C280.277 283.443 282.3 283.853 282.876 283.959C282.558 284.759 282.267 285.559 282.022 286.366C281.923 286.716 281.798 287.067 281.718 287.404C281.639 287.741 281.553 288.065 281.467 288.416C281.321 289.117 281.183 289.739 281.064 290.4C280.997 290.73 280.951 291.061 280.892 291.365C280.892 290.816 280.892 289.944 280.892 289.864C280.753 288.542 279.695 286.009 278.246 285.691C277.999 285.646 277.745 285.653 277.501 285.713C277.257 285.772 277.028 285.882 276.829 286.035C276.63 286.188 276.466 286.382 276.347 286.603C276.227 286.824 276.156 287.068 276.137 287.318C276.127 287.45 276.127 287.583 276.137 287.715C275.595 288.773 275.333 289.952 275.376 291.14C275.376 291.226 275.575 292.238 275.687 292.747C275.502 292.357 275.323 291.967 275.138 291.557C274.867 290.962 274.609 290.334 274.351 289.719L273.974 288.74C273.842 288.416 273.756 288.079 273.644 287.748C273.492 287.259 273.353 286.743 273.214 286.227C274.331 285.843 275.382 285.287 276.329 284.58C277.049 283.873 277.764 282.768 277.651 281.71C277.627 281.46 277.55 281.217 277.425 280.999C277.301 280.78 277.132 280.59 276.929 280.44C276.727 280.291 276.495 280.187 276.249 280.133C276.003 280.08 275.748 280.078 275.502 280.13C274.034 280.48 273.035 283.02 272.93 284.369C272.93 284.415 272.93 284.699 272.93 285.03C272.811 284.527 272.691 284.018 272.586 283.502C272.295 282.034 272.043 280.533 271.785 279.025C271.733 278.708 271.673 278.397 271.62 278.08C272.143 277.888 274.1 277.121 274.827 276.4C275.555 275.679 276.262 274.588 276.117 273.53C276.093 273.28 276.016 273.039 275.892 272.821C275.768 272.603 275.599 272.413 275.397 272.265C275.195 272.116 274.964 272.012 274.719 271.959C274.473 271.906 274.22 271.905 273.974 271.956C272.5 272.307 271.508 274.846 271.402 276.188C271.402 276.241 271.402 276.579 271.402 276.962C271.25 276.149 271.085 275.335 270.899 274.535C270.59 273.158 270.188 271.804 269.696 270.481C269.881 270.415 272.195 269.562 273.002 268.762C273.809 267.962 274.431 266.95 274.292 265.892C274.259 265.659 274.18 265.435 274.06 265.232C273.939 265.03 273.78 264.853 273.592 264.712C273.403 264.572 273.188 264.47 272.96 264.412C272.732 264.355 272.494 264.343 272.262 264.378C270.794 264.728 269.802 267.267 269.696 268.61C269.696 268.709 269.729 269.933 269.762 270.389V270.343C269.249 269.055 268.623 267.816 267.89 266.639C267.239 265.588 266.528 264.575 265.761 263.604C265.053 262.691 264.359 261.904 263.731 261.217C263.394 260.84 263.07 260.509 262.772 260.198H262.805C262.805 260.198 262.197 258.472 262.144 258.373C261.529 257.169 259.644 255.199 258.176 255.437C257.929 255.483 257.694 255.58 257.488 255.723C257.281 255.866 257.107 256.05 256.976 256.265C256.846 256.48 256.762 256.72 256.731 256.969C256.699 257.218 256.721 257.471 256.794 257.712C257.065 258.743 258.149 259.491 259.082 259.874C260.014 260.258 262.177 260.218 262.712 260.205C263.017 260.529 263.374 260.866 263.685 261.276C264.293 261.984 264.974 262.784 265.668 263.703C265.847 263.948 266.032 264.219 266.217 264.477C265.821 264.106 265.258 263.604 265.199 263.558C264.101 262.771 261.522 261.898 260.305 262.797C260.109 262.952 259.947 263.146 259.83 263.367C259.714 263.588 259.645 263.831 259.628 264.08C259.611 264.329 259.647 264.579 259.733 264.814C259.819 265.049 259.953 265.263 260.127 265.442C260.841 266.229 262.15 266.395 263.156 266.302C264.161 266.209 266.125 265.151 266.541 264.913C266.945 265.495 267.342 266.097 267.718 266.752C268.419 267.933 269.012 269.174 269.491 270.462L269.418 270.501C269.087 270.118 268.38 269.318 268.314 269.258C267.308 268.352 264.842 267.201 263.532 267.935C263.315 268.067 263.128 268.244 262.984 268.453C262.84 268.663 262.742 268.901 262.698 269.152C262.653 269.402 262.663 269.659 262.726 269.906C262.789 270.152 262.904 270.382 263.063 270.581C263.724 271.447 264.967 271.751 265.979 271.771C267.137 271.771 269.491 270.766 269.577 270.726C270.022 272.023 270.379 273.349 270.648 274.694C270.86 275.679 271.025 276.678 271.184 277.709C270.959 277.425 270.033 276.387 269.954 276.307C268.949 275.408 266.482 274.251 265.172 274.985C264.956 275.117 264.769 275.294 264.626 275.504C264.483 275.714 264.386 275.951 264.341 276.202C264.297 276.452 264.306 276.708 264.368 276.955C264.431 277.201 264.545 277.431 264.703 277.63C265.331 278.49 266.607 278.801 267.619 278.814C268.75 278.814 271.012 277.868 271.197 277.782L271.415 279.164C271.64 280.679 271.858 282.193 272.116 283.681C272.209 284.197 272.321 284.699 272.427 285.209C272.076 284.799 271.428 284.071 271.369 284.012C270.364 283.112 267.89 281.955 266.581 282.689C266.364 282.821 266.178 282.998 266.035 283.208C265.891 283.418 265.794 283.656 265.75 283.906C265.705 284.156 265.715 284.413 265.777 284.659C265.839 284.905 265.953 285.135 266.112 285.334C266.74 286.194 268.023 286.498 269.028 286.518C270.033 286.538 271.957 285.764 272.493 285.539C272.672 286.379 272.877 287.206 273.108 288.013C273.221 288.363 273.306 288.72 273.432 289.051C273.558 289.381 273.67 289.712 273.783 290.029C274.047 290.691 274.285 291.312 274.55 291.927C274.675 292.232 274.808 292.523 274.933 292.827C274.642 292.357 274.173 291.63 274.12 291.564C273.267 290.525 270.999 289.004 269.59 289.58C269.359 289.678 269.151 289.824 268.979 290.008C268.808 290.191 268.678 290.409 268.597 290.647C268.515 290.885 268.485 291.137 268.508 291.388C268.531 291.638 268.607 291.88 268.73 292.099C269.22 293.052 270.436 293.548 271.428 293.72C272.486 293.865 274.788 293.276 275.066 293.204Z" fill="#92E3A9"/>
<path d="M272.579 11.7275H58.0989V265.747H272.579V11.7275Z" fill="#263238" stroke="#263238" stroke-miterlimit="10"/>
<path d="M251.794 14.6635C251.794 15.0049 251.693 15.3386 251.503 15.6224C251.314 15.9063 251.044 16.1275 250.729 16.2581C250.413 16.3887 250.066 16.4229 249.731 16.3563C249.397 16.2897 249.089 16.1253 248.848 15.884C248.606 15.6426 248.442 15.335 248.375 15.0002C248.309 14.6654 248.343 14.3184 248.474 14.003C248.604 13.6876 248.825 13.418 249.109 13.2284C249.393 13.0387 249.727 12.9375 250.068 12.9375C250.526 12.9375 250.965 13.1193 251.289 13.443C251.612 13.7667 251.794 14.2057 251.794 14.6635Z" fill="#92E3A9" stroke="#263238" stroke-miterlimit="10"/>
<path d="M258.268 14.6635C258.268 15.0049 258.167 15.3386 257.977 15.6224C257.788 15.9063 257.518 16.1275 257.203 16.2581C256.887 16.3887 256.54 16.4229 256.206 16.3563C255.871 16.2897 255.563 16.1253 255.322 15.884C255.08 15.6426 254.916 15.335 254.849 15.0002C254.783 14.6654 254.817 14.3184 254.948 14.003C255.078 13.6876 255.3 13.418 255.583 13.2284C255.867 13.0387 256.201 12.9375 256.542 12.9375C257 12.9375 257.439 13.1193 257.763 13.443C258.086 13.7667 258.268 14.2057 258.268 14.6635Z" fill="#92E3A9" stroke="#263238" stroke-miterlimit="10"/>
<path d="M264.742 14.6635C264.742 15.0044 264.642 15.3375 264.452 15.6211C264.263 15.9046 263.995 16.1258 263.68 16.2569C263.365 16.3879 263.019 16.4228 262.685 16.3573C262.35 16.2918 262.043 16.1287 261.801 15.8886C261.559 15.6485 261.393 15.3422 261.325 15.0083C261.257 14.6744 261.289 14.3278 261.418 14.0122C261.547 13.6965 261.766 13.4261 262.048 13.2348C262.33 13.0436 262.662 12.9402 263.003 12.9376C263.231 12.9358 263.457 12.9792 263.668 13.0651C263.879 13.1511 264.071 13.2779 264.232 13.4384C264.394 13.5988 264.522 13.7897 264.61 14C264.697 14.2102 264.742 14.4358 264.742 14.6635Z" fill="#92E3A9" stroke="#263238" stroke-miterlimit="10"/>
<path d="M272.579 17.335H58.0989V271.354H272.579V17.335Z" fill="#92E3A9" stroke="#263238" stroke-miterlimit="10"/>
<path d="M117.98 31.9307V27.3016C117.98 26.1259 117.513 24.9982 116.682 24.1663C115.852 23.3343 114.725 22.866 113.549 22.8643H68.1705C66.9936 22.8643 65.865 23.3318 65.0328 24.1639C64.2007 24.9961 63.7332 26.1247 63.7332 27.3016V31.9307H58.0989V271.355H272.579V31.9307H117.98Z" fill="#263238" stroke="#263238" stroke-miterlimit="10"/>
<path d="M175.711 31.9307V27.3016C175.711 26.1247 175.244 24.9961 174.412 24.1639C173.58 23.3318 172.451 22.8643 171.274 22.8643H125.896C124.724 22.873 123.603 23.3441 122.777 24.1751C121.951 25.0062 121.486 26.1298 121.485 27.3016V31.9307H58.0989V271.355H272.579V31.9307H175.711Z" fill="#263238" stroke="#263238" stroke-miterlimit="10"/>
<path d="M237.649 31.9307V27.3016C237.649 26.1304 237.186 25.0068 236.361 24.1756C235.536 23.3443 234.416 22.873 233.245 22.8643H187.84C186.662 22.8643 185.533 23.3315 184.7 24.1635C183.866 24.9955 183.397 26.1241 183.396 27.3016V31.9307H58.0989V271.355H272.579V31.9307H237.649Z" fill="white" stroke="#263238" stroke-miterlimit="10"/>
<path d="M187.998 157.558H122.933V202.024H187.998V157.558Z" stroke="#263238" stroke-miterlimit="10"/>
<path d="M267.771 75.9668H63.138V142.018H267.771V75.9668Z" fill="#92E3A9"/>
<path d="M115.592 147.843H63.138V259.226H115.592V147.843Z" fill="#92E3A9"/>
<path d="M264.134 142.017H197.138V67.7129L264.134 89.1126V142.017Z" fill="white" stroke="#263238" stroke-miterlimit="10"/>
<path d="M264.134 142.017H197.138V128.6L264.134 132.468V142.017Z" fill="white" stroke="#263238" stroke-miterlimit="10"/>
<path d="M211.812 83.0756L201.509 80.2915V75.6426L211.812 78.6383V83.0756Z" fill="#263238" stroke="#263238" stroke-miterlimit="10"/>
<path d="M213.584 86.7392L199.531 83.1418V78.4531L213.584 82.335V86.7392Z" fill="white" stroke="#263238" stroke-miterlimit="10"/>
<path d="M226.995 87.1819L218.107 84.7814V80.4697L226.995 83.0554V87.1819Z" fill="#263238" stroke="#263238" stroke-miterlimit="10"/>
<path d="M228.53 90.5615L216.408 87.46V83.1152L228.53 86.4614V90.5615Z" fill="white" stroke="#263238" stroke-miterlimit="10"/>
<path d="M240.202 90.753L232.458 88.6633V84.6426L240.202 86.891V90.753Z" fill="#263238" stroke="#263238" stroke-miterlimit="10"/>
<path d="M241.544 93.8876L230.976 91.1829V87.1357L241.544 90.0521V93.8876Z" fill="white" stroke="#263238" stroke-miterlimit="10"/>
<path d="M251.787 93.8874L244.983 92.0489V88.2861L251.787 90.2634V93.8874Z" fill="#263238" stroke="#263238" stroke-miterlimit="10"/>
<path d="M252.971 96.8108L243.687 94.4367V90.6475L252.971 93.2067V96.8108Z" fill="white" stroke="#263238" stroke-miterlimit="10"/>
<path d="M262.044 96.6655L256.007 95.0321V91.4941L262.044 93.2466V96.6655Z" fill="#263238" stroke="#263238" stroke-miterlimit="10"/>
<path d="M263.096 99.3959L254.863 97.2929V93.7285L263.096 96.0034V99.3959Z" fill="white" stroke="#263238" stroke-miterlimit="10"/>
<path d="M211.812 95.9045L201.509 93.7222V89.0732L211.812 91.4672V95.9045Z" fill="#263238" stroke="#263238" stroke-miterlimit="10"/>
<path d="M213.584 99.4624L199.531 96.6916V92.0029L213.584 95.0582V99.4624Z" fill="white" stroke="#263238" stroke-miterlimit="10"/>
<path d="M226.995 99.1183L218.107 97.2336V92.9219L226.995 94.9851V99.1183Z" fill="#263238" stroke="#263238" stroke-miterlimit="10"/>
<path d="M228.53 102.399L216.408 100.018V95.667L228.53 98.3056V102.399Z" fill="white" stroke="#263238" stroke-miterlimit="10"/>
<path d="M240.202 101.909L232.458 100.269V96.2549L240.202 98.047V101.909Z" fill="#263238" stroke="#263238" stroke-miterlimit="10"/>
<path d="M241.544 104.964L230.976 102.881V98.834L241.544 101.129V104.964Z" fill="white" stroke="#263238" stroke-miterlimit="10"/>
<path d="M251.787 104.363L244.983 102.921V99.1582L251.787 100.739V104.363Z" fill="#263238" stroke="#263238" stroke-miterlimit="10"/>
<path d="M252.971 107.213L243.687 105.388V101.592L252.971 103.615V107.213Z" fill="white" stroke="#263238" stroke-miterlimit="10"/>
<path d="M262.044 106.532L256.007 105.256V101.718L262.044 103.113V106.532Z" fill="#263238" stroke="#263238" stroke-miterlimit="10"/>
<path d="M263.096 109.203L254.863 107.583V104.025L263.096 105.811V109.203Z" fill="white" stroke="#263238" stroke-miterlimit="10"/>
<path d="M211.812 108.727L201.509 107.153V102.504L211.812 104.289V108.727Z" fill="#263238" stroke="#263238" stroke-miterlimit="10"/>
<path d="M213.584 112.179L199.531 110.241V105.553L213.584 107.775V112.179Z" fill="white" stroke="#263238" stroke-miterlimit="10"/>
<path d="M226.995 111.048L218.107 109.693V105.381L226.995 106.915V111.048Z" fill="#263238" stroke="#263238" stroke-miterlimit="10"/>
<path d="M228.53 114.242L216.408 112.569V108.225L228.53 110.142V114.242Z" fill="white" stroke="#263238" stroke-miterlimit="10"/>
<path d="M240.202 113.066L232.458 111.882V107.861L240.202 109.204V113.066Z" fill="#263238" stroke="#263238" stroke-miterlimit="10"/>
<path d="M241.544 116.041L230.976 114.579V110.532L241.544 112.205V116.041Z" fill="white" stroke="#263238" stroke-miterlimit="10"/>
<path d="M251.787 114.838L244.983 113.793V110.03L251.787 111.207V114.838Z" fill="#263238" stroke="#263238" stroke-miterlimit="10"/>
<path d="M252.971 117.615L243.687 116.332V112.543L252.971 114.018V117.615Z" fill="white" stroke="#263238" stroke-miterlimit="10"/>
<path d="M262.044 116.405L256.007 115.479V111.941L262.044 112.986V116.405Z" fill="#263238" stroke="#263238" stroke-miterlimit="10"/>
<path d="M263.096 119.017L254.863 117.88V114.315L263.096 115.618V119.017Z" fill="white" stroke="#263238" stroke-miterlimit="10"/>
<path d="M211.812 121.557L201.509 120.584V115.936L211.812 117.113V121.557Z" fill="#263238" stroke="#263238" stroke-miterlimit="10"/>
<path d="M213.584 124.903L199.531 123.792V119.097L213.584 120.499V124.903Z" fill="white" stroke="#263238" stroke-miterlimit="10"/>
<path d="M226.995 122.979L218.107 122.146V117.834L226.995 118.852V122.979Z" fill="#263238" stroke="#263238" stroke-miterlimit="10"/>
<path d="M228.53 126.087L216.408 125.128V120.776L228.53 121.987V126.087Z" fill="white" stroke="#263238" stroke-miterlimit="10"/>
<path d="M240.202 124.222L232.458 123.494V119.474L240.202 120.36V124.222Z" fill="#263238" stroke="#263238" stroke-miterlimit="10"/>
<path d="M241.544 127.118L230.976 126.279V122.231L241.544 123.283V127.118Z" fill="white" stroke="#263238" stroke-miterlimit="10"/>
<path d="M251.787 125.306L244.983 124.671V120.901L251.787 121.682V125.306Z" fill="#263238" stroke="#263238" stroke-miterlimit="10"/>
<path d="M252.971 128.017L243.687 127.283V123.494L252.971 124.42V128.017Z" fill="white" stroke="#263238" stroke-miterlimit="10"/>
<path d="M262.044 126.272L256.007 125.703V122.165L262.044 122.853V126.272Z" fill="#263238" stroke="#263238" stroke-miterlimit="10"/>
<path d="M263.096 128.825L254.863 128.17V124.605L263.096 125.425V128.825Z" fill="white" stroke="#263238" stroke-miterlimit="10"/>
<path d="M182.377 72.4678H165.303V141.99H182.377V72.4678Z" fill="#263238" stroke="#263238" stroke-miterlimit="10"/>
<path d="M197.673 68.0635H180.599V141.99H197.673V68.0635Z" fill="#263238" stroke="#263238" stroke-miterlimit="10"/>
<path d="M165.303 141.918L96.461 142.017V86.289L165.303 72.4678V141.918Z" fill="white" stroke="#263238" stroke-miterlimit="10"/>
<path d="M165.303 141.918L96.461 142.017V131.952L165.303 129.38V141.918Z" fill="white" stroke="#263238" stroke-miterlimit="10"/>
<path d="M105.964 93.2198L99.0996 94.3837V90.7994L105.964 89.543V93.2198Z" fill="#263238" stroke="#263238" stroke-miterlimit="10"/>
<path d="M107.247 95.6666L97.8828 97.1744V93.6034L107.247 91.9766V95.6666Z" fill="white" stroke="#263238" stroke-miterlimit="10"/>
<path d="M118.125 91.1502L110.679 92.4199V88.6836L118.125 87.3213V91.1502Z" fill="#263238" stroke="#263238" stroke-miterlimit="10"/>
<path d="M119.521 93.6896L109.363 95.3296V91.6065L119.521 89.8408V93.6896Z" fill="white" stroke="#263238" stroke-miterlimit="10"/>
<path d="M131.351 88.9013L123.244 90.2768V86.3817L131.351 84.9004V88.9013Z" fill="#263238" stroke="#263238" stroke-miterlimit="10"/>
<path d="M132.872 91.5405L121.815 93.3194V89.4441L132.872 87.5264V91.5405Z" fill="white" stroke="#263238" stroke-miterlimit="10"/>
<path d="M145.794 86.4409L136.933 87.9487V83.8817L145.794 82.2549V86.4409Z" fill="#263238" stroke="#263238" stroke-miterlimit="10"/>
<path d="M147.461 89.1922L135.372 91.1364V87.0893L147.461 84.9863V89.1922Z" fill="white" stroke="#263238" stroke-miterlimit="10"/>
<path d="M161.626 83.7431L151.904 85.3963V81.1375L161.626 79.3652V83.7431Z" fill="#263238" stroke="#263238" stroke-miterlimit="10"/>
<path d="M163.457 86.6133L150.198 88.7493V84.5103L163.457 82.209V86.6133Z" fill="white" stroke="#263238" stroke-miterlimit="10"/>
<path d="M105.964 103.833L99.0996 104.753V101.162L105.964 100.163V103.833Z" fill="#263238" stroke="#263238" stroke-miterlimit="10"/>
<path d="M107.247 106.327L97.8828 107.491V103.92L107.247 102.637V106.327Z" fill="white" stroke="#263238" stroke-miterlimit="10"/>
<path d="M118.125 102.214L110.679 103.206V99.4693L118.125 98.3848V102.214Z" fill="#263238" stroke="#263238" stroke-miterlimit="10"/>
<path d="M119.521 104.806L109.363 106.069V102.346L119.521 100.957V104.806Z" fill="white" stroke="#263238" stroke-miterlimit="10"/>
<path d="M131.351 100.448L123.244 101.526V97.631L131.351 96.4473V100.448Z" fill="#263238" stroke="#263238" stroke-miterlimit="10"/>
<path d="M132.872 103.146L121.815 104.521V100.639L132.872 99.125V103.146Z" fill="white" stroke="#263238" stroke-miterlimit="10"/>
<path d="M145.794 98.5163L136.933 99.7001V95.6331L145.794 94.3369V98.5163Z" fill="#263238" stroke="#263238" stroke-miterlimit="10"/>
<path d="M147.461 101.334L135.372 102.835V98.7812L147.461 97.1279V101.334Z" fill="white" stroke="#263238" stroke-miterlimit="10"/>
<path d="M161.626 96.4069L151.904 97.7031V93.4443L161.626 92.0225V96.4069Z" fill="#263238" stroke="#263238" stroke-miterlimit="10"/>
<path d="M163.457 99.3437L150.198 100.99V96.7514L163.457 94.9395V99.3437Z" fill="white" stroke="#263238" stroke-miterlimit="10"/>
<path d="M105.964 114.448L99.0996 115.115V111.525L105.964 110.777V114.448Z" fill="#263238" stroke="#263238" stroke-miterlimit="10"/>
<path d="M107.247 116.994L97.8828 117.814V114.243L107.247 113.304V116.994Z" fill="white" stroke="#263238" stroke-miterlimit="10"/>
<path d="M118.125 113.271L110.679 113.991V110.262L118.125 109.448V113.271Z" fill="#263238" stroke="#263238" stroke-miterlimit="10"/>
<path d="M119.521 115.915L109.363 116.808V113.092L119.521 112.073V115.915Z" fill="white" stroke="#263238" stroke-miterlimit="10"/>
<path d="M131.351 111.994L123.244 112.781V108.886L131.351 108V111.994Z" fill="#263238" stroke="#263238" stroke-miterlimit="10"/>
<path d="M132.872 114.746L121.815 115.718V111.842L132.872 110.731V114.746Z" fill="white" stroke="#263238" stroke-miterlimit="10"/>
<path d="M145.794 110.599L136.933 111.452V107.385L145.794 106.413V110.599Z" fill="#263238" stroke="#263238" stroke-miterlimit="10"/>
<path d="M147.461 113.469L135.372 114.527V110.48L147.461 109.27V113.469Z" fill="white" stroke="#263238" stroke-miterlimit="10"/>
<path d="M161.626 109.064L151.904 110.003V105.744L161.626 104.68V109.064Z" fill="#263238" stroke="#263238" stroke-miterlimit="10"/>
<path d="M163.457 112.074L150.198 113.231V108.992L163.457 107.663V112.074Z" fill="white" stroke="#263238" stroke-miterlimit="10"/>
<path d="M105.964 125.068L99.0996 125.478V121.894L105.964 121.392V125.068Z" fill="#263238" stroke="#263238" stroke-miterlimit="10"/>
<path d="M107.247 127.654L97.8828 128.13V124.559L107.247 123.964V127.654Z" fill="white" stroke="#263238" stroke-miterlimit="10"/>
<path d="M118.125 124.334L110.679 124.784V121.047L118.125 120.505V124.334Z" fill="#263238" stroke="#263238" stroke-miterlimit="10"/>
<path d="M119.521 127.032L109.363 127.548V123.832L119.521 123.184V127.032Z" fill="white" stroke="#263238" stroke-miterlimit="10"/>
<path d="M131.351 123.54L123.244 124.03V120.134L131.351 119.546V123.54Z" fill="#263238" stroke="#263238" stroke-miterlimit="10"/>
<path d="M132.872 126.351L121.815 126.913V123.038L132.872 122.337V126.351Z" fill="white" stroke="#263238" stroke-miterlimit="10"/>
<path d="M145.794 122.674L136.933 123.209V119.136L145.794 118.494V122.674Z" fill="#263238" stroke="#263238" stroke-miterlimit="10"/>
<path d="M147.461 125.61L135.372 126.225V122.178L147.461 121.411V125.61Z" fill="white" stroke="#263238" stroke-miterlimit="10"/>
<path d="M161.626 121.722L151.904 122.31V118.051L161.626 117.344V121.722Z" fill="#263238" stroke="#263238" stroke-miterlimit="10"/>
<path d="M163.457 124.797L150.198 125.471V121.232L163.457 120.393V124.797Z" fill="white" stroke="#263238" stroke-miterlimit="10"/>
<path d="M195.425 142.017H172.478L190.835 61.9932L195.425 66.8736V142.017Z" fill="white" stroke="#263238" stroke-miterlimit="10"/>
<path d="M190.835 142.017H167.895V66.9199L190.835 61.9932V142.017Z" fill="white" stroke="#263238" stroke-miterlimit="10"/>
<path d="M201.039 154.238C199.505 154.238 198.033 154.848 196.948 155.933C195.863 157.018 195.253 158.49 195.253 160.025C195.253 163.225 201.039 169.759 201.039 169.759C201.039 169.759 206.832 163.225 206.832 160.025C206.831 158.489 206.219 157.018 205.133 155.933C204.047 154.848 202.575 154.238 201.039 154.238ZM201.039 162.121C200.647 162.121 200.263 162.005 199.937 161.787C199.611 161.569 199.357 161.259 199.206 160.896C199.056 160.534 199.017 160.135 199.093 159.75C199.17 159.365 199.359 159.012 199.636 158.734C199.914 158.457 200.267 158.268 200.652 158.191C201.037 158.115 201.436 158.154 201.798 158.304C202.161 158.454 202.471 158.709 202.689 159.035C202.907 159.361 203.023 159.745 203.023 160.137C203.023 160.663 202.814 161.168 202.442 161.54C202.07 161.912 201.565 162.121 201.039 162.121Z" fill="#263238"/>
<path d="M224.099 161.34C223.702 161.069 217.843 157.492 217.486 157.227L217.611 157.088L218.934 155.726C218.978 155.668 219.041 155.626 219.111 155.606C219.182 155.587 219.257 155.592 219.324 155.62L221.374 156.281L224.469 157.3L226.771 158.073L227.108 158.166C227.187 158.087 227.266 158.021 227.333 157.948L230.302 154.86C230.532 154.602 230.834 154.418 231.168 154.331C231.475 154.26 231.797 154.286 232.089 154.405C232.381 154.523 232.63 154.728 232.802 154.992C232.975 155.257 233.06 155.57 233.044 155.887C233.027 156.203 232.91 156.506 232.709 156.751C232.476 157.017 232.228 157.271 231.968 157.511L229.396 159.978L229.323 160.051C229.261 160.092 229.216 160.154 229.198 160.227C229.179 160.299 229.189 160.375 229.224 160.441C229.455 161.102 229.667 161.764 229.885 162.425C230.15 163.212 230.414 164.005 230.672 164.792C231.012 165.802 231.347 166.809 231.677 167.814C231.68 167.836 231.68 167.859 231.677 167.881C231.757 168.172 231.836 168.165 231.545 168.449C231.142 168.839 230.752 169.236 230.355 169.633C230.282 169.706 230.203 169.765 230.143 169.825C230.084 169.884 230.011 169.745 229.978 169.686C229.418 168.804 228.86 167.9 228.305 166.975C227.643 165.89 226.982 164.799 226.288 163.708C226.228 163.615 226.175 163.509 226.109 163.417C226.066 163.359 226.018 163.306 225.964 163.258C225.759 163.443 225.567 163.622 225.382 163.807C224.522 164.627 223.665 165.449 222.809 166.274C222.472 166.591 222.472 166.598 222.551 167.074L222.75 168.291C222.75 168.436 222.796 168.582 222.816 168.734C222.586 169.005 222.339 169.262 222.075 169.501C221.844 169.759 221.594 170 221.328 170.222C221.167 169.887 221.034 169.54 220.931 169.183C220.806 168.846 220.687 168.522 220.567 168.152C220.448 167.781 220.323 167.49 220.197 167.107C219.159 166.723 218.114 166.373 217.049 165.983C217.072 165.937 217.101 165.895 217.135 165.857C217.545 165.447 217.962 165.037 218.365 164.62C218.414 164.564 218.478 164.522 218.549 164.499C218.62 164.477 218.696 164.476 218.769 164.495C219.126 164.561 219.49 164.614 219.847 164.673L220.508 164.779C220.568 164.799 220.632 164.801 220.692 164.783C220.753 164.765 220.806 164.729 220.845 164.68C220.897 164.618 220.955 164.56 221.017 164.508L223.861 161.539C223.986 161.512 223.986 161.44 224.099 161.34Z" fill="#263238"/>
<path d="M251.847 155.713H243.911C243.759 155.717 243.611 155.771 243.492 155.866C243.372 155.962 243.288 156.094 243.25 156.242L242.258 160.402H253.5L252.508 156.242C252.471 156.094 252.386 155.962 252.267 155.866C252.147 155.771 252 155.717 251.847 155.713Z" fill="#263238"/>
<path d="M251.311 156.493H244.467L243.614 160.058H252.165L251.311 156.493Z" fill="white"/>
<path d="M241.511 164.905H244.156V168.278C244.156 168.38 244.116 168.477 244.044 168.549C243.972 168.621 243.874 168.661 243.773 168.661H241.908C241.806 168.661 241.708 168.621 241.636 168.549C241.565 168.477 241.524 168.38 241.524 168.278V164.905H241.511Z" fill="#263238"/>
<path d="M251.893 164.905H254.539V168.278C254.539 168.38 254.498 168.477 254.426 168.549C254.354 168.621 254.257 168.661 254.155 168.661H252.29C252.188 168.661 252.091 168.621 252.019 168.549C251.947 168.477 251.907 168.38 251.907 168.278V164.905H251.893Z" fill="#263238"/>
<path d="M249.228 156.235H246.702V157.174H249.228V156.235Z" fill="#263238"/>
<path d="M254.525 159.647H241.623C241.043 159.647 240.572 160.118 240.572 160.699V164.971C240.572 165.552 241.043 166.022 241.623 166.022H254.525C255.106 166.022 255.577 165.552 255.577 164.971V160.699C255.577 160.118 255.106 159.647 254.525 159.647Z" fill="#263238"/>
<path d="M245.452 162.465C245.454 162.8 245.355 163.128 245.17 163.407C244.985 163.686 244.721 163.904 244.412 164.033C244.103 164.163 243.762 164.197 243.433 164.132C243.104 164.068 242.802 163.907 242.565 163.671C242.327 163.434 242.165 163.133 242.099 162.804C242.034 162.475 242.067 162.135 242.195 161.825C242.323 161.515 242.54 161.25 242.818 161.064C243.097 160.878 243.424 160.778 243.759 160.778C244.207 160.778 244.637 160.956 244.954 161.272C245.271 161.588 245.45 162.017 245.452 162.465Z" fill="white"/>
<path d="M254.201 162.465C254.201 162.798 254.102 163.124 253.917 163.402C253.732 163.679 253.468 163.895 253.16 164.023C252.852 164.15 252.513 164.184 252.186 164.119C251.859 164.053 251.558 163.893 251.323 163.657C251.087 163.421 250.926 163.121 250.861 162.794C250.796 162.467 250.829 162.127 250.957 161.819C251.085 161.511 251.301 161.248 251.578 161.063C251.855 160.877 252.181 160.778 252.515 160.778C252.962 160.778 253.391 160.956 253.707 161.272C254.024 161.588 254.201 162.017 254.201 162.465Z" fill="white"/>
<path d="M249.976 161.439H246.226V162.088H249.976V161.439Z" fill="white"/>
<path d="M249.976 162.577H246.226V163.225H249.976V162.577Z" fill="white"/>
<path d="M178.185 167.688H132.76V184.439H178.185V167.688Z" fill="white" stroke="#263238" stroke-miterlimit="10"/>
<path d="M135.372 181.86H175.533C176.234 181.86 176.907 182.139 177.403 182.635C177.899 183.131 178.178 183.804 178.178 184.506V196.369H132.727V184.492C132.73 183.793 133.01 183.124 133.506 182.63C134.002 182.137 134.673 181.86 135.372 181.86Z" fill="white" stroke="#263238" stroke-miterlimit="10"/>
<path d="M147.494 181.431L145.536 180.981H136.933L134.519 181.431L135.127 179.626V174.646L134.519 172.834L137.012 173.363H145.913L147.494 172.834L146.892 174.944V179.169L147.494 181.431Z" fill="#92E3A9" stroke="#263238" stroke-miterlimit="10"/>
<path d="M161.374 181.431L159.417 180.981H150.813L148.4 181.431L149.008 179.626V174.646L148.4 172.834L150.893 173.363H159.794L161.374 172.834L160.772 174.944V179.169L161.374 181.431Z" fill="#92E3A9" stroke="#263238" stroke-miterlimit="10"/>
<path d="M175.255 181.431L173.298 180.981H164.694L162.28 181.431L162.882 179.626V174.646L162.28 172.834L164.773 173.363H173.675L175.255 172.834L174.653 174.944V179.169L175.255 181.431Z" fill="#92E3A9" stroke="#263238" stroke-miterlimit="10"/>
<path d="M122.748 196.363H187.912" stroke="#263238" stroke-miterlimit="10"/>
<path d="M129.123 177.813H128.111V182.198H129.123V177.813Z" stroke="#263238" stroke-miterlimit="10"/>
<path d="M131.993 169.885H125.247V178.316H131.993V169.885Z" fill="#263238"/>
<path d="M132.33 182.535H124.91V196.363H132.33V182.535Z" stroke="#263238" stroke-miterlimit="10"/>
<path d="M132.33 182.535H124.91V184.559H132.33V182.535Z" fill="#263238" stroke="#263238" stroke-miterlimit="10"/>
<path d="M130.981 185.907H125.922V189.108H130.981V185.907Z" stroke="#263238" stroke-miterlimit="10"/>
<path d="M130.981 190.63H125.922V193.831H130.981V190.63Z" stroke="#263238" stroke-miterlimit="10"/>
<path d="M183.085 177.813H182.073V182.198H183.085V177.813Z" stroke="#263238" stroke-miterlimit="10"/>
<path d="M185.948 169.885H179.203V178.316H185.948V169.885Z" fill="#263238"/>
<path d="M186.286 182.535H178.866V196.363H186.286V182.535Z" stroke="#263238" stroke-miterlimit="10"/>
<path d="M186.286 182.535H178.866V184.559H186.286V182.535Z" fill="#263238" stroke="#263238" stroke-miterlimit="10"/>
<path d="M184.937 185.907H179.878V189.108H184.937V185.907Z" stroke="#263238" stroke-miterlimit="10"/>
<path d="M184.937 190.63H179.878V193.831H184.937V190.63Z" stroke="#263238" stroke-miterlimit="10"/>
<path d="M132.33 239.533H124.91V253.361H132.33V239.533Z" stroke="#263238" stroke-miterlimit="10"/>
<path d="M132.33 239.533H124.91V241.557H132.33V239.533Z" fill="#263238" stroke="#263238" stroke-miterlimit="10"/>
<path d="M130.981 242.905H125.922V246.106H130.981V242.905Z" stroke="#263238" stroke-miterlimit="10"/>
<path d="M130.981 247.627H125.922V250.828H130.981V247.627Z" stroke="#263238" stroke-miterlimit="10"/>
<path d="M186.286 239.533H178.866V253.361H186.286V239.533Z" stroke="#263238" stroke-miterlimit="10"/>
<path d="M186.286 239.533H178.866V241.557H186.286V239.533Z" fill="#263238" stroke="#263238" stroke-miterlimit="10"/>
<path d="M184.937 242.905H179.878V246.106H184.937V242.905Z" stroke="#263238" stroke-miterlimit="10"/>
<path d="M184.937 247.627H179.878V250.828H184.937V247.627Z" stroke="#263238" stroke-miterlimit="10"/>
<path d="M187.998 214.562H122.933V259.028H187.998V214.562Z" stroke="#263238" stroke-miterlimit="10"/>
<path d="M178.185 224.687H132.76V241.437H178.185V224.687Z" fill="#263238" stroke="#263238" stroke-miterlimit="10"/>
<path d="M135.372 238.865H175.533C176.234 238.865 176.907 239.144 177.403 239.64C177.899 240.136 178.178 240.809 178.178 241.51V253.374H132.727V241.497C132.73 240.798 133.01 240.129 133.506 239.635C134.002 239.142 134.673 238.865 135.372 238.865Z" fill="white" stroke="#263238" stroke-miterlimit="10"/>
<path d="M122.748 253.36H187.912" stroke="#263238" stroke-miterlimit="10"/>
<path d="M105.818 57.6084H67.5952V64.0495H105.818V57.6084Z" stroke="#263238" stroke-miterlimit="10"/>
<path d="M150.913 57.6084H112.689V64.0495H150.913V57.6084Z" stroke="#263238" stroke-miterlimit="10"/>
<path d="M191.708 27.5459H229.072" stroke="#263238" stroke-miterlimit="10"/>
<path d="M258.248 197.606H247.516V204.048H258.248V197.606Z" stroke="#263238" stroke-miterlimit="10"/>
<path d="M245.366 197.606H234.633V204.048H245.366V197.606Z" stroke="#263238" stroke-miterlimit="10"/>
<path d="M197.7 179.572H259.108" stroke="#263238" stroke-miterlimit="10"/>
<path d="M197.7 184.294H259.108" stroke="#263238" stroke-miterlimit="10"/>
<path d="M197.7 189.016H259.108" stroke="#263238" stroke-miterlimit="10"/>
<path d="M197.7 193.744H259.108" stroke="#263238" stroke-miterlimit="10"/>
<path d="M201.039 211.018C199.505 211.018 198.033 211.627 196.948 212.712C195.863 213.798 195.253 215.269 195.253 216.804C195.253 220.005 201.039 226.538 201.039 226.538C201.039 226.538 206.832 220.005 206.832 216.804C206.831 215.269 206.219 213.797 205.133 212.712C204.047 211.627 202.575 211.018 201.039 211.018ZM201.039 218.9C200.647 218.9 200.263 218.784 199.937 218.566C199.611 218.348 199.357 218.038 199.206 217.676C199.056 217.313 199.017 216.914 199.093 216.529C199.17 216.145 199.359 215.791 199.636 215.514C199.914 215.236 200.267 215.047 200.652 214.971C201.037 214.894 201.436 214.933 201.798 215.084C202.161 215.234 202.471 215.488 202.689 215.814C202.907 216.14 203.023 216.524 203.023 216.916C203.023 217.443 202.814 217.947 202.442 218.319C202.07 218.691 201.565 218.9 201.039 218.9Z" fill="#263238"/>
<path d="M224.099 218.12C223.702 217.848 217.843 214.271 217.486 214.006C217.525 213.957 217.567 213.911 217.611 213.867L218.934 212.505C218.978 212.447 219.041 212.405 219.111 212.386C219.182 212.367 219.257 212.371 219.324 212.399L221.374 213.061L224.469 214.079L226.771 214.853L227.108 214.945C227.187 214.866 227.266 214.8 227.333 214.727C228.325 213.695 229.317 212.664 230.302 211.639C230.532 211.381 230.834 211.197 231.168 211.11C231.475 211.04 231.797 211.066 232.089 211.184C232.381 211.302 232.63 211.507 232.802 211.771C232.975 212.036 233.06 212.349 233.044 212.666C233.027 212.982 232.91 213.285 232.709 213.53C232.476 213.797 232.228 214.05 231.968 214.291L229.396 216.757L229.323 216.83C229.261 216.871 229.216 216.934 229.198 217.006C229.179 217.078 229.189 217.155 229.224 217.22C229.455 217.882 229.667 218.543 229.885 219.204C230.15 219.991 230.414 220.785 230.672 221.572C231.012 222.586 231.347 223.593 231.677 224.594C231.68 224.616 231.68 224.638 231.677 224.66C231.757 224.951 231.836 224.944 231.545 225.229C231.142 225.619 230.752 226.016 230.355 226.412C230.282 226.485 230.203 226.545 230.143 226.604C230.084 226.664 230.011 226.525 229.978 226.465C229.418 225.583 228.86 224.68 228.305 223.754C227.643 222.669 226.982 221.578 226.288 220.487C226.228 220.394 226.175 220.289 226.109 220.196C226.066 220.138 226.018 220.085 225.964 220.037C225.759 220.223 225.567 220.401 225.382 220.586C224.522 221.406 223.665 222.228 222.809 223.053C222.472 223.37 222.472 223.37 222.551 223.853L222.75 225.07C222.75 225.215 222.796 225.361 222.816 225.513C222.586 225.785 222.339 226.041 222.075 226.28C221.844 226.538 221.594 226.779 221.328 227.001C221.167 226.666 221.034 226.319 220.931 225.963C220.806 225.625 220.687 225.301 220.567 224.931C220.448 224.561 220.323 224.27 220.197 223.88C219.159 223.503 218.114 223.152 217.049 222.762C217.072 222.716 217.101 222.674 217.135 222.636C217.545 222.22 217.962 221.816 218.365 221.4C218.414 221.343 218.478 221.301 218.549 221.279C218.62 221.256 218.696 221.255 218.769 221.274C219.126 221.34 219.49 221.393 219.847 221.453L220.508 221.558C220.568 221.579 220.633 221.58 220.694 221.561C220.755 221.542 220.808 221.504 220.845 221.453C220.899 221.394 220.957 221.339 221.017 221.287L223.861 218.318C223.986 218.292 223.986 218.219 224.099 218.12Z" fill="#263238"/>
<path d="M251.847 212.492H243.911C243.759 212.496 243.611 212.55 243.492 212.646C243.372 212.741 243.288 212.873 243.25 213.021L242.258 217.181H253.5L252.508 213.021C252.471 212.873 252.386 212.741 252.267 212.646C252.147 212.55 252 212.496 251.847 212.492Z" fill="#263238"/>
<path d="M251.311 213.272H244.467L243.614 216.837H252.165L251.311 213.272Z" fill="white"/>
<path d="M241.511 221.685H244.156V225.057C244.156 225.159 244.116 225.256 244.044 225.328C243.972 225.4 243.874 225.441 243.773 225.441H241.908C241.806 225.441 241.708 225.4 241.636 225.328C241.565 225.256 241.524 225.159 241.524 225.057V221.685H241.511Z" fill="#263238"/>
<path d="M251.893 221.685H254.539V225.057C254.539 225.159 254.498 225.256 254.426 225.328C254.354 225.4 254.257 225.441 254.155 225.441H252.29C252.188 225.441 252.091 225.4 252.019 225.328C251.947 225.256 251.907 225.159 251.907 225.057V221.685H251.893Z" fill="#263238"/>
<path d="M249.228 213.015H246.702V213.954H249.228V213.015Z" fill="#263238"/>
<path d="M254.525 216.427H241.623C241.043 216.427 240.572 216.898 240.572 217.478V221.75C240.572 222.331 241.043 222.802 241.623 222.802H254.525C255.106 222.802 255.577 222.331 255.577 221.75V217.478C255.577 216.898 255.106 216.427 254.525 216.427Z" fill="#263238"/>
<path d="M245.452 219.244C245.454 219.579 245.355 219.907 245.17 220.186C244.985 220.466 244.721 220.684 244.412 220.813C244.103 220.942 243.762 220.976 243.433 220.912C243.104 220.847 242.802 220.686 242.565 220.45C242.327 220.213 242.165 219.912 242.099 219.583C242.034 219.255 242.067 218.914 242.195 218.604C242.323 218.294 242.54 218.03 242.818 217.843C243.097 217.657 243.424 217.558 243.759 217.558C244.207 217.558 244.637 217.735 244.954 218.051C245.271 218.367 245.45 218.796 245.452 219.244Z" fill="white"/>
<path d="M254.201 219.244C254.201 219.577 254.102 219.903 253.917 220.181C253.732 220.458 253.468 220.674 253.16 220.802C252.852 220.93 252.513 220.963 252.186 220.898C251.859 220.833 251.558 220.672 251.323 220.436C251.087 220.201 250.926 219.9 250.861 219.573C250.796 219.246 250.829 218.907 250.957 218.599C251.085 218.29 251.301 218.027 251.578 217.842C251.855 217.657 252.181 217.558 252.515 217.558C252.962 217.558 253.391 217.735 253.707 218.052C254.024 218.368 254.201 218.797 254.201 219.244Z" fill="white"/>
<path d="M249.976 218.219H246.226V218.867H249.976V218.219Z" fill="white"/>
<path d="M249.976 219.356H246.226V220.005H249.976V219.356Z" fill="white"/>
<path d="M258.248 254.386H247.516V260.827H258.248V254.386Z" stroke="#263238" stroke-miterlimit="10"/>
<path d="M245.366 254.386H234.633V260.827H245.366V254.386Z" stroke="#263238" stroke-miterlimit="10"/>
<path d="M197.7 236.352H259.108" stroke="#263238" stroke-miterlimit="10"/>
<path d="M197.7 241.073H259.108" stroke="#263238" stroke-miterlimit="10"/>
<path d="M197.7 245.795H259.108" stroke="#263238" stroke-miterlimit="10"/>
<path d="M197.7 250.523H259.108" stroke="#263238" stroke-miterlimit="10"/>
<path d="M130.3 27.5459H167.657" stroke="white" stroke-miterlimit="10"/>
<path d="M72.7534 27.5459H110.11" stroke="white" stroke-miterlimit="10"/>
<path d="M141.646 225.952L135.783 231.815L141.646 237.679L147.51 231.815L141.646 225.952Z" fill="#92E3A9" stroke="#263238" stroke-miterlimit="10"/>
<path d="M155.375 225.952L149.511 231.815L155.375 237.679L161.239 231.815L155.375 225.952Z" fill="#92E3A9" stroke="#263238" stroke-miterlimit="10"/>
<path d="M169.098 225.951L163.234 231.814L169.098 237.678L174.962 231.814L169.098 225.951Z" fill="#92E3A9" stroke="#263238" stroke-miterlimit="10"/>
<path d="M177.226 216.023H133.712V220.99H177.226V216.023Z" stroke="#263238" stroke-miterlimit="10"/>
<path d="M172.769 219.746H138.169V220.989H172.769V219.746Z" stroke="#263238" stroke-miterlimit="10"/>
<path d="M267.765 147.632H262.587V261.601H267.765V147.632Z" fill="#D9D9D9"/>
<path d="M267.765 181.199H262.587V208.273H267.765V181.199Z" fill="#EDEDED"/>
<path d="M91.8187 98.4572C91.8187 98.4572 92.533 102.59 91.6336 104.746C90.7342 106.902 89.4777 107.438 89.1206 108.337C88.7635 109.236 89.4777 111.392 89.6629 112.305C89.8481 113.217 90.1986 114.104 88.7635 114.289C88.1058 114.383 87.4436 114.442 86.7796 114.467C86.7796 114.467 83.3673 118.779 81.0329 118.779C78.6985 118.779 76.7278 115.168 73.871 110.294C71.0142 105.421 72.9717 102.57 76.384 100.236C79.7963 97.9017 91.8187 98.4572 91.8187 98.4572Z" fill="white" stroke="#263238" stroke-miterlimit="10"/>
<path d="M86.9251 108.357C86.6341 109.098 86.1712 109.607 85.8934 109.494C85.6157 109.382 85.6289 108.701 85.8934 107.96C86.158 107.219 86.6473 106.717 86.9251 106.823C87.2028 106.928 87.2227 107.649 86.9251 108.357Z" fill="#263238"/>
<path d="M86.4357 105.104C86.4357 105.104 88.2278 103.669 89.1272 105.825" stroke="#263238" stroke-miterlimit="10"/>
<path d="M82.653 99.7139L82.1174 143.552C82.1174 143.552 78.6984 143.73 74.3867 143.552C70.0751 143.373 63.9712 141.568 56.9614 137.084C49.9516 132.6 52.8283 118.23 52.8283 118.23L63.6075 105.117L82.653 99.7139Z" fill="#263238" stroke="#263238" stroke-miterlimit="10"/>
<path d="M67.9193 86.0642C67.9193 86.0642 64.1499 90.733 62.5297 94.8662C60.9095 98.9993 62.8934 103.311 62.8934 103.311L91.6336 93.6097C91.6336 93.6097 91.6336 91.2687 87.8642 88.0349C84.0947 84.8011 72.9518 83.5447 70.4389 83.9084C67.9259 84.2721 67.9193 86.0642 67.9193 86.0642Z" fill="#7D7D7D" stroke="#263238" stroke-miterlimit="10"/>
<path d="M69.718 74.9219C69.718 74.9219 61.994 77.2629 60.559 80.8736C59.124 84.4843 63.0719 88.0554 65.7634 88.9547C68.4549 89.8541 76.5427 86.9708 77.8057 84.2859C79.0688 81.6011 78.5001 78.5525 76.1856 76.185C73.871 73.8175 70.6174 74.5846 69.718 74.9219Z" fill="white" stroke="#263238" stroke-miterlimit="10"/>
<path d="M67.7407 99.1788C67.7407 99.1788 63.0719 100.971 61.789 101.692C60.5061 102.413 61.0682 103.848 61.6104 104.926C62.1527 106.003 61.9675 107.081 62.8669 107.081C63.7663 107.081 80.8279 101.513 86.7598 100.078C92.6916 98.6431 93.2273 100.078 93.5844 98.2794C93.9415 96.4807 94.3052 92.7113 93.0487 91.8119C91.7923 90.9125 77.2635 95.0457 67.7407 99.1788Z" fill="#7D7D7D" stroke="#263238" stroke-miterlimit="10"/>
<path d="M40.0785 193.407L44.205 228.965C44.205 228.965 38.6368 237.767 37.2018 244.235C35.7668 250.702 28.3999 265.972 28.3999 265.972L35.046 269.563C35.046 269.563 47.2602 251.417 51.2148 245.128C55.1694 238.839 57.1665 236.147 57.1665 233.813C57.1665 231.478 62.199 197.362 62.199 197.362L40.0785 193.407Z" fill="#263238" stroke="#263238" stroke-miterlimit="10"/>
<path d="M39.0005 269.371C39.0005 269.371 41.5333 270.456 40.9315 272.149C40.3297 273.842 33.3332 276.493 33.0885 276.85C32.8438 277.208 39.0005 269.371 39.0005 269.371Z" fill="#7D7D7D" stroke="#263238" stroke-miterlimit="10"/>
<path d="M25.3645 262.011C25.7282 262.374 39.728 268.888 39.728 268.888C39.728 268.888 34.054 277.604 32.8703 279.509C31.6866 281.413 34.6756 285.785 35.5155 287.352C36.3553 288.919 41.3085 291.697 42.274 292.179C43.2395 292.662 42.5121 293.264 42.274 294.95C42.0359 296.636 41.5466 297 40.343 297C39.1394 297 31.2898 296.16 28.757 294.712C26.2242 293.264 25.6224 290.744 24.5379 289.766C23.4533 288.787 23.0896 288.8 23.0896 288.8L21.9985 290.367C21.9985 290.367 20.5568 290.486 18.1431 288.919C16.6993 287.981 15.565 286.638 14.8829 285.057C14.8829 285.057 17.4157 280.474 19.1086 279.264C20.8015 278.054 22.2432 275.528 22.7259 273.974C23.2087 272.42 25.3645 262.011 25.3645 262.011Z" fill="#7D7D7D" stroke="#263238" stroke-miterlimit="10"/>
<path d="M35.079 276.394C35.079 276.394 38.0615 272.908 39.3576 274.41C40.6538 275.911 35.079 276.394 35.079 276.394Z" stroke="#263238" stroke-miterlimit="10"/>
<path d="M35.079 276.394C35.079 276.394 41.454 278.086 39.9594 278.582C38.4649 279.078 35.079 276.394 35.079 276.394Z" stroke="#263238" stroke-miterlimit="10"/>
<path d="M35.1782 281.274C34.702 279.686 34.6677 277.999 35.079 276.394C35.8333 278.894 36.334 281.464 36.5736 284.065" stroke="#263238" stroke-miterlimit="10"/>
<path d="M38.0351 294.95C35.0195 294.712 28.6247 292.9 26.33 289.157C24.399 286.009 23.0764 287.471 19.717 285.421C18.3678 284.664 17.323 283.463 16.761 282.021C15.7293 283.542 14.8895 285.057 14.8895 285.057C15.5716 286.638 16.7059 287.981 18.1497 288.919C20.5635 290.486 22.0051 290.367 22.0051 290.367L23.0963 288.8C23.0963 288.8 23.4534 288.8 24.5445 289.765C25.6356 290.731 26.2308 293.264 28.7636 294.712C31.2964 296.16 39.1394 297 40.3496 297C41.5598 297 42.0161 296.649 42.2608 295.016C41.0837 295.069 39.5428 295.069 38.0351 294.95Z" fill="white" stroke="#263238" stroke-miterlimit="10"/>
<path d="M45.6467 195.384L63.2505 232.735C63.2505 232.735 61.8155 241.001 63.6076 247.105C65.3998 253.209 74.1884 269.92 74.1884 269.92L75.0878 272.618L82.6333 268.842C82.6333 268.842 77.9645 253.936 76.8866 248.004C75.8086 242.072 76.708 233.991 74.9027 228.423C73.0973 222.855 67.3572 195.027 67.3572 195.027L45.6467 195.384Z" fill="#263238" stroke="#263238" stroke-miterlimit="10"/>
<path d="M46.3277 199.67L56.6903 222.32" stroke="#858585" stroke-miterlimit="10"/>
<path d="M85.7744 271.13C85.7744 271.13 86.773 265.053 87.5665 265.053C88.3601 265.053 91.5344 265.648 90.258 267.645C88.9817 269.642 86.2902 274.714 86.2902 274.714L85.7744 271.13Z" fill="#7D7D7D" stroke="#263238" stroke-miterlimit="10"/>
<path d="M85.1661 265.793L70.796 272.439L79.5979 286.988C79.9067 288.903 80.4509 290.774 81.2181 292.556C82.2961 294.712 82.8317 295.611 82.8317 295.611L90.5557 293.098C90.5557 293.098 90.5557 291.842 91.4551 291.663C91.9171 291.601 92.3861 291.615 92.8438 291.703C93.6144 291.831 94.4059 291.713 95.1055 291.365C97.9821 289.937 105.303 286.293 106.592 285.572C108.212 284.673 108.345 282.319 107.802 281.42C107.26 280.52 105.468 279.436 103.669 279.436C101.871 279.436 95.0724 280.335 92.533 279.614C89.9936 278.893 89.4778 279.257 88.3999 278.001C87.322 276.744 85.1661 265.793 85.1661 265.793Z" fill="#7D7D7D" stroke="#263238" stroke-miterlimit="10"/>
<path d="M86.2703 274.714C86.2703 274.714 89.2594 271.229 90.5556 272.73C91.8517 274.231 86.2703 274.714 86.2703 274.714Z" stroke="#263238" stroke-miterlimit="10"/>
<path d="M86.2703 274.714C86.2703 274.714 92.6453 276.407 91.1507 276.909C89.6562 277.412 86.2703 274.714 86.2703 274.714Z" stroke="#263238" stroke-miterlimit="10"/>
<path d="M86.3695 279.588C85.8976 278 85.8633 276.314 86.2703 274.708C87.0273 277.208 87.5281 279.778 87.7649 282.379" stroke="#263238" stroke-miterlimit="10"/>
<path d="M106.592 285.573C108.047 284.297 108.351 282.101 107.723 281.308C103.85 284.325 99.6322 286.871 95.1584 288.893C86.5614 292.788 83.1756 292.788 81.4496 292.999C82.3754 294.825 82.1109 295.519 82.8449 295.645C88.7966 296.385 90.5689 293.132 90.5689 293.132C90.5689 293.132 90.5689 291.875 91.4683 291.697C91.9062 291.624 92.3531 291.624 92.7909 291.697C93.6572 291.829 95.4361 292.093 96.2032 291.697C99.1791 290.209 103.63 288.185 106.592 285.573Z" fill="white" stroke="#263238" stroke-miterlimit="10"/>
<path d="M69.1823 133.851C69.1823 133.851 77.1179 176.703 79.9615 185.326C81.6356 190.211 82.7796 195.262 83.3738 200.391L70.0751 201.647L69.1823 133.851Z" fill="#7D7D7D" stroke="#263238" stroke-miterlimit="10"/>
<path d="M53.7277 115.883C53.7277 115.883 47.776 121.993 43.3122 134.207C38.8484 146.422 35.9453 179.216 34.8674 185.128C33.7895 191.04 33.2472 199.544 34.3251 199.901C35.4031 200.258 51.9356 205.112 61.2732 205.112C70.6108 205.112 76.007 205.291 76.007 204.034C76.007 202.778 74.0231 147.665 72.2309 138.321C70.4388 128.977 67.7407 128.084 64.8707 122.509C62.0006 116.934 53.7277 115.883 53.7277 115.883Z" fill="#7D7D7D" stroke="#263238" stroke-miterlimit="10"/>
<path d="M68.8187 126.827C67.2311 123.479 65.2317 120.342 62.867 117.49C59.091 112.999 56.3995 108.503 54.0651 109.944C51.7307 111.386 49.3897 114.434 49.9319 116.412C50.4742 118.389 61.3063 123.428 63.6076 124.843C65.909 126.258 68.283 128.996 68.8187 126.827Z" fill="white" stroke="#263238" stroke-miterlimit="10"/>
<path d="M69.2419 130.491C69.2419 130.491 62.8339 126.709 58.0659 128.508C54.9772 129.786 52.2219 131.754 50.0113 134.261L48.3646 127.681C48.3646 127.681 54.938 122.589 59.706 122.589C64.4739 122.589 68.0714 125.393 69.2419 130.491Z" fill="#263238" stroke="#263238" stroke-miterlimit="10"/>
<path d="M96.2494 140.344L95.3831 139.683L103.63 125.445C103.668 125.378 103.721 125.32 103.783 125.275C103.846 125.23 103.918 125.199 103.994 125.184C104.069 125.169 104.148 125.17 104.223 125.188C104.298 125.206 104.369 125.239 104.43 125.286C104.535 125.366 104.608 125.481 104.633 125.61C104.659 125.74 104.636 125.874 104.569 125.987L96.2494 140.344Z" fill="#263238" stroke="#263238" stroke-miterlimit="10"/>
<path d="M87.2227 144.637C88.413 143.692 89.259 142.381 89.6298 140.907C90.0927 138.619 90.6019 135.24 91.4814 134.499C92.361 133.758 96.1105 132.515 96.7057 132.264C97.3009 132.012 98.4978 132.264 97.7903 133.97C97.0827 135.676 94.6094 136.238 94.6094 136.238L97.6051 137.766C97.6051 137.766 99.4104 134.281 99.9395 134.393C100.469 134.505 100.674 135.273 101.024 137.177C101.375 139.082 100.66 139.822 99.6684 141.145C98.6764 142.468 98.8483 143.36 98.0349 144.663C97.2215 145.966 91.0648 149.973 90.2977 150.211C89.5306 150.449 87.2227 144.637 87.2227 144.637Z" fill="white" stroke="#263238" stroke-miterlimit="10"/>
<path d="M56.7829 131.516C56.7829 131.516 53.9062 135.827 56.7829 143.373C59.6596 150.918 65.9486 170.857 68.1044 170.486C70.2602 170.116 91.9972 153.775 92.3543 152.162C92.7114 150.548 88.0426 144.795 87.507 144.226C86.9713 143.657 83.0101 146.917 80.3186 147.995C77.6271 149.073 73.494 151.295 73.494 151.295C73.494 151.295 71.3382 132.779 68.1044 129.558C64.8706 126.338 61.4517 128.302 60.916 128.48" fill="#7D7D7D"/>
<path d="M56.7829 131.516C56.7829 131.516 53.9062 135.827 56.7829 143.373C59.6596 150.918 65.9486 170.857 68.1044 170.486C70.2602 170.116 91.9972 153.775 92.3543 152.162C92.7114 150.548 88.0426 144.795 87.507 144.226C86.9713 143.657 83.0101 146.917 80.3186 147.995C77.6271 149.073 73.494 151.295 73.494 151.295C73.494 151.295 71.3382 132.779 68.1044 129.558C64.8706 126.338 61.4517 128.302 60.916 128.48" stroke="#263238" stroke-miterlimit="10"/>
<path d="M86.4292 157.207L83.9096 153.253L86.244 151.454L88.585 155.587L86.4292 157.207Z" fill="white" stroke="#263238" stroke-miterlimit="10"/>
<path d="M49.1317 126.682C49.3234 127.397 49.3102 140.127 48.7746 152.857C48.2389 165.587 45.5474 179.732 44.2909 185.313C43.0345 190.895 39.8073 191.582 34.2524 191.225C28.6974 190.868 20.8015 189.433 17.2172 186.563C13.633 183.693 13.9901 177.424 15.9608 172.22C17.9314 167.015 20.9668 150.529 20.9668 143.539C20.9668 138.434 21.5025 133.057 23.2285 128.23C26.125 120.175 32.6586 120.215 40.1446 120.453C44.4364 120.592 47.9413 122.298 49.1317 126.682Z" fill="#92E3A9" stroke="#263238" stroke-miterlimit="10"/>
<path d="M48.6688 125.38C47.1808 121.961 43.9801 120.579 40.1578 120.453C32.6586 120.208 26.125 120.175 23.2417 128.23C21.5157 133.057 20.9801 138.434 20.9801 143.539C20.9801 150.529 17.9315 167.022 15.9608 172.22C14.1025 177.12 13.6793 182.966 16.6221 186.028C16.0005 183.382 17.2437 177.808 20.9734 168.993C25.4571 158.412 25.1 140.49 25.1 140.49C25.1 140.49 25.1 128.475 26.535 125.605C27.97 122.735 33.525 123.098 41.9499 123.991C44.2325 124.214 46.4849 124.679 48.6688 125.38Z" fill="#92E3A9" stroke="#263238" stroke-miterlimit="10"/>
<path d="M48.9531 129.731L49.2309 129.486C49.2465 128.551 49.2134 127.615 49.1317 126.682C47.9413 122.298 44.4365 120.592 40.1578 120.453C32.6587 120.208 26.125 120.175 23.2417 128.23C21.5157 133.057 20.9801 138.434 20.9801 143.539C20.9375 145.798 20.7653 148.052 20.4643 150.291C21.6017 151.051 23.2748 151.845 23.8501 150.35C24.7495 148.016 25.834 133.157 26.3631 128.832C26.8921 124.507 32.4537 124.712 39.0931 125.605C45.7326 126.497 48.9531 129.731 48.9531 129.731Z" fill="#263238" stroke="#263238" stroke-miterlimit="10"/>
<path d="M33.353 169.713L32.0965 149.808L42.1351 150.707L40.8852 170.606L33.353 169.713Z" fill="white" stroke="#263238" stroke-miterlimit="10"/>
<path d="M26.8987 167.563L27.0773 155.904L36.7587 157.518L35.5022 170.426L26.8987 167.563Z" fill="white" stroke="#263238" stroke-miterlimit="10"/>
<path d="M45.1837 166.505C31.5609 167.94 24.2072 164.35 24.2072 164.35C24.2072 164.35 20.0873 175.651 18.8308 179.95C17.5744 184.248 20.0873 185.148 25.8208 187.125C31.5543 189.102 40.1644 190.888 41.778 187.839C43.3916 184.79 45.1837 166.505 45.1837 166.505Z" fill="#263238" stroke="#263238" stroke-miterlimit="10"/>
<path d="M294.746 297H299.593" stroke="#263238" stroke-miterlimit="10"/>
<path d="M9.06342 297H288.133" stroke="#263238" stroke-miterlimit="10"/>
</svg>
