<svg width="355" height="335" viewBox="0 0 355 335" fill="none" xmlns="http://www.w3.org/2000/svg">
<path d="M221.058 91.6251C221.167 91.6251 221.245 92.0707 221.23 92.61C221.214 93.1494 221.113 93.5793 220.995 93.5793C220.878 93.5793 220.808 93.1416 220.823 92.5944C220.839 92.0472 220.941 91.6173 221.058 91.6251Z" fill="#263238"/>
<path d="M222.551 84.0346C222.66 84.0737 222.441 84.9101 222.168 85.9341C221.886 86.9581 221.644 87.7945 221.535 87.771C221.425 87.7554 221.488 86.8721 221.777 85.8246C222.058 84.7772 222.449 83.9877 222.559 84.0268L222.551 84.0346Z" fill="#263238"/>
<path d="M226.35 77.3199C226.436 77.3903 225.951 78.1094 225.349 78.9849C224.747 79.8604 224.255 80.5717 224.153 80.517C224.059 80.4623 224.396 79.6493 225.013 78.7582C225.623 77.8671 226.264 77.2496 226.342 77.3199H226.35Z" fill="#263238"/>
<path d="M232.126 72.1845C232.189 72.2783 231.509 72.8255 230.665 73.4665C229.82 74.1074 229.117 74.6155 229.039 74.5296C228.961 74.4514 229.555 73.7948 230.415 73.1382C231.274 72.4816 232.064 72.0829 232.119 72.1767L232.126 72.1845Z" fill="#263238"/>
<path d="M239.036 68.6749C239.076 68.7766 238.317 69.2143 237.348 69.6442C236.371 70.0742 235.542 70.3477 235.495 70.2461C235.441 70.1445 236.199 69.7146 237.184 69.2768C238.169 68.8391 238.997 68.5733 239.036 68.6749Z" fill="#263238"/>
<path d="M246.447 66.4074C246.47 66.5168 245.657 66.8295 244.625 67.1031C243.594 67.3766 242.734 67.5173 242.703 67.4079C242.671 67.2985 243.484 66.9858 244.524 66.7122C245.563 66.4308 246.423 66.2979 246.447 66.4074Z" fill="#263238"/>
<path d="M254.068 64.9692C254.084 65.0786 253.247 65.3131 252.192 65.4929C251.137 65.6727 250.269 65.7196 250.246 65.6102C250.222 65.5007 251.066 65.2662 252.122 65.0864C253.177 64.9067 254.052 64.8519 254.068 64.9692Z" fill="#263238"/>
<path d="M261.783 64.2034C261.783 64.3128 260.923 64.4613 259.86 64.5317C258.797 64.602 257.922 64.5629 257.914 64.4535C257.898 64.3441 258.758 64.1955 259.837 64.1252C260.908 64.0548 261.783 64.0939 261.783 64.2034Z" fill="#263238"/>
<path d="M269.514 64.7112C269.498 64.8207 268.623 64.8207 267.568 64.7034C266.512 64.5862 265.653 64.3986 265.66 64.2891C265.66 64.1797 266.536 64.1797 267.607 64.2969C268.678 64.4142 269.53 64.6018 269.514 64.7112Z" fill="#263238"/>
<path d="M277.034 66.5716C276.995 66.6811 276.135 66.5169 275.119 66.2199C274.095 65.915 273.29 65.5867 273.313 65.4773C273.336 65.3678 274.196 65.5242 275.228 65.829C276.26 66.1339 277.065 66.47 277.026 66.5716H277.034Z" fill="#263238"/>
<path d="M284.069 69.8001C284.014 69.8939 283.201 69.5812 282.255 69.0887C281.31 68.5963 280.583 68.1195 280.63 68.0178C280.676 67.9162 281.489 68.2367 282.443 68.7292C283.397 69.2216 284.124 69.7063 284.069 69.8001Z" fill="#263238"/>
<path d="M290.299 74.3966C290.221 74.4826 289.533 73.9589 288.712 73.2788C287.891 72.5988 287.242 72.0203 287.313 71.9265C287.375 71.8327 288.141 72.2783 288.97 72.9583C289.799 73.6462 290.377 74.3106 290.299 74.3888V74.3966Z" fill="#263238"/>
<path d="M295.325 80.2749C295.231 80.3375 294.684 79.6652 294.035 78.821C293.394 77.969 292.894 77.2576 292.98 77.1873C293.066 77.1169 293.707 77.711 294.356 78.5787C295.005 79.4385 295.411 80.2202 295.317 80.2827L295.325 80.2749Z" fill="#263238"/>
<path d="M298.882 87.1532C298.772 87.1923 298.389 86.4185 297.952 85.4414C297.522 84.4721 297.193 83.667 297.295 83.6122C297.397 83.5575 297.881 84.2923 298.319 85.2772C298.757 86.2621 298.976 87.1142 298.874 87.1532H298.882Z" fill="#263238"/>
<path d="M300.781 94.6494C300.672 94.6651 300.476 93.8209 300.273 92.7734C300.07 91.726 299.937 90.8739 300.046 90.8427C300.156 90.8114 300.469 91.64 300.672 92.6952C300.875 93.7505 300.891 94.6338 300.781 94.6494Z" fill="#263238"/>
<path d="M300.813 102.389C300.703 102.373 300.727 101.506 300.789 100.45C300.852 99.3872 300.93 98.5273 301.047 98.5273C301.156 98.5273 301.266 99.4028 301.196 100.482C301.133 101.56 300.922 102.412 300.813 102.397V102.389Z" fill="#263238"/>
<path d="M298.749 109.838C298.647 109.791 298.882 108.955 299.273 107.97C299.617 106.969 299.937 106.156 300.054 106.187C300.156 106.211 300.007 107.079 299.656 108.103C299.257 109.111 298.851 109.885 298.749 109.838Z" fill="#263238"/>
<path d="M294.536 116.31C294.45 116.232 294.965 115.537 295.614 114.692C296.263 113.848 296.802 113.176 296.896 113.231C296.99 113.293 296.599 114.083 295.935 114.935C295.278 115.795 294.614 116.373 294.536 116.303V116.31Z" fill="#263238"/>
<path d="M288.478 121.102C288.423 121 289.15 120.523 290.033 119.937C290.916 119.351 291.643 118.874 291.714 118.968C291.784 119.054 291.159 119.679 290.26 120.281C289.353 120.883 288.532 121.203 288.485 121.102H288.478Z" fill="#263238"/>
<path d="M281.083 123.22C281.083 123.103 281.935 122.986 282.975 122.806C284.014 122.626 284.866 122.462 284.897 122.571C284.929 122.673 284.116 123.025 283.045 123.205C281.974 123.392 281.091 123.33 281.083 123.22Z" fill="#263238"/>
<path d="M273.602 121.571C273.657 121.47 274.454 121.806 275.447 122.173C276.432 122.54 277.261 122.806 277.237 122.916C277.214 123.025 276.33 122.931 275.306 122.548C274.282 122.173 273.555 121.665 273.61 121.571H273.602Z" fill="#263238"/>
<path d="M267.802 116.514C267.896 116.451 268.459 117.108 269.17 117.89C269.882 118.671 270.476 119.297 270.405 119.383C270.335 119.469 269.6 118.968 268.873 118.163C268.138 117.358 267.716 116.576 267.81 116.514H267.802Z" fill="#263238"/>
<path d="M265.231 109.307C265.348 109.307 265.449 110.159 265.66 111.19C265.872 112.222 266.098 113.051 265.989 113.098C265.887 113.137 265.473 112.347 265.262 111.276C265.043 110.206 265.121 109.314 265.231 109.314V109.307Z" fill="#263238"/>
<path d="M267.536 102.06C267.63 102.13 267.177 102.865 266.7 103.803C266.215 104.733 265.879 105.53 265.77 105.491C265.668 105.46 265.832 104.585 266.34 103.615C266.841 102.646 267.458 101.997 267.544 102.06H267.536Z" fill="#263238"/>
<path d="M273.516 97.2297C273.563 97.3313 272.828 97.7846 271.93 98.3396C271.031 98.8946 270.311 99.3715 270.233 99.2777C270.163 99.1917 270.788 98.5663 271.711 97.9957C272.633 97.4251 273.469 97.128 273.516 97.2297Z" fill="#263238"/>
<path d="M280.911 94.9936C280.927 95.103 280.082 95.3141 279.051 95.5408C278.011 95.7675 277.167 95.9394 277.128 95.83C277.096 95.7284 277.901 95.3766 278.965 95.1421C280.02 94.9076 280.903 94.8842 280.919 94.9936H280.911Z" fill="#263238"/>
<path d="M288.65 94.8214C288.642 94.9308 287.766 94.9934 286.703 94.9543C285.64 94.9152 284.772 94.7901 284.772 94.6807C284.772 94.5713 285.64 94.5087 286.719 94.5478C287.798 94.5869 288.657 94.712 288.65 94.8214Z" fill="#263238"/>
<path d="M296.24 96.3541C296.201 96.4635 295.356 96.2759 294.325 96.0101C293.293 95.7444 292.464 95.4942 292.488 95.377C292.511 95.2675 293.387 95.3457 294.426 95.6115C295.474 95.8851 296.271 96.2446 296.24 96.3463V96.3541Z" fill="#263238"/>
<path d="M303.259 99.5982C303.197 99.692 302.423 99.309 301.485 98.8009C300.547 98.2928 299.804 97.8628 299.851 97.7534C299.898 97.6518 300.734 97.9254 301.68 98.4413C302.634 98.9494 303.322 99.5044 303.259 99.5982Z" fill="#263238"/>
<path d="M309.184 104.562C309.098 104.632 308.426 104.085 307.676 103.334C306.941 102.561 306.323 101.967 306.401 101.865C306.464 101.787 307.214 102.256 307.957 103.037C308.723 103.803 309.27 104.484 309.184 104.554V104.562Z" fill="#263238"/>
<path d="M313.515 110.964C313.413 111.011 312.952 110.276 312.42 109.361C311.889 108.439 311.475 107.681 311.568 107.618C311.662 107.556 312.233 108.22 312.772 109.158C313.312 110.088 313.616 110.917 313.515 110.964Z" fill="#263238"/>
<path d="M316.102 118.256C315.993 118.28 315.711 117.459 315.422 116.435C315.125 115.411 314.922 114.575 315.023 114.536C315.125 114.496 315.516 115.286 315.813 116.326C316.118 117.357 316.212 118.233 316.102 118.256Z" fill="#263238"/>
<path d="M317.071 125.941C316.962 125.941 316.798 125.081 316.72 124.026C316.642 122.963 316.665 122.095 316.774 122.079C316.884 122.064 317.04 122.924 317.126 123.994C317.212 125.065 317.181 125.941 317.071 125.941Z" fill="#263238"/>
<path d="M316.618 133.671C316.509 133.655 316.509 132.78 316.618 131.725C316.728 130.662 316.907 129.81 317.017 129.817C317.126 129.817 317.134 130.693 317.017 131.764C316.907 132.835 316.728 133.687 316.618 133.671Z" fill="#263238"/>
<path d="M314.867 141.222C314.758 141.183 314.906 140.323 315.188 139.299C315.469 138.275 315.79 137.462 315.899 137.486C316.008 137.509 315.868 138.369 315.579 139.409C315.289 140.448 314.969 141.261 314.867 141.222Z" fill="#263238"/>
<path d="M311.881 148.366C311.78 148.312 312.077 147.491 312.538 146.537C312.999 145.576 313.405 144.81 313.515 144.857C313.609 144.896 313.374 145.74 312.905 146.709C312.436 147.678 311.975 148.421 311.881 148.366Z" fill="#263238"/>
<path d="M307.941 155.042C307.848 154.979 308.238 154.198 308.809 153.299C309.38 152.4 309.919 151.712 310.021 151.767C310.122 151.821 309.731 152.603 309.153 153.518C308.582 154.424 308.035 155.112 307.941 155.05V155.042Z" fill="#263238"/>
<path d="M303.29 161.241C303.204 161.171 303.673 160.428 304.33 159.592C304.995 158.756 305.596 158.13 305.69 158.193C305.784 158.263 305.315 158.998 304.651 159.842C303.986 160.686 303.376 161.312 303.29 161.241Z" fill="#263238"/>
<path d="M298.131 167.025C298.053 166.947 298.577 166.251 299.296 165.462C300.023 164.68 300.68 164.102 300.766 164.18C300.852 164.258 300.328 164.954 299.601 165.743C298.874 166.533 298.217 167.103 298.131 167.025Z" fill="#263238"/>
<path d="M292.621 172.489C292.542 172.411 293.105 171.739 293.871 170.996C294.637 170.254 295.325 169.715 295.411 169.793C295.489 169.871 294.926 170.543 294.16 171.286C293.387 172.028 292.699 172.568 292.621 172.489Z" fill="#263238"/>
<path d="M286.899 177.719C286.82 177.633 287.407 176.985 288.204 176.273C289.001 175.554 289.705 175.046 289.783 175.124C289.861 175.21 289.275 175.859 288.478 176.57C287.68 177.289 286.977 177.805 286.899 177.719Z" fill="#263238"/>
<path d="M282.529 181.58C282.459 181.494 282.724 181.134 283.131 180.783C283.537 180.423 283.928 180.204 283.999 180.29C284.069 180.376 283.803 180.736 283.397 181.087C282.99 181.447 282.599 181.666 282.529 181.58Z" fill="#263238"/>
<path d="M57.171 165.243C57.2648 165.181 57.5775 165.501 57.8667 165.954C58.1559 166.408 58.3122 166.822 58.2184 166.885C58.1246 166.947 57.812 166.627 57.5227 166.173C57.2335 165.72 57.0694 165.298 57.1632 165.243H57.171Z" fill="#263238"/>
<path d="M53.3643 158.396C53.4659 158.349 53.9505 159.084 54.4508 160.037C54.9511 160.991 55.2794 161.812 55.1778 161.866C55.0762 161.921 54.5915 161.186 54.0913 160.225C53.591 159.263 53.2627 158.443 53.3643 158.396Z" fill="#263238"/>
<path d="M50.2454 151.212C50.347 151.173 50.7613 151.955 51.1678 152.948C51.5743 153.948 51.8166 154.792 51.715 154.839C51.6134 154.886 51.1991 154.105 50.7926 153.104C50.3861 152.096 50.1438 151.251 50.2454 151.212Z" fill="#263238"/>
<path d="M47.8534 143.755C47.9628 143.724 48.2989 144.544 48.596 145.576C48.9008 146.608 49.0572 147.476 48.9477 147.515C48.8383 147.546 48.51 146.733 48.2051 145.693C47.9003 144.654 47.7439 143.786 47.8534 143.755Z" fill="#263238"/>
<path d="M46.2353 136.095C46.3448 136.079 46.5949 136.924 46.7903 137.987C46.9857 139.05 47.0561 139.925 46.9467 139.949C46.8372 139.972 46.5871 139.128 46.3917 138.057C46.1963 136.994 46.1259 136.111 46.2353 136.095Z" fill="#263238"/>
<path d="M45.4302 128.301C45.5396 128.301 45.7038 129.161 45.7819 130.239C45.8601 131.318 45.8367 132.194 45.7272 132.209C45.6178 132.225 45.4615 131.357 45.3755 130.271C45.2895 129.192 45.3208 128.309 45.4302 128.301Z" fill="#263238"/>
<path d="M45.4849 120.469C45.5943 120.469 45.6568 121.36 45.6178 122.431C45.5787 123.51 45.4614 124.385 45.3442 124.377C45.2347 124.377 45.1722 123.494 45.2113 122.415C45.2504 121.329 45.3676 120.461 45.4849 120.469Z" fill="#263238"/>
<path d="M46.4386 112.698C46.5481 112.722 46.509 113.597 46.3448 114.668C46.1807 115.731 45.9618 116.583 45.8445 116.576C45.7351 116.56 45.7742 115.684 45.9383 114.606C46.1025 113.535 46.3214 112.683 46.4386 112.698Z" fill="#263238"/>
<path d="M48.3302 105.101C48.4397 105.132 48.2911 106.008 47.9941 107.04C47.7049 108.079 47.3766 108.9 47.2671 108.869C47.1577 108.845 47.3062 107.97 47.6033 106.93C47.9003 105.883 48.2208 105.062 48.3302 105.101Z" fill="#263238"/>
<path d="M51.1287 97.7843C51.2303 97.8312 50.9801 98.6754 50.558 99.6681C50.1437 100.661 49.7216 101.435 49.6122 101.396C49.5106 101.357 49.7607 100.512 50.1828 99.5118C50.6049 98.5112 51.027 97.7373 51.1287 97.7843Z" fill="#263238"/>
<path d="M54.7947 90.8583C54.8885 90.9208 54.5367 91.7259 54.0052 92.664C53.4736 93.602 52.9577 94.3211 52.8639 94.2664C52.7623 94.2117 53.1141 93.4066 53.6534 92.4607C54.1928 91.5149 54.7009 90.7957 54.7947 90.8583Z" fill="#263238"/>
<path d="M59.2581 84.4329C59.3441 84.5033 58.8986 85.2615 58.2576 86.1291C57.6166 86.9968 57.0225 87.6456 56.9287 87.5831C56.8349 87.5205 57.2805 86.7623 57.9293 85.8868C58.5781 85.0192 59.1721 84.3625 59.2581 84.4329Z" fill="#263238"/>
<path d="M64.4797 78.6023C64.5579 78.6805 64.0185 79.384 63.2759 80.1579C62.5334 80.9395 61.8611 81.5102 61.7751 81.432C61.6891 81.3538 62.2285 80.6581 62.9789 79.8765C63.7293 79.087 64.4016 78.5163 64.4797 78.6023Z" fill="#263238"/>
<path d="M70.4048 73.4823C70.4752 73.5761 69.8498 74.1937 69.0134 74.8737C68.177 75.5538 67.4345 76.0306 67.3641 75.9446C67.2938 75.8586 67.9113 75.2411 68.7555 74.5532C69.5997 73.8732 70.3345 73.3885 70.4048 73.4823Z" fill="#263238"/>
<path d="M76.9475 69.1901C77.0022 69.2918 76.2987 69.8233 75.3841 70.3783C74.4617 70.9411 73.6722 71.3163 73.6097 71.2225C73.5472 71.1287 74.2507 70.5972 75.1731 70.0344C76.1033 69.4716 76.8928 69.0963 76.9475 69.1901Z" fill="#263238"/>
<path d="M84.0217 65.8371C84.0608 65.9388 83.2948 66.3765 82.302 66.7986C81.3093 67.2285 80.4729 67.4865 80.426 67.3849C80.3791 67.2832 81.1451 66.8533 82.1457 66.4234C83.1462 65.9935 83.9826 65.7277 84.0217 65.8371Z" fill="#263238"/>
<path d="M91.4945 63.4921C91.518 63.6015 90.6972 63.922 89.6576 64.2112C88.6179 64.5004 87.7503 64.6412 87.719 64.5395C87.6877 64.4379 88.5085 64.1096 89.556 63.8204C90.6034 63.5312 91.4711 63.3826 91.4945 63.4921Z" fill="#263238"/>
<path d="M99.2019 62.1708C99.2097 62.2802 98.3577 62.4912 97.2946 62.6398C96.2315 62.7883 95.3483 62.8196 95.3248 62.7101C95.3014 62.6007 96.1612 62.3896 97.2321 62.2411C98.303 62.0926 99.1863 62.0613 99.1941 62.1708H99.2019Z" fill="#263238"/>
<path d="M107.027 61.8585C107.027 61.9679 106.143 62.0696 105.072 62.0774C103.994 62.0774 103.118 61.9992 103.11 61.8898C103.11 61.7803 103.978 61.6787 105.065 61.6709C106.151 61.6709 107.027 61.7491 107.027 61.8585Z" fill="#263238"/>
<path d="M114.82 62.5779C114.804 62.6874 113.921 62.6717 112.85 62.5389C111.779 62.406 110.927 62.2027 110.935 62.0933C110.943 61.9839 111.826 61.9995 112.905 62.1402C113.983 62.2731 114.843 62.4763 114.82 62.5858V62.5779Z" fill="#263238"/>
<path d="M122.449 64.3443C122.418 64.4538 121.542 64.3131 120.503 64.0317C119.463 63.7503 118.642 63.4376 118.666 63.3282C118.689 63.2187 119.557 63.3594 120.612 63.6408C121.659 63.9222 122.488 64.2349 122.449 64.3443Z" fill="#263238"/>
<path d="M129.742 67.1733C129.695 67.275 128.851 67.0092 127.866 66.5871C126.873 66.165 126.107 65.7351 126.146 65.6256C126.185 65.524 127.03 65.782 128.022 66.2119C129.023 66.6418 129.789 67.0717 129.742 67.1733Z" fill="#263238"/>
<path d="M136.551 71.043C136.488 71.1368 135.699 70.7537 134.776 70.1831C133.862 69.6125 133.166 69.0731 133.213 68.9793C133.275 68.8699 134.065 69.2607 134.987 69.8314C135.91 70.402 136.605 70.9413 136.543 71.0351L136.551 71.043Z" fill="#263238"/>
<path d="M142.749 75.8189C142.671 75.9048 141.936 75.4124 141.108 74.7323C140.279 74.0444 139.662 73.4191 139.724 73.3331C139.787 73.2471 140.529 73.7318 141.366 74.4197C142.202 75.1075 142.82 75.7407 142.749 75.8189Z" fill="#263238"/>
<path d="M148.315 81.33C148.229 81.4082 147.557 80.8297 146.814 80.0559C146.071 79.2742 145.532 78.5785 145.61 78.5003C145.688 78.4222 146.361 78.9928 147.111 79.7745C147.862 80.564 148.401 81.2596 148.315 81.33Z" fill="#263238"/>
<path d="M153.255 87.4113C153.161 87.4738 152.559 86.8406 151.895 85.9886C151.238 85.1366 150.769 84.3862 150.863 84.3158C150.949 84.2455 151.559 84.8864 152.223 85.7463C152.888 86.6061 153.349 87.3566 153.255 87.4191V87.4113Z" fill="#263238"/>
<path d="M157.601 93.9228C157.507 93.9775 156.96 93.2896 156.374 92.3828C155.795 91.4761 155.397 90.6866 155.491 90.6241C155.584 90.5615 156.132 91.2494 156.718 92.164C157.304 93.0785 157.695 93.868 157.601 93.9228Z" fill="#263238"/>
<path d="M161.424 100.755C161.322 100.81 160.829 100.075 160.321 99.1211C159.813 98.1674 159.477 97.3545 159.579 97.2998C159.68 97.2451 160.173 97.972 160.681 98.9335C161.189 99.8871 161.525 100.708 161.424 100.755Z" fill="#263238"/>
<path d="M163.98 106.055C163.878 106.102 163.612 105.742 163.385 105.258C163.159 104.765 163.057 104.335 163.159 104.288C163.26 104.241 163.526 104.601 163.753 105.093C163.98 105.586 164.081 106.016 163.98 106.063V106.055Z" fill="#263238"/>
<path d="M68.1693 200.654C68.1224 200.552 68.4819 200.286 68.9744 200.067C69.4669 199.841 69.9046 199.747 69.9515 199.848C69.9906 199.95 69.631 200.216 69.1464 200.435C68.6617 200.654 68.224 200.755 68.1693 200.654Z" fill="#263238"/>
<path d="M61.7907 204.883C61.7204 204.797 62.3067 204.164 63.1587 203.523C64.0107 202.882 64.7846 202.483 64.8471 202.577C64.9096 202.671 64.2452 203.21 63.4088 203.851C62.5724 204.484 61.8689 204.977 61.7907 204.891V204.883Z" fill="#263238"/>
<path d="M56.5925 210.487C56.4987 210.424 56.9755 209.705 57.6555 208.885C58.3356 208.064 58.9531 207.462 59.0313 207.54C59.1095 207.618 58.6405 208.337 57.9682 209.142C57.296 209.955 56.6785 210.557 56.5925 210.487Z" fill="#263238"/>
<path d="M52.7234 217.085C52.6218 217.038 52.9344 216.233 53.4269 215.295C53.9193 214.349 54.3962 213.63 54.49 213.685C54.5838 213.739 54.2711 214.544 53.7865 215.482C53.3018 216.413 52.825 217.132 52.7234 217.085Z" fill="#263238"/>
<path d="M50.2845 224.338C50.1751 224.315 50.3158 223.463 50.605 222.439C50.8942 221.415 51.2147 220.61 51.3163 220.649C51.4257 220.688 51.2772 221.532 50.9958 222.548C50.7144 223.557 50.3939 224.362 50.2845 224.338Z" fill="#263238"/>
<path d="M49.3855 231.937C49.276 231.937 49.237 231.077 49.3073 230.014C49.3777 228.951 49.5184 228.099 49.6356 228.114C49.7451 228.13 49.7841 228.99 49.7138 230.037C49.6434 231.085 49.5027 231.937 49.3855 231.937Z" fill="#263238"/>
<path d="M50.1749 239.542C50.0655 239.566 49.7841 238.745 49.6121 237.697C49.4402 236.642 49.448 235.774 49.5574 235.767C49.6747 235.759 49.8388 236.595 50.0108 237.635C50.175 238.674 50.2844 239.527 50.1749 239.55V239.542Z" fill="#263238"/>
<path d="M52.7389 246.749C52.6372 246.796 52.1682 246.069 51.7539 245.092C51.3397 244.115 51.1364 243.263 51.2458 243.232C51.3553 243.193 51.7149 243.967 52.1291 244.936C52.5356 245.905 52.8405 246.703 52.7389 246.757V246.749Z" fill="#263238"/>
<path d="M56.874 253.183C56.788 253.253 56.2096 252.612 55.5921 251.752C54.9667 250.885 54.5446 250.142 54.6384 250.079C54.7322 250.017 55.3106 250.658 55.9282 251.518C56.5457 252.37 56.9678 253.12 56.8818 253.19L56.874 253.183Z" fill="#263238"/>
<path d="M62.2519 258.623C62.1816 258.709 61.4859 258.201 60.7042 257.481C59.9147 256.762 59.3441 256.113 59.4301 256.035C59.5082 255.957 60.2039 256.465 60.9778 257.177C61.7517 257.888 62.3223 258.529 62.2519 258.623Z" fill="#263238"/>
<path d="M68.5914 262.922C68.5367 263.024 67.755 262.648 66.8483 262.101C65.9416 261.546 65.2537 261.022 65.3162 260.929C65.3787 260.835 66.1604 261.202 67.0594 261.749C67.9583 262.297 68.6383 262.82 68.5914 262.922Z" fill="#263238"/>
<path d="M75.6186 265.947C75.5873 266.057 74.751 265.838 73.7504 265.462C72.7577 265.087 71.9838 264.704 72.0307 264.595C72.0776 264.493 72.914 264.704 73.8989 265.079C74.8838 265.447 75.6577 265.838 75.6186 265.947Z" fill="#263238"/>
<path d="M83.0994 267.573C83.0837 267.682 82.2239 267.635 81.1764 267.463C80.129 267.291 79.2926 267.057 79.3238 266.948C79.3473 266.838 80.2071 266.885 81.2468 267.057C82.2864 267.229 83.115 267.456 83.0994 267.573Z" fill="#263238"/>
<path d="M90.7519 267.644C90.7675 267.753 89.9155 267.886 88.8524 267.933C87.7893 267.98 86.9294 267.933 86.9294 267.816C86.9294 267.707 87.7815 267.574 88.8367 267.527C89.8842 267.48 90.744 267.527 90.7597 267.644H90.7519Z" fill="#263238"/>
<path d="M98.2403 266.096C98.2716 266.205 97.4665 266.51 96.4347 266.776C95.4028 267.042 94.5508 267.174 94.5274 267.065C94.5039 266.956 95.309 266.651 96.333 266.385C97.3492 266.119 98.2012 265.994 98.2403 266.096Z" fill="#263238"/>
<path d="M105.283 263.095C105.338 263.196 104.603 263.65 103.65 264.111C102.688 264.572 101.883 264.869 101.836 264.76C101.789 264.65 102.524 264.197 103.47 263.743C104.416 263.282 105.229 262.993 105.283 263.095Z" fill="#263238"/>
<path d="M111.654 258.85C111.724 258.936 111.083 259.514 110.231 260.147C109.372 260.773 108.629 261.21 108.566 261.117C108.504 261.023 109.145 260.444 109.989 259.819C110.841 259.194 111.584 258.764 111.654 258.85Z" fill="#263238"/>
<path d="M117.188 253.566C117.274 253.636 116.743 254.324 116.008 255.09C115.273 255.856 114.609 256.411 114.539 256.333C114.46 256.255 114.992 255.567 115.719 254.808C116.446 254.05 117.11 253.495 117.188 253.566Z" fill="#263238"/>
<path d="M121.73 247.398C121.824 247.452 121.425 248.218 120.831 249.102C120.237 249.985 119.682 250.649 119.596 250.579C119.51 250.509 119.909 249.751 120.495 248.875C121.081 248 121.636 247.343 121.73 247.398Z" fill="#263238"/>
<path d="M125.122 240.535C125.224 240.574 124.966 241.394 124.536 242.372C124.106 243.349 123.676 244.091 123.583 244.044C123.481 243.997 123.747 243.169 124.169 242.207C124.591 241.246 125.021 240.496 125.122 240.535Z" fill="#263238"/>
<path d="M126.811 235.009C126.92 235.032 126.905 235.478 126.764 236.009C126.631 236.533 126.436 236.94 126.326 236.908C126.217 236.877 126.24 236.431 126.373 235.908C126.506 235.392 126.701 234.985 126.811 235.009Z" fill="#263238"/>
<path d="M206.542 8.75266L171.588 18.1381C170.233 18.5019 169.429 19.8954 169.793 21.2504L176.284 45.4235C176.648 46.7786 178.041 47.5821 179.396 47.2183L214.35 37.8329C215.705 37.469 216.509 36.0756 216.145 34.7205L209.654 10.5474C209.29 9.19234 207.897 8.38881 206.542 8.75266Z" fill="#92E3A9"/>
<path d="M208.113 11.8232C208.113 11.8232 208.035 11.9718 207.855 12.2297L207.066 13.3397C206.331 14.3402 205.323 15.7082 204.088 17.3888C202.813 19.1007 201.305 21.1252 199.632 23.3608C198.788 24.4864 197.905 25.659 196.99 26.8784C196.529 27.4881 196.06 28.1056 195.591 28.7388C195.09 29.4032 194.364 29.9113 193.535 30.138C192.714 30.3725 191.831 30.3256 191.057 30.0207C190.33 29.7081 189.611 29.4032 188.907 29.1062C187.508 28.5043 186.156 27.9258 184.866 27.3708C182.302 26.2609 179.988 25.2603 178.026 24.4083C176.119 23.5641 174.564 22.8762 173.43 22.3759C172.922 22.1414 172.516 21.9538 172.187 21.8053C171.906 21.6724 171.757 21.5942 171.765 21.5786C171.765 21.563 171.929 21.6177 172.219 21.7271C172.547 21.86 172.969 22.0242 173.493 22.2274C174.642 22.6964 176.213 23.3452 178.136 24.1425C180.106 24.9711 182.435 25.9482 185.007 27.0269C186.297 27.5741 187.657 28.1447 189.056 28.7388C189.759 29.0358 190.471 29.3329 191.198 29.6455C191.893 29.9191 192.683 29.9582 193.418 29.7471C194.152 29.5361 194.809 29.0905 195.255 28.4965C195.731 27.8711 196.2 27.2536 196.662 26.6439C197.584 25.4323 198.475 24.2598 199.319 23.142C201.016 20.922 202.548 18.9209 203.845 17.2246C205.119 15.5831 206.167 14.2308 206.925 13.2537C207.277 12.816 207.558 12.4642 207.777 12.1828C207.973 11.9405 208.082 11.8154 208.098 11.8311L208.113 11.8232Z" fill="#263238"/>
<path d="M187.719 28.3874C187.813 28.4421 185.859 31.8268 183.358 35.9384C180.848 40.05 178.738 43.3331 178.644 43.2784C178.55 43.2237 180.504 39.839 183.006 35.7274C185.515 31.6157 187.625 28.3327 187.719 28.3874Z" fill="#263238"/>
<path d="M197.584 25.7376C197.639 25.6438 201.023 27.598 205.135 30.0994C209.247 32.6086 212.53 34.7191 212.475 34.8129C212.42 34.9067 209.036 32.9525 204.924 30.4511C200.812 27.9419 197.529 25.8314 197.584 25.7376Z" fill="#263238"/>
<path d="M332.424 106.742C321.746 106.742 313.093 98.0887 313.093 87.411C313.093 76.7333 321.746 68.0801 332.424 68.0801C343.101 68.0801 351.754 76.7333 351.754 87.411C351.754 98.0887 343.101 106.742 332.424 106.742Z" fill="#9E9E9E"/>
<path d="M329.477 99.0968H334.183V87.3169H337.466L337.817 83.3694H334.183V81.126C334.183 80.1958 334.37 79.8284 335.269 79.8284H337.817V75.7324H334.558C331.056 75.7324 329.477 77.2723 329.477 80.2271V83.3694H327.03V87.3638H329.477V99.0968Z" fill="white"/>
<path d="M91.2678 314.45C91.7993 316.771 90.3532 319.077 88.0316 319.609C85.7101 320.14 83.4041 318.694 82.8726 316.373C82.341 314.051 83.7871 311.745 86.1087 311.214C88.4303 310.682 90.7363 312.128 91.2678 314.45Z" fill="#9E9E9E"/>
<path d="M70.9441 319.186L103.227 311.768L100.413 309.72C98.6702 308.454 97.443 306.594 96.9662 304.499L94.9573 295.744C93.4643 289.248 86.992 285.191 80.4884 286.684C73.9926 288.177 69.9357 294.65 71.4287 301.153L73.3595 309.572C73.805 311.526 73.5862 313.566 72.7341 315.38L70.9441 319.194V319.186Z" fill="#9E9E9E"/>
<path d="M79.4654 282.926L79.054 283.02C78.2924 283.195 77.8168 283.954 77.9916 284.716L78.9029 288.685C79.0778 289.447 79.8369 289.922 80.5985 289.748L81.0099 289.653C81.7714 289.478 82.2471 288.719 82.0722 287.958L81.161 283.988C80.9861 283.227 80.227 282.751 79.4654 282.926Z" fill="#9E9E9E"/>
<path d="M103.251 311.839C103.267 311.909 96.0985 313.605 87.2499 315.638C78.3935 317.67 71.2021 319.265 71.1864 319.194C71.1708 319.124 78.3388 317.428 87.1952 315.395C96.0516 313.363 103.243 311.776 103.251 311.839Z" fill="#263238"/>
<path d="M82.9116 316.505C82.9116 316.505 84.9909 317.552 87.3047 317.021C90.0562 316.388 91.299 314.574 91.299 314.574L82.9038 316.497L82.9116 316.505Z" fill="#263238"/>
<path d="M92.9953 294.587C92.8936 294.219 92.7764 293.836 92.5106 293.555C92.2449 293.274 91.7915 293.141 91.471 293.352C91.0801 293.532 90.8691 293.954 90.9629 294.376C91.2756 295.759 91.9635 298.823 92.3074 300.66C92.5888 302.169 92.7373 303.818 92.0416 305.186C91.5023 306.242 90.4783 306.984 89.3839 307.445C88.2896 307.907 87.1092 308.118 85.9445 308.368C84.475 308.68 83.0054 309.071 81.6609 309.736C81.3013 309.916 80.934 310.127 80.7151 310.463C80.4962 310.799 80.4884 311.299 80.7933 311.565C81.0747 311.807 81.4889 311.768 81.8485 311.721C85.6006 311.205 89.3761 310.619 92.9405 309.337C93.6831 309.071 94.457 308.743 94.9026 308.094C95.4106 307.359 95.3716 306.39 95.2856 305.499C94.9182 301.794 94.0193 298.167 92.9953 294.587Z" fill="#263238"/>
<g opacity="0.2">
<path d="M77.4321 289.491C77.4321 289.491 77.4479 289.491 77.4559 289.483C77.4717 289.483 77.4796 289.467 77.4954 289.459L77.4321 289.491Z" fill="white"/>
</g>
<path d="M87.8129 287.224C87.7973 287.271 87.086 286.966 85.8744 286.724C85.2725 286.599 84.5377 286.513 83.7247 286.489C82.9118 286.481 82.0129 286.528 81.0905 286.692C80.1681 286.864 79.3082 287.122 78.55 287.419C77.7996 287.724 77.1352 288.06 76.6193 288.389C75.564 289.037 75.0012 289.569 74.9699 289.53C74.9621 289.514 75.095 289.381 75.353 289.147C75.478 289.022 75.6422 288.881 75.8376 288.74C76.033 288.592 76.2519 288.412 76.5255 288.248C77.0414 287.896 77.7058 287.544 78.464 287.216C79.2301 286.903 80.1056 286.63 81.0514 286.458C81.9972 286.294 82.9118 286.247 83.7404 286.27C84.5689 286.317 85.3115 286.411 85.9213 286.567C86.2261 286.63 86.4997 286.724 86.7342 286.794C86.9765 286.864 87.1719 286.943 87.3361 287.013C87.6566 287.146 87.8364 287.232 87.8286 287.247L87.8129 287.224Z" fill="#263238"/>
<path d="M73.4845 314.716C73.4142 314.684 73.8285 313.676 73.977 312.355C74.1411 311.034 73.977 309.955 74.0473 309.947C74.1021 309.932 74.3913 311.026 74.2193 312.386C74.063 313.754 73.5314 314.747 73.4767 314.716H73.4845Z" fill="white"/>
<path d="M88.3287 318.67C88.3287 318.67 88.1098 318.858 87.6799 318.983C87.2499 319.108 86.609 319.171 85.9367 318.983C85.2645 318.803 84.7407 318.42 84.4359 318.1C84.1232 317.771 84.006 317.521 84.0372 317.506C84.0685 317.482 84.2327 317.701 84.561 317.975C84.8814 318.248 85.3817 318.577 86.0071 318.748C86.6324 318.92 87.2265 318.889 87.6486 318.819C88.0707 318.748 88.3208 318.647 88.3365 318.678L88.3287 318.67Z" fill="white"/>
<path d="M78.8861 283.48C78.9486 283.519 78.6203 283.988 78.589 284.652C78.5343 285.317 78.7923 285.817 78.7297 285.848C78.6828 285.895 78.2842 285.387 78.3389 284.637C78.3858 283.886 78.847 283.433 78.8861 283.48Z" fill="white"/>
<path d="M12.7482 104.835C13.6393 104.296 14.5851 103.889 15.5622 103.608L16.1407 100.817L20.8542 100.731L21.5343 103.499C22.5192 103.741 23.4806 104.116 24.3952 104.624L26.7793 103.061L30.1718 106.336L28.6944 108.767C29.2338 109.658 29.6403 110.604 29.9217 111.589L32.7123 112.167L32.7983 116.881L30.0311 117.561C29.7888 118.546 29.4136 119.507 28.9055 120.422L30.4689 122.806L27.1936 126.199L24.7548 124.721C23.8637 125.261 22.9178 125.667 21.9329 125.948L21.3545 128.739L16.641 128.825L15.9609 126.058C14.976 125.816 14.0145 125.44 13.1 124.932L10.7158 126.496L7.32334 123.22L8.80072 120.789C8.26136 119.898 7.85488 118.952 7.57348 117.967L4.78288 117.389L4.6969 112.676L7.46404 111.995C7.70636 111.011 8.08157 110.049 8.58966 109.134L7.0263 106.75L10.3015 103.358L12.7404 104.835H12.7482ZM15.2574 111.112C13.3188 113.121 13.3735 116.326 15.3825 118.265C17.3914 120.203 20.5963 120.148 22.5348 118.139C24.4734 116.131 24.4187 112.926 22.4097 110.987C20.4008 109.049 17.2038 109.103 15.2574 111.112Z" fill="#9E9E9E"/>
<path d="M331.36 217.756C332.228 217.232 333.143 216.834 334.096 216.568L334.659 213.863L339.232 213.785L339.889 216.474C340.85 216.709 341.78 217.076 342.664 217.568L344.977 216.052L348.268 219.233L346.838 221.594C347.361 222.462 347.76 223.384 348.026 224.33L350.73 224.893L350.809 229.466L348.12 230.122C347.885 231.084 347.518 232.014 347.025 232.897L348.542 235.211L345.36 238.502L343 237.071C342.132 237.595 341.21 237.994 340.264 238.26L339.701 240.964L335.128 241.042L334.472 238.353C333.51 238.119 332.58 237.751 331.697 237.259L329.383 238.775L326.092 235.594L327.522 233.233C326.999 232.366 326.6 231.451 326.334 230.497L323.63 229.935L323.552 225.362L326.24 224.705C326.475 223.744 326.842 222.814 327.335 221.93L325.818 219.616L329 216.326L331.36 217.756ZM333.799 223.853C331.915 225.807 331.97 228.911 333.924 230.794C335.879 232.678 338.982 232.624 340.866 230.669C342.75 228.715 342.695 225.612 340.741 223.728C338.786 221.844 335.683 221.899 333.799 223.853Z" fill="#9E9E9E"/>
<path d="M350.215 334.797C350.215 334.906 273.039 335 177.87 335C82.7006 335 5.50977 334.906 5.50977 334.797C5.50977 334.688 82.6615 334.594 177.87 334.594C273.079 334.594 350.215 334.688 350.215 334.797Z" fill="black"/>
<path d="M220.409 92.3128L89.3292 104.132C71.8587 105.711 59.0626 122.126 60.7511 140.808L67.6611 217.405C69.3417 236.087 84.8737 249.946 102.344 248.375L153.224 243.787C154.764 243.646 156.28 244.326 157.273 245.6L171.663 263.915C173.79 266.619 177.768 266.268 179.379 263.219L190.26 242.622C191.018 241.191 192.386 240.253 193.926 240.113L233.424 236.548C250.894 234.969 263.691 218.554 262.002 199.872L255.092 123.275C253.411 104.593 237.88 90.7338 220.409 92.305V92.3128Z" fill="white"/>
<path d="M220.409 92.3125C220.409 92.3125 220.972 92.2812 222.082 92.2343C222.355 92.2265 222.668 92.2109 223.012 92.1952C223.356 92.1796 223.731 92.1561 224.138 92.1952C224.958 92.2578 225.904 92.3047 226.983 92.4063C227.514 92.5001 228.077 92.6017 228.671 92.7033C229.265 92.8206 229.899 92.8831 230.532 93.0942C231.173 93.2818 231.845 93.4694 232.541 93.6726C233.244 93.8602 233.932 94.2041 234.667 94.4777C237.575 95.6815 240.795 97.5106 243.852 100.262C246.908 102.998 249.792 106.664 251.903 111.198C252.161 111.768 252.419 112.347 252.677 112.925C252.95 113.504 253.107 114.137 253.333 114.747C253.537 115.364 253.771 115.982 253.951 116.623C254.107 117.271 254.256 117.92 254.412 118.585C255.037 121.227 255.248 124.049 255.514 126.941C256.569 138.533 257.765 151.736 259.094 166.322C259.759 173.615 260.447 181.26 261.174 189.225C261.353 191.218 261.533 193.227 261.721 195.26C261.815 196.276 261.908 197.292 262.002 198.324L262.143 199.864L262.213 201.427C262.416 205.593 261.916 209.877 260.603 214.004C259.298 218.124 257.187 222.087 254.326 225.518C251.465 228.958 247.846 231.866 243.68 233.859C241.608 234.883 239.38 235.594 237.106 236.126C236.543 236.306 235.949 236.329 235.378 236.431L233.635 236.681C232.47 236.806 231.298 236.9 230.125 237.009C225.427 237.431 220.659 237.869 215.836 238.299C211.013 238.737 206.128 239.174 201.187 239.62C198.717 239.847 196.239 240.073 193.746 240.3C192.55 240.448 191.448 241.152 190.752 242.137C190.408 242.622 190.15 243.216 189.845 243.763L188.962 245.443C186.594 249.93 184.202 254.456 181.786 259.029C181.184 260.17 180.575 261.319 179.973 262.468C179.668 263.031 179.394 263.649 178.941 264.165C178.511 264.681 177.972 265.118 177.354 265.423C176.127 266.025 174.634 266.041 173.383 265.486C172.75 265.212 172.203 264.782 171.742 264.274C171.28 263.766 170.913 263.242 170.499 262.726C167.239 258.583 163.956 254.401 160.65 250.188C159.821 249.133 158.992 248.078 158.164 247.022C157.75 246.499 157.335 245.951 156.913 245.451C156.483 244.967 155.952 244.576 155.365 244.31C154.771 244.044 154.13 243.919 153.482 243.935C152.833 243.974 152.137 244.052 151.473 244.107C150.12 244.232 148.768 244.349 147.416 244.474C136.574 245.451 125.576 246.444 114.445 247.452C111.662 247.702 108.887 247.953 106.12 248.203C103.36 248.445 100.578 248.773 97.8026 248.57C97.1069 248.515 96.4112 248.484 95.7312 248.406L93.6832 248.039C93.347 247.976 93.0031 247.929 92.667 247.843L91.6743 247.554L89.6888 246.968L87.7737 246.186L86.82 245.795L85.9055 245.311L84.0841 244.349L82.3645 243.216C77.7838 240.183 74.1803 235.899 71.6086 231.178C71.4444 230.881 71.2646 230.599 71.1239 230.294L70.7096 229.372L69.8889 227.527C69.6465 226.902 69.4511 226.261 69.2322 225.628C69.0368 224.987 68.7632 224.369 68.6304 223.713C67.9425 221.133 67.5595 218.475 67.3406 215.857C65.4489 194.853 63.6276 174.6 61.8923 155.3C61.4624 150.477 61.0324 145.709 60.6103 141.011C60.1726 136.29 60.6103 131.537 61.9704 127.128C64.6282 118.288 70.8269 110.854 78.6046 107.016L80.0585 106.297L81.5671 105.734C82.0674 105.546 82.5677 105.351 83.0758 105.179L84.6235 104.78C85.1394 104.655 85.6553 104.507 86.1712 104.389L87.7424 104.163L89.3058 103.936L90.8613 103.795C95.0042 103.428 99.0611 103.061 103.048 102.701C111.013 101.99 118.658 101.302 125.959 100.645C155.147 98.0422 178.761 95.9317 195.09 94.4777C203.251 93.7586 209.583 93.2036 213.89 92.8206C216.032 92.633 217.673 92.4923 218.775 92.3985C219.877 92.3047 220.44 92.2656 220.44 92.2656C220.44 92.2656 219.877 92.3281 218.775 92.4375C217.673 92.5392 216.032 92.6955 213.89 92.8987C209.591 93.2974 203.259 93.8758 195.098 94.6341C178.777 96.1193 155.162 98.2767 125.982 100.934C118.689 101.599 111.044 102.287 103.079 103.014C99.1002 103.373 95.0355 103.741 90.8926 104.116L89.337 104.257L87.7893 104.483L86.2338 104.71C85.7257 104.827 85.2176 104.968 84.7095 105.093L83.1774 105.484C82.6771 105.648 82.1847 105.851 81.6844 106.031L80.1914 106.594L78.7531 107.305C71.0614 111.104 64.933 118.46 62.3066 127.222C60.9621 131.592 60.5322 136.29 60.9699 140.972C61.392 145.67 61.8297 150.438 62.2597 155.261C64.0028 174.561 65.8319 194.814 67.7314 215.81C67.9503 218.436 68.3333 221.039 69.0134 223.603C69.1384 224.252 69.412 224.862 69.6075 225.495C69.8263 226.12 70.0139 226.753 70.2562 227.371L71.0692 229.192L71.4757 230.107C71.6164 230.404 71.7962 230.693 71.9603 230.982C74.5086 235.649 78.0652 239.878 82.5911 242.872L84.2874 243.989L86.0852 244.943L86.9842 245.42L87.93 245.803L89.8217 246.569L91.7837 247.147L92.7686 247.437C93.0969 247.515 93.4408 247.562 93.777 247.632L95.7937 247.999C96.4738 248.085 97.1616 248.109 97.8417 248.164C100.578 248.375 103.329 248.046 106.096 247.804C108.863 247.554 111.638 247.304 114.421 247.054C125.552 246.053 136.55 245.06 147.392 244.083C148.745 243.958 150.097 243.841 151.449 243.716C152.129 243.661 152.786 243.583 153.482 243.544C154.193 243.52 154.896 243.669 155.545 243.95C156.186 244.24 156.765 244.67 157.234 245.193C157.679 245.733 158.078 246.256 158.5 246.788C159.329 247.843 160.157 248.898 160.986 249.954C164.3 254.167 167.583 258.349 170.835 262.492C171.241 263 171.64 263.555 172.062 264.016C172.484 264.477 172.992 264.884 173.571 265.126C174.72 265.642 176.08 265.626 177.206 265.071C177.768 264.79 178.261 264.391 178.66 263.914C179.066 263.445 179.332 262.859 179.644 262.281C180.254 261.132 180.856 259.983 181.458 258.841C183.873 254.269 186.273 249.735 188.642 245.256L189.533 243.575C189.838 243.02 190.088 242.45 190.471 241.902C191.229 240.832 192.425 240.073 193.73 239.909C196.232 239.682 198.717 239.456 201.187 239.229C206.128 238.783 211.013 238.346 215.836 237.908C220.659 237.478 225.42 237.048 230.125 236.626C231.298 236.517 232.47 236.423 233.635 236.298L235.362 236.048C235.933 235.946 236.519 235.923 237.074 235.751C239.326 235.227 241.522 234.523 243.57 233.515C247.69 231.545 251.27 228.669 254.099 225.276C256.937 221.876 259.024 217.96 260.322 213.879C261.627 209.791 262.127 205.547 261.924 201.419L261.861 199.872L261.721 198.332C261.627 197.308 261.541 196.284 261.447 195.267C261.267 193.235 261.088 191.226 260.908 189.233C260.196 181.268 259.509 173.623 258.852 166.33C257.547 151.736 256.366 138.533 255.327 126.941C255.069 124.041 254.858 121.235 254.24 118.608C254.084 117.952 253.935 117.303 253.779 116.662C253.591 116.029 253.365 115.411 253.161 114.794C252.942 114.184 252.786 113.559 252.513 112.98C252.255 112.402 251.997 111.823 251.746 111.26C249.652 106.75 246.791 103.1 243.766 100.364C240.733 97.6123 237.536 95.7831 234.636 94.5715C233.901 94.2901 233.221 93.9462 232.517 93.7586C231.822 93.5553 231.149 93.3599 230.516 93.1723C229.883 92.9534 229.25 92.8909 228.663 92.7737C228.069 92.6642 227.507 92.5626 226.983 92.4688C225.912 92.3594 224.966 92.3125 224.145 92.2421C223.739 92.1952 223.364 92.2109 223.02 92.2265C222.676 92.2343 222.371 92.2499 222.09 92.2578C220.987 92.289 220.417 92.2968 220.417 92.2968L220.409 92.3125Z" fill="#263238"/>
<path d="M288.515 64.963C291.119 50.4037 281.427 36.4901 266.868 33.8862C252.308 31.2823 238.395 40.9741 235.791 55.5335C233.187 70.0928 242.879 84.0064 257.438 86.6103C271.997 89.2142 285.911 79.5224 288.515 64.963Z" fill="#92E3A9"/>
<g opacity="0.3">
<path d="M288.515 64.963C291.119 50.4037 281.427 36.4901 266.868 33.8862C252.308 31.2823 238.395 40.9741 235.791 55.5335C233.187 70.0928 242.879 84.0064 257.438 86.6103C271.997 89.2142 285.911 79.5224 288.515 64.963Z" fill="white"/>
</g>
<path d="M276.406 80.0182C288.954 72.1893 292.78 55.6702 284.951 43.1218C277.122 30.5733 260.603 26.7475 248.055 34.5764C235.506 42.4054 231.68 58.9244 239.509 71.4729C247.338 84.0213 263.857 87.8472 276.406 80.0182Z" fill="#92E3A9"/>
<path d="M280.058 59.2635C281.143 49.4154 274.04 40.552 264.192 39.4665C254.343 38.381 245.48 45.4844 244.395 55.3325C243.309 65.1806 250.413 74.044 260.261 75.1295C270.109 76.215 278.972 69.1116 280.058 59.2635Z" fill="white"/>
<path d="M271.007 57.5115C270.89 62.3579 266.856 66.1881 262.01 66.0709C257.164 65.9536 253.333 61.9201 253.451 57.0737C253.568 52.2273 257.601 48.3971 262.448 48.5143C267.294 48.6316 271.124 52.6651 271.007 57.5115Z" fill="#92E3A9"/>
<path d="M281.38 38.1647L280.794 32.435L286.758 26.3535L287.024 32.5288L281.38 38.1647Z" fill="#455A64"/>
<path d="M293.973 33.9281L288.087 33.3027L282.029 38.8448L287.93 39.6187L293.973 33.9281Z" fill="#455A64"/>
<g opacity="0.3">
<path d="M263.401 57.1985L284.264 42.0809C283.592 41.0256 282.74 39.9625 281.779 38.8916L263.44 55.8071L263.409 57.1985H263.401Z" fill="white"/>
</g>
<path d="M287.289 31.6768C284.444 34.3893 281.591 37.0939 278.746 39.8063C274.228 44.1055 269.709 48.4048 265.191 52.704C264.152 53.6889 263.112 54.6817 262.072 55.6666C261.088 56.6046 262.549 58.1289 263.542 57.1908C266.387 54.4784 269.24 51.7738 272.086 49.0614C276.604 44.7621 281.122 40.4629 285.64 36.1637C286.68 35.1788 287.719 34.186 288.759 33.2011C289.744 32.2631 288.282 30.7388 287.289 31.6768Z" fill="#263238"/>
<g opacity="0.2">
<path d="M236.949 157.036C236.613 149.328 235.214 141.629 233.502 133.96C233.104 132.264 232.705 130.568 232.306 128.88C231.892 127.199 231.415 125.542 230.97 123.877C230.11 120.547 229.125 117.279 228.124 114.051C226.201 107.555 223.262 99.6995 220.995 93.579C217.017 92.1563 211.936 91.9452 205.917 92.766L161.947 99.1132C152.919 107.962 144.602 114.802 137.731 119.859C137.637 119.249 137.543 118.647 137.457 118.038L99.7335 135.219C92.6436 139.643 88.9932 148.836 93.2455 159.435L97.4197 170.989L100.312 176.929C103.673 183.824 110.388 187.302 116.665 185.911L116.274 186.067C116.43 186.012 116.586 185.95 116.743 185.895C117.845 185.645 118.932 185.254 119.987 184.691C120.753 184.402 121.511 184.121 122.261 183.832L153.263 223.713C155.53 226.629 159.727 226.535 161.885 223.533L171.867 209.627C173.743 207.008 173.258 203.264 170.788 201.286C164.316 196.127 152.778 186.224 148.565 178.204C148.409 177.867 147.189 175.132 147.056 173.85C149.026 173.037 151.051 172.208 153.13 171.356C155.42 170.879 157.765 170.426 160.173 169.988C165.144 169.113 170.374 168.331 175.83 167.971C181.278 167.596 186.953 167.971 192.777 168.714C204.463 170.16 216.634 173.201 229.492 176.14L230.118 176.249L230.837 176.218C231.321 176.21 231.736 175.929 232.173 175.773C232.541 175.483 232.932 175.21 233.276 174.889L234.167 173.787C235.136 172.169 235.863 170.371 236.199 168.495C236.973 164.766 237.16 160.889 236.942 157.043L236.949 157.036Z" fill="white"/>
</g>
<path d="M108.496 130.591C108.496 130.591 124.278 124.588 148.784 103.85C166.7 88.6853 180.332 71.1444 186.367 62.8117C189.267 58.8095 194.692 57.8558 198.577 60.834C204.572 65.4303 213.225 77.4056 223.856 108.602C242.601 163.594 232.541 174.959 227.968 174.42C223.395 173.873 192.988 165.626 173.375 166.056C153.763 166.494 124.356 174.545 124.356 174.545L108.496 130.599V130.591Z" fill="#6D6D6D"/>
<path d="M108.496 130.591C108.496 130.591 108.598 130.849 108.785 131.35C108.973 131.858 109.246 132.6 109.606 133.577C110.325 135.547 111.38 138.439 112.756 142.199C115.492 149.719 119.471 160.686 124.489 174.491L124.333 174.412C132.923 172.13 142.726 169.847 153.622 168.003C159.071 167.104 164.8 166.306 170.788 165.994C176.783 165.665 183.013 166.111 189.376 166.893C195.739 167.69 202.251 168.847 208.895 170.183C212.217 170.848 215.578 171.575 218.963 172.325C220.659 172.7 222.363 173.076 224.075 173.451C224.935 173.638 225.795 173.818 226.655 173.99C227.085 174.076 227.514 174.139 227.944 174.209C228.359 174.24 228.773 174.217 229.172 174.076C229.977 173.826 230.665 173.255 231.235 172.607C231.798 171.942 232.244 171.176 232.627 170.387C233.361 168.776 233.799 167.033 234.096 165.259C234.675 161.702 234.651 158.036 234.432 154.37C233.932 147.03 232.486 139.651 230.688 132.288C229.07 125.675 227.131 119.226 225.076 112.918C223.012 106.609 220.823 100.45 218.455 94.4857C216.078 88.5214 213.554 82.737 210.646 77.2887C209.2 74.5685 207.636 71.9342 205.956 69.4328C204.267 66.9393 202.415 64.5786 200.289 62.5619C199.765 62.046 199.202 61.577 198.639 61.1236C198.366 60.8813 198.053 60.7093 197.764 60.4982C197.451 60.3263 197.146 60.1387 196.818 59.998C195.52 59.4273 194.082 59.1538 192.675 59.3101C191.276 59.4508 189.916 59.9276 188.774 60.7171L188.344 61.0142L187.946 61.3503C187.672 61.5613 187.438 61.8193 187.195 62.0694C186.734 62.5775 186.328 63.1403 185.913 63.7109C182.607 68.2291 179.238 72.497 175.861 76.5227C169.115 84.5818 162.346 91.6794 155.811 97.7687C142.632 109.846 130.735 118.202 122.222 123.416C117.954 126.011 114.515 127.824 112.146 128.966C110.966 129.544 110.044 129.943 109.426 130.208C108.801 130.474 108.48 130.584 108.48 130.584C108.598 130.529 108.848 130.419 109.411 130.169C110.028 129.896 110.935 129.481 112.115 128.887C114.468 127.723 117.892 125.886 122.144 123.275C126.389 120.656 131.462 117.24 137.129 112.98C138.536 111.909 140.013 110.815 141.483 109.619C142.968 108.446 144.5 107.235 146.04 105.937C149.159 103.397 152.348 100.591 155.616 97.5576C162.135 91.4605 168.873 84.3629 175.603 76.3038C178.972 72.2781 182.326 68.0102 185.624 63.4999C186.031 62.9371 186.445 62.3586 186.93 61.8271C187.18 61.5691 187.422 61.3034 187.704 61.0767L188.118 60.7249L188.563 60.4201C189.759 59.5993 191.174 59.099 192.636 58.9505C194.098 58.7864 195.606 59.0678 196.966 59.6618C197.31 59.8104 197.631 60.0058 197.951 60.1856C198.256 60.4044 198.584 60.592 198.858 60.8344C199.436 61.2956 200.007 61.7724 200.539 62.2961C202.696 64.3441 204.564 66.7204 206.261 69.2218C207.957 71.7388 209.52 74.373 210.974 77.1089C213.89 82.5729 216.422 88.3729 218.807 94.3449C221.183 100.325 223.379 106.484 225.443 112.8C227.499 119.116 229.445 125.573 231.063 132.202C232.861 139.581 234.315 146.975 234.815 154.354C235.042 158.036 235.058 161.734 234.471 165.329C234.167 167.127 233.721 168.901 232.963 170.559C232.564 171.372 232.103 172.169 231.509 172.865C230.907 173.552 230.172 174.162 229.273 174.451C228.835 174.608 228.343 174.647 227.882 174.6C227.444 174.522 226.998 174.459 226.561 174.373C225.693 174.201 224.825 174.021 223.973 173.834C222.262 173.459 220.557 173.076 218.861 172.708C215.469 171.958 212.123 171.231 208.801 170.559C202.165 169.222 195.661 168.057 189.314 167.252C182.967 166.463 176.76 166.009 170.788 166.33C164.816 166.635 159.102 167.424 153.654 168.307C142.773 170.129 132.963 172.396 124.38 174.655L124.262 174.686L124.223 174.576C119.252 160.717 115.304 149.711 112.6 142.168C111.255 138.408 110.223 135.516 109.52 133.546C109.176 132.577 108.91 131.834 108.738 131.334C108.566 130.834 108.48 130.591 108.48 130.591H108.496Z" fill="#6D6D6D"/>
<g opacity="0.3">
<path d="M220.542 111.847C230.328 141.183 233.252 166.791 227.061 169.042C220.87 171.301 207.918 149.344 198.123 120.008C188.337 90.6712 185.413 65.0634 191.604 62.8121C197.795 60.5531 210.747 82.5105 220.542 111.847Z" fill="white"/>
</g>
<path d="M192.964 102.74C192.964 102.74 207.691 94.9702 213.734 115.622C219.776 136.274 204.791 138.111 204.791 138.111C199.57 127.683 195.591 115.935 192.964 102.74Z" fill="white"/>
<path d="M93.6207 153.182L99.6787 174.318C100.46 177.039 103.056 178.821 105.87 178.578C107.8 178.414 109.684 179.196 110.919 180.689L145.665 222.446C148.088 225.362 152.591 225.268 154.896 222.266L165.582 208.36C167.591 205.742 167.075 201.998 164.425 200.02C156.577 194.165 141.749 182.221 139.279 173.834C137.707 168.495 137.911 165.876 138.567 164.602C139.435 162.929 139.662 160.998 138.919 159.271L133.557 146.741C132.556 144.396 130.156 142.957 127.616 143.176L98.7876 145.662C95.0824 145.982 92.5888 149.602 93.6128 153.182H93.6207Z" fill="#92E3A9"/>
<path opacity="0.3" d="M111.029 180.814L117.477 188.569L140.662 176.968C140.662 176.968 138.872 173.326 139.02 172.231L111.029 180.814Z" fill="white"/>
<path d="M81.4264 158.177L85.8976 169.73L88.9931 175.671C93.2376 183.816 102.508 187.216 110.075 183.417L149.933 168.409C138.012 153.542 131.587 136.024 128.741 116.779L88.3677 133.961C80.7776 138.385 76.8692 147.577 81.4264 158.177Z" fill="#92E3A9"/>
<path d="M125.107 135.07C125.224 135.351 117.884 138.822 108.715 142.824C99.5379 146.826 92.0025 149.836 91.8853 149.555C91.768 149.273 99.1002 145.802 108.277 141.8C117.446 137.798 124.982 134.789 125.107 135.07Z" fill="#263238"/>
<path d="M127.6 141.066C127.717 141.347 120.377 144.818 111.208 148.82C102.031 152.823 94.4961 155.832 94.3788 155.551C94.2616 155.269 101.594 151.799 110.771 147.796C119.94 143.794 127.475 140.785 127.6 141.066Z" fill="#263238"/>
<path d="M130.094 147.061C130.211 147.343 122.871 150.813 113.702 154.815C104.525 158.818 96.9975 161.827 96.8725 161.546C96.7552 161.264 104.087 157.794 113.264 153.791C122.433 149.789 129.969 146.78 130.094 147.061Z" fill="#263238"/>
<path d="M132.587 153.057C132.704 153.339 125.365 156.809 116.195 160.812C107.019 164.814 99.491 167.823 99.3659 167.542C99.2486 167.26 106.589 163.79 115.758 159.788C124.927 155.785 132.462 152.776 132.587 153.057Z" fill="#263238"/>
<path d="M149.94 168.401C149.94 168.401 149.8 168.487 149.511 168.612C149.182 168.745 148.76 168.917 148.252 169.136C147.103 169.59 145.524 170.223 143.585 170.989C139.646 172.536 134.197 174.678 128.155 176.984C122.113 179.298 116.61 181.299 112.607 182.683C110.606 183.378 108.98 183.918 107.847 184.277C107.315 184.441 106.886 184.582 106.542 184.684C106.245 184.77 106.08 184.817 106.08 184.801C106.08 184.785 106.229 184.723 106.518 184.606C106.854 184.481 107.276 184.324 107.792 184.129C108.957 183.707 110.552 183.12 112.506 182.409C116.485 180.963 121.972 178.915 128.007 176.601C134.025 174.311 139.474 172.239 143.476 170.715C145.43 169.996 147.025 169.41 148.189 168.988C148.713 168.808 149.143 168.652 149.479 168.542C149.776 168.44 149.933 168.401 149.94 168.409V168.401Z" fill="#263238"/>
<path d="M219.909 165.423C219.909 165.423 219.854 165.36 219.76 165.227C219.659 165.079 219.534 164.883 219.369 164.633C219.018 164.086 218.525 163.32 217.9 162.343C216.649 160.334 214.875 157.411 212.803 153.721C208.676 146.35 203.431 135.86 199.046 123.712C196.841 117.647 195.059 111.745 193.676 106.328C193.308 104.976 193.003 103.647 192.706 102.357C192.409 101.067 192.128 99.8165 191.846 98.6049C191.307 96.1817 190.791 93.9226 190.353 91.8512C189.47 87.7161 188.923 84.3314 188.657 81.9786C188.517 80.8061 188.438 79.8915 188.391 79.2661C188.376 78.9769 188.36 78.7424 188.345 78.5626C188.345 78.4063 188.337 78.3203 188.345 78.3203C188.345 78.3203 188.368 78.3985 188.384 78.5548L188.47 79.2583C188.54 79.8759 188.642 80.7904 188.806 81.9551C189.118 84.2923 189.712 87.6614 190.627 91.7808C191.096 93.8445 191.612 96.0957 192.167 98.5189C192.448 99.7305 192.745 100.981 193.042 102.263C193.347 103.553 193.66 104.874 194.027 106.218C195.434 111.62 197.217 117.498 199.413 123.556C203.791 135.68 208.981 146.17 213.038 153.565C215.07 157.262 216.805 160.209 218.017 162.241C218.611 163.234 219.088 164.016 219.416 164.571C219.565 164.821 219.682 165.024 219.776 165.18C219.854 165.321 219.893 165.392 219.885 165.399L219.909 165.423Z" fill="#263238"/>
<path d="M136.722 73.6844C125.505 73.6844 116.414 64.5935 116.414 53.3764C116.414 42.1593 125.505 33.0684 136.722 33.0684C147.94 33.0684 157.03 42.1593 157.03 53.3764C157.03 64.5935 147.94 73.6844 136.722 73.6844Z" fill="#455A64"/>
<path d="M136.723 44.2462C139.693 44.2462 140.045 44.254 141.225 44.3088C142.312 44.3557 142.898 44.5433 143.296 44.6918C143.812 44.895 144.188 45.1373 144.578 45.5282C144.969 45.919 145.212 46.2864 145.415 46.8101C145.571 47.201 145.751 47.795 145.798 48.8816C145.853 50.0541 145.86 50.4059 145.86 53.384C145.86 56.3622 145.853 56.7062 145.798 57.8865C145.751 58.9731 145.563 59.5593 145.415 59.958C145.212 60.4817 144.969 60.8491 144.578 61.2399C144.188 61.6308 143.82 61.8731 143.296 62.0763C142.906 62.2327 142.312 62.4124 141.225 62.4593C140.052 62.5141 139.701 62.5219 136.723 62.5219C133.744 62.5219 133.4 62.5141 132.22 62.4593C131.134 62.4124 130.547 62.2248 130.149 62.0763C129.633 61.8731 129.258 61.6308 128.867 61.2399C128.476 60.8491 128.234 60.4817 128.03 59.958C127.882 59.5671 127.694 58.9731 127.647 57.8865C127.593 56.714 127.585 56.3622 127.585 53.384C127.585 50.4059 127.593 50.0619 127.647 48.8816C127.694 47.795 127.882 47.2088 128.03 46.8101C128.234 46.2942 128.476 45.919 128.867 45.5282C129.258 45.1373 129.625 44.895 130.149 44.6918C130.539 44.5354 131.134 44.3557 132.22 44.3088C133.393 44.254 133.744 44.2462 136.723 44.2462ZM136.723 42.2373C133.697 42.2373 133.322 42.2529 132.134 42.3077C130.946 42.3624 130.141 42.55 129.429 42.8236C128.695 43.105 128.077 43.488 127.46 44.1055C126.842 44.723 126.459 45.3484 126.178 46.0754C125.904 46.7867 125.716 47.5918 125.662 48.78C125.607 49.9681 125.591 50.3433 125.591 53.3684C125.591 56.3935 125.607 56.7687 125.662 57.9569C125.716 59.145 125.904 59.9501 126.178 60.6615C126.459 61.3963 126.842 62.0138 127.46 62.6313C128.077 63.2488 128.703 63.6319 129.429 63.9133C130.141 64.1869 130.946 64.3745 132.134 64.4292C133.322 64.4839 133.697 64.4995 136.723 64.4995C139.748 64.4995 140.123 64.4839 141.311 64.4292C142.499 64.3745 143.304 64.1869 144.016 63.9133C144.75 63.6319 145.368 63.2488 145.985 62.6313C146.603 62.0138 146.986 61.3884 147.267 60.6615C147.541 59.9501 147.729 59.145 147.783 57.9569C147.838 56.7687 147.854 56.3935 147.854 53.3684C147.854 50.3433 147.838 49.9681 147.783 48.78C147.729 47.5918 147.541 46.7867 147.267 46.0754C146.986 45.3406 146.603 44.723 145.985 44.1055C145.368 43.488 144.743 43.105 144.016 42.8236C143.304 42.55 142.499 42.3624 141.311 42.3077C140.123 42.2529 139.748 42.2373 136.723 42.2373Z" fill="white"/>
<path d="M136.722 47.6543C133.565 47.6543 131.001 50.2182 131.001 53.3762C131.001 56.5342 133.565 59.0981 136.722 59.0981C139.88 59.0981 142.444 56.5342 142.444 53.3762C142.444 50.2182 139.88 47.6543 136.722 47.6543ZM136.722 57.0813C134.674 57.0813 133.01 55.4164 133.01 53.3684C133.01 51.3204 134.674 49.6554 136.722 49.6554C138.77 49.6554 140.435 51.3204 140.435 53.3684C140.435 55.4164 138.77 57.0813 136.722 57.0813Z" fill="white"/>
<path d="M144.008 47.4275C144.008 48.1623 143.406 48.7642 142.671 48.7642C141.936 48.7642 141.334 48.1623 141.334 47.4275C141.334 46.6927 141.936 46.0908 142.671 46.0908C143.406 46.0908 144.008 46.6927 144.008 47.4275Z" fill="white"/>
<path opacity="0.1" d="M208.316 215.192L203.407 204.585C202.509 202.646 204.048 200.457 206.182 200.653L217.822 201.708L229.461 202.763C231.595 202.959 232.713 205.382 231.478 207.133L224.739 216.685L218.001 226.237C216.766 227.988 214.109 227.746 213.21 225.799L208.301 215.192H208.316Z" fill="white"/>
<path d="M202.196 209.072L197.287 198.465C196.388 196.526 197.928 194.337 200.062 194.533L211.701 195.588L223.34 196.643C225.474 196.839 226.592 199.262 225.357 201.013L218.619 210.565L211.881 220.117C210.646 221.868 207.988 221.626 207.089 219.679L202.18 209.072H202.196Z" fill="#455A64"/>
<path d="M57.5176 165.137L11.9004 153.458C10.5412 153.11 9.15724 153.93 8.80926 155.289L0.630009 187.238C0.282032 188.597 1.10181 189.981 2.46102 190.329L48.0782 202.008C49.4374 202.356 50.8213 201.536 51.1693 200.177L59.3486 168.228C59.6966 166.869 58.8768 165.485 57.5176 165.137Z" fill="#92E3A9"/>
<path d="M56.6707 169.347C56.6707 169.347 56.4909 169.456 56.1313 169.628C55.7405 169.808 55.2168 170.05 54.5601 170.355C53.1531 170.988 51.1833 171.871 48.7679 172.95C46.3056 174.037 43.39 175.326 40.1538 176.757C38.5279 177.468 36.8238 178.219 35.0573 178.992C34.174 179.376 33.275 179.774 32.3605 180.173C31.4068 180.587 30.3046 180.689 29.265 180.439C28.2254 180.188 27.2874 179.594 26.6386 178.789C26.0289 178 25.427 177.218 24.8407 176.452C23.6682 174.92 22.5426 173.443 21.4639 172.036C19.3221 169.222 17.3913 166.681 15.7654 164.539C14.1708 162.421 12.881 160.693 11.9508 159.466C11.5287 158.888 11.1848 158.427 10.9268 158.075C10.7001 157.754 10.5829 157.582 10.5907 157.574C10.5985 157.567 10.7392 157.723 10.9894 158.028C11.2629 158.364 11.6225 158.817 12.0681 159.372C13.0217 160.584 14.3506 162.288 15.9843 164.367C17.6336 166.501 19.5878 169.018 21.7531 171.817C22.8396 173.224 23.973 174.693 25.1456 176.225C25.7318 176.984 26.3337 177.765 26.9434 178.547C27.5453 179.282 28.4052 179.829 29.3588 180.056C31.3286 180.618 33.1109 179.313 34.8931 178.641C36.6597 177.875 38.3716 177.132 39.9975 176.429C43.2414 175.029 46.1727 173.771 48.6507 172.708C51.0895 171.676 53.075 170.832 54.4976 170.23C55.162 169.956 55.6936 169.737 56.0922 169.573C56.4596 169.425 56.655 169.354 56.6629 169.37L56.6707 169.347Z" fill="#263238"/>
<path d="M23.9341 174.928C23.9888 175.029 19.7286 177.515 14.421 180.485C9.1056 183.456 4.75946 185.785 4.70474 185.691C4.65003 185.59 8.91018 183.104 14.2256 180.134C19.5332 177.163 23.8872 174.834 23.9419 174.928H23.9341Z" fill="#263238"/>
<path d="M36.4408 178.133C36.5425 178.078 39.0282 182.338 41.9986 187.646C44.969 192.961 47.2984 197.307 47.2046 197.362C47.1029 197.417 44.6172 193.157 41.6468 187.841C38.6764 182.534 36.347 178.18 36.4408 178.125V178.133Z" fill="#263238"/>
<path d="M324.646 194.665L354.272 150.523L299.749 152.063L308.332 166.563L305.987 176.882L315.68 179.563L324.646 194.665Z" fill="white"/>
<path opacity="0.3" d="M308.332 166.563L354.271 150.523L315.68 179.563L305.987 176.882L308.332 166.563Z" fill="white"/>
<path d="M305.987 176.881C305.933 176.779 316.696 170.8 330.032 163.522C343.367 156.245 354.217 150.421 354.272 150.523C354.326 150.624 343.563 156.604 330.227 163.882C316.892 171.159 306.042 176.983 305.987 176.881Z" fill="#263238"/>
<path d="M315.68 179.563C315.68 179.563 315.735 179.5 315.868 179.399C316.016 179.281 316.204 179.133 316.438 178.945C316.962 178.539 317.704 177.96 318.642 177.233C320.589 175.74 323.379 173.614 326.811 170.988C333.752 165.727 343.297 158.489 353.857 150.492L354.045 150.844L353.881 150.899C341.327 155.253 329.961 159.192 321.707 162.053C317.603 163.452 314.273 164.594 311.943 165.391C310.81 165.766 309.919 166.071 309.278 166.282L308.582 166.501C308.426 166.548 308.34 166.571 308.34 166.563C308.34 166.563 308.418 166.524 308.567 166.462L309.247 166.204C309.872 165.977 310.755 165.657 311.881 165.242C314.203 164.414 317.517 163.233 321.605 161.78C329.852 158.887 341.202 154.909 353.74 150.508L353.904 150.453C354.013 150.414 354.123 150.469 354.162 150.578C354.193 150.664 354.162 150.758 354.092 150.805C343.508 158.77 333.932 165.969 326.975 171.207C323.512 173.786 320.698 175.881 318.736 177.351C317.775 178.054 317.017 178.609 316.485 179.008C316.243 179.18 316.047 179.32 315.891 179.43C315.758 179.524 315.688 179.571 315.68 179.563Z" fill="#263238"/>
<path d="M324.646 194.665C324.646 194.665 324.591 194.587 324.49 194.423C324.38 194.243 324.232 193.993 324.036 193.68C323.622 193 323.028 192.015 322.262 190.749C320.698 188.146 318.424 184.378 315.571 179.633L315.649 179.688C312.772 178.898 309.513 178.007 305.948 177.03L305.807 176.991L305.839 176.85C306.55 173.693 307.332 170.214 308.168 166.525L308.192 166.65C305.565 162.225 302.657 157.332 299.593 152.157L299.429 151.876H299.757C307.902 151.634 316.806 151.376 326.069 151.11C336.027 150.836 345.571 150.57 354.279 150.328H354.655L354.444 150.625C345.728 163.531 338.278 174.56 333.002 182.385C330.376 186.254 328.289 189.334 326.85 191.452C326.147 192.492 325.6 193.289 325.217 193.852C325.037 194.11 324.896 194.313 324.794 194.462C324.701 194.595 324.654 194.665 324.654 194.657C324.654 194.657 324.701 194.571 324.794 194.43C324.896 194.274 325.037 194.063 325.217 193.789C325.592 193.219 326.139 192.39 326.842 191.327C328.273 189.178 330.337 186.066 332.94 182.15C338.153 174.333 345.517 163.304 354.123 150.406L354.287 150.703C345.579 150.953 336.043 151.227 326.076 151.508C316.813 151.766 307.91 152.017 299.765 152.243L299.921 151.954C302.978 157.137 305.87 162.038 308.489 166.47L308.52 166.532L308.504 166.603C307.66 170.284 306.863 173.771 306.136 176.921L306.026 176.741C309.575 177.734 312.843 178.648 315.711 179.446L315.758 179.461L315.782 179.508C318.564 184.253 320.769 188.021 322.293 190.624C323.043 191.921 323.63 192.922 324.036 193.618C324.232 193.954 324.38 194.212 324.49 194.399C324.591 194.579 324.646 194.673 324.646 194.673V194.665Z" fill="#263238"/>
<path d="M66.9654 134.406L21.5186 66.7051L105.15 69.0579L91.9869 91.3045L95.5826 107.141L80.7229 111.245L66.9654 134.406Z" fill="white"/>
<path opacity="0.3" d="M91.9869 91.3045L21.5186 66.7051L80.7229 111.245L95.5826 107.141L91.9869 91.3045Z" fill="white"/>
<path d="M95.5827 107.142C95.5279 107.244 78.9016 98.27 58.4529 87.1076C37.9964 75.9374 21.4639 66.8074 21.5186 66.7136C21.5733 66.6198 38.1918 75.5857 58.6483 86.7559C79.097 97.9182 95.6374 107.056 95.5827 107.15V107.142Z" fill="#263238"/>
<path d="M80.723 111.245C80.723 111.245 80.6136 111.174 80.4104 111.034C80.1915 110.877 79.8944 110.658 79.5114 110.377C78.7063 109.783 77.5494 108.923 76.0642 107.821C73.0704 105.577 68.7633 102.357 63.4401 98.3703C52.7936 90.3503 38.0981 79.2817 21.8626 67.0484C21.7766 66.9781 21.7532 66.853 21.8235 66.767C21.8782 66.6967 21.972 66.6654 22.0502 66.6967C22.1284 66.728 22.2143 66.7514 22.3003 66.7827C41.5531 73.5207 58.9767 79.6178 71.6086 84.0343C77.9012 86.2543 82.9899 88.06 86.5309 89.3107C88.274 89.936 89.642 90.4285 90.58 90.7646C91.0256 90.9287 91.3773 91.0616 91.6274 91.1554C91.8619 91.2414 91.9792 91.3039 91.9792 91.3039C91.9792 91.3039 91.8541 91.2727 91.6118 91.1945C91.3539 91.1085 91.0021 90.9913 90.5487 90.8428C89.6029 90.5223 88.2271 90.0533 86.4762 89.4592C82.9274 88.2398 77.8152 86.481 71.507 84.3079C58.8673 79.9149 41.428 73.8569 22.1596 67.1657L21.9095 67.0797L22.0971 66.728C38.3091 78.9925 52.9734 90.0923 63.6043 98.1436C68.8884 102.169 73.172 105.429 76.1502 107.696C77.6119 108.821 78.7532 109.697 79.5505 110.307C79.9257 110.604 80.2149 110.83 80.426 110.994C80.6214 111.151 80.7152 111.237 80.7152 111.237L80.723 111.245Z" fill="#263238"/>
<path d="M66.9655 134.405C66.9655 134.405 67.0436 134.257 67.2 133.991C67.3641 133.718 67.5908 133.319 67.8957 132.803C68.5132 131.756 69.4121 130.223 70.5768 128.23C72.914 124.251 76.3222 118.467 80.6136 111.182L80.637 111.135L80.6839 111.119C85.0848 109.892 90.0875 108.501 95.5436 106.984L95.4342 107.164C94.332 102.333 93.1126 96.9943 91.815 91.3349L91.7994 91.2646L91.8307 91.202C95.8407 84.4093 100.288 76.8895 104.979 68.9476L105.135 69.2369C92.6358 68.8851 78.9799 68.5099 64.7689 68.1112C49.4871 67.6735 34.8541 67.2592 21.503 66.8762L21.6672 66.5792C34.901 86.3713 46.2197 103.295 54.2319 115.278C58.2341 121.281 61.4155 126.049 63.5964 129.325C64.683 130.958 65.5194 132.217 66.0978 133.077C66.3792 133.499 66.5903 133.827 66.7388 134.054C66.8873 134.273 66.9576 134.398 66.9576 134.398C66.9576 134.398 66.8873 134.296 66.7388 134.085C66.5903 133.866 66.3714 133.553 66.0978 133.139C65.5194 132.287 64.683 131.052 63.5964 129.442C61.3999 126.19 58.2028 121.461 54.1772 115.504C46.1024 103.521 34.6977 86.5901 21.3545 66.7902L21.1434 66.4854H21.5108C34.8619 66.8684 49.5028 67.2748 64.7768 67.7048C78.9877 68.1112 92.6436 68.5021 105.143 68.8538H105.471L105.307 69.1431C100.601 77.0771 96.1455 84.589 92.1277 91.3818L92.1512 91.2568C93.4331 96.9161 94.6369 102.255 95.7312 107.094L95.7625 107.234L95.6218 107.273C90.1657 108.774 85.1551 110.15 80.7543 111.362L80.8324 111.307C76.4629 118.6 73 124.384 70.6159 128.363C69.4356 130.325 68.5288 131.842 67.9035 132.873C67.5986 133.374 67.3719 133.757 67.2078 134.03C67.0514 134.288 66.9733 134.405 66.9733 134.405H66.9655Z" fill="#263238"/>
<path d="M44.2811 225.096L5.83813 276.413L71.6008 277.968L62.1737 259.959L65.6444 247.678L54.1381 243.84L44.2811 225.096Z" fill="white"/>
<path opacity="0.3" d="M62.1736 259.959L5.83801 276.413L54.138 243.841L65.6443 247.679L62.1736 259.959Z" fill="white"/>
<path d="M65.6444 247.679C65.6913 247.78 52.3402 254.292 35.8312 262.226C19.3143 270.16 5.88504 276.507 5.83814 276.413C5.79124 276.312 19.1345 269.8 35.6514 261.866C52.1604 253.932 65.5897 247.585 65.6444 247.687V247.679Z" fill="#263238"/>
<path d="M54.138 243.841C54.138 243.841 54.0598 243.911 53.9035 244.028C53.7237 244.154 53.4892 244.325 53.1922 244.537C52.5434 244.99 51.6132 245.631 50.425 246.459C47.994 248.124 44.4999 250.516 40.1928 253.463C31.5162 259.357 19.5487 267.471 6.33049 276.452L6.15852 276.085L6.35394 276.03C21.753 271.567 35.6904 267.526 45.8053 264.594C50.8393 263.156 54.9275 261.984 57.7728 261.171C59.172 260.78 60.2664 260.475 61.0324 260.264C61.392 260.17 61.6734 260.092 61.8844 260.037C62.0798 259.99 62.1736 259.967 62.1815 259.975C62.1815 259.975 62.0877 260.014 61.9001 260.076C61.689 260.139 61.4154 260.233 61.0637 260.342C60.2976 260.577 59.2111 260.905 57.8275 261.327C54.99 262.171 50.9175 263.383 45.8991 264.876C35.792 267.838 21.8703 271.919 6.47901 276.429L6.28359 276.484C6.17416 276.515 6.06472 276.452 6.03346 276.343C6.01001 276.257 6.04127 276.163 6.11162 276.116C19.3611 267.182 31.3442 259.091 40.0443 253.229C44.3826 250.329 47.9002 247.976 50.3468 246.334C51.5506 245.537 52.4965 244.912 53.1609 244.474C53.4736 244.271 53.7159 244.114 53.8957 243.997C54.0598 243.896 54.1536 243.841 54.1536 243.849L54.138 243.841Z" fill="#263238"/>
<path d="M44.2811 225.096C44.2811 225.096 44.3358 225.19 44.4531 225.401C44.5703 225.619 44.7345 225.932 44.9533 226.331C45.4067 227.175 46.0555 228.394 46.8997 229.973C48.6116 233.194 51.1051 237.884 54.2475 243.778L54.1771 243.715C57.5853 244.841 61.4624 246.123 65.6913 247.522L65.832 247.569L65.7929 247.71C64.7376 251.462 63.5729 255.605 62.3379 259.998L62.3222 259.873C65.2066 265.368 68.3959 271.449 71.7727 277.867L71.9212 278.156H71.5929C61.7672 277.922 51.027 277.671 39.849 277.406C27.8346 277.116 16.3204 276.843 5.82247 276.585H5.44727L5.67395 276.28C16.9692 261.28 26.6229 248.452 33.4626 239.369C36.8629 234.859 39.5676 231.279 41.428 228.817C42.3425 227.605 43.0538 226.667 43.5463 226.026C43.7808 225.721 43.9606 225.487 44.0935 225.315C44.2185 225.158 44.2733 225.088 44.2733 225.088C44.2733 225.088 44.2107 225.182 44.0857 225.354C43.9528 225.533 43.773 225.776 43.5385 226.096C43.046 226.753 42.3425 227.714 41.428 228.949C39.5754 231.435 36.8864 235.054 33.5017 239.604C26.7246 248.687 17.1646 261.514 5.97881 276.515L5.83029 276.21C16.3282 276.452 27.8424 276.726 39.8568 276.999C51.027 277.265 61.7672 277.523 71.6008 277.757L71.4288 278.039C68.0676 271.613 64.8861 265.524 62.0174 260.021L61.9861 259.959L62.0017 259.896C63.2524 255.511 64.4249 251.368 65.488 247.616L65.5897 247.803C61.3686 246.389 57.4993 245.091 54.0912 243.942L54.0443 243.926L54.0208 243.879C50.9566 237.986 48.5256 233.303 46.8528 230.083C46.0242 228.473 45.3754 227.23 44.9377 226.378C44.7266 225.963 44.5625 225.643 44.4452 225.416C44.3358 225.197 44.2811 225.08 44.2811 225.08V225.096Z" fill="#263238"/>
<path d="M227.89 254.378L223.051 254.589L205.643 292.375L178.112 306.102L179.426 320.273C179.426 320.273 213.319 314.02 221.769 309.291C230.219 304.562 240.991 273.834 240.991 273.834C241.045 274.053 229.539 254.394 229.539 254.394" fill="#FFBF9D"/>
<path d="M179.723 288.912L176.197 285.199C175.517 284.762 174.72 284.543 173.915 284.566L162.737 284.902C160.626 285.113 158.727 286.262 157.562 288.037L153.497 294.955C153.497 294.955 150.762 299.692 151.113 300.841C151.637 302.576 153.474 302.224 153.474 302.224C153.474 302.224 153.865 304.413 154.592 304.859C155.811 305.601 157.304 305.031 157.304 305.031C157.711 305.867 158.578 306.43 159.508 306.359C159.696 306.344 159.892 306.312 160.087 306.25C161.416 305.851 162.01 303.28 162.01 303.28L167.677 302.232C167.677 302.232 175.814 307.673 178.691 311.245C181.56 314.809 189.079 312.089 189.079 312.089L191.893 298.644L179.731 288.912H179.723Z" fill="#FFBF9D"/>
<path d="M171.484 290.523C171.492 290.601 170.585 290.773 169.037 290.929C167.497 291.101 165.316 291.164 162.862 291.484L163.128 291.289C162.729 292.164 162.236 293.071 161.674 293.962C159.938 296.737 157.89 298.902 156.296 300.325C154.693 301.74 153.536 302.396 153.489 302.326C153.427 302.24 154.467 301.443 155.952 299.957C157.429 298.472 159.376 296.299 161.072 293.587C161.619 292.711 162.104 291.836 162.502 290.999L162.588 290.827L162.768 290.804C165.293 290.523 167.466 290.546 169.006 290.499C170.546 290.468 171.468 290.437 171.476 290.523H171.484Z" fill="#0D2C21"/>
<path d="M171.742 295.854C171.757 295.924 170.991 296.213 169.639 296.417C168.287 296.612 166.34 296.674 164.167 296.229L164.566 296.002C164.339 296.667 164.073 297.347 163.753 298.027C162.573 300.505 160.908 302.396 159.548 303.545C158.187 304.702 157.187 305.187 157.148 305.117C157.085 305.023 157.976 304.397 159.211 303.178C160.446 301.966 161.979 300.098 163.12 297.722C163.432 297.065 163.69 296.409 163.925 295.776L164.027 295.486L164.324 295.549C168.506 296.479 171.734 295.643 171.757 295.854H171.742Z" fill="#0D2C21"/>
<path d="M185.929 298.613C182.607 297.065 179.285 295.525 175.955 293.977C174.571 293.336 173.133 292.68 171.617 292.688C169.975 292.688 168.451 293.469 166.997 294.22C165.207 295.142 163.417 296.072 161.635 296.995C161.345 297.143 161.025 297.323 160.923 297.636C160.79 298.042 161.087 298.464 161.384 298.769C164.066 301.481 168.881 301.677 171.773 299.191C172.633 301.536 173.524 303.928 175.134 305.828C176.744 307.735 179.254 309.079 181.708 308.626" fill="#FFBF9D"/>
<path d="M181.708 308.633C181.708 308.633 181.622 308.68 181.442 308.719C181.262 308.766 180.989 308.798 180.629 308.813C179.918 308.829 178.831 308.696 177.628 308.086C176.432 307.492 175.126 306.413 174.094 304.866C173.039 303.326 172.258 301.387 171.484 299.3L171.984 299.433C170.514 300.731 168.373 301.419 166.176 301.247C165.082 301.168 163.964 300.871 162.94 300.34C162.44 300.058 161.939 299.746 161.502 299.347C161.283 299.144 161.056 298.964 160.861 298.691C160.673 298.433 160.47 298.057 160.579 297.604C160.665 297.237 160.954 297.002 161.173 296.861C161.408 296.713 161.611 296.619 161.822 296.51C162.236 296.291 162.651 296.08 163.065 295.869C163.886 295.447 164.699 295.024 165.496 294.618C167.091 293.828 168.599 292.898 170.303 292.523C172.023 292.109 173.711 292.64 175.032 293.242C176.385 293.86 177.596 294.454 178.722 294.993C180.879 296.048 182.662 296.916 184.03 297.581C185.273 298.206 185.953 298.573 185.937 298.62C185.913 298.667 185.194 298.378 183.912 297.831C182.521 297.213 180.707 296.416 178.511 295.447C177.362 294.931 176.127 294.376 174.798 293.782C173.477 293.219 171.976 292.773 170.436 293.164C168.896 293.516 167.411 294.43 165.809 295.235C165.011 295.65 164.206 296.072 163.378 296.502C162.963 296.713 162.549 296.932 162.135 297.143C161.713 297.362 161.267 297.573 161.251 297.784C161.166 298.042 161.549 298.503 161.963 298.831C162.354 299.191 162.807 299.48 163.26 299.738C164.191 300.223 165.215 300.496 166.223 300.582C168.24 300.754 170.217 300.129 171.57 298.972L171.914 298.675L172.062 299.105C172.805 301.2 173.539 303.099 174.517 304.6C175.47 306.109 176.666 307.156 177.792 307.781C180.09 309.04 181.724 308.532 181.7 308.657L181.708 308.633Z" fill="#0D2C21"/>
<path d="M319.534 172.333C320.143 164.75 321.847 157.262 322.074 149.656C322.301 142.05 320.839 134.015 315.915 128.215C310.99 122.415 301.938 119.71 295.45 123.681L293.738 130.052C294.192 159.49 291.839 189.209 292.292 218.647C292.355 222.517 295.239 226.206 296.748 229.763C298.264 233.319 301.579 236.399 305.448 236.423C310.505 236.454 314.164 231.568 316.055 226.878C322.918 209.869 318.072 190.608 319.534 172.325V172.333Z" fill="#263238"/>
<path d="M303.947 131.732C302.97 129.778 301.969 127.801 300.445 126.237C298.921 124.674 296.771 123.572 294.606 123.837C293.59 123.963 292.527 124.463 292.12 125.409C291.714 126.354 292.355 127.691 293.379 127.675L293.582 127.879C295.716 130.044 297.897 132.17 300.117 134.242C300.672 134.765 301.258 135.297 301.969 135.57C302.689 135.844 303.58 135.797 304.119 135.266C305.018 134.374 304.51 132.866 303.939 131.732H303.947Z" fill="#92E3A9"/>
<path d="M307.73 139.471C300.789 129.708 290.995 123.697 279.058 122.689C272.328 122.118 269.444 123.33 264.504 124.315C259.563 125.292 255.006 127.598 251.833 131.514C248.065 136.165 244.805 141.433 243.75 147.319C242.671 153.37 242.726 159.365 243.555 164.36C244.555 170.426 248.034 179.829 251.301 185.035L261.557 186.997C270.132 187.873 278.824 188.748 287.329 187.357C295.833 185.966 304.275 182.01 309.255 174.975C316.173 165.204 314.664 149.227 307.723 139.471H307.73Z" fill="#263238"/>
<path d="M293.887 138.431L273.704 128.777L268.24 129.043C256.046 128.261 246.72 141.136 245.97 151.008C245.134 161.975 244.555 175.397 245.743 183.604C248.143 200.106 261.932 202.404 261.932 202.404C261.932 202.404 261.056 211.049 260.587 216.505L292.503 216.364L298.991 144.38C299.093 141.37 296.873 138.791 293.887 138.439V138.431Z" fill="#FFBF9D"/>
<path d="M270.397 181.447C270.343 180.579 269.921 179.789 269.342 179.227C268.201 178.101 266.426 177.882 265.066 178.687C263.706 179.5 262.839 181.29 262.964 183.018C263.628 184.073 264.699 184.823 265.926 185.019C266.114 185.05 266.309 185.066 266.505 185.074C267.443 185.113 268.42 184.863 269.178 184.222C269.944 183.581 270.46 182.517 270.39 181.447H270.397Z" fill="#0D2C21"/>
<path d="M249.402 166.001C249.347 167.119 250.246 168.08 251.41 168.159C252.567 168.237 253.56 167.4 253.615 166.283C253.67 165.165 252.771 164.203 251.606 164.125C250.441 164.047 249.456 164.891 249.402 166.001Z" fill="#263238"/>
<path d="M249.316 156.746C249.574 157.028 251.192 155.863 253.458 155.894C255.725 155.894 257.382 157.09 257.633 156.809C257.758 156.684 257.492 156.184 256.773 155.652C256.061 155.113 254.85 154.589 253.435 154.573C252.02 154.566 250.824 155.066 250.129 155.59C249.425 156.113 249.183 156.614 249.308 156.739L249.316 156.746Z" fill="#263238"/>
<path d="M262.659 175.491C262.674 175.366 261.26 175.1 258.977 174.78C258.399 174.71 257.851 174.592 257.758 174.194C257.625 173.771 257.875 173.154 258.164 172.482C258.727 171.083 259.321 169.621 259.939 168.081C262.401 161.82 264.199 156.668 263.941 156.575C263.691 156.481 261.486 161.476 259.016 167.737C258.422 169.285 257.851 170.754 257.312 172.161C257.085 172.818 256.695 173.56 256.984 174.436C257.132 174.874 257.554 175.194 257.93 175.296C258.297 175.413 258.625 175.421 258.915 175.444C261.213 175.601 262.643 175.624 262.659 175.499V175.491Z" fill="#263238"/>
<path d="M261.908 202.381C261.908 202.381 272.977 203.241 284.038 196.784C284.038 196.784 278.011 208.126 261.549 206.368L261.901 202.381H261.908Z" fill="#0D2C21"/>
<path d="M269.327 177.149C268.959 177.125 268.92 179.587 266.786 181.315C264.66 183.042 262.034 182.73 262.01 183.074C261.971 183.23 262.588 183.558 263.698 183.605C264.785 183.66 266.38 183.324 267.685 182.276C268.99 181.221 269.561 179.791 269.655 178.782C269.764 177.75 269.499 177.141 269.327 177.149Z" fill="#263238"/>
<path d="M250.621 148.867C250.996 149.43 252.739 149.078 254.772 149.273C256.812 149.406 258.477 150.024 258.93 149.531C259.133 149.289 258.914 148.75 258.219 148.179C257.531 147.616 256.335 147.085 254.936 146.975C253.537 146.866 252.278 147.194 251.52 147.648C250.746 148.101 250.449 148.601 250.613 148.875L250.621 148.867Z" fill="#263238"/>
<path d="M272.594 166.611C272.578 167.729 271.617 168.636 270.452 168.636C269.288 168.636 268.357 167.745 268.373 166.627C268.389 165.509 269.35 164.603 270.515 164.603C271.679 164.603 272.61 165.501 272.594 166.611Z" fill="#263238"/>
<path d="M280.012 157.95C279.739 158.208 278.199 156.949 275.924 156.84C273.657 156.699 271.93 157.786 271.703 157.489C271.586 157.356 271.883 156.879 272.633 156.386C273.376 155.894 274.619 155.448 276.033 155.527C277.448 155.605 278.613 156.183 279.27 156.754C279.942 157.324 280.153 157.832 280.02 157.95H280.012Z" fill="#263238"/>
<path d="M279.144 150.602C278.675 151.095 276.948 150.469 274.845 150.344C272.743 150.149 270.937 150.493 270.554 149.938C270.39 149.664 270.695 149.164 271.5 148.718C272.289 148.273 273.595 147.937 275.041 148.046C276.487 148.163 277.714 148.687 278.418 149.258C279.137 149.828 279.356 150.368 279.144 150.61V150.602Z" fill="#263238"/>
<path d="M294.301 171.754C294.317 170.527 295.779 167.658 296.99 167.478C300.234 167.017 306.058 167.353 306.003 175.568C305.933 186.793 294.676 184.409 294.653 184.089C294.637 183.839 294.231 175.991 294.301 171.754Z" fill="#FFBF9D"/>
<path d="M297.78 180.001C297.827 179.962 297.975 180.142 298.303 180.29C298.624 180.439 299.179 180.548 299.765 180.329C300.953 179.899 301.962 178.023 302.032 175.999C302.071 174.975 301.86 174.005 301.5 173.193C301.164 172.372 300.633 171.793 300.039 171.684C299.445 171.543 299.023 171.895 298.882 172.215C298.725 172.528 298.796 172.755 298.741 172.77C298.71 172.802 298.499 172.583 298.593 172.122C298.64 171.895 298.772 171.637 299.038 171.418C299.312 171.199 299.703 171.09 300.125 171.137C300.992 171.199 301.766 172.004 302.157 172.888C302.595 173.779 302.853 174.873 302.814 176.022C302.728 178.281 301.555 180.392 299.929 180.853C299.14 181.056 298.483 180.814 298.139 180.54C297.795 180.259 297.733 180.009 297.772 179.993L297.78 180.001Z" fill="#0D2C21"/>
<path d="M297.443 167.541L294.403 170.293C282.928 157.716 260.947 126.683 262.166 128.528C262.166 128.528 270.804 125.643 279.824 127.816C288.845 129.989 305.839 135.727 304.838 146.475C303.845 157.215 297.443 167.541 297.443 167.541Z" fill="#263238"/>
<path d="M313.859 166.18C313.859 166.18 313.835 165.954 313.734 165.524C313.632 165.094 313.429 164.476 313.093 163.71C312.413 162.186 311.06 160.091 308.778 158.137C306.527 156.136 303.345 154.408 299.679 152.97C296.021 151.5 291.87 150.265 287.852 148.21C283.803 146.216 280.239 143.762 277.221 141.268C274.22 138.759 271.773 136.203 269.889 133.921C267.998 131.638 266.653 129.653 265.746 128.261C265.332 127.605 264.996 127.065 264.73 126.643C264.496 126.276 264.363 126.088 264.347 126.096C264.332 126.104 264.425 126.315 264.629 126.698C264.84 127.081 265.129 127.659 265.559 128.378C266.411 129.809 267.716 131.841 269.577 134.171C271.437 136.5 273.876 139.111 276.885 141.667C279.91 144.2 283.506 146.701 287.594 148.71C291.667 150.797 295.849 152.016 299.484 153.455C303.134 154.854 306.277 156.511 308.52 158.434C310.795 160.318 312.17 162.327 312.897 163.796C313.624 165.282 313.812 166.188 313.867 166.173L313.859 166.18Z" fill="#455A64"/>
<path d="M310.49 167.721C310.49 167.721 310.662 166.814 310.224 165.251C309.802 163.695 308.622 161.546 306.378 159.701C304.158 157.801 300.899 156.496 297.295 155.41C293.668 154.346 289.752 153.041 285.953 150.946C282.154 148.867 278.793 146.428 276.049 143.864C273.29 141.316 271.101 138.721 269.436 136.415C267.748 134.124 266.645 132.092 265.856 130.716C265.512 130.052 265.238 129.512 265.012 129.083C264.816 128.715 264.699 128.52 264.683 128.528C264.668 128.535 264.746 128.746 264.91 129.129C265.105 129.575 265.356 130.13 265.66 130.81C266.395 132.225 267.451 134.304 269.108 136.641C270.749 138.994 272.922 141.644 275.689 144.239C278.441 146.85 281.841 149.336 285.679 151.439C289.517 153.557 293.527 154.878 297.146 155.91C300.75 156.965 303.947 158.2 306.128 160.006C308.34 161.765 309.544 163.813 310.013 165.306C310.513 166.806 310.419 167.721 310.498 167.713L310.49 167.721Z" fill="#455A64"/>
<path d="M295.794 186.45C295.794 186.371 296.756 186.317 298.436 185.996C300.109 185.652 302.509 184.8 304.932 182.924C307.379 181.079 309.638 178.101 311.349 174.427C313.054 170.746 314.218 166.36 314.648 161.694C314.851 159.357 314.828 157.066 314.57 154.878C314.281 152.689 313.773 150.617 313.124 148.694C311.779 144.856 309.856 141.683 307.941 139.283C304.088 134.444 300.742 132.381 300.883 132.232C300.898 132.209 301.102 132.334 301.477 132.6C301.844 132.865 302.423 133.233 303.095 133.788C304.463 134.859 306.362 136.555 308.348 138.963C310.341 141.362 312.35 144.567 313.765 148.476C314.445 150.438 314.976 152.556 315.281 154.799C315.555 157.043 315.586 159.396 315.383 161.78C314.945 166.532 313.734 170.988 311.959 174.74C310.185 178.484 307.808 181.517 305.245 183.362C302.704 185.246 300.211 186.035 298.483 186.301C297.623 186.481 296.935 186.434 296.482 186.481C296.021 186.504 295.786 186.496 295.786 186.473L295.794 186.45Z" fill="#455A64"/>
<path d="M260.837 212.637L292.519 209.213L298.319 214.489L275.705 227.786L265.723 232.952L255.874 229.959L252.747 224.088L260.837 212.637Z" fill="#FFBF9D"/>
<path d="M218.142 251.205C218.142 251.205 228.069 232.147 230.532 227.981C234.722 220.883 242.538 216.865 242.538 216.865L260.837 212.629C260.837 212.629 258.938 221.798 270.327 222.431C284.812 223.236 293.809 209.346 293.809 209.346C293.809 209.346 310.333 211.05 314.898 212.965C319.463 214.88 332.369 220.281 334.268 237.447L338.693 265.47L303.775 268.128L304.26 305.438L321.441 334.829H237.168C238.489 335.18 243.132 315.552 240.084 300.044L234.331 286.083C232.033 280.494 230.602 274.569 230.258 268.534C230.031 264.564 230.141 261.554 230.141 261.554C230.141 261.554 221.183 258.474 218.134 251.197L218.142 251.205Z" fill="#92E3A9"/>
<path d="M245.649 318.562L304.189 300.99L303.775 268.136L333.588 265.861C333.588 265.861 331.212 282.886 330.86 291.61C330.36 304.164 324.318 321.712 320.284 325.433C316.243 329.162 244.102 333.203 244.102 333.203L245.657 318.546L245.649 318.562Z" fill="#FFBF9D"/>
<path d="M212.452 328.896C212.936 329.693 213.851 330.17 214.765 330.014C214.945 329.983 215.141 329.928 215.336 329.85C216.618 329.326 216.29 326.653 216.29 326.653L222.52 325.136C222.52 325.136 231.134 329.795 234.323 333.07C237.512 336.353 244.743 332.937 244.743 332.937L246.283 319.289L233.854 309.682C233.854 309.682 234.612 310.253 233.666 308.354C232.713 306.454 229.125 307.478 229.125 307.478C228.484 306.548 226.068 306.384 226.068 306.384L215.969 308.346C213.89 308.752 212.1 310.073 211.115 311.949L207.332 319.102C207.332 319.102 205.44 324.19 205.893 325.3C206.581 326.981 208.371 326.457 208.371 326.457C208.371 326.457 209.122 329.647 209.981 329.693C210.841 329.74 212.459 328.896 212.459 328.896H212.452Z" fill="#FFBF9D"/>
<path d="M233.385 317.554C233.385 317.663 232.017 317.64 229.852 317.906C227.686 318.179 224.716 318.797 221.66 320.102C220.135 320.751 218.736 321.501 217.517 322.267C216.336 323.057 215.101 323.721 214.773 324.651C214.609 325.105 214.734 325.543 214.976 325.855C215.219 326.168 215.524 326.363 215.797 326.449C216.352 326.629 216.68 326.449 216.704 326.512C216.727 326.527 216.407 326.817 215.735 326.692C215.406 326.629 215.023 326.449 214.695 326.09C214.367 325.754 214.14 325.12 214.328 324.511C214.5 323.901 214.976 323.401 215.484 322.979C216.008 322.572 216.563 322.158 217.181 321.759C218.408 320.946 219.831 320.165 221.394 319.5C224.521 318.156 227.593 317.601 229.797 317.444C232.017 317.296 233.385 317.483 233.377 317.554H233.385Z" fill="#0D2C21"/>
<path d="M234.604 323.994C234.604 324.19 230.446 324.338 225.38 325.026C220.307 325.698 216.258 326.66 216.211 326.472C216.188 326.386 217.181 326.042 218.814 325.62C220.448 325.198 222.738 324.721 225.294 324.377C227.851 324.033 230.188 323.885 231.876 323.862C233.565 323.83 234.612 323.908 234.612 323.994H234.604Z" fill="#0D2C21"/>
<path d="M212.491 328.63C212.491 328.63 212.381 328.255 212.28 327.551C212.186 326.855 212.061 325.839 212.045 324.565C212.045 323.932 212.053 323.228 212.17 322.478C212.272 321.72 212.569 320.907 212.999 320.18C213.812 318.718 214.976 317.178 216.516 315.974C218.048 314.778 219.596 313.754 221.198 313.137C222.785 312.519 224.294 312.277 225.545 312.129C226.803 311.988 227.819 311.933 228.523 311.91C229.226 311.886 229.617 311.894 229.617 311.933C229.633 312.035 228.077 312.207 225.607 312.582C224.38 312.793 222.918 313.074 221.417 313.692C219.924 314.302 218.408 315.326 216.923 316.482C215.438 317.655 214.351 319.062 213.515 320.485C212.631 321.845 212.561 323.338 212.506 324.573C212.452 327.059 212.639 328.622 212.498 328.63H212.491Z" fill="#0D2C21"/>
<path d="M225.771 309.01C225.779 309.103 224.255 309.268 221.847 309.737C219.534 310.276 215.789 310.737 213.905 314.137C211.818 317.256 210.067 320.18 209.38 322.525C208.645 324.854 208.848 326.418 208.707 326.41C208.676 326.41 208.582 326.035 208.567 325.331C208.543 324.635 208.614 323.604 208.934 322.392C209.528 319.93 211.263 316.897 213.358 313.762C213.898 312.973 214.484 312.222 215.187 311.605C215.883 310.979 216.72 310.581 217.493 310.292C219.065 309.713 220.534 309.463 221.761 309.268C224.224 308.908 225.764 308.916 225.764 308.994L225.771 309.01Z" fill="#0D2C21"/>
<path d="M231.931 331.077C231.931 331.077 231.696 330.952 231.29 330.663C230.829 330.342 230.227 329.936 229.476 329.428C227.882 328.38 225.513 326.895 222.426 325.332L222.574 325.347C220.714 325.816 218.619 326.34 216.352 326.911L216.547 326.629C216.602 327.145 216.61 327.646 216.547 328.177C216.485 328.701 216.36 329.264 215.953 329.748C215.742 329.983 215.414 330.139 215.148 330.194C214.875 330.288 214.57 330.342 214.265 330.311C213.655 330.272 213.069 329.998 212.631 329.561C212.522 329.451 212.42 329.334 212.326 329.209L212.264 329.115L212.233 329.068L212.217 329.045C212.131 329.014 212.944 329.24 212.6 329.146H212.584L212.389 329.256C212.131 329.381 211.865 329.498 211.599 329.608C211.326 329.717 211.052 329.811 210.755 329.889C210.607 329.928 210.458 329.959 210.294 329.975C210.138 329.991 209.958 330.014 209.7 329.905C209.325 329.678 209.176 329.389 209.02 329.115C208.871 328.842 208.746 328.56 208.637 328.271C208.418 327.7 208.246 327.122 208.09 326.52L208.481 326.747C207.675 326.958 206.69 326.833 206.065 326.129C205.784 325.801 205.541 325.387 205.534 324.894C205.518 324.449 205.588 324.058 205.659 323.659C205.979 322.08 206.487 320.548 207.05 318.985V318.969L207.066 318.946C207.707 317.726 208.387 316.436 209.082 315.131C209.512 314.318 209.934 313.513 210.364 312.716C210.794 311.942 211.162 311.074 211.787 310.355C212.389 309.644 213.139 309.065 213.952 308.659C214.765 308.229 215.695 308.065 216.508 307.916C219.854 307.275 223.043 306.665 226.029 306.095H226.107C226.709 306.142 227.264 306.243 227.827 306.4C228.374 306.572 228.953 306.767 229.367 307.306L229.007 307.22C230.055 306.697 231.298 306.595 232.29 307.15C233.291 307.697 233.799 308.674 234.112 309.604L234.026 309.479C237.59 312.223 240.506 314.459 242.585 316.061C243.547 316.819 244.313 317.421 244.899 317.882C245.423 318.305 245.688 318.539 245.681 318.555C245.665 318.57 245.368 318.383 244.821 317.992C244.219 317.562 243.429 316.991 242.437 316.272C240.326 314.717 237.371 312.536 233.744 309.862L233.69 309.816L233.658 309.73C233.377 308.909 232.877 308.025 232.056 307.603C231.259 307.15 230.164 307.252 229.289 307.697L229.07 307.807L228.921 307.611C228.679 307.291 228.171 307.072 227.671 306.931C227.163 306.79 226.615 306.697 226.068 306.65H226.146C223.168 307.236 219.979 307.861 216.633 308.518C215.781 308.682 214.984 308.823 214.241 309.214C213.499 309.581 212.827 310.105 212.279 310.754C211.724 311.379 211.373 312.192 210.935 312.997C210.513 313.794 210.083 314.607 209.661 315.412C208.973 316.718 208.285 318.008 207.644 319.227L207.66 319.188C207.113 320.712 206.597 322.244 206.292 323.753C206.221 324.128 206.159 324.511 206.167 324.847C206.159 325.136 206.323 325.441 206.534 325.691C206.941 326.184 207.691 326.285 208.301 326.137L208.613 326.059L208.692 326.364C208.832 326.934 208.996 327.505 209.2 328.044C209.395 328.552 209.669 329.17 209.966 329.357C209.981 329.357 210.091 329.389 210.224 329.365C210.349 329.357 210.474 329.326 210.607 329.295C210.865 329.232 211.123 329.139 211.381 329.045C211.638 328.943 211.889 328.834 212.131 328.717L212.311 328.631H212.326C211.982 328.529 212.795 328.748 212.709 328.732L212.725 328.756L212.748 328.795L212.795 328.873C212.866 328.974 212.944 329.068 213.03 329.154C213.374 329.498 213.835 329.717 214.296 329.748C214.531 329.772 214.757 329.733 214.984 329.655C215.234 329.6 215.398 329.514 215.539 329.365C216.094 328.693 216.094 327.567 216.024 326.676L216.008 326.442L216.219 326.395C218.494 325.856 220.597 325.363 222.457 324.918L222.535 324.902L222.605 324.941C225.701 326.575 228.038 328.115 229.601 329.225C230.383 329.787 230.969 330.241 231.352 330.561C231.735 330.882 231.931 331.054 231.923 331.069L231.931 331.077Z" fill="#0D2C21"/>
<path d="M139.099 332.687L116.969 274.577C116.133 272.388 117.751 270.043 120.088 270.043H191.143C192.441 270.043 193.621 270.793 194.168 271.966L215.445 327.395L260.079 328.153C261.924 328.153 263.417 329.646 263.417 331.491C263.417 333.336 261.924 334.829 260.079 334.829H142.218C140.834 334.829 139.591 333.969 139.099 332.679V332.687Z" fill="#455A64"/>
<path d="M169.17 302.443C169.17 305.015 167.083 307.102 164.511 307.102C161.939 307.102 159.852 305.015 159.852 302.443C159.852 299.871 161.939 297.784 164.511 297.784C167.083 297.784 169.17 299.871 169.17 302.443Z" fill="white"/>
<path d="M239.185 230.154C239.287 230.209 238.341 231.983 237.004 234.946C235.667 237.901 234.018 242.075 232.681 246.835C231.36 251.604 230.61 256.028 230.219 259.248C229.828 262.469 229.719 264.478 229.602 264.478C229.555 264.478 229.531 263.97 229.531 263.063C229.531 262.148 229.586 260.827 229.719 259.201C229.985 255.95 230.657 251.463 231.994 246.656C233.338 241.848 235.081 237.666 236.543 234.743C237.27 233.281 237.903 232.124 238.38 231.342C238.849 230.561 239.13 230.139 239.177 230.162L239.185 230.154Z" fill="#263238"/>
<path d="M338.693 265.478C338.693 265.478 338.443 265.541 337.973 265.588C337.434 265.642 336.738 265.713 335.879 265.791C333.971 265.947 331.329 266.174 328.054 266.448C321.308 266.956 311.983 267.659 301.289 268.464L300.945 268.488L300.922 268.144C300.695 264.587 300.461 260.835 300.218 256.981C299.835 250.259 299.515 243.857 299.413 238.026C299.108 232.155 300.547 226.801 302.845 222.994C305.12 219.125 308.145 216.881 310.349 215.787C311.475 215.255 312.374 214.904 313.007 214.755C313.632 214.575 313.968 214.497 313.968 214.521C313.999 214.614 312.639 214.888 310.474 216.029C308.34 217.186 305.448 219.437 303.275 223.244C301.078 227.012 299.726 232.21 300.062 238.01C300.203 243.826 300.547 250.228 300.922 256.942C301.156 260.796 301.391 264.548 301.61 268.097L301.242 267.776C311.936 267.073 321.269 266.455 328.023 266.002C331.306 265.814 333.948 265.658 335.863 265.549C336.731 265.51 337.426 265.478 337.966 265.455C338.443 265.439 338.693 265.447 338.7 265.463L338.693 265.478Z" fill="#263238"/>
<path d="M273.047 288.303C273.024 288.35 272.617 288.194 271.875 287.873C271.5 287.717 271.054 287.514 270.569 287.217C270.077 286.927 269.491 286.63 268.912 286.2C267.708 285.411 266.387 284.301 265.059 282.933C263.761 281.534 262.471 279.869 261.369 277.962C260.29 276.039 259.516 274.077 258.985 272.24C258.492 270.395 258.211 268.691 258.149 267.253C258.07 266.533 258.117 265.885 258.125 265.314C258.125 264.743 258.172 264.251 258.235 263.852C258.336 263.055 258.414 262.625 258.461 262.625C258.602 262.641 258.375 264.399 258.649 267.206C258.774 268.613 259.102 270.262 259.618 272.052C260.173 273.826 260.947 275.726 261.994 277.602C263.065 279.462 264.308 281.096 265.551 282.48C266.825 283.84 268.076 284.958 269.217 285.786C271.492 287.459 273.118 288.162 273.063 288.295L273.047 288.303Z" fill="#263238"/>
</svg>
