<svg width="339" height="335" viewBox="0 0 339 335" fill="none" xmlns="http://www.w3.org/2000/svg">
<g opacity="0.3">
<path d="M74.3016 78.791L75.8629 83.5917H80.9116L76.826 86.561L78.3873 91.3617L74.3016 88.3923L70.216 91.3617L71.7773 86.561L67.6917 83.5917H72.7403L74.3016 78.791Z" stroke="black" stroke-miterlimit="10"/>
<path d="M90.6223 78.791L92.1836 83.5917H97.2323L93.1467 86.561L94.708 91.3617L90.6223 88.3923L86.5367 91.3617L88.098 86.561L84.0123 83.5917H89.061L90.6223 78.791Z" stroke="black" stroke-miterlimit="10"/>
<path d="M106.943 78.791L108.504 83.5917H113.553L109.467 86.561L111.029 91.3617L106.943 88.3923L102.857 91.3617L104.419 86.561L100.333 83.5917H105.382L106.943 78.791Z" stroke="black" stroke-miterlimit="10"/>
<path d="M123.264 78.791L124.825 83.5917H129.874L125.788 86.561L127.349 91.3617L123.264 88.3923L119.178 91.3617L120.739 86.561L116.654 83.5917H121.702L123.264 78.791Z" stroke="black" stroke-miterlimit="10"/>
<path d="M139.592 78.791L141.146 83.5917H146.194L142.109 86.561L143.67 91.3617L139.592 88.3923L135.506 91.3617L137.067 86.561L132.982 83.5917H138.03L139.592 78.791Z" stroke="black" stroke-miterlimit="10"/>
<path d="M122.41 74.1582H145.027C146.478 74.1582 147.87 74.7347 148.896 75.7609C149.922 76.787 150.499 78.1788 150.499 79.63V92.0329C150.499 93.4841 149.922 94.8759 148.896 95.9021C147.87 96.9282 146.478 97.5047 145.027 97.5047H101.763" stroke="black" stroke-miterlimit="10"/>
<path d="M111.328 74.1582H118.383" stroke="black" stroke-miterlimit="10"/>
<path d="M97.9692 97.5047H67.677C66.2258 97.5047 64.834 96.9282 63.8079 95.9021C62.7817 94.8759 62.2052 93.4841 62.2052 92.0329V79.63C62.2052 78.1788 62.7817 76.787 63.8079 75.7609C64.834 74.7347 66.2258 74.1582 67.677 74.1582H106.038" stroke="black" stroke-miterlimit="10"/>
</g>
<g opacity="0.3">
<path d="M46.3659 243.932L48.7298 248.397L53.6982 247.528L50.1889 251.154L52.5527 255.612L48.0148 253.394L44.5055 257.02L45.2132 252.023L40.6825 249.797L45.6509 248.929L46.3659 243.932Z" stroke="black" stroke-miterlimit="10"/>
<path d="M62.4458 241.123L64.8024 245.588L69.7781 244.72L66.2688 248.346L68.6327 252.804L64.0947 250.586L60.5854 254.212L61.2931 249.214L56.7551 246.989L61.7309 246.121L62.4458 241.123Z" stroke="black" stroke-miterlimit="10"/>
<path d="M78.5185 238.313L80.8823 242.778L85.8581 241.91L82.3488 245.536L84.7126 249.994L80.1746 247.776L76.6581 251.402L77.3731 246.405L72.8351 244.179L77.8108 243.311L78.5185 238.313Z" stroke="black" stroke-miterlimit="10"/>
<path d="M94.5983 235.505L96.9622 239.97L101.938 239.102L98.4213 242.728L100.785 247.185L96.2545 244.968L92.7379 248.594L93.4529 243.596L88.9149 241.371L93.8906 240.503L94.5983 235.505Z" stroke="black" stroke-miterlimit="10"/>
<path d="M110.678 232.696L113.042 237.161L118.018 236.293L114.501 239.919L116.865 244.377L112.335 242.159L108.818 245.785L109.526 240.787L104.995 238.562L109.971 237.694L110.678 232.696Z" stroke="black" stroke-miterlimit="10"/>
<path d="M92.6432 254.846L43.061 263.543C41.6313 263.791 40.1616 263.461 38.9743 262.627C37.7871 261.793 36.9793 260.522 36.7282 259.092L34.5979 246.835C34.4742 246.128 34.4912 245.403 34.648 244.702C34.8048 244.001 35.0982 243.337 35.5116 242.75C35.9249 242.162 36.4501 241.662 37.0569 241.278C37.6638 240.894 38.3405 240.633 39.0483 240.51L56.6093 237.438" stroke="black" stroke-miterlimit="10"/>
<path d="M61.4171 236.607L115.267 227.202C115.975 227.077 116.7 227.093 117.402 227.249C118.103 227.405 118.767 227.698 119.355 228.11C119.943 228.523 120.445 229.048 120.83 229.654C121.215 230.261 121.477 230.937 121.6 231.645L123.694 243.844C123.818 244.552 123.801 245.277 123.644 245.979C123.487 246.68 123.194 247.344 122.781 247.932C122.367 248.52 121.842 249.021 121.235 249.406C120.629 249.791 119.952 250.053 119.244 250.177L96.5245 254.146" stroke="black" stroke-miterlimit="10"/>
</g>
<g opacity="0.3">
<path d="M225.616 142.534L226.295 147.539L231.263 148.444L226.711 150.633L227.389 155.637L223.902 151.982L219.349 154.178L221.742 149.728L218.255 146.08L223.223 146.985L225.616 142.534Z" stroke="black" stroke-miterlimit="10"/>
<path d="M241.674 145.452L242.353 150.457L247.321 151.362L242.769 153.55L243.447 158.555L239.96 154.9L235.407 157.089L237.8 152.646L234.313 148.998L239.281 149.903L241.674 145.452Z" stroke="black" stroke-miterlimit="10"/>
<path d="M257.732 148.37L258.411 153.375L263.379 154.28L258.827 156.468L259.505 161.473L256.018 157.818L251.473 160.007L253.866 155.564L250.371 151.916L255.339 152.813L257.732 148.37Z" stroke="black" stroke-miterlimit="10"/>
<path d="M273.798 151.289L274.469 156.294L279.437 157.199L274.892 159.387L275.563 164.385L272.076 160.737L267.531 162.926L269.924 158.483L266.436 154.835L271.397 155.732L273.798 151.289Z" stroke="black" stroke-miterlimit="10"/>
<path d="M289.856 154.208L290.534 159.213L295.495 160.11L290.95 162.306L291.628 167.304L288.134 163.656L283.589 165.845L285.982 161.402L282.494 157.754L287.463 158.651L289.856 154.208Z" stroke="black" stroke-miterlimit="10"/>
<path d="M287.485 149.063L296.021 150.617C297.443 150.883 298.703 151.702 299.523 152.894C300.344 154.087 300.658 155.556 300.398 156.979L298.209 169.185C297.943 170.608 297.125 171.867 295.932 172.688C294.74 173.508 293.271 173.823 291.847 173.563L235.59 163.349" stroke="black" stroke-miterlimit="10"/>
<path d="M229.848 162.328L215.76 159.767C214.337 159.501 213.078 158.682 212.257 157.49C211.437 156.297 211.122 154.829 211.382 153.405L213.571 141.199C213.837 139.776 214.656 138.517 215.848 137.696C217.04 136.876 218.509 136.561 219.933 136.822L283.939 148.422" stroke="black" stroke-miterlimit="10"/>
</g>
<path d="M231.066 251.343C231.066 251.343 231.927 249.278 231.964 249.154C232.394 247.564 232.299 244.237 230.752 243.23C230.491 243.071 230.199 242.968 229.895 242.928C229.591 242.889 229.282 242.914 228.989 243.001C228.695 243.088 228.423 243.236 228.19 243.435C227.957 243.635 227.769 243.88 227.637 244.157C227.039 245.317 227.404 246.878 227.936 247.987C228.564 249.278 231.066 251.336 231.066 251.343Z" fill="#263238"/>
<path d="M198.644 246.47C199.884 247.199 203.109 247.557 203.109 247.557C203.109 247.557 202.686 245.368 202.642 245.222C202.131 243.661 200.212 240.94 198.359 240.954C198.053 240.966 197.753 241.041 197.479 241.175C197.204 241.31 196.96 241.5 196.764 241.735C196.567 241.969 196.422 242.242 196.337 242.536C196.253 242.83 196.231 243.139 196.273 243.442C196.389 244.741 197.586 245.842 198.644 246.47Z" fill="#263238"/>
<path d="M198.578 255.925C199.913 256.297 202.89 255.837 203.123 255.793C203.388 257.496 203.764 259.18 204.247 260.835C204.524 261.798 204.838 262.761 205.159 263.753C204.947 263.33 204.758 262.965 204.721 262.914C203.809 261.543 201.241 259.419 199.461 259.923C199.169 260.015 198.9 260.168 198.67 260.37C198.441 260.573 198.257 260.822 198.129 261.1C198.002 261.379 197.935 261.681 197.932 261.987C197.929 262.293 197.99 262.597 198.111 262.878C198.585 264.089 200.008 264.84 201.19 265.169C202.372 265.497 204.94 265.169 205.611 265.059C205.742 265.431 205.866 265.789 205.99 266.168C206.611 267.926 207.238 269.677 207.8 271.421C207.997 272.034 208.165 272.639 208.34 273.252C208.15 272.88 207.99 272.574 207.96 272.523C207.048 271.144 204.48 269.028 202.7 269.531C202.408 269.624 202.139 269.776 201.91 269.979C201.68 270.182 201.496 270.431 201.369 270.709C201.242 270.987 201.174 271.29 201.171 271.596C201.168 271.902 201.229 272.205 201.35 272.486C201.825 273.697 203.247 274.449 204.429 274.777C205.611 275.105 207.931 274.777 208.734 274.69C208.894 275.317 209.055 275.952 209.179 276.565C209.259 276.988 209.361 277.396 209.412 277.827C209.463 278.257 209.536 278.673 209.595 279.089C209.682 279.891 209.777 280.723 209.843 281.511C209.894 282.066 209.93 282.584 209.974 283.116C209.784 282.503 209.383 281.307 209.339 281.212C208.61 279.716 206.421 277.236 204.597 277.462C204.294 277.508 204.005 277.618 203.747 277.783C203.489 277.948 203.268 278.166 203.1 278.422C202.932 278.677 202.819 278.966 202.769 279.268C202.719 279.57 202.732 279.88 202.81 280.176C203.101 281.445 204.385 282.409 205.509 282.912C206.633 283.415 209.638 283.474 210.003 283.474C210.062 284.342 210.113 285.196 210.149 285.998C210.28 288.77 210.288 291.105 210.266 292.71L211.506 292.871V292.725C211.506 291.083 211.433 288.741 211.243 285.932C211.185 285.05 211.105 284.101 211.01 283.131C211.911 282.897 212.797 282.612 213.666 282.277C214.648 283.364 215.775 284.312 217.014 285.093C216.584 285.859 216.161 286.596 215.745 287.282C214.322 289.668 213.053 291.609 212.141 292.951L213.505 293.119C214.359 291.784 215.475 289.989 216.693 287.837C217.131 287.063 217.583 286.232 218.043 285.371C218.379 285.487 221.129 286.414 222.479 286.29C223.705 286.173 225.229 285.684 225.915 284.575C226.085 284.32 226.199 284.031 226.251 283.729C226.302 283.426 226.289 283.116 226.212 282.819C226.136 282.522 225.998 282.244 225.807 282.004C225.617 281.763 225.377 281.566 225.105 281.424C223.442 280.621 220.538 282.248 219.4 283.445C219.334 283.51 218.671 284.356 218.291 284.904C218.481 284.553 218.663 284.211 218.846 283.846C219.225 283.116 219.575 282.387 219.955 281.613C220.122 281.227 220.298 280.84 220.473 280.446C220.648 280.052 220.794 279.636 220.961 279.22C221.326 278.257 221.647 277.272 221.946 276.265C222.574 276.586 224.865 277.725 226.068 277.783C227.272 277.841 228.885 277.601 229.716 276.608C229.922 276.381 230.077 276.114 230.173 275.823C230.268 275.532 230.301 275.224 230.27 274.919C230.239 274.615 230.145 274.32 229.993 274.054C229.841 273.788 229.635 273.558 229.388 273.376C227.871 272.326 224.755 273.5 223.442 274.507C223.362 274.566 222.508 275.397 222.049 275.857C222.224 275.251 222.399 274.646 222.559 274.026C223.019 272.238 223.427 270.414 223.836 268.598L224.23 266.934C224.456 267.058 227.112 268.452 228.491 268.532C229.724 268.598 231.307 268.35 232.139 267.357C232.345 267.13 232.502 266.862 232.598 266.57C232.694 266.279 232.727 265.97 232.696 265.664C232.666 265.359 232.571 265.063 232.418 264.797C232.265 264.53 232.058 264.299 231.81 264.118C230.293 263.067 227.17 264.242 225.864 265.249C225.769 265.329 224.536 266.518 224.237 266.832C224.529 265.614 224.828 264.403 225.171 263.184C225.628 261.581 226.188 260.009 226.849 258.478C226.951 258.537 229.716 260.003 231.132 260.083C232.357 260.156 233.948 259.901 234.78 258.909C234.985 258.682 235.141 258.415 235.237 258.124C235.333 257.834 235.367 257.526 235.337 257.221C235.307 256.917 235.213 256.622 235.062 256.356C234.91 256.09 234.705 255.859 234.459 255.677C232.934 254.626 229.819 255.801 228.513 256.808C228.425 256.873 227.491 257.778 227.053 258.216L226.966 258.157C227.67 256.626 228.51 255.161 229.476 253.78C229.994 253.05 230.534 252.321 231.081 251.657C231.562 251.978 233.802 253.444 235.071 253.663C236.341 253.882 237.888 253.787 238.836 252.897C239.067 252.694 239.252 252.446 239.38 252.167C239.508 251.888 239.576 251.585 239.579 251.278C239.583 250.971 239.521 250.667 239.4 250.386C239.278 250.104 239.098 249.851 238.873 249.643C237.472 248.432 234.247 249.256 232.839 250.117C232.759 250.161 232.036 250.723 231.511 251.139C231.759 250.84 232.007 250.526 232.241 250.249C233.153 249.191 234.057 248.279 234.86 247.476C235.32 247.031 235.75 246.63 236.151 246.258C236.793 246.331 239.398 246.586 240.602 246.2C241.806 245.813 243.163 245.01 243.586 243.785C243.699 243.498 243.751 243.191 243.738 242.884C243.724 242.576 243.646 242.275 243.509 241.999C243.371 241.724 243.177 241.48 242.938 241.285C242.7 241.09 242.424 240.947 242.127 240.866C240.332 240.436 237.844 242.654 237.019 244.069C236.947 244.186 236.005 246.221 236.042 246.258C235.648 246.601 235.225 246.987 234.78 247.403C233.955 248.184 233.029 249.074 232.088 250.117C231.062 251.228 230.102 252.397 229.213 253.619C228.209 254.98 227.33 256.428 226.587 257.946V258.004C226.659 257.472 226.835 255.961 226.835 255.815C226.835 254.167 225.857 250.986 224.099 250.424C223.804 250.338 223.495 250.315 223.191 250.357C222.887 250.399 222.595 250.504 222.334 250.665C222.074 250.827 221.85 251.042 221.677 251.295C221.505 251.549 221.388 251.836 221.334 252.138C221.064 253.415 221.837 254.823 222.639 255.786C223.551 256.837 226.287 258.084 226.506 258.187C225.789 259.752 225.175 261.363 224.668 263.009C224.369 263.965 224.091 264.935 223.829 265.927C223.887 265.46 223.931 265.045 223.931 264.986C223.931 263.337 222.953 260.149 221.195 259.587C220.9 259.502 220.59 259.479 220.286 259.521C219.981 259.563 219.689 259.669 219.428 259.831C219.167 259.994 218.944 260.209 218.772 260.464C218.6 260.719 218.483 261.007 218.43 261.309C218.16 262.586 218.933 263.994 219.736 264.921C220.538 265.847 222.873 266.985 223.486 267.27C223.391 267.649 223.289 267.999 223.194 268.401C222.742 270.21 222.297 272.048 221.8 273.778C221.625 274.398 221.436 275.003 221.246 275.609C221.29 275.193 221.326 274.843 221.326 274.792C221.326 273.143 220.349 269.962 218.59 269.393C218.296 269.308 217.987 269.287 217.683 269.33C217.38 269.372 217.088 269.478 216.828 269.64C216.568 269.803 216.345 270.018 216.174 270.272C216.002 270.526 215.886 270.813 215.832 271.115C215.563 272.391 216.329 273.799 217.138 274.726C217.948 275.653 220.057 276.681 220.786 277.024C220.575 277.637 220.363 278.25 220.122 278.841C219.955 279.235 219.816 279.629 219.626 280.015L219.086 281.168C218.714 281.898 218.357 282.627 217.948 283.357C217.693 283.838 217.43 284.298 217.175 284.758C217.357 284.145 217.678 282.927 217.693 282.824C217.859 281.384 217.653 279.924 217.095 278.586C217.109 278.425 217.109 278.264 217.095 278.104C217.096 277.797 217.033 277.492 216.909 277.211C216.785 276.929 216.604 276.677 216.376 276.471C216.148 276.264 215.879 276.108 215.587 276.012C215.295 275.917 214.986 275.883 214.68 275.915C212.849 276.156 211.331 279.118 211.032 280.745C211.032 280.84 210.944 281.898 210.915 282.569C210.871 282.168 210.842 281.781 210.791 281.38C210.711 280.57 210.601 279.767 210.485 278.907C210.412 278.491 210.346 278.068 210.273 277.644C210.2 277.221 210.091 276.791 210.003 276.353C209.777 275.353 209.5 274.347 209.193 273.34C209.923 273.267 212.403 272.96 213.469 272.333C214.534 271.706 215.716 270.633 215.876 269.334C215.923 269.032 215.905 268.722 215.824 268.427C215.743 268.131 215.601 267.856 215.407 267.618C215.213 267.381 214.972 267.187 214.698 267.049C214.425 266.911 214.125 266.832 213.819 266.817C211.973 266.781 210.018 269.48 209.485 271.042C209.485 271.137 209.193 272.304 209.062 272.939C208.88 272.34 208.69 271.735 208.486 271.129C207.88 269.386 207.216 267.642 206.56 265.898C206.355 265.366 206.166 264.833 205.969 264.293C206.217 264.293 209.201 263.972 210.397 263.272C211.462 262.652 212.644 261.564 212.805 260.273C212.851 259.97 212.833 259.661 212.752 259.365C212.672 259.07 212.53 258.794 212.336 258.557C212.142 258.32 211.9 258.126 211.627 257.988C211.353 257.85 211.053 257.771 210.747 257.756C208.901 257.756 206.946 260.419 206.414 261.98C206.37 262.097 206.005 263.768 205.932 264.169C205.494 262.994 205.079 261.812 204.714 260.638C204.209 259.051 203.809 257.433 203.517 255.793C203.634 255.793 206.749 255.48 207.975 254.765C209.04 254.145 210.222 253.065 210.375 251.766C210.422 251.463 210.404 251.154 210.323 250.858C210.242 250.563 210.1 250.287 209.906 250.05C209.712 249.813 209.471 249.619 209.197 249.481C208.923 249.343 208.624 249.264 208.318 249.249C206.472 249.213 204.524 251.912 203.984 253.473C203.984 253.576 203.67 254.852 203.546 255.458H203.444C203.194 253.8 203.091 252.122 203.138 250.446C203.138 249.519 203.218 248.644 203.298 247.783C203.889 247.783 206.567 247.783 207.741 247.257C208.916 246.732 210.164 245.798 210.456 244.536C210.535 244.24 210.551 243.931 210.504 243.628C210.456 243.326 210.346 243.036 210.179 242.779C210.013 242.522 209.794 242.303 209.538 242.135C209.281 241.968 208.992 241.856 208.69 241.807C206.859 241.574 204.626 244.04 203.918 245.528C203.882 245.609 203.583 246.477 203.379 247.111C203.422 246.725 203.459 246.331 203.503 245.959C203.685 244.573 203.933 243.318 204.167 242.209C204.298 241.574 204.436 241.012 204.568 240.48C205.144 240.181 207.486 238.955 208.216 237.97C208.945 236.985 209.675 235.57 209.376 234.322C209.31 234.023 209.181 233.742 209 233.495C208.818 233.249 208.587 233.044 208.32 232.892C208.054 232.741 207.76 232.647 207.455 232.617C207.15 232.587 206.843 232.621 206.552 232.717C204.816 233.352 203.97 236.569 204.028 238.218C204.028 238.357 204.378 240.574 204.407 240.56H204.444C204.305 241.063 204.159 241.61 204.021 242.209C203.765 243.318 203.488 244.573 203.291 245.959C203.048 247.451 202.892 248.957 202.824 250.468C202.739 252.155 202.805 253.847 203.021 255.524C203.021 255.524 203.021 255.567 203.021 255.589C202.795 255.1 202.102 253.751 202.043 253.656C201.131 252.277 198.556 250.161 196.783 250.657C196.49 250.749 196.219 250.901 195.988 251.104C195.757 251.307 195.572 251.556 195.444 251.836C195.316 252.115 195.248 252.418 195.245 252.726C195.242 253.033 195.304 253.337 195.426 253.619C195.959 254.845 197.374 255.596 198.578 255.925Z" fill="#263238"/>
<path opacity="0.3" d="M198.644 246.47C199.884 247.199 203.109 247.557 203.109 247.557C203.109 247.557 202.686 245.368 202.642 245.222C202.131 243.661 200.212 240.94 198.359 240.954C198.053 240.966 197.753 241.041 197.479 241.175C197.204 241.31 196.96 241.5 196.764 241.735C196.567 241.969 196.422 242.242 196.337 242.536C196.253 242.83 196.231 243.139 196.273 243.442C196.389 244.741 197.586 245.842 198.644 246.47Z" fill="#263238"/>
<path opacity="0.3" d="M231.066 251.343C231.066 251.343 231.927 249.278 231.964 249.154C232.394 247.564 232.299 244.237 230.752 243.23C230.491 243.071 230.199 242.968 229.895 242.928C229.591 242.889 229.282 242.914 228.989 243.001C228.695 243.088 228.423 243.236 228.19 243.435C227.957 243.635 227.769 243.88 227.637 244.157C227.039 245.317 227.404 246.878 227.936 247.987C228.564 249.278 231.066 251.336 231.066 251.343Z" fill="#263238"/>
<path opacity="0.3" d="M198.578 255.925C199.913 256.297 202.89 255.837 203.123 255.793C203.388 257.496 203.764 259.18 204.247 260.835C204.524 261.798 204.838 262.761 205.159 263.753C204.947 263.33 204.758 262.965 204.721 262.914C203.809 261.543 201.241 259.419 199.461 259.923C199.169 260.015 198.9 260.168 198.67 260.37C198.441 260.573 198.257 260.822 198.129 261.1C198.002 261.379 197.935 261.681 197.932 261.987C197.929 262.293 197.99 262.597 198.111 262.878C198.585 264.089 200.008 264.84 201.19 265.169C202.372 265.497 204.94 265.169 205.611 265.059C205.742 265.431 205.866 265.789 205.99 266.168C206.611 267.926 207.238 269.677 207.8 271.421C207.997 272.034 208.165 272.639 208.34 273.252C208.15 272.88 207.99 272.574 207.96 272.523C207.048 271.144 204.48 269.028 202.7 269.531C202.408 269.624 202.139 269.776 201.91 269.979C201.68 270.182 201.496 270.431 201.369 270.709C201.242 270.987 201.174 271.29 201.171 271.596C201.168 271.902 201.229 272.205 201.35 272.486C201.825 273.697 203.247 274.449 204.429 274.777C205.611 275.105 207.931 274.777 208.734 274.69C208.894 275.317 209.055 275.952 209.179 276.565C209.259 276.988 209.361 277.396 209.412 277.827C209.463 278.257 209.536 278.673 209.595 279.089C209.682 279.891 209.777 280.723 209.843 281.511C209.894 282.066 209.93 282.584 209.974 283.116C209.784 282.503 209.383 281.307 209.339 281.212C208.61 279.716 206.421 277.236 204.597 277.462C204.294 277.508 204.005 277.618 203.747 277.783C203.489 277.948 203.268 278.166 203.1 278.422C202.932 278.677 202.819 278.966 202.769 279.268C202.719 279.57 202.732 279.88 202.81 280.176C203.101 281.445 204.385 282.409 205.509 282.912C206.633 283.415 209.638 283.474 210.003 283.474C210.062 284.342 210.113 285.196 210.149 285.998C210.28 288.77 210.288 291.105 210.266 292.71L211.506 292.871V292.725C211.506 291.083 211.433 288.741 211.243 285.932C211.185 285.05 211.105 284.101 211.01 283.131C211.911 282.897 212.797 282.612 213.666 282.277C214.648 283.364 215.775 284.312 217.014 285.093C216.584 285.859 216.161 286.596 215.745 287.282C214.322 289.668 213.053 291.609 212.141 292.951L213.505 293.119C214.359 291.784 215.475 289.989 216.693 287.837C217.131 287.063 217.583 286.232 218.043 285.371C218.379 285.487 221.129 286.414 222.479 286.29C223.705 286.173 225.229 285.684 225.915 284.575C226.085 284.32 226.199 284.031 226.251 283.729C226.302 283.426 226.289 283.116 226.212 282.819C226.136 282.522 225.998 282.244 225.807 282.004C225.617 281.763 225.377 281.566 225.105 281.424C223.442 280.621 220.538 282.248 219.4 283.445C219.334 283.51 218.671 284.356 218.291 284.904C218.481 284.553 218.663 284.211 218.846 283.846C219.225 283.116 219.575 282.387 219.955 281.613C220.122 281.227 220.298 280.84 220.473 280.446C220.648 280.052 220.794 279.636 220.961 279.22C221.326 278.257 221.647 277.272 221.946 276.265C222.574 276.586 224.865 277.725 226.068 277.783C227.272 277.841 228.885 277.601 229.716 276.608C229.922 276.381 230.077 276.114 230.173 275.823C230.268 275.532 230.301 275.224 230.27 274.919C230.239 274.615 230.145 274.32 229.993 274.054C229.841 273.788 229.635 273.558 229.388 273.376C227.871 272.326 224.755 273.5 223.442 274.507C223.362 274.566 222.508 275.397 222.049 275.857C222.224 275.251 222.399 274.646 222.559 274.026C223.019 272.238 223.427 270.414 223.836 268.598L224.23 266.934C224.456 267.058 227.112 268.452 228.491 268.532C229.724 268.598 231.307 268.35 232.139 267.357C232.345 267.13 232.502 266.862 232.598 266.57C232.694 266.279 232.727 265.97 232.696 265.664C232.666 265.359 232.571 265.063 232.418 264.797C232.265 264.53 232.058 264.299 231.81 264.118C230.293 263.067 227.17 264.242 225.864 265.249C225.769 265.329 224.536 266.518 224.237 266.832C224.529 265.614 224.828 264.403 225.171 263.184C225.628 261.581 226.188 260.009 226.849 258.478C226.951 258.537 229.716 260.003 231.132 260.083C232.357 260.156 233.948 259.901 234.78 258.909C234.985 258.682 235.141 258.415 235.237 258.124C235.333 257.834 235.367 257.526 235.337 257.221C235.307 256.917 235.213 256.622 235.062 256.356C234.91 256.09 234.705 255.859 234.459 255.677C232.934 254.626 229.819 255.801 228.513 256.808C228.425 256.873 227.491 257.778 227.053 258.216L226.966 258.157C227.67 256.626 228.51 255.161 229.476 253.78C229.994 253.05 230.534 252.321 231.081 251.657C231.562 251.978 233.802 253.444 235.071 253.663C236.341 253.882 237.888 253.787 238.836 252.897C239.067 252.694 239.252 252.446 239.38 252.167C239.508 251.888 239.576 251.585 239.579 251.278C239.583 250.971 239.521 250.667 239.4 250.386C239.278 250.104 239.098 249.851 238.873 249.643C237.472 248.432 234.247 249.256 232.839 250.117C232.759 250.161 232.036 250.723 231.511 251.139C231.759 250.84 232.007 250.526 232.241 250.249C233.153 249.191 234.057 248.279 234.86 247.476C235.32 247.031 235.75 246.63 236.151 246.258C236.793 246.331 239.398 246.586 240.602 246.2C241.806 245.813 243.163 245.01 243.586 243.785C243.699 243.498 243.751 243.191 243.738 242.884C243.724 242.576 243.646 242.275 243.509 241.999C243.371 241.724 243.177 241.48 242.938 241.285C242.7 241.09 242.424 240.947 242.127 240.866C240.332 240.436 237.844 242.654 237.019 244.069C236.947 244.186 236.005 246.221 236.042 246.258C235.648 246.601 235.225 246.987 234.78 247.403C233.955 248.184 233.029 249.074 232.088 250.117C231.062 251.228 230.102 252.397 229.213 253.619C228.209 254.98 227.33 256.428 226.587 257.946V258.004C226.659 257.472 226.835 255.961 226.835 255.815C226.835 254.167 225.857 250.986 224.099 250.424C223.804 250.338 223.495 250.315 223.191 250.357C222.887 250.399 222.595 250.504 222.334 250.665C222.074 250.827 221.85 251.042 221.677 251.295C221.505 251.549 221.388 251.836 221.334 252.138C221.064 253.415 221.837 254.823 222.639 255.786C223.551 256.837 226.287 258.084 226.506 258.187C225.789 259.752 225.175 261.363 224.668 263.009C224.369 263.965 224.091 264.935 223.829 265.927C223.887 265.46 223.931 265.045 223.931 264.986C223.931 263.337 222.953 260.149 221.195 259.587C220.9 259.502 220.59 259.479 220.286 259.521C219.981 259.563 219.689 259.669 219.428 259.831C219.167 259.994 218.944 260.209 218.772 260.464C218.6 260.719 218.483 261.007 218.43 261.309C218.16 262.586 218.933 263.994 219.736 264.921C220.538 265.847 222.873 266.985 223.486 267.27C223.391 267.649 223.289 267.999 223.194 268.401C222.742 270.21 222.297 272.048 221.8 273.778C221.625 274.398 221.436 275.003 221.246 275.609C221.29 275.193 221.326 274.843 221.326 274.792C221.326 273.143 220.349 269.962 218.59 269.393C218.296 269.308 217.987 269.287 217.683 269.33C217.38 269.372 217.088 269.478 216.828 269.64C216.568 269.803 216.345 270.018 216.174 270.272C216.002 270.526 215.886 270.813 215.832 271.115C215.563 272.391 216.329 273.799 217.138 274.726C217.948 275.653 220.057 276.681 220.786 277.024C220.575 277.637 220.363 278.25 220.122 278.841C219.955 279.235 219.816 279.629 219.626 280.015L219.086 281.168C218.714 281.898 218.357 282.627 217.948 283.357C217.693 283.838 217.43 284.298 217.175 284.758C217.357 284.145 217.678 282.927 217.693 282.824C217.859 281.384 217.653 279.924 217.095 278.586C217.109 278.425 217.109 278.264 217.095 278.104C217.096 277.797 217.033 277.492 216.909 277.211C216.785 276.929 216.604 276.677 216.376 276.471C216.148 276.264 215.879 276.108 215.587 276.012C215.295 275.917 214.986 275.883 214.68 275.915C212.849 276.156 211.331 279.118 211.032 280.745C211.032 280.84 210.944 281.898 210.915 282.569C210.871 282.168 210.842 281.781 210.791 281.38C210.711 280.57 210.601 279.767 210.485 278.907C210.412 278.491 210.346 278.068 210.273 277.644C210.2 277.221 210.091 276.791 210.003 276.353C209.777 275.353 209.5 274.347 209.193 273.34C209.923 273.267 212.403 272.96 213.469 272.333C214.534 271.706 215.716 270.633 215.876 269.334C215.923 269.032 215.905 268.722 215.824 268.427C215.743 268.131 215.601 267.856 215.407 267.618C215.213 267.381 214.972 267.187 214.698 267.049C214.425 266.911 214.125 266.832 213.819 266.817C211.973 266.781 210.018 269.48 209.485 271.042C209.485 271.137 209.193 272.304 209.062 272.939C208.88 272.34 208.69 271.735 208.486 271.129C207.88 269.386 207.216 267.642 206.56 265.898C206.355 265.366 206.166 264.833 205.969 264.293C206.217 264.293 209.201 263.972 210.397 263.272C211.462 262.652 212.644 261.564 212.805 260.273C212.851 259.97 212.833 259.661 212.752 259.365C212.672 259.07 212.53 258.794 212.336 258.557C212.142 258.32 211.9 258.126 211.627 257.988C211.353 257.85 211.053 257.771 210.747 257.756C208.901 257.756 206.946 260.419 206.414 261.98C206.37 262.097 206.005 263.768 205.932 264.169C205.494 262.994 205.079 261.812 204.714 260.638C204.209 259.051 203.809 257.433 203.517 255.793C203.634 255.793 206.749 255.48 207.975 254.765C209.04 254.145 210.222 253.065 210.375 251.766C210.422 251.463 210.404 251.154 210.323 250.858C210.242 250.563 210.1 250.287 209.906 250.05C209.712 249.813 209.471 249.619 209.197 249.481C208.923 249.343 208.624 249.264 208.318 249.249C206.472 249.213 204.524 251.912 203.984 253.473C203.984 253.576 203.67 254.852 203.546 255.458H203.444C203.194 253.8 203.091 252.122 203.138 250.446C203.138 249.519 203.218 248.644 203.298 247.783C203.889 247.783 206.567 247.783 207.741 247.257C208.916 246.732 210.164 245.798 210.456 244.536C210.535 244.24 210.551 243.931 210.504 243.628C210.456 243.326 210.346 243.036 210.179 242.779C210.013 242.522 209.794 242.303 209.538 242.135C209.281 241.968 208.992 241.856 208.69 241.807C206.859 241.574 204.626 244.04 203.918 245.528C203.882 245.609 203.583 246.477 203.379 247.111C203.422 246.725 203.459 246.331 203.503 245.959C203.685 244.573 203.933 243.318 204.167 242.209C204.298 241.574 204.436 241.012 204.568 240.48C205.144 240.181 207.486 238.955 208.216 237.97C208.945 236.985 209.675 235.57 209.376 234.322C209.31 234.023 209.181 233.742 209 233.495C208.818 233.249 208.587 233.044 208.32 232.892C208.054 232.741 207.76 232.647 207.455 232.617C207.15 232.587 206.843 232.621 206.552 232.717C204.816 233.352 203.97 236.569 204.028 238.218C204.028 238.357 204.378 240.574 204.407 240.56H204.444C204.305 241.063 204.159 241.61 204.021 242.209C203.765 243.318 203.488 244.573 203.291 245.959C203.048 247.451 202.892 248.957 202.824 250.468C202.739 252.155 202.805 253.847 203.021 255.524C203.021 255.524 203.021 255.567 203.021 255.589C202.795 255.1 202.102 253.751 202.043 253.656C201.131 252.277 198.556 250.161 196.783 250.657C196.49 250.749 196.219 250.901 195.988 251.104C195.757 251.307 195.572 251.556 195.444 251.836C195.316 252.115 195.248 252.418 195.245 252.726C195.242 253.033 195.304 253.337 195.426 253.619C195.959 254.845 197.374 255.596 198.578 255.925Z" fill="#263238"/>
<path d="M128.881 259.216C128.881 259.216 128.662 257.538 128.633 257.435C128.312 256.232 126.984 254.087 125.591 254.006C125.358 254 125.127 254.044 124.912 254.133C124.697 254.223 124.503 254.356 124.344 254.526C124.184 254.695 124.062 254.896 123.985 255.116C123.908 255.336 123.879 255.569 123.898 255.801C123.984 256.296 124.176 256.767 124.462 257.18C124.748 257.594 125.121 257.94 125.554 258.194C126.459 258.814 128.881 259.216 128.881 259.216Z" fill="#263238"/>
<path d="M105.768 268.32C106.924 268.157 108.05 267.825 109.11 267.335C109.11 267.335 108.001 266.051 107.921 265.986C106.987 265.154 104.703 264.096 103.492 264.804C103.296 264.928 103.127 265.092 102.998 265.285C102.869 265.478 102.781 265.696 102.742 265.925C102.702 266.153 102.71 266.388 102.767 266.613C102.823 266.839 102.926 267.05 103.069 267.233C103.413 267.599 103.833 267.886 104.299 268.074C104.765 268.261 105.266 268.346 105.768 268.32Z" fill="#263238"/>
<path d="M109.299 274.551C110.357 274.097 111.34 273.487 112.218 272.742C113.038 273.756 113.923 274.716 114.866 275.616C115.413 276.142 115.982 276.66 116.559 277.163C116.26 276.973 115.997 276.798 115.953 276.784C114.837 276.229 112.349 275.813 111.371 276.784C111.214 276.955 111.095 277.157 111.021 277.377C110.947 277.597 110.92 277.83 110.942 278.061C110.964 278.293 111.034 278.517 111.149 278.719C111.263 278.921 111.418 279.097 111.605 279.235C112.037 279.502 112.522 279.67 113.027 279.728C113.531 279.786 114.042 279.732 114.523 279.571C115.561 279.141 116.526 278.553 117.383 277.827L118.047 278.403C119.12 279.323 120.236 280.235 121.228 281.161C121.585 281.49 121.958 281.825 122.279 282.161C122.016 281.986 121.79 281.847 121.753 281.832C120.637 281.271 118.149 280.862 117.172 281.832C117.013 282.003 116.893 282.205 116.818 282.425C116.744 282.645 116.717 282.879 116.739 283.11C116.761 283.342 116.831 283.566 116.946 283.768C117.061 283.971 117.217 284.146 117.405 284.284C117.837 284.551 118.322 284.719 118.827 284.777C119.331 284.835 119.842 284.781 120.323 284.619C121.334 284.202 122.274 283.631 123.11 282.927C123.453 283.284 123.796 283.656 124.117 283.992C124.329 284.24 124.548 284.466 124.745 284.722L125.343 285.451C125.708 285.947 126.072 286.451 126.43 286.91C126.671 287.253 126.89 287.581 127.116 287.91C126.758 287.581 126.051 286.954 125.985 286.903C124.963 286.173 122.563 285.4 121.447 286.239C121.266 286.384 121.117 286.566 121.011 286.773C120.905 286.979 120.843 287.206 120.83 287.438C120.817 287.669 120.853 287.901 120.935 288.119C121.017 288.336 121.145 288.533 121.308 288.698C121.691 289.025 122.141 289.263 122.627 289.397C123.112 289.53 123.621 289.556 124.117 289.471C125.23 289.19 126.293 288.739 127.269 288.136C127.641 288.683 127.998 289.223 128.327 289.734C129.465 291.507 130.348 293.024 130.946 294.111L131.821 293.746L131.763 293.652C131.136 292.586 130.209 291.069 129.02 289.274C128.648 288.712 128.232 288.121 127.802 287.523C128.305 287.03 128.778 286.506 129.217 285.955C130.275 286.295 131.375 286.489 132.485 286.531C132.485 287.195 132.485 287.844 132.485 288.45C132.485 290.551 132.354 292.309 132.267 293.557L133.222 293.148C133.281 291.944 133.332 290.347 133.31 288.472C133.31 287.8 133.31 287.085 133.266 286.341C134.399 286.151 135.496 285.789 136.52 285.269C136.947 285.004 137.312 284.65 137.589 284.23C137.867 283.811 138.049 283.336 138.125 282.839C138.14 282.607 138.105 282.374 138.024 282.156C137.942 281.938 137.816 281.74 137.653 281.574C137.49 281.408 137.294 281.279 137.077 281.194C136.86 281.109 136.628 281.07 136.396 281.081C135.002 281.183 133.718 283.357 133.427 284.568C133.427 284.641 133.303 285.437 133.251 285.94C133.251 285.641 133.251 285.349 133.215 285.035C133.215 284.422 133.142 283.81 133.091 283.153C133.054 282.839 133.025 282.518 132.989 282.19C132.952 281.862 132.894 281.533 132.843 281.205C132.719 280.432 132.551 279.666 132.369 278.892C133.486 278.871 134.593 278.679 135.652 278.323C136.117 278.122 136.533 277.822 136.87 277.444C137.208 277.066 137.459 276.619 137.607 276.134C137.655 275.906 137.655 275.67 137.606 275.442C137.557 275.214 137.461 274.998 137.323 274.81C137.186 274.621 137.01 274.464 136.807 274.347C136.605 274.231 136.38 274.159 136.148 274.135C134.754 274.026 133.157 275.981 132.682 277.134C132.682 277.207 132.405 278.075 132.274 278.549C132.164 278.09 132.048 277.623 131.916 277.156C131.544 275.813 131.121 274.464 130.698 273.114L130.326 271.874C131.481 271.853 132.627 271.661 133.726 271.305C134.191 271.103 134.607 270.803 134.944 270.425C135.282 270.047 135.533 269.601 135.681 269.116C135.73 268.887 135.731 268.651 135.683 268.422C135.634 268.194 135.538 267.978 135.4 267.789C135.262 267.6 135.086 267.443 134.883 267.327C134.68 267.211 134.454 267.139 134.222 267.117C132.828 267.007 131.231 268.955 130.756 270.108C130.72 270.196 130.362 271.443 130.289 271.772C130.012 270.86 129.749 269.948 129.56 269.043C129.249 267.819 129.02 266.576 128.874 265.322C130.034 265.304 131.185 265.112 132.288 264.753C132.755 264.554 133.172 264.255 133.51 263.877C133.848 263.499 134.099 263.05 134.244 262.564C134.293 262.336 134.294 262.099 134.245 261.871C134.197 261.642 134.101 261.426 133.963 261.237C133.825 261.048 133.649 260.891 133.446 260.775C133.243 260.659 133.017 260.588 132.785 260.565C131.391 260.456 129.793 262.411 129.312 263.564C129.312 263.637 129.013 264.585 128.896 265.023H128.816C128.706 263.758 128.706 262.486 128.816 261.222C128.874 260.492 128.962 259.858 129.064 259.215C130.193 259.324 131.332 259.257 132.442 259.018C132.925 258.875 133.372 258.628 133.75 258.294C134.128 257.96 134.428 257.547 134.63 257.085C134.704 256.865 134.731 256.633 134.709 256.402C134.687 256.171 134.617 255.947 134.502 255.746C134.388 255.544 134.233 255.369 134.046 255.231C133.859 255.093 133.646 254.997 133.419 254.947C132.04 254.677 130.238 256.443 129.64 257.537C129.64 257.603 129.341 258.267 129.159 258.712C129.21 258.42 129.253 258.121 129.304 257.844C129.509 256.808 129.749 255.867 129.976 255.042C130.107 254.568 130.238 254.145 130.362 253.751C131.419 253.33 132.404 252.746 133.281 252.022C133.642 251.673 133.924 251.249 134.105 250.781C134.287 250.312 134.364 249.809 134.331 249.308C134.267 249.092 134.16 248.892 134.015 248.719C133.871 248.546 133.693 248.405 133.493 248.303C133.292 248.201 133.072 248.141 132.848 248.127C132.623 248.113 132.398 248.145 132.186 248.221C130.844 248.615 130.056 251.015 129.998 252.263C129.998 252.372 130.151 254.065 130.18 254.05C130.053 254.42 129.922 254.828 129.786 255.276C129.545 256.1 129.275 257.041 129.056 258.077C128.805 259.194 128.618 260.324 128.495 261.463C128.357 262.737 128.33 264.021 128.414 265.3C128.414 265.3 128.414 265.3 128.414 265.344C128.261 264.965 127.801 263.885 127.758 263.834C127.13 262.754 125.284 261.039 123.92 261.339C123.692 261.393 123.478 261.495 123.293 261.639C123.107 261.782 122.955 261.963 122.845 262.17C122.735 262.378 122.671 262.606 122.656 262.84C122.642 263.074 122.677 263.308 122.76 263.527C122.968 263.98 123.271 264.382 123.649 264.707C124.027 265.032 124.47 265.272 124.949 265.41C126.085 265.619 127.246 265.654 128.392 265.512C128.516 266.813 128.723 268.104 129.013 269.379C129.18 270.108 129.37 270.838 129.574 271.567C129.428 271.246 129.304 270.954 129.275 270.918C128.655 269.838 126.809 268.116 125.438 268.415C125.21 268.471 124.997 268.574 124.812 268.717C124.628 268.861 124.475 269.042 124.366 269.249C124.256 269.456 124.192 269.684 124.176 269.917C124.161 270.151 124.196 270.385 124.278 270.604C124.491 271.06 124.802 271.464 125.187 271.788C125.573 272.112 126.024 272.348 126.51 272.479C127.612 272.687 128.738 272.727 129.852 272.596L130.092 273.45C130.479 274.807 130.873 276.164 131.216 277.506C131.34 277.973 131.442 278.447 131.544 278.914C131.42 278.63 131.311 278.381 131.289 278.352C130.661 277.273 128.816 275.551 127.451 275.85C127.224 275.905 127.011 276.008 126.826 276.152C126.641 276.295 126.489 276.477 126.379 276.684C126.27 276.89 126.205 277.118 126.19 277.352C126.175 277.585 126.209 277.819 126.291 278.039C126.504 278.493 126.814 278.897 127.198 279.22C127.582 279.544 128.032 279.781 128.516 279.914C129.588 280.122 130.686 280.164 131.77 280.038C131.865 280.519 131.96 281.008 132.026 281.497C132.026 281.818 132.128 282.124 132.15 282.453C132.172 282.781 132.201 283.102 132.23 283.416C132.23 284.028 132.288 284.663 132.303 285.261C132.303 285.685 132.303 286.079 132.303 286.48C132.194 286.006 131.946 285.086 131.916 285.021C131.478 284.013 130.787 283.136 129.91 282.474C129.868 282.36 129.815 282.25 129.749 282.146C129.634 281.945 129.477 281.77 129.29 281.633C129.102 281.496 128.888 281.4 128.661 281.351C128.434 281.302 128.199 281.301 127.972 281.349C127.745 281.397 127.53 281.492 127.342 281.628C126.233 282.482 126.357 285.006 126.78 286.181C126.78 286.246 127.159 286.969 127.393 287.421L126.86 286.691C126.503 286.195 126.131 285.714 125.722 285.188L125.109 284.459C124.905 284.204 124.664 283.963 124.445 283.729C123.913 283.16 123.351 282.606 122.767 282.059C123.689 281.432 124.507 280.663 125.19 279.782C125.469 279.363 125.654 278.888 125.731 278.391C125.808 277.893 125.775 277.384 125.635 276.9C125.558 276.689 125.438 276.496 125.284 276.333C125.13 276.169 124.944 276.039 124.738 275.95C124.532 275.86 124.31 275.814 124.085 275.813C123.861 275.812 123.638 275.857 123.431 275.945C122.206 276.616 121.972 279.126 122.191 280.322C122.191 280.402 122.476 281.263 122.636 281.73C122.286 281.409 121.907 281.081 121.571 280.767C120.513 279.848 119.382 278.958 118.324 278.06L117.325 277.236C118.278 276.585 119.127 275.793 119.842 274.887C120.127 274.463 120.314 273.982 120.391 273.478C120.468 272.973 120.433 272.458 120.287 271.968C120.202 271.752 120.073 271.556 119.908 271.392C119.743 271.229 119.545 271.102 119.328 271.021C119.11 270.939 118.878 270.903 118.646 270.917C118.414 270.931 118.188 270.993 117.981 271.1C116.756 271.779 116.522 274.281 116.741 275.478C116.741 275.573 117.15 276.813 117.266 277.119C116.537 276.514 115.807 275.901 115.129 275.266C114.198 274.414 113.321 273.505 112.502 272.545C113.462 271.888 114.318 271.092 115.041 270.181C115.318 269.761 115.501 269.286 115.576 268.788C115.652 268.291 115.619 267.783 115.479 267.299C115.391 267.091 115.261 266.903 115.098 266.747C114.935 266.591 114.741 266.47 114.529 266.391C114.317 266.312 114.092 266.278 113.866 266.29C113.64 266.302 113.42 266.36 113.217 266.46C111.999 267.139 111.758 269.641 111.977 270.838C111.977 270.918 112.291 271.866 112.444 272.297H112.378C111.584 271.307 110.881 270.247 110.277 269.13C109.934 268.518 109.642 267.912 109.372 267.321C110.374 266.789 111.287 266.105 112.079 265.293C112.398 264.905 112.628 264.452 112.754 263.965C112.88 263.479 112.899 262.971 112.809 262.477C112.748 262.253 112.642 262.045 112.496 261.865C112.35 261.685 112.168 261.538 111.962 261.433C111.756 261.327 111.53 261.267 111.299 261.254C111.067 261.242 110.836 261.278 110.62 261.36C109.329 261.9 108.796 264.366 108.905 265.607C108.905 265.672 109.044 266.336 109.146 266.854C109.029 266.584 108.898 266.307 108.796 266.044C108.387 265.074 108.066 264.155 107.804 263.338C107.651 262.871 107.526 262.448 107.41 262.046C108.051 261.116 108.543 260.092 108.869 259.011C108.976 258.521 108.975 258.013 108.867 257.523C108.759 257.033 108.545 256.573 108.241 256.173C108.086 256 107.896 255.861 107.684 255.767C107.471 255.672 107.241 255.623 107.009 255.623C106.776 255.623 106.546 255.672 106.333 255.767C106.121 255.861 105.931 256 105.776 256.173C104.878 257.246 105.542 259.675 106.206 260.733C106.264 260.828 107.33 262.148 107.344 262.126C107.446 262.513 107.563 262.922 107.694 263.367C107.95 264.191 108.241 265.125 108.628 266.11C109.034 267.18 109.501 268.225 110.029 269.24C110.613 270.382 111.299 271.468 112.079 272.487V272.523C111.743 272.29 110.78 271.669 110.7 271.626C109.584 271.071 107.096 270.655 106.118 271.626C105.961 271.797 105.842 272 105.768 272.221C105.694 272.441 105.667 272.675 105.689 272.907C105.711 273.139 105.781 273.363 105.895 273.566C106.01 273.769 106.165 273.945 106.352 274.084C106.778 274.376 107.263 274.569 107.773 274.65C108.283 274.73 108.804 274.697 109.299 274.551Z" fill="#263238"/>
<path opacity="0.3" d="M105.768 268.32C106.924 268.157 108.05 267.825 109.11 267.335C109.11 267.335 108.001 266.051 107.921 265.986C106.987 265.154 104.703 264.096 103.492 264.804C103.296 264.928 103.127 265.092 102.998 265.285C102.869 265.478 102.781 265.696 102.742 265.925C102.702 266.153 102.71 266.388 102.767 266.613C102.823 266.839 102.926 267.05 103.069 267.233C103.413 267.599 103.833 267.886 104.299 268.074C104.765 268.261 105.266 268.346 105.768 268.32Z" fill="#263238"/>
<path opacity="0.3" d="M128.881 259.216C128.881 259.216 128.662 257.538 128.633 257.435C128.312 256.232 126.984 254.087 125.591 254.006C125.358 254 125.127 254.044 124.912 254.133C124.697 254.223 124.503 254.356 124.344 254.526C124.184 254.695 124.062 254.896 123.985 255.116C123.908 255.336 123.879 255.569 123.898 255.801C123.984 256.296 124.176 256.767 124.462 257.18C124.748 257.594 125.121 257.94 125.554 258.194C126.459 258.814 128.881 259.216 128.881 259.216Z" fill="#263238"/>
<path opacity="0.3" d="M109.299 274.551C110.357 274.097 111.34 273.487 112.218 272.742C113.038 273.756 113.923 274.716 114.866 275.616C115.413 276.142 115.982 276.66 116.559 277.163C116.26 276.973 115.997 276.798 115.953 276.784C114.837 276.229 112.349 275.813 111.371 276.784C111.214 276.955 111.095 277.157 111.021 277.377C110.947 277.597 110.92 277.83 110.942 278.061C110.964 278.293 111.034 278.517 111.149 278.719C111.263 278.921 111.418 279.097 111.605 279.235C112.037 279.502 112.522 279.67 113.027 279.728C113.531 279.786 114.042 279.732 114.523 279.571C115.561 279.141 116.526 278.553 117.383 277.827L118.047 278.403C119.12 279.323 120.236 280.235 121.228 281.161C121.585 281.49 121.958 281.825 122.279 282.161C122.016 281.986 121.79 281.847 121.753 281.832C120.637 281.271 118.149 280.862 117.172 281.832C117.013 282.003 116.893 282.205 116.818 282.425C116.744 282.645 116.717 282.879 116.739 283.11C116.761 283.342 116.831 283.566 116.946 283.768C117.061 283.971 117.217 284.146 117.405 284.284C117.837 284.551 118.322 284.719 118.827 284.777C119.331 284.835 119.842 284.781 120.323 284.619C121.334 284.202 122.274 283.631 123.11 282.927C123.453 283.284 123.796 283.656 124.117 283.992C124.329 284.24 124.548 284.466 124.745 284.722L125.343 285.451C125.708 285.947 126.072 286.451 126.43 286.91C126.671 287.253 126.89 287.581 127.116 287.91C126.758 287.581 126.051 286.954 125.985 286.903C124.963 286.173 122.563 285.4 121.447 286.239C121.266 286.384 121.117 286.566 121.011 286.773C120.905 286.979 120.843 287.206 120.83 287.438C120.817 287.669 120.853 287.901 120.935 288.119C121.017 288.336 121.145 288.533 121.308 288.698C121.691 289.025 122.141 289.263 122.627 289.397C123.112 289.53 123.621 289.556 124.117 289.471C125.23 289.19 126.293 288.739 127.269 288.136C127.641 288.683 127.998 289.223 128.327 289.734C129.465 291.507 130.348 293.024 130.946 294.111L131.821 293.746L131.763 293.652C131.136 292.586 130.209 291.069 129.02 289.274C128.648 288.712 128.232 288.121 127.802 287.523C128.305 287.03 128.778 286.506 129.217 285.955C130.275 286.295 131.375 286.489 132.485 286.531C132.485 287.195 132.485 287.844 132.485 288.45C132.485 290.551 132.354 292.309 132.267 293.557L133.222 293.148C133.281 291.944 133.332 290.347 133.31 288.472C133.31 287.8 133.31 287.085 133.266 286.341C134.399 286.151 135.496 285.789 136.52 285.269C136.947 285.004 137.312 284.65 137.589 284.23C137.867 283.811 138.049 283.336 138.125 282.839C138.14 282.607 138.105 282.374 138.024 282.156C137.942 281.938 137.816 281.74 137.653 281.574C137.49 281.408 137.294 281.279 137.077 281.194C136.86 281.109 136.628 281.07 136.396 281.081C135.002 281.183 133.718 283.357 133.427 284.568C133.427 284.641 133.303 285.437 133.251 285.94C133.251 285.641 133.251 285.349 133.215 285.035C133.215 284.422 133.142 283.81 133.091 283.153C133.054 282.839 133.025 282.518 132.989 282.19C132.952 281.862 132.894 281.533 132.843 281.205C132.719 280.432 132.551 279.666 132.369 278.892C133.486 278.871 134.593 278.679 135.652 278.323C136.117 278.122 136.533 277.822 136.87 277.444C137.208 277.066 137.459 276.619 137.607 276.134C137.655 275.906 137.655 275.67 137.606 275.442C137.557 275.214 137.461 274.998 137.323 274.81C137.186 274.621 137.01 274.464 136.807 274.347C136.605 274.231 136.38 274.159 136.148 274.135C134.754 274.026 133.157 275.981 132.682 277.134C132.682 277.207 132.405 278.075 132.274 278.549C132.164 278.09 132.048 277.623 131.916 277.156C131.544 275.813 131.121 274.464 130.698 273.114L130.326 271.874C131.481 271.853 132.627 271.661 133.726 271.305C134.191 271.103 134.607 270.803 134.944 270.425C135.282 270.047 135.533 269.601 135.681 269.116C135.73 268.887 135.731 268.651 135.683 268.422C135.634 268.194 135.538 267.978 135.4 267.789C135.262 267.6 135.086 267.443 134.883 267.327C134.68 267.211 134.454 267.139 134.222 267.117C132.828 267.007 131.231 268.955 130.756 270.108C130.72 270.196 130.362 271.443 130.289 271.772C130.012 270.86 129.749 269.948 129.56 269.043C129.249 267.819 129.02 266.576 128.874 265.322C130.034 265.304 131.185 265.112 132.288 264.753C132.755 264.554 133.172 264.255 133.51 263.877C133.848 263.499 134.099 263.05 134.244 262.564C134.293 262.336 134.294 262.099 134.245 261.871C134.197 261.642 134.101 261.426 133.963 261.237C133.825 261.048 133.649 260.891 133.446 260.775C133.243 260.659 133.017 260.588 132.785 260.565C131.391 260.456 129.793 262.411 129.312 263.564C129.312 263.637 129.013 264.585 128.896 265.023H128.816C128.706 263.758 128.706 262.486 128.816 261.222C128.874 260.492 128.962 259.858 129.064 259.215C130.193 259.324 131.332 259.257 132.442 259.018C132.925 258.875 133.372 258.628 133.75 258.294C134.128 257.96 134.428 257.547 134.63 257.085C134.704 256.865 134.731 256.633 134.709 256.402C134.687 256.171 134.617 255.947 134.502 255.746C134.388 255.544 134.233 255.369 134.046 255.231C133.859 255.093 133.646 254.997 133.419 254.947C132.04 254.677 130.238 256.443 129.64 257.537C129.64 257.603 129.341 258.267 129.159 258.712C129.21 258.42 129.253 258.121 129.304 257.844C129.509 256.808 129.749 255.867 129.976 255.042C130.107 254.568 130.238 254.145 130.362 253.751C131.419 253.33 132.404 252.746 133.281 252.022C133.642 251.673 133.924 251.249 134.105 250.781C134.287 250.312 134.364 249.809 134.331 249.308C134.267 249.092 134.16 248.892 134.015 248.719C133.871 248.546 133.693 248.405 133.493 248.303C133.292 248.201 133.072 248.141 132.848 248.127C132.623 248.113 132.398 248.145 132.186 248.221C130.844 248.615 130.056 251.015 129.998 252.263C129.998 252.372 130.151 254.065 130.18 254.05C130.053 254.42 129.922 254.828 129.786 255.276C129.545 256.1 129.275 257.041 129.056 258.077C128.805 259.194 128.618 260.324 128.495 261.463C128.357 262.737 128.33 264.021 128.414 265.3C128.414 265.3 128.414 265.3 128.414 265.344C128.261 264.965 127.801 263.885 127.758 263.834C127.13 262.754 125.284 261.039 123.92 261.339C123.692 261.393 123.478 261.495 123.293 261.639C123.107 261.782 122.955 261.963 122.845 262.17C122.735 262.378 122.671 262.606 122.656 262.84C122.642 263.074 122.677 263.308 122.76 263.527C122.968 263.98 123.271 264.382 123.649 264.707C124.027 265.032 124.47 265.272 124.949 265.41C126.085 265.619 127.246 265.654 128.392 265.512C128.516 266.813 128.723 268.104 129.013 269.379C129.18 270.108 129.37 270.838 129.574 271.567C129.428 271.246 129.304 270.954 129.275 270.918C128.655 269.838 126.809 268.116 125.438 268.415C125.21 268.471 124.997 268.574 124.812 268.717C124.628 268.861 124.475 269.042 124.366 269.249C124.256 269.456 124.192 269.684 124.176 269.917C124.161 270.151 124.196 270.385 124.278 270.604C124.491 271.06 124.802 271.464 125.187 271.788C125.573 272.112 126.024 272.348 126.51 272.479C127.612 272.687 128.738 272.727 129.852 272.596L130.092 273.45C130.479 274.807 130.873 276.164 131.216 277.506C131.34 277.973 131.442 278.447 131.544 278.914C131.42 278.63 131.311 278.381 131.289 278.352C130.661 277.273 128.816 275.551 127.451 275.85C127.224 275.905 127.011 276.008 126.826 276.152C126.641 276.295 126.489 276.477 126.379 276.684C126.27 276.89 126.205 277.118 126.19 277.352C126.175 277.585 126.209 277.819 126.291 278.039C126.504 278.493 126.814 278.897 127.198 279.22C127.582 279.544 128.032 279.781 128.516 279.914C129.588 280.122 130.686 280.164 131.77 280.038C131.865 280.519 131.96 281.008 132.026 281.497C132.026 281.818 132.128 282.124 132.15 282.453C132.172 282.781 132.201 283.102 132.23 283.416C132.23 284.028 132.288 284.663 132.303 285.261C132.303 285.685 132.303 286.079 132.303 286.48C132.194 286.006 131.946 285.086 131.916 285.021C131.478 284.013 130.787 283.136 129.91 282.474C129.868 282.36 129.815 282.25 129.749 282.146C129.634 281.945 129.477 281.77 129.29 281.633C129.102 281.496 128.888 281.4 128.661 281.351C128.434 281.302 128.199 281.301 127.972 281.349C127.745 281.397 127.53 281.492 127.342 281.628C126.233 282.482 126.357 285.006 126.78 286.181C126.78 286.246 127.159 286.969 127.393 287.421L126.86 286.691C126.503 286.195 126.131 285.714 125.722 285.188L125.109 284.459C124.905 284.204 124.664 283.963 124.445 283.729C123.913 283.16 123.351 282.606 122.767 282.059C123.689 281.432 124.507 280.663 125.19 279.782C125.469 279.363 125.654 278.888 125.731 278.391C125.808 277.893 125.775 277.384 125.635 276.9C125.558 276.689 125.438 276.496 125.284 276.333C125.13 276.169 124.944 276.039 124.738 275.95C124.532 275.86 124.31 275.814 124.085 275.813C123.861 275.812 123.638 275.857 123.431 275.945C122.206 276.616 121.972 279.126 122.191 280.322C122.191 280.402 122.476 281.263 122.636 281.73C122.286 281.409 121.907 281.081 121.571 280.767C120.513 279.848 119.382 278.958 118.324 278.06L117.325 277.236C118.278 276.585 119.127 275.793 119.842 274.887C120.127 274.463 120.314 273.982 120.391 273.478C120.468 272.973 120.433 272.458 120.287 271.968C120.202 271.752 120.073 271.556 119.908 271.392C119.743 271.229 119.545 271.102 119.328 271.021C119.11 270.939 118.878 270.903 118.646 270.917C118.414 270.931 118.188 270.993 117.981 271.1C116.756 271.779 116.522 274.281 116.741 275.478C116.741 275.573 117.15 276.813 117.266 277.119C116.537 276.514 115.807 275.901 115.129 275.266C114.198 274.414 113.321 273.505 112.502 272.545C113.462 271.888 114.318 271.092 115.041 270.181C115.318 269.761 115.501 269.286 115.576 268.788C115.652 268.291 115.619 267.783 115.479 267.299C115.391 267.091 115.261 266.903 115.098 266.747C114.935 266.591 114.741 266.47 114.529 266.391C114.317 266.312 114.092 266.278 113.866 266.29C113.64 266.302 113.42 266.36 113.217 266.46C111.999 267.139 111.758 269.641 111.977 270.838C111.977 270.918 112.291 271.866 112.444 272.297H112.378C111.584 271.307 110.881 270.247 110.277 269.13C109.934 268.518 109.642 267.912 109.372 267.321C110.374 266.789 111.287 266.105 112.079 265.293C112.398 264.905 112.628 264.452 112.754 263.965C112.88 263.479 112.899 262.971 112.809 262.477C112.748 262.253 112.642 262.045 112.496 261.865C112.35 261.685 112.168 261.538 111.962 261.433C111.756 261.327 111.53 261.267 111.299 261.254C111.067 261.242 110.836 261.278 110.62 261.36C109.329 261.9 108.796 264.366 108.905 265.607C108.905 265.672 109.044 266.336 109.146 266.854C109.029 266.584 108.898 266.307 108.796 266.044C108.387 265.074 108.066 264.155 107.804 263.338C107.651 262.871 107.526 262.448 107.41 262.046C108.051 261.116 108.543 260.092 108.869 259.011C108.976 258.521 108.975 258.013 108.867 257.523C108.759 257.033 108.545 256.573 108.241 256.173C108.086 256 107.896 255.861 107.684 255.767C107.471 255.672 107.241 255.623 107.009 255.623C106.776 255.623 106.546 255.672 106.333 255.767C106.121 255.861 105.931 256 105.776 256.173C104.878 257.246 105.542 259.675 106.206 260.733C106.264 260.828 107.33 262.148 107.344 262.126C107.446 262.513 107.563 262.922 107.694 263.367C107.95 264.191 108.241 265.125 108.628 266.11C109.034 267.18 109.501 268.225 110.029 269.24C110.613 270.382 111.299 271.468 112.079 272.487V272.523C111.743 272.29 110.78 271.669 110.7 271.626C109.584 271.071 107.096 270.655 106.118 271.626C105.961 271.797 105.842 272 105.768 272.221C105.694 272.441 105.667 272.675 105.689 272.907C105.711 273.139 105.781 273.363 105.895 273.566C106.01 273.769 106.165 273.945 106.352 274.084C106.778 274.376 107.263 274.569 107.773 274.65C108.283 274.73 108.804 274.697 109.299 274.551Z" fill="#263238"/>
<path d="M54.7999 146.153C55.0254 145.84 55.1867 145.485 55.2744 145.11C55.362 144.734 55.3743 144.345 55.3106 143.964C55.0932 143.164 54.5688 142.482 53.8514 142.067L53.7347 142.002L45.7458 143.38C45.9309 141.929 45.9627 140.461 45.8407 139.003C45.6145 137.69 44.7171 135.472 43.5133 134.874C43.081 134.685 42.6068 134.614 42.1382 134.666C41.6696 134.719 41.2229 134.893 40.843 135.173C40.5925 135.375 40.41 135.649 40.32 135.958C40.23 136.267 40.2369 136.597 40.3396 136.902C40.7409 138.361 40.7263 141.119 39.486 144.365C38.3844 147.233 36.9033 147.32 36.8158 147.32H36.7355L36.6334 147.371C36.5006 147.276 36.3503 147.209 36.1913 147.173C36.0322 147.136 35.8676 147.132 35.7068 147.16L29.8702 148.166C29.7072 148.195 29.5515 148.255 29.4121 148.344C29.2726 148.432 29.1522 148.548 29.0578 148.684C28.9635 148.82 28.897 148.973 28.8624 149.134C28.8278 149.296 28.8256 149.463 28.8561 149.626L30.5852 159.635C30.6123 159.799 30.672 159.955 30.7605 160.095C30.8491 160.235 30.9648 160.356 31.1008 160.45C31.2368 160.545 31.3903 160.611 31.5524 160.645C31.7144 160.68 31.8817 160.681 32.0443 160.65L37.8809 159.643C38.0437 159.615 38.1992 159.554 38.3383 159.466C38.4774 159.377 38.5974 159.261 38.6912 159.125C38.7849 158.989 38.8506 158.836 38.8844 158.674C38.9182 158.512 38.9193 158.346 38.8878 158.184L38.8294 157.841L39.2161 157.884C40.2959 158.03 42.1344 158.111 42.2073 158.111L53.151 156.221H53.2021C53.6088 156.055 53.9729 155.8 54.2672 155.474C54.5616 155.148 54.7786 154.76 54.902 154.339C54.9913 153.838 54.9036 153.322 54.654 152.88C54.9638 152.322 55.1264 151.694 55.1264 151.056C55.1264 150.417 54.9638 149.79 54.654 149.232C54.9896 148.795 55.1835 148.265 55.2095 147.715C55.2356 147.165 55.0927 146.62 54.7999 146.153ZM53.9973 148.925L53.8149 149.137L53.9755 149.378C54.2765 149.864 54.4359 150.425 54.4359 150.997C54.4359 151.569 54.2765 152.13 53.9755 152.617L53.8295 152.843L53.99 153.055C54.1047 153.213 54.1864 153.393 54.2303 153.583C54.2742 153.774 54.2793 153.971 54.2454 154.164C54.146 154.465 53.9823 154.741 53.7657 154.973C53.549 155.205 53.2845 155.387 52.9905 155.506L42.2146 157.366C41.9301 157.366 40.2886 157.272 39.2963 157.148L38.6835 157.075L37.1514 148.188C37.1514 148.137 37.1514 148.094 37.1514 148.05C37.7642 147.918 39.2015 147.32 40.2229 144.65C41.5288 141.235 41.5361 138.317 41.0984 136.719C41.037 136.554 41.0286 136.374 41.0744 136.204C41.1202 136.034 41.2178 135.883 41.3537 135.771C41.622 135.584 41.9329 135.467 42.2579 135.432C42.5829 135.396 42.9117 135.442 43.2142 135.567C44.0313 135.968 44.9068 137.755 45.1403 139.142C45.2329 140.685 45.1792 142.234 44.9797 143.767L44.9141 144.271L53.6253 142.768C53.8935 142.921 54.1228 143.134 54.2956 143.39C54.4683 143.646 54.5798 143.938 54.6214 144.245C54.663 144.551 54.6336 144.862 54.5355 145.155C54.4375 145.448 54.2733 145.715 54.0557 145.934L53.8806 146.167L54.0703 146.394C54.3564 146.757 54.5057 147.21 54.4924 147.673C54.4791 148.135 54.3039 148.578 53.9973 148.925Z" fill="#263238"/>
<path d="M307.964 118.428C308.189 118.115 308.351 117.761 308.438 117.385C308.526 117.009 308.538 116.62 308.474 116.239C308.257 115.44 307.733 114.758 307.015 114.343L306.899 114.277L298.91 115.656C299.095 114.204 299.127 112.737 299.004 111.278C298.778 109.965 297.881 107.747 296.677 107.149C296.245 106.961 295.771 106.889 295.302 106.942C294.833 106.994 294.387 107.169 294.007 107.448C293.756 107.65 293.574 107.924 293.484 108.234C293.394 108.543 293.401 108.872 293.503 109.177C293.905 110.636 293.89 113.394 292.65 116.641C291.548 119.508 290.067 119.596 289.98 119.596H289.899L289.797 119.647C289.664 119.552 289.514 119.484 289.355 119.448C289.196 119.412 289.031 119.407 288.871 119.435L283.034 120.442C282.871 120.47 282.715 120.53 282.576 120.619C282.436 120.708 282.316 120.823 282.222 120.959C282.127 121.095 282.061 121.248 282.026 121.41C281.992 121.572 281.989 121.738 282.02 121.901L283.749 131.911C283.776 132.074 283.836 132.23 283.924 132.37C284.013 132.51 284.129 132.631 284.265 132.726C284.401 132.82 284.554 132.887 284.716 132.921C284.878 132.955 285.046 132.956 285.208 132.925L291.045 131.918C291.207 131.89 291.363 131.83 291.502 131.741C291.641 131.652 291.761 131.536 291.855 131.4C291.949 131.264 292.014 131.111 292.048 130.949C292.082 130.788 292.083 130.621 292.052 130.459L291.993 130.116L292.38 130.16C293.46 130.306 295.298 130.386 295.371 130.386L306.315 128.496H306.366C306.773 128.331 307.137 128.075 307.431 127.75C307.725 127.424 307.942 127.036 308.066 126.614C308.155 126.114 308.067 125.598 307.818 125.155C308.128 124.597 308.29 123.969 308.29 123.331C308.29 122.693 308.128 122.065 307.818 121.507C308.153 121.07 308.347 120.541 308.373 119.99C308.399 119.44 308.256 118.895 307.964 118.428ZM307.161 121.201L306.979 121.412L307.139 121.653C307.44 122.14 307.6 122.7 307.6 123.273C307.6 123.845 307.44 124.406 307.139 124.892L306.993 125.118L307.154 125.33C307.269 125.488 307.35 125.668 307.394 125.859C307.438 126.049 307.443 126.246 307.409 126.439C307.31 126.74 307.146 127.016 306.929 127.248C306.713 127.48 306.448 127.662 306.154 127.781L295.378 129.642C295.094 129.642 293.452 129.547 292.46 129.423L291.847 129.35L290.315 120.464C290.315 120.413 290.315 120.369 290.315 120.325C290.928 120.194 292.365 119.596 293.387 116.925C294.693 113.511 294.7 110.593 294.262 108.995C294.201 108.83 294.192 108.65 294.238 108.48C294.284 108.31 294.382 108.158 294.518 108.046C294.786 107.859 295.097 107.743 295.422 107.707C295.747 107.671 296.076 107.718 296.378 107.842C297.195 108.243 298.071 110.031 298.304 111.417C298.397 112.96 298.343 114.509 298.144 116.042L298.078 116.546L306.789 115.043C307.057 115.196 307.287 115.409 307.459 115.665C307.632 115.921 307.744 116.214 307.785 116.52C307.827 116.826 307.797 117.138 307.699 117.431C307.601 117.724 307.437 117.99 307.22 118.209L307.044 118.443L307.234 118.669C307.52 119.033 307.67 119.485 307.656 119.948C307.643 120.411 307.468 120.854 307.161 121.201Z" fill="#263238"/>
<path d="M250.976 212.522C251.252 212.248 251.47 211.922 251.618 211.562C251.766 211.203 251.84 210.817 251.837 210.429C251.763 209.608 251.367 208.849 250.736 208.32L250.633 208.233H242.542C242.972 206.846 243.253 205.418 243.381 203.972C243.381 202.637 242.878 200.324 241.784 199.507C241.389 199.248 240.934 199.096 240.463 199.068C239.992 199.04 239.521 199.136 239.099 199.346C238.819 199.505 238.594 199.745 238.453 200.034C238.313 200.323 238.263 200.648 238.311 200.966C238.457 202.491 237.983 205.19 236.202 208.174C234.634 210.815 233.153 210.647 233.072 210.64H232.992H232.883C232.769 210.524 232.632 210.432 232.482 210.369C232.332 210.306 232.17 210.275 232.007 210.275H226.09C225.761 210.275 225.446 210.406 225.213 210.639C224.981 210.871 224.85 211.187 224.85 211.516V221.671C224.85 222 224.981 222.316 225.213 222.548C225.446 222.781 225.761 222.912 226.09 222.912H232.007C232.336 222.912 232.652 222.781 232.884 222.548C233.117 222.316 233.248 222 233.248 221.671V221.321L233.62 221.431C234.663 221.752 236.45 222.16 236.538 222.16H247.715H247.773C248.201 222.066 248.603 221.877 248.947 221.607C249.292 221.336 249.572 220.992 249.765 220.599C249.951 220.11 249.951 219.57 249.765 219.081C250.166 218.59 250.435 218.004 250.547 217.38C250.659 216.756 250.611 216.114 250.407 215.514C250.793 215.131 251.054 214.64 251.155 214.106C251.257 213.572 251.194 213.02 250.976 212.522ZM249.721 215.12L249.503 215.302L249.619 215.557C249.83 216.089 249.888 216.669 249.788 217.232C249.687 217.796 249.432 218.32 249.05 218.746L248.868 218.943L248.992 219.183C249.16 219.541 249.181 219.949 249.05 220.322C248.902 220.601 248.694 220.845 248.442 221.036C248.19 221.228 247.9 221.362 247.591 221.431H236.647C236.377 221.365 234.765 221.007 233.838 220.701L233.248 220.526V211.53C233.251 211.484 233.251 211.438 233.248 211.392C233.875 211.392 235.393 211.027 236.859 208.561C238.727 205.416 239.223 202.542 239.048 200.893C239.013 200.72 239.034 200.541 239.107 200.381C239.18 200.221 239.303 200.089 239.456 200.003C239.754 199.865 240.081 199.803 240.409 199.823C240.736 199.844 241.053 199.946 241.331 200.12C242.061 200.652 242.615 202.593 242.615 203.972C242.447 205.509 242.129 207.026 241.667 208.502L241.521 208.984H250.378C250.785 209.37 251.043 209.886 251.108 210.443C251.098 210.774 251.017 211.099 250.871 211.396C250.725 211.693 250.517 211.955 250.261 212.165L250.05 212.362L250.196 212.617C250.424 213.023 250.502 213.497 250.415 213.955C250.328 214.413 250.083 214.825 249.721 215.12Z" fill="#263238"/>
<path d="M277.92 281.314C278.118 280.978 278.246 280.604 278.295 280.216C278.344 279.829 278.313 279.435 278.204 279.06C277.915 278.29 277.333 277.666 276.585 277.323L276.461 277.265L268.647 279.454C268.687 278.002 268.574 276.549 268.311 275.12C267.954 273.843 266.852 271.72 265.582 271.253C265.133 271.107 264.653 271.082 264.19 271.18C263.728 271.279 263.299 271.498 262.949 271.815C262.721 272.043 262.568 272.334 262.509 272.651C262.45 272.967 262.489 273.294 262.62 273.588C263.168 275.047 263.43 277.747 262.526 281.095C261.716 284.065 260.249 284.298 260.162 284.306H260.081L259.987 284.364C259.7 284.205 259.362 284.163 259.045 284.247L253.347 285.838C253.19 285.88 253.042 285.953 252.913 286.053C252.784 286.152 252.675 286.277 252.595 286.419C252.514 286.561 252.462 286.717 252.442 286.879C252.423 287.041 252.435 287.205 252.479 287.362L255.201 297.146C255.289 297.462 255.499 297.73 255.785 297.892C256.071 298.053 256.409 298.094 256.725 298.007L262.431 296.424C262.744 296.335 263.009 296.127 263.17 295.845C263.331 295.562 263.375 295.228 263.292 294.914L263.197 294.571H263.583C264.678 294.571 266.502 294.49 266.582 294.49H266.626L277.351 291.506L277.402 291.47C277.79 291.265 278.126 290.974 278.387 290.62C278.647 290.267 278.824 289.859 278.905 289.427C278.953 288.908 278.811 288.389 278.503 287.968C278.765 287.382 278.871 286.739 278.812 286.1C278.754 285.461 278.532 284.848 278.168 284.32C278.432 283.852 278.55 283.315 278.506 282.779C278.461 282.243 278.257 281.733 277.92 281.314ZM277.402 284.152L277.248 284.386L277.424 284.605C277.77 285.06 277.982 285.604 278.036 286.173C278.091 286.743 277.984 287.317 277.73 287.829L277.606 288.07L277.788 288.26C277.919 288.407 278.019 288.579 278.082 288.766C278.145 288.953 278.169 289.15 278.153 289.347C278.081 289.655 277.944 289.945 277.752 290.196C277.559 290.448 277.316 290.656 277.037 290.806L266.502 293.724C266.225 293.724 264.576 293.827 263.583 293.797H262.963L260.592 285.101C260.584 285.057 260.569 285.016 260.548 284.977C261.147 284.78 262.518 284.05 263.27 281.278C264.233 277.754 263.941 274.85 263.35 273.303C263.269 273.146 263.24 272.968 263.268 272.793C263.296 272.619 263.378 272.458 263.503 272.333C263.752 272.121 264.049 271.973 264.369 271.905C264.689 271.836 265.02 271.848 265.334 271.939C266.188 272.26 267.239 273.982 267.611 275.31C267.857 276.836 267.957 278.383 267.91 279.928V280.431L276.424 278.068C276.704 278.196 276.951 278.387 277.146 278.625C277.341 278.863 277.479 279.143 277.55 279.443C277.62 279.743 277.621 280.055 277.552 280.355C277.484 280.656 277.347 280.936 277.154 281.176L277 281.424L277.212 281.628C277.529 281.964 277.719 282.4 277.749 282.861C277.778 283.322 277.645 283.779 277.372 284.152H277.402Z" fill="#263238"/>
<path d="M292.613 41.0933C292.957 40.9093 293.26 40.6572 293.503 40.3524C293.747 40.0476 293.925 39.6965 294.029 39.3205C294.18 38.5102 294.01 37.6729 293.555 36.9858L293.482 36.8764L285.675 34.6876C286.464 33.4706 287.124 32.1747 287.645 30.8209C288.01 29.5368 288.163 27.173 287.331 26.0859C287.021 25.7315 286.623 25.4639 286.178 25.3091C285.733 25.1544 285.256 25.1179 284.792 25.2031C284.479 25.2778 284.196 25.4463 283.981 25.6862C283.766 25.9261 283.629 26.2259 283.588 26.5455C283.311 28.0558 282.129 30.5144 279.59 32.9002C277.358 35.0159 275.943 34.4469 275.906 34.4177H275.833H275.724C275.566 34.135 275.304 33.9253 274.994 33.834L269.296 32.2144C268.988 32.1191 268.656 32.1473 268.368 32.293C268.081 32.4387 267.862 32.6905 267.757 32.995L264.97 42.7641C264.88 43.0804 264.919 43.4196 265.079 43.7069C265.239 43.9942 265.507 44.2062 265.823 44.2962L271.536 45.9159C271.851 46.0036 272.188 45.9631 272.474 45.8032C272.76 45.6433 272.971 45.377 273.061 45.0623L273.163 44.7193L273.484 44.9309C274.403 45.5219 276.015 46.3901 276.081 46.3901L286.857 49.4908C287.295 49.5165 287.732 49.4432 288.138 49.2765C288.543 49.1098 288.906 48.8539 289.199 48.5278C289.514 48.1096 289.664 47.5904 289.622 47.0686C290.146 46.7086 290.569 46.2207 290.851 45.6512C291.133 45.0817 291.265 44.4495 291.234 43.8147C291.713 43.5546 292.102 43.155 292.348 42.6689C292.594 42.1828 292.687 41.6333 292.613 41.0933ZM290.695 43.2821L290.439 43.3988V43.6761C290.502 44.2464 290.402 44.8227 290.152 45.339C289.901 45.8552 289.51 46.2903 289.024 46.5944L288.79 46.733L288.849 46.9956C288.913 47.3868 288.822 47.7878 288.593 48.1119C288.371 48.3379 288.103 48.5141 287.808 48.6285C287.512 48.743 287.195 48.7932 286.879 48.7758L276.358 45.7845C276.118 45.6532 274.666 44.8726 273.849 44.3254L273.331 43.9971L275.797 35.3224C275.801 35.2763 275.801 35.2299 275.797 35.1838C276.409 35.337 277.985 35.4172 280.043 33.4474C282.698 30.9376 283.961 28.3403 284.26 26.6769C284.28 26.5044 284.352 26.3421 284.467 26.2118C284.581 26.0814 284.733 25.9892 284.902 25.9473C285.226 25.8956 285.557 25.9251 285.867 26.0334C286.176 26.1417 286.454 26.3252 286.675 26.5674C287.229 27.297 287.229 29.3033 286.857 30.6239C286.274 32.0573 285.554 33.4305 284.705 34.7241L284.435 35.1546L292.934 37.5695C293.229 38.0519 293.335 38.6259 293.234 39.1818C293.141 39.5041 292.979 39.8019 292.758 40.0542C292.538 40.3064 292.264 40.5068 291.957 40.641L291.694 40.7796L291.767 41.0642C291.859 41.4954 291.804 41.9451 291.609 42.3409C291.415 42.7367 291.092 43.0554 290.695 43.2456V43.2821Z" fill="#263238"/>
<path d="M183.257 9.84536C183.447 9.50527 183.566 9.12957 183.605 8.74171C183.643 8.35384 183.602 7.96212 183.483 7.59096C183.167 6.82474 182.561 6.214 181.798 5.89104L181.674 5.83997L173.918 8.22569C173.918 6.77417 173.767 5.32662 173.466 3.90659C173.072 2.62982 171.905 0.543229 170.628 0.105482C170.174 -0.0251544 169.694 -0.034618 169.236 0.0780347C168.778 0.190687 168.357 0.421519 168.016 0.747511C167.794 0.980873 167.649 1.27627 167.599 1.59432C167.55 1.91236 167.598 2.23796 167.739 2.52768C168.322 3.94307 168.658 6.6571 167.841 10.0351C167.111 13.019 165.652 13.2963 165.572 13.3036H165.492L165.397 13.3619C165.253 13.2844 165.094 13.2367 164.931 13.2216C164.768 13.2066 164.604 13.2245 164.448 13.2744L158.794 15.0108C158.48 15.1068 158.216 15.3236 158.062 15.6136C157.907 15.9036 157.874 16.2431 157.97 16.5575L160.954 26.2682C161.002 26.424 161.08 26.5687 161.185 26.6941C161.289 26.8195 161.417 26.9231 161.561 26.999C161.705 27.0749 161.863 27.1216 162.026 27.1364C162.188 27.1512 162.352 27.1339 162.508 27.0853L168.162 25.3489C168.476 25.2529 168.739 25.0361 168.894 24.7461C169.049 24.4561 169.082 24.1166 168.986 23.8022L168.877 23.4666H169.263C170.358 23.4666 172.182 23.3207 172.262 23.3134L182.907 20.0449H182.958C183.343 19.8299 183.674 19.5305 183.927 19.1691C184.18 18.8077 184.347 18.3937 184.417 17.9583C184.45 17.4352 184.295 16.9174 183.979 16.4991C184.216 15.9131 184.301 15.2766 184.226 14.6489C184.151 14.0213 183.918 13.4229 183.549 12.9096C183.819 12.4302 183.936 11.8795 183.884 11.3317C183.832 10.7838 183.613 10.2651 183.257 9.84536ZM182.819 12.698L182.666 12.9388L182.856 13.1504C183.213 13.5958 183.44 14.1323 183.509 14.6994C183.579 15.2665 183.489 15.8417 183.249 16.3605L183.125 16.6086L183.315 16.7982C183.45 16.9413 183.554 17.11 183.621 17.2943C183.689 17.4786 183.719 17.6747 183.709 17.8707C183.644 18.177 183.514 18.4658 183.328 18.7175C183.141 18.9692 182.903 19.1781 182.629 19.3299L172.182 22.54C171.905 22.54 170.263 22.6932 169.263 22.6932H168.665L166.017 14.0696C166.004 14.0266 165.987 13.985 165.966 13.9456C166.564 13.734 167.906 12.9607 168.585 10.1737C169.446 6.62062 169.081 3.72419 168.446 2.19937C168.363 2.04314 168.331 1.86481 168.355 1.68944C168.378 1.51408 168.456 1.35052 168.578 1.22174C168.821 1.0029 169.116 0.848264 169.434 0.771831C169.753 0.695398 170.085 0.699578 170.402 0.78399C171.263 1.07582 172.357 2.77574 172.758 4.08898C173.048 5.60877 173.192 7.15275 173.189 8.69992V9.20333L181.637 6.60603C182.148 6.85266 182.551 7.2785 182.768 7.80254C182.855 8.12072 182.873 8.45373 182.822 8.7795C182.77 9.10527 182.65 9.41636 182.469 9.69215L182.323 9.9475L182.542 10.1518C182.882 10.4755 183.095 10.9104 183.142 11.3776C183.188 11.8447 183.066 12.3132 182.797 12.698H182.819Z" fill="#263238"/>
<path d="M78.803 48.2649C79.0416 48.0291 79.2295 47.7469 79.3549 47.4357C79.4804 47.1245 79.5409 46.791 79.5326 46.4556C79.4667 45.7487 79.1293 45.0949 78.5914 44.6316L78.4966 44.5587H71.4926C71.8643 43.372 72.1088 42.1491 72.2222 40.9108C72.2222 39.758 71.7844 37.7371 70.8506 37.0586C70.5099 36.8342 70.1163 36.7033 69.7091 36.6789C69.3019 36.6546 68.8955 36.7377 68.5305 36.92C68.2873 37.0542 68.0912 37.2597 67.9686 37.5089C67.8459 37.7581 67.8027 38.0389 67.8447 38.3135C67.976 39.634 67.5602 41.9614 66.0281 44.5441C64.6711 46.8204 63.3943 46.6744 63.3213 46.6672H63.2557H63.1608C62.9685 46.4705 62.7063 46.3577 62.4312 46.3534H57.3242C57.1837 46.3525 57.0444 46.3793 56.9143 46.4324C56.7842 46.4855 56.666 46.5638 56.5663 46.6628C56.4666 46.7618 56.3875 46.8796 56.3335 47.0093C56.2795 47.139 56.2517 47.2781 56.2517 47.4186V56.1736C56.2517 56.458 56.3647 56.7308 56.5658 56.9319C56.767 57.1331 57.0398 57.246 57.3242 57.246H62.4312C62.7157 57.246 62.9885 57.1331 63.1896 56.9319C63.3907 56.7308 63.5037 56.458 63.5037 56.1736V55.8744L63.8247 55.9693C64.7221 56.2465 66.2688 56.5821 66.3345 56.5967H76.0087H76.0525C76.4232 56.515 76.7707 56.3505 77.0689 56.1155C77.3671 55.8805 77.6082 55.5811 77.7743 55.2397C77.9334 54.8189 77.9334 54.3545 77.7743 53.9338C78.121 53.5101 78.3539 53.005 78.4509 52.4663C78.5479 51.9275 78.5059 51.3729 78.3288 50.8549C78.6619 50.5227 78.8857 50.0968 78.9704 49.634C79.0552 49.1712 78.9968 48.6936 78.803 48.2649ZM77.7232 50.5047L77.5335 50.6652L77.6284 50.8841C77.8137 51.3434 77.8661 51.8455 77.7796 52.3332C77.6932 52.8208 77.4714 53.2743 77.1396 53.6419L76.979 53.8097L77.0885 54.014C77.1631 54.1662 77.2061 54.332 77.2148 54.5013C77.2236 54.6705 77.198 54.8398 77.1396 54.9989C77.0097 55.2392 76.8298 55.4488 76.6121 55.6136C76.3944 55.7785 76.1438 55.8948 75.8774 55.9547H66.4293C66.1959 55.9036 64.8097 55.5972 64.0071 55.3491L63.4964 55.1959V47.404C63.4998 47.3652 63.4998 47.3261 63.4964 47.2873C64.0436 47.2873 65.3496 46.9736 66.6117 44.8432C68.2314 42.1292 68.6618 39.6486 68.5232 38.2259C68.4943 38.0758 68.5132 37.9204 68.5774 37.7816C68.6415 37.6429 68.7476 37.5278 68.8807 37.4526C69.1369 37.3345 69.4183 37.282 69.6998 37.2999C69.9813 37.3177 70.2539 37.4053 70.4931 37.5547C71.1278 38.0143 71.602 39.6924 71.602 40.8816C71.456 42.2077 71.1849 43.5171 70.7922 44.7921L70.6609 45.208H78.2923C78.6515 45.5418 78.8749 45.9964 78.9197 46.4848C78.9099 46.7661 78.8396 47.042 78.7137 47.2937C78.5879 47.5455 78.4093 47.7672 78.1901 47.9439L78.0078 48.119L78.1318 48.3379C78.3323 48.6887 78.4014 49.0995 78.3265 49.4965C78.2516 49.8936 78.0377 50.2511 77.7232 50.5047Z" fill="#263238"/>
<path d="M249.437 56.0273H219.524C218.231 56.0273 216.99 56.5406 216.075 57.4543C215.16 58.3681 214.645 59.6077 214.643 60.9009V78.2284C214.645 79.5217 215.16 80.7612 216.075 81.675C216.99 82.5888 218.231 83.102 219.524 83.102H231.781L234.51 87.837L237.246 83.102H249.415C250.707 83.102 251.947 82.5886 252.861 81.6746C253.775 80.7606 254.289 79.521 254.289 78.2284V60.9009C254.289 59.6122 253.778 58.3758 252.869 57.4625C251.96 56.5492 250.726 56.0331 249.437 56.0273Z" fill="white" stroke="#263238" stroke-linecap="round" stroke-linejoin="round"/>
<path d="M245.636 66.862C245.636 67.5978 245.491 68.3265 245.21 69.0063C244.928 69.6861 244.515 70.3036 243.994 70.8236L242.535 72.2828L234.605 80.2206L226.667 72.2828L225.208 70.8236C224.318 69.7493 223.861 68.3822 223.925 66.989C223.988 65.5958 224.569 64.2762 225.553 63.2878C226.537 62.2993 227.854 61.7127 229.246 61.6425C230.639 61.5722 232.009 62.0232 233.087 62.9077L234.546 64.3668L236.005 62.9077C236.79 62.1219 237.791 61.5869 238.881 61.3703C239.97 61.1538 241.099 61.2655 242.125 61.6914C243.151 62.1172 244.027 62.838 244.643 63.7623C245.259 64.6867 245.587 65.7731 245.585 66.8839L245.636 66.862Z" fill="#92E3A9" stroke="#263238" stroke-linecap="round" stroke-linejoin="round"/>
<path d="M80.5102 113.008L54.4059 117.13C53.2766 117.309 52.2645 117.929 51.5916 118.854C50.9188 119.778 50.64 120.932 50.8164 122.062L53.2021 137.171C53.3816 138.301 54.0015 139.313 54.9261 139.986C55.8506 140.659 57.0043 140.937 58.1341 140.761L68.837 139.068L71.8793 142.826L73.6084 138.317L84.2384 136.639C85.3672 136.459 86.3787 135.839 87.0504 134.914C87.7221 133.99 87.9992 132.836 87.8206 131.707L85.4422 116.597C85.2627 115.468 84.6428 114.456 83.7182 113.783C82.7937 113.11 81.64 112.831 80.5102 113.008Z" fill="white" stroke="#263238" stroke-linecap="round" stroke-linejoin="round"/>
<path d="M78.6864 122.996C78.8902 124.296 78.5701 125.623 77.7963 126.688L76.7384 128.19L70.9018 136.216L62.8764 130.379L61.337 129.299C60.5417 128.72 59.9369 127.916 59.5993 126.992C59.2618 126.067 59.2069 125.063 59.4415 124.108C59.6762 123.152 60.1898 122.287 60.9171 121.624C61.6443 120.961 62.5524 120.53 63.5257 120.384C64.8116 120.186 66.1236 120.506 67.1736 121.274L68.6839 122.368L69.7709 120.865C70.3478 120.071 71.1475 119.466 72.0687 119.126C72.9899 118.786 73.9912 118.727 74.9459 118.957C75.9005 119.187 76.7655 119.694 77.4313 120.416C78.0972 121.138 78.534 122.04 78.6864 123.01V122.996Z" fill="#92E3A9" stroke="#263238" stroke-linecap="round" stroke-linejoin="round"/>
<path d="M77.8109 278.315L58.1779 285.823C57.7573 285.983 57.3725 286.226 57.0454 286.535C56.7184 286.845 56.4556 287.216 56.272 287.627C56.0884 288.039 55.9876 288.482 55.9754 288.932C55.9632 289.382 56.0397 289.83 56.2007 290.251L60.5782 301.625C60.9048 302.474 61.5542 303.158 62.3842 303.528C63.2142 303.899 64.1572 303.926 65.0068 303.602L73.0321 300.516L76.0088 302.938L76.6144 299.145L84.6032 296.088C85.0239 295.927 85.4087 295.685 85.7357 295.375C86.0627 295.065 86.3255 294.694 86.5091 294.283C86.6927 293.872 86.7935 293.428 86.8058 292.978C86.818 292.528 86.7414 292.08 86.5804 291.659L82.2029 280.292C81.8777 279.452 81.2345 278.773 80.4125 278.403C79.5905 278.033 78.6559 278.001 77.8109 278.315Z" fill="white" stroke="#263238" stroke-linecap="round" stroke-linejoin="round"/>
<path d="M78.037 286.385C78.2242 286.869 78.3136 287.385 78.2998 287.904C78.286 288.422 78.1694 288.933 77.9568 289.406L77.3585 290.755L74.1338 297.964L66.9255 294.746L65.5758 294.141C64.8615 293.823 64.2578 293.3 63.8412 292.638C63.4245 291.976 63.2138 291.206 63.2357 290.424C63.2576 289.643 63.5111 288.885 63.9641 288.248C64.4171 287.611 65.0491 287.122 65.7801 286.845C66.2625 286.657 66.7774 286.568 67.2947 286.582C67.8121 286.596 68.3215 286.712 68.7932 286.925L70.1503 287.531L70.7485 286.181C71.0658 285.466 71.5882 284.862 72.2494 284.445C72.9106 284.028 73.6808 283.816 74.4623 283.837C75.2439 283.858 76.0016 284.111 76.6393 284.564C77.277 285.016 77.766 285.647 78.0443 286.378L78.037 286.385Z" fill="#92E3A9" stroke="#263238" stroke-linecap="round" stroke-linejoin="round"/>
<path d="M289.826 165.048L269.763 158.759C268.895 158.487 267.955 158.572 267.149 158.993C266.343 159.414 265.738 160.139 265.466 161.006L261.818 172.621C261.546 173.489 261.63 174.429 262.052 175.235C262.473 176.041 263.197 176.647 264.065 176.919L272.265 179.509L273.105 183.259L275.935 180.654L284.099 183.215C284.968 183.487 285.909 183.403 286.716 182.982C287.523 182.56 288.13 181.836 288.404 180.968L292.052 169.36C292.327 168.493 292.247 167.553 291.83 166.744C291.413 165.936 290.692 165.326 289.826 165.048Z" fill="white" stroke="#263238" stroke-linecap="round" stroke-linejoin="round"/>
<path d="M284.997 171.527C284.842 172.022 284.59 172.482 284.257 172.88C283.924 173.278 283.516 173.607 283.056 173.847L281.75 174.533L274.753 178.181L271.105 171.184L270.42 169.871C269.972 168.947 269.903 167.885 270.225 166.911C270.548 165.936 271.238 165.126 272.148 164.651C273.058 164.177 274.117 164.075 275.101 164.369C276.084 164.662 276.915 165.327 277.416 166.223L278.102 167.536L279.408 166.85C280.1 166.488 280.883 166.34 281.659 166.423C282.435 166.507 283.169 166.819 283.768 167.319C284.367 167.82 284.804 168.487 285.024 169.236C285.244 169.985 285.237 170.782 285.004 171.527H284.997Z" fill="#92E3A9" stroke="#263238" stroke-linecap="round" stroke-linejoin="round"/>
<path d="M103.901 180.326H71.6896C70.2964 180.326 68.9603 180.88 67.9752 181.865C66.9901 182.85 66.4367 184.186 66.4367 185.579V204.227C66.4357 204.918 66.5709 205.601 66.8344 206.24C67.098 206.878 67.4847 207.458 67.9726 207.946C68.4605 208.435 69.0399 208.822 69.6777 209.087C70.3155 209.351 70.9992 209.487 71.6896 209.487H84.895L87.8133 214.594L90.7316 209.487H103.864C104.554 209.487 105.238 209.351 105.876 209.087C106.514 208.822 107.093 208.435 107.581 207.946C108.069 207.458 108.456 206.878 108.719 206.24C108.983 205.601 109.118 204.918 109.117 204.227V185.579C109.117 184.192 108.569 182.862 107.591 181.878C106.614 180.893 105.287 180.336 103.901 180.326Z" fill="white" stroke="#263238" stroke-linecap="round" stroke-linejoin="round"/>
<path d="M99.8076 191.999C99.8081 192.794 99.6517 193.58 99.3475 194.314C99.0432 195.047 98.5971 195.714 98.0348 196.275L96.437 197.88L87.8863 206.43L79.3284 197.88L77.7306 196.275C77.1453 195.719 76.6774 195.051 76.3542 194.311C76.031 193.571 75.8592 192.775 75.8489 191.967C75.8386 191.16 75.9899 190.359 76.2941 189.611C76.5983 188.863 77.049 188.184 77.6199 187.613C78.1907 187.042 78.87 186.592 79.6178 186.288C80.3656 185.983 81.1667 185.832 81.9739 185.842C82.7811 185.853 83.5781 186.024 84.3178 186.348C85.0576 186.671 85.7252 187.139 86.2812 187.724L87.8863 189.329L89.4841 187.724C90.3299 186.879 91.4074 186.303 92.5803 186.07C93.7531 185.837 94.9688 185.957 96.0736 186.414C97.1784 186.872 98.1228 187.646 98.7874 188.641C99.4521 189.635 99.8071 190.803 99.8076 191.999Z" fill="#92E3A9" stroke="#263238" stroke-linecap="round" stroke-linejoin="round"/>
<path d="M222.596 9.60449L201.949 5.63558C201.055 5.46438 200.13 5.65476 199.376 6.16494C198.622 6.67512 198.102 7.46343 197.929 8.35691L195.66 20.3074C195.489 21.2004 195.679 22.1247 196.19 22.8772C196.7 23.6297 197.488 24.1487 198.381 24.3201L206.851 25.9471L208.106 29.5949L210.623 26.6766L219.006 28.289C219.9 28.4602 220.825 28.2698 221.579 27.7596C222.333 27.2495 222.853 26.4611 223.026 25.5677L225.317 13.6172C225.403 13.1749 225.4 12.7201 225.31 12.2788C225.219 11.8376 225.043 11.4185 224.79 11.0457C224.537 10.6729 224.213 10.3536 223.837 10.1063C223.46 9.85901 223.038 9.68847 222.596 9.60449Z" fill="white" stroke="#263238" stroke-linecap="round" stroke-linejoin="round"/>
<path d="M218.532 16.5792C218.437 17.0936 218.241 17.584 217.956 18.0223C217.67 18.4606 217.301 18.838 216.869 19.1327L215.643 19.9644L209.113 24.393L204.685 17.8268L203.853 16.6011C203.266 15.7303 203.048 14.662 203.249 13.631C203.449 12.6001 204.051 11.691 204.922 11.1037C205.792 10.5164 206.861 10.2991 207.892 10.4996C208.923 10.7 209.832 11.3018 210.419 12.1725L211.243 13.3982L212.44 12.5665C213.086 12.128 213.848 11.891 214.629 11.8857C215.41 11.8803 216.175 12.1068 216.827 12.5364C217.48 12.966 217.99 13.5795 218.293 14.2991C218.597 15.0188 218.68 15.8123 218.532 16.5792Z" fill="#92E3A9" stroke="#263238" stroke-linecap="round" stroke-linejoin="round"/>
<path d="M122.468 18.6506H101.442C100.533 18.6525 99.6621 19.0144 99.0194 19.6571C98.3768 20.2997 98.0149 21.1708 98.0129 22.0796V34.2563C98.0149 35.1651 98.3768 36.0362 99.0194 36.6788C99.6621 37.3215 100.533 37.6834 101.442 37.6853H110.066L111.992 41.0195L113.947 37.6853H122.505C123.414 37.6853 124.287 37.324 124.93 36.681C125.573 36.0379 125.934 35.1657 125.934 34.2563V22.0504C125.93 21.5995 125.837 21.1537 125.661 20.7387C125.485 20.3236 125.228 19.9475 124.906 19.6316C124.585 19.3158 124.203 19.0666 123.785 18.8983C123.367 18.7299 122.919 18.6458 122.468 18.6506Z" fill="white" stroke="#263238" stroke-linecap="round" stroke-linejoin="round"/>
<path d="M119.783 26.2754C119.784 26.7936 119.682 27.3067 119.483 27.7851C119.283 28.2635 118.991 28.6977 118.623 29.0624L117.595 30.113L112.013 35.6943L106.432 30.113L105.389 29.0624C104.979 28.7069 104.646 28.2705 104.412 27.7806C104.178 27.2907 104.048 26.7578 104.029 26.2153C104.011 25.6727 104.104 25.1321 104.304 24.6274C104.504 24.1226 104.805 23.6644 105.19 23.2816C105.575 22.8987 106.035 22.5993 106.541 22.4022C107.047 22.2051 107.588 22.1144 108.13 22.1359C108.673 22.1574 109.205 22.2905 109.693 22.527C110.182 22.7635 110.617 23.0982 110.97 23.5103L112.013 24.5536L113.057 23.5103C113.609 22.9671 114.309 22.5981 115.069 22.4491C115.829 22.3001 116.616 22.3777 117.333 22.6722C118.049 22.9668 118.664 23.4653 119.099 24.1058C119.535 24.7464 119.773 25.5008 119.783 26.2754Z" fill="#92E3A9" stroke="#263238" stroke-linecap="round" stroke-linejoin="round"/>
<path d="M37.3411 312.424H308.015" stroke="black" stroke-miterlimit="10"/>
<path d="M229.293 289.521H113.334C108.942 289.521 105.382 293.082 105.382 297.474V325.672C105.382 330.064 108.942 333.625 113.334 333.625H229.293C233.685 333.625 237.246 330.064 237.246 325.672V297.474C237.246 293.082 233.685 289.521 229.293 289.521Z" fill="white" stroke="#263238" stroke-linecap="round" stroke-linejoin="round"/>
<path d="M153.651 307.185C153.652 308.386 153.416 309.575 152.956 310.684C152.497 311.793 151.823 312.801 150.973 313.649L148.551 316.071L135.615 329.007L122.702 316.071L120.28 313.649C118.563 311.934 117.599 309.607 117.598 307.18C117.597 304.754 118.561 302.426 120.276 300.71C121.991 298.994 124.318 298.029 126.745 298.028C129.171 298.028 131.499 298.991 133.215 300.706L135.637 303.136L138.059 300.706C139.34 299.428 140.97 298.558 142.745 298.206C144.52 297.855 146.359 298.037 148.03 298.73C149.701 299.424 151.129 300.597 152.133 302.102C153.138 303.607 153.673 305.376 153.672 307.185H153.651Z" fill="#92E3A9" stroke="#263238" stroke-linecap="round" stroke-linejoin="round"/>
<path d="M167.374 303.107C166.309 303.107 165.638 303.683 165.638 305.208V307.492H162.471V305.42C162.471 302.012 164.178 300.064 167.462 300.064C170.745 300.064 172.452 302.012 172.452 305.42C172.452 312.117 165.791 314.612 165.791 318.107C165.776 318.26 165.776 318.414 165.791 318.567H172.124V321.609H162.471V318.99C162.471 312.723 169.103 311.694 169.103 305.544C169.103 303.625 168.439 303.107 167.374 303.107Z" fill="#263238"/>
<path d="M174.254 305.42C174.254 302.012 176.049 300.064 179.361 300.064C182.673 300.064 184.468 302.012 184.468 305.42V316.495C184.468 319.902 182.673 321.85 179.361 321.85C176.049 321.85 174.254 319.902 174.254 316.495V305.42ZM177.595 316.706C177.595 318.231 178.266 318.807 179.332 318.807C180.397 318.807 181.068 318.26 181.068 316.706V305.208C181.068 303.683 180.397 303.107 179.332 303.107C178.266 303.107 177.595 303.683 177.595 305.208V316.706Z" fill="#263238"/>
<path d="M186.576 321.609V318.385H189.823V321.303L188.364 324.681H186.992L187.875 321.639L186.576 321.609Z" fill="#263238"/>
<path d="M195.251 314.729V316.706C195.251 318.231 195.915 318.778 196.98 318.778C198.046 318.778 198.717 318.231 198.717 316.706V312.022C198.717 310.505 198.046 309.921 196.98 309.921C195.915 309.921 195.251 310.505 195.251 312.022V312.664H192.085L192.69 300.312H201.496V303.355H195.66L195.39 308.462C195.687 307.96 196.117 307.55 196.631 307.276C197.146 307.002 197.726 306.875 198.308 306.908C200.774 306.908 202.022 308.644 202.022 311.781V316.524C202.022 319.931 200.315 321.879 197.031 321.879C193.748 321.879 192.041 319.931 192.041 316.524V314.758L195.251 314.729Z" fill="#263238"/>
<path d="M204.072 305.602C204.072 302.012 205.713 300.064 209.179 300.064C212.462 300.064 214.169 302.012 214.169 305.42V305.967H210.981V305.237C210.981 303.712 210.31 303.136 209.245 303.136C208.063 303.136 207.391 303.712 207.391 305.755V309.651C207.654 309.057 208.091 308.558 208.646 308.22C209.2 307.883 209.844 307.723 210.492 307.762C212.958 307.762 214.206 309.498 214.206 312.635V316.524C214.206 319.931 212.411 321.879 209.099 321.879C205.786 321.879 203.992 319.931 203.992 316.524L204.072 305.602ZM207.421 312.898V316.728C207.421 318.253 208.092 318.8 209.157 318.8C210.222 318.8 210.886 318.253 210.886 316.728V312.898C210.886 311.373 210.222 310.797 209.157 310.797C208.092 310.797 207.421 311.351 207.421 312.876V312.898Z" fill="#263238"/>
<path d="M222.786 305.544C222.786 303.625 222.122 303.107 221.056 303.107C219.991 303.107 219.32 303.683 219.32 305.208V306.587H216.154V305.42C216.154 302.012 217.861 300.064 221.144 300.064C224.427 300.064 226.134 302.012 226.134 305.42V305.967C226.134 308.25 225.405 309.68 223.792 310.344C225.47 311.074 226.134 312.657 226.134 314.817V316.487C226.134 319.894 224.434 321.842 221.144 321.842C217.854 321.842 216.154 319.894 216.154 316.487V314.722H219.32V316.699C219.32 318.224 219.991 318.8 221.056 318.8C222.122 318.8 222.786 318.282 222.786 316.4V314.722C222.786 312.745 222.122 312.015 220.597 312.015H219.473V308.973H220.779C222.027 308.973 222.786 308.425 222.786 306.718V305.544Z" fill="#263238"/>
<path d="M163.463 227.202C163.463 228.245 163.522 229.493 163.544 230.85C163.471 226.888 163.368 223.984 163.368 223.984V202.403L144.626 203.191L149.28 227.749C152.527 228.602 158.94 229.763 163.463 227.202Z" fill="white" stroke="#263238" stroke-linecap="round" stroke-linejoin="round"/>
<path d="M160.319 275.216C160.319 275.216 163.624 245.857 163.624 238.569C163.624 234.272 163.536 229.989 163.463 227.188C158.94 229.748 152.52 228.588 149.28 227.735V227.895C149.28 227.895 147.201 243.216 149.025 250.512C150.849 257.808 156.693 275.953 156.693 277.258C156.693 278.564 151.257 285.174 151.257 290.69C151.257 292.251 157.444 293.061 158.458 289.413C158.758 288.319 158.925 287.37 159.093 286.495V289.909H160.377L160.538 279.695L160.217 280.928C160.851 276.799 160.319 275.216 160.319 275.216Z" fill="#263238" stroke="#263238" stroke-linecap="round" stroke-linejoin="round"/>
<path d="M172.817 227.917C172.933 228.96 173.065 230.2 173.225 231.564C172.773 227.617 172.496 224.736 172.496 224.736L169.621 203.322L188.291 201.601L186.956 226.567C183.841 227.851 177.639 229.857 172.817 227.917Z" fill="white" stroke="#263238" stroke-linecap="round" stroke-linejoin="round"/>
<path d="M182.243 290.048C183.155 279.556 182.338 275.099 182.338 275.099C182.338 275.099 175.144 246.441 174.174 239.218C173.597 234.964 173.116 230.704 172.817 227.917C177.639 229.857 183.841 227.851 186.949 226.574V226.735C186.949 226.735 191.056 241.677 190.224 249.14C189.393 256.604 187.518 273.946 187.693 275.215C187.868 276.485 190.137 284.853 190.874 290.318C191.063 291.864 181.914 293.827 182.243 290.048Z" fill="#263238" stroke="#263238" stroke-linecap="round" stroke-linejoin="round"/>
<path d="M192.778 154.259H138.125V205.271H192.778V154.259Z" fill="#263238" stroke="#263238" stroke-linecap="round" stroke-linejoin="round"/>
<path d="M171.175 102.013H151.973V161.955H171.175V102.013Z" fill="white" stroke="#263238" stroke-linecap="round" stroke-linejoin="round"/>
<path d="M156.985 103.02L158.531 193.101L131.136 193.801L134.178 110.439L152.673 101.546L156.985 103.02Z" fill="#8F8F8F" stroke="#263238" stroke-linecap="round" stroke-linejoin="round"/>
<path d="M155.015 168.514H135.345V170.856H155.015V168.514Z" fill="#8F8F8F" stroke="#263238" stroke-linecap="round" stroke-linejoin="round"/>
<path d="M151.381 100.423C151.381 100.423 135.579 106.698 136.753 108.806C137.928 110.914 143.779 113.256 143.779 113.256C143.779 113.256 135.345 119.823 138.154 122.15C140.963 124.477 158.057 136.435 158.057 136.435L158.291 101.78C158.291 101.78 154.074 99.3069 151.381 100.423Z" fill="white" stroke="#263238" stroke-linecap="round" stroke-linejoin="round"/>
<path d="M151.382 100.423L149.47 138.127L159.582 138.405L158.765 104.253L151.382 100.423Z" fill="#92E3A9" stroke="#263238" stroke-linecap="round" stroke-linejoin="round"/>
<path d="M156.985 103.02L158.765 131.437L168.6 131.028L162.996 103.837L156.985 103.02Z" fill="#92E3A9" stroke="#263238" stroke-linecap="round" stroke-linejoin="round"/>
<path d="M169.687 93.8927L168.016 98.5839L157.634 97.9127L157.802 91.5508L169.687 93.8927Z" fill="white" stroke="#263238" stroke-linecap="round" stroke-linejoin="round"/>
<path d="M170.65 96.4684C170.65 96.4684 171.875 100.707 170.781 102.619C169.687 104.53 168.322 107.397 161.223 106.31C154.125 105.223 146.056 101.386 146.741 97.5555C147.427 93.7252 150.623 94.5642 154.453 94.5642C158.283 94.5642 170.65 96.4684 170.65 96.4684Z" fill="#92E3A9" stroke="#263238" stroke-linecap="round" stroke-linejoin="round"/>
<path d="M161.063 63.4473C161.063 63.4473 165.616 66.1905 167.33 67.8247C169.045 69.459 169.636 73.2893 170.183 74.2742C170.73 75.2592 174.268 75.3029 174.889 76.5578C175.509 77.8127 174.582 80.2057 174.582 80.2057C174.582 80.2057 176.516 87.5015 176.516 89.5881C176.516 91.6747 171.139 93.5132 169.687 93.8999C168.235 94.2866 160.742 94.075 160.742 94.075C160.742 94.075 159.611 93.5278 157.226 89.3619C154.84 85.196 155.912 75.427 156.708 70.9765C157.503 66.5261 161.063 63.4473 161.063 63.4473Z" fill="white" stroke="#263238" stroke-linecap="round" stroke-linejoin="round"/>
<path d="M174.196 82.9932C174.196 82.9932 173.408 83.7665 170.891 83.8687C169.492 83.9614 168.09 83.7576 166.776 83.2704C166.776 83.2704 170.146 86.9183 171.627 86.6411C173.108 86.3638 174.196 82.9932 174.196 82.9932Z" stroke="#263238" stroke-linecap="round" stroke-linejoin="round"/>
<path d="M165.017 77.7986C165.748 76.8001 166.825 76.1105 168.038 75.8652" stroke="#263238" stroke-linecap="round" stroke-linejoin="round"/>
<path d="M163.318 74.0117C163.318 74.0117 163.485 71.9908 166.236 71.2539" stroke="#263238" stroke-linecap="round" stroke-linejoin="round"/>
<path d="M221.735 114.051L226.112 107.485C226.112 107.485 227.513 105.092 228.111 104.887C229.529 104.483 230.741 103.558 231.504 102.297C232.503 100.503 235.29 97.92 235.692 99.9044C236.093 101.889 233.7 104.887 233.7 104.887L232.708 106.682L238.296 105.281C238.296 105.281 241.682 99.2989 242.484 100.692C243.287 102.086 242.083 107.879 241.083 110.067C240.084 112.256 236.1 115.255 234.101 116.459C232.102 117.662 223.727 119.049 223.727 119.049L221.735 114.051Z" fill="#92E3A9" stroke="#263238" stroke-linecap="round" stroke-linejoin="round"/>
<path d="M230.774 113.803L236.035 110.761C236.035 110.761 239.361 104.107 240.463 104.662C241.565 105.216 242.061 106.471 241.572 108.266" fill="#92E3A9"/>
<path d="M230.774 113.803L236.035 110.761C236.035 110.761 239.361 104.107 240.463 104.662C241.565 105.216 242.061 106.471 241.572 108.266" stroke="#263238" stroke-linecap="round" stroke-linejoin="round"/>
<path d="M179.259 104.808L186.73 106.683L206.684 120.508L222.435 112.045L228.739 121.15L210.105 136.909C209.217 137.661 208.137 138.15 206.986 138.322C205.835 138.493 204.659 138.34 203.59 137.879L190.232 132.123L187.634 129.088" fill="#8F8F8F"/>
<path d="M179.259 104.808L186.73 106.683L206.684 120.508L222.435 112.045L228.739 121.15L210.105 136.909C209.217 137.661 208.137 138.15 206.986 138.322C205.835 138.493 204.659 138.34 203.59 137.879L190.232 132.123L187.634 129.088" stroke="#263238" stroke-linecap="round" stroke-linejoin="round"/>
<path d="M168.366 103.888L170.234 192.897L198.097 191.255C198.097 191.255 188.838 109.542 187.882 107.638C186.927 105.734 168.111 101.342 168.111 101.342L168.366 103.888Z" fill="#8F8F8F" stroke="#263238" stroke-linecap="round" stroke-linejoin="round"/>
<path d="M192.953 167.807H173.517V170.149H192.953V167.807Z" fill="#8F8F8F" stroke="#263238" stroke-linecap="round" stroke-linejoin="round"/>
<path d="M168.6 136.201C168.6 136.201 182.177 118.407 182.411 116.298C182.644 114.19 178.194 110.206 178.194 110.206C178.194 110.206 182.527 107.142 182.761 105.975C182.994 104.807 168.125 101.312 168.125 101.312L168.6 136.201Z" fill="white" stroke="#263238" stroke-linecap="round" stroke-linejoin="round"/>
<path d="M136.754 108.806C136.754 108.806 130.428 110.914 129.961 113.015C129.494 115.117 125.511 158.913 126.218 159.847C126.926 160.781 151.024 165.472 151.024 165.472L152.804 145.664L139.781 143.694L138.38 134.874" fill="#8F8F8F"/>
<path d="M136.754 108.806C136.754 108.806 130.428 110.914 129.961 113.015C129.494 115.117 125.511 158.913 126.218 159.847C126.926 160.781 151.024 165.472 151.024 165.472L152.804 145.664L139.781 143.694L138.38 134.874" stroke="#263238" stroke-linecap="round" stroke-linejoin="round"/>
<path d="M139.796 143.694C139.796 143.694 134.645 142.964 129.647 150.486" stroke="#263238" stroke-linecap="round" stroke-linejoin="round"/>
<path d="M152.819 145.664L151.039 165.472C152.367 161.639 153.461 157.728 154.315 153.762C155.715 147.203 153.972 146.036 152.819 145.664Z" stroke="#263238" stroke-linecap="round" stroke-linejoin="round"/>
<path d="M158.721 149.392L168.052 137.726L176.224 141.22L165.251 154.294L158.721 149.392Z" fill="#263238" stroke="#263238" stroke-linecap="round" stroke-linejoin="round"/>
<path d="M152.651 146.59C152.651 146.59 156.62 144.723 157.32 144.256C158.021 143.789 159.655 142.862 159.655 142.862H164.558L161.056 146.59L171.788 148.458L171.058 150.793C169.98 151.203 168.96 151.753 168.023 152.427C166.856 153.361 165.462 154.995 163.828 155.462C161.99 155.875 160.092 155.954 158.225 155.696C157.495 155.462 151.922 154.295 151.922 154.295L152.651 146.59Z" fill="#92E3A9" stroke="#263238" stroke-linecap="round" stroke-linejoin="round"/>
<path d="M162.391 62.0102C162.391 62.0102 161.107 74.7559 159.589 83.1242C158.072 91.4925 162.347 97.8398 165.039 98.2848C167.731 98.7299 170.008 96.7308 170.008 96.7308C170.008 96.7308 171.408 101.976 167.615 105.325C163.821 108.674 146.814 108.871 141.554 102.305C136.294 95.7386 134.426 80.9063 139.03 73.5886C143.633 66.2709 157.641 59.9892 162.391 62.0102Z" fill="#263238" stroke="#263238" stroke-linecap="round" stroke-linejoin="round"/>
</svg>
